<?xml version="1.0" encoding="iso-8859-1"?>
<!-- Generator: Adobe Illustrator 19.0.0, SVG Export Plug-In . SVG Version: 6.00 Build 0)  -->
<svg version="1.1" id="Layer_1" xmlns="http://www.w3.org/2000/svg" xmlns:xlink="http://www.w3.org/1999/xlink" x="0px" y="0px"
	 viewBox="0 0 512.001 512.001" style="enable-background:new 0 0 512.001 512.001;" xml:space="preserve">
<path style="fill:#FFE15A;" d="M482.44,323.909l-0.005-27.164l-0.014-81.491l-0.005-27.164l-0.008-42.486
	c0-3.105-0.422-6.147-1.202-9.07c-0.42-1.572-0.948-3.107-1.576-4.597c-2.568-6.091-6.814-11.419-12.362-15.28
	c-0.812-0.565-1.642-1.11-2.509-1.611l-23.71-13.684l-4.12-2.378l0,0L418.85,88.551l-17.87-10.313l-68.336-39.437l-26.659-15.386
	L285.99,11.876L273.6,4.725c-0.682-0.394-1.375-0.764-2.076-1.107c-2.804-1.378-5.746-2.363-8.748-2.953
	C260.526,0.221,258.24,0,255.956,0c-1.523,0-3.047,0.099-4.559,0.296c-4.54,0.592-8.99,2.069-13.084,4.434l-12.307,7.108
	l-19.995,11.548l-26.659,15.398l0,0l-68.33,39.465L81.076,95.546l-6.048,3.494l0,0l-16.142,9.324l-11.697,6.756
	c-0.841,0.486-1.648,1.015-2.439,1.561c-1.961,1.358-3.738,2.92-5.357,4.615c-0.34,0.354-0.672,0.711-0.997,1.077
	c-0.231,0.262-0.461,0.524-0.685,0.794c-0.556,0.667-1.095,1.347-1.598,2.052c-1.572,2.206-2.883,4.585-3.911,7.092
	c-1.716,4.179-2.652,8.706-2.651,13.371l0.007,42.41l0.005,27.164l0.014,81.478v0.014v0.005l0.005,27.159l0.007,42.478v0.006
	c0.003,11.607,5.715,22.389,15.14,28.946c0.812,0.565,1.642,1.11,2.509,1.611l23.377,13.491l22.198,12.811l18.204,10.506
	l94.999,54.826l19.995,11.539l12.39,7.151c10.92,6.302,24.371,6.298,35.287-0.006l12.307-7.108l19.995-11.548l26.659-15.397
	l26.41-15.255l0,0l8.421-4.864l22.755-13.143l10.742-6.205l5.556-3.209l0,0l21.769-12.573l8.634-4.986l0,0l13.558-7.832l14.319-8.27
	c0.841-0.486,1.648-1.013,2.439-1.561c9.465-6.556,15.201-17.365,15.2-29.001L482.44,323.909z"/>
<g>
	<path style="fill:#41479B;" d="M58.884,108.364l-11.697,6.756c-0.841,0.486-1.648,1.015-2.439,1.561
		c-1.961,1.358-3.738,2.92-5.357,4.615c-0.34,0.354-0.672,0.711-0.997,1.077c-0.231,0.262-0.461,0.524-0.685,0.794
		c-0.556,0.667-1.095,1.347-1.598,2.052c-1.572,2.206-2.883,4.585-3.911,7.092c-1.716,4.179-2.652,8.706-2.651,13.371l0.007,42.41
		l0.005,27.164l0.014,81.478v0.014v0.005l0.005,27.159l0.007,42.478v0.006c0.003,11.607,5.715,22.389,15.14,28.946
		c0.812,0.565,1.642,1.11,2.509,1.611l23.377,13.491l22.198,12.811l18.204,10.506l94.999,54.826l19.995,11.539l12.39,7.151
		c10.92,6.302,24.371,6.298,35.287-0.006l12.307-7.108l19.995-11.548l26.659-15.397l26.41-15.255l8.421-4.864l22.755-13.143
		l10.742-6.205l5.556-3.209L75.028,99.04L58.884,108.364z"/>
	<path style="fill:#41479B;" d="M482.44,323.909l-0.005-27.164l-0.014-81.491l-0.005-27.164l-0.008-42.486
		c0-3.105-0.422-6.147-1.202-9.07c-0.42-1.572-0.948-3.107-1.576-4.597c-2.568-6.091-6.814-11.419-12.362-15.28
		c-0.812-0.565-1.642-1.11-2.509-1.611l-23.71-13.684l-4.12-2.378v313.994l13.558-7.832l14.319-8.27
		c0.841-0.486,1.648-1.013,2.439-1.561c9.465-6.556,15.201-17.365,15.2-29.001L482.44,323.909z"/>
</g>
<g>
	<path style="fill:#F5F5F5;" d="M176.485,262.287l-5.737-18.135l15.301-11.299c1.186-0.876,0.575-2.755-0.898-2.767l-19.02-0.147
		l-6.018-18.044c-0.466-1.398-2.443-1.398-2.909,0l-6.017,18.044l-19.02,0.147c-1.473,0.011-2.084,1.892-0.899,2.767l15.301,11.299
		l-5.737,18.135c-0.445,1.405,1.155,2.567,2.354,1.711l15.475-11.061l15.475,11.061
		C175.329,264.855,176.928,263.693,176.485,262.287z"/>
	<path style="fill:#F5F5F5;" d="M132.977,218.78l-5.737-18.135l15.301-11.299c1.186-0.876,0.575-2.755-0.9-2.767l-19.02-0.147
		l-6.017-18.044c-0.466-1.398-2.443-1.398-2.909,0l-6.017,18.044l-19.02,0.147c-1.473,0.011-2.084,1.892-0.899,2.767l15.301,11.299
		l-5.737,18.135c-0.445,1.405,1.155,2.567,2.354,1.711l15.475-11.061l15.475,11.061C131.822,221.347,133.422,220.185,132.977,218.78
		z"/>
	<path style="fill:#F5F5F5;" d="M89.47,175.272l-5.737-18.135l15.301-11.299c1.186-0.876,0.575-2.756-0.9-2.768l-19.02-0.147
		l-6.018-18.044c-0.466-1.398-2.443-1.398-2.909,0l-6.018,18.045l-19.02,0.147c-1.473,0.011-2.084,1.892-0.899,2.768l15.301,11.299
		l-5.737,18.135c-0.445,1.405,1.155,2.567,2.354,1.711l15.475-11.061l15.475,11.061C88.314,177.84,89.913,176.678,89.47,175.272z"/>
	<path style="fill:#F5F5F5;" d="M36.112,125.217c-0.457,0.641-0.886,1.302-1.298,1.972l8.794,6.286
		c1.198,0.857,2.798-0.305,2.354-1.71l-4.066-12.855C39.71,120.787,37.764,122.9,36.112,125.217z"/>
	<path style="fill:#F5F5F5;" d="M350.515,436.318l-5.737-18.135l15.301-11.299c1.186-0.876,0.575-2.755-0.9-2.767l-19.02-0.147
		l-6.017-18.044c-0.466-1.398-2.443-1.398-2.909,0l-6.018,18.044l-19.02,0.147c-1.473,0.011-2.084,1.892-0.9,2.767l15.301,11.299
		l-5.737,18.135c-0.445,1.405,1.155,2.567,2.354,1.711l15.475-11.061l15.475,11.061
		C349.359,438.885,350.958,437.723,350.515,436.318z"/>
	<path style="fill:#F5F5F5;" d="M307.007,392.81l-5.737-18.135l15.301-11.299c1.186-0.876,0.575-2.755-0.898-2.767l-19.02-0.147
		l-6.018-18.044c-0.466-1.398-2.443-1.398-2.909,0l-6.017,18.044l-19.02,0.147c-1.473,0.011-2.084,1.892-0.898,2.767l15.301,11.299
		l-5.737,18.135c-0.445,1.405,1.155,2.567,2.354,1.711l15.475-11.061l15.475,11.061C305.852,395.377,307.451,394.215,307.007,392.81
		z"/>
	<path style="fill:#F5F5F5;" d="M263.5,349.302l-5.737-18.135l15.301-11.299c1.186-0.876,0.575-2.756-0.898-2.767l-19.02-0.147
		l-6.018-18.044c-0.466-1.398-2.443-1.398-2.909,0l-6.018,18.044l-19.02,0.147c-1.473,0.011-2.084,1.892-0.9,2.767l15.301,11.299
		l-5.737,18.135c-0.445,1.405,1.155,2.567,2.354,1.711l15.475-11.061l15.475,11.061C262.344,351.87,263.943,350.708,263.5,349.302z"
		/>
	<path style="fill:#F5F5F5;" d="M219.992,305.795l-5.737-18.135l15.301-11.299c1.186-0.875,0.575-2.755-0.898-2.767l-19.02-0.147
		l-6.017-18.044c-0.466-1.398-2.443-1.398-2.909,0l-6.018,18.044l-19.02,0.147c-1.473,0.011-2.084,1.892-0.898,2.767l15.301,11.299
		l-5.737,18.135c-0.445,1.405,1.155,2.567,2.354,1.711l15.475-11.061l15.475,11.061C218.837,308.362,220.436,307.2,219.992,305.795z
		"/>
	<path style="fill:#F5F5F5;" d="M374.738,429.433l-6.017,18.044l-19.02,0.147c-1.473,0.011-2.084,1.892-0.9,2.767l10.253,7.57
		l23.569-13.613l-4.975-14.916C377.182,428.035,375.205,428.035,374.738,429.433z"/>
</g>
<g>
</g>
<g>
</g>
<g>
</g>
<g>
</g>
<g>
</g>
<g>
</g>
<g>
</g>
<g>
</g>
<g>
</g>
<g>
</g>
<g>
</g>
<g>
</g>
<g>
</g>
<g>
</g>
<g>
</g>
</svg>
