<?xml version="1.0" encoding="iso-8859-1"?>
<!-- Generator: Adobe Illustrator 19.0.0, SVG Export Plug-In . SVG Version: 6.00 Build 0)  -->
<svg xmlns="http://www.w3.org/2000/svg" xmlns:xlink="http://www.w3.org/1999/xlink" version="1.1" id="Layer_1" x="0px" y="0px" viewBox="0 0 512 512" style="enable-background:new 0 0 512 512;" xml:space="preserve">
<path style="fill:#F5F5F5;" d="M482.412,145.606c-0.003-12.607-6.729-24.255-17.649-30.557L331.812,38.32l-58.21-33.595  c-10.918-6.302-24.37-6.3-35.287,0.006l-58.127,33.572L47.19,115.119c-10.917,6.305-17.64,17.955-17.639,30.562l0.036,220.713  c0.003,12.607,6.729,24.255,17.649,30.557l132.951,76.729l58.21,33.596c10.92,6.302,24.37,6.298,35.287-0.006l58.128-33.573  l132.997-76.815c10.917-6.305,17.64-17.955,17.639-30.563L482.412,145.606z"/>
<path style="fill:#41479B;" d="M47.19,115.119c-10.917,6.305-17.64,17.955-17.639,30.562l0.036,220.713  c0.003,12.607,6.729,24.255,17.649,30.557l132.951,76.729V38.304L47.19,115.119z"/>
<path style="fill:#FF4B55;" d="M464.811,396.882c10.917-6.305,17.64-17.955,17.639-30.563l-0.036-220.713  c-0.003-12.607-6.729-24.255-17.649-30.557L331.814,38.32v435.377L464.811,396.882z"/>
<g>
</g>
<g>
</g>
<g>
</g>
<g>
</g>
<g>
</g>
<g>
</g>
<g>
</g>
<g>
</g>
<g>
</g>
<g>
</g>
<g>
</g>
<g>
</g>
<g>
</g>
<g>
</g>
<g>
</g>
</svg>
