<?xml version="1.0" encoding="iso-8859-1"?>
<!-- Generator: Adobe Illustrator 19.0.0, SVG Export Plug-In . SVG Version: 6.00 Build 0)  -->
<svg version="1.1" id="Layer_1" xmlns="http://www.w3.org/2000/svg" xmlns:xlink="http://www.w3.org/1999/xlink" x="0px" y="0px"
	 viewBox="0 0 512.001 512.001" style="enable-background:new 0 0 512.001 512.001;" xml:space="preserve">
<path style="fill:#FF4B55;" d="M29.589,366.395l-0.036-220.713c-0.003-12.607,6.722-24.257,17.639-30.562L238.315,4.731
	c10.917-6.306,24.368-6.307,35.287-0.006L464.763,115.05c10.92,6.302,17.646,17.95,17.649,30.557l0.036,220.713
	c0.003,12.607-6.722,24.257-17.639,30.563L273.685,507.271c-10.917,6.306-24.368,6.307-35.287,0.006L47.238,396.952
	C36.318,390.65,29.591,379.002,29.589,366.395z"/>
<path style="fill:#F5F5F5;" d="M343.061,224.343H287.66v-55.401c0-4.371-3.543-7.914-7.914-7.914h-47.487
	c-4.371,0-7.914,3.544-7.914,7.914v55.401h-55.402c-4.371,0-7.914,3.543-7.914,7.914v47.487c0,4.371,3.543,7.914,7.914,7.914h55.401
	v55.401c0,4.371,3.543,7.914,7.914,7.914h47.487c4.371,0,7.914-3.544,7.914-7.914v-55.4h55.401c4.371,0,7.914-3.544,7.914-7.914
	v-47.487C350.975,227.886,347.432,224.343,343.061,224.343z"/>
<g>
</g>
<g>
</g>
<g>
</g>
<g>
</g>
<g>
</g>
<g>
</g>
<g>
</g>
<g>
</g>
<g>
</g>
<g>
</g>
<g>
</g>
<g>
</g>
<g>
</g>
<g>
</g>
<g>
</g>
</svg>
