<?xml version="1.0" encoding="iso-8859-1"?>
<!-- Generator: Adobe Illustrator 19.0.0, SVG Export Plug-In . SVG Version: 6.00 Build 0)  -->
<svg version="1.1" id="Layer_1" xmlns="http://www.w3.org/2000/svg" xmlns:xlink="http://www.w3.org/1999/xlink" x="0px" y="0px"
	 viewBox="0 0 512 512" style="enable-background:new 0 0 512 512;" xml:space="preserve">
<g>
	<path style="fill:#41479B;" d="M47.237,396.95l191.161,110.325c10.918,6.302,24.37,6.299,35.287-0.006L464.81,396.88
		c6.668-3.851,11.759-9.701,14.721-16.54H32.476C35.436,387.211,40.544,393.088,47.237,396.95z"/>
	<path style="fill:#41479B;" d="M464.763,115.049L273.601,4.725c-10.918-6.302-24.37-6.3-35.287,0.006L47.19,115.118
		c-6.667,3.85-11.759,9.701-14.721,16.54h447.054C476.564,124.789,471.457,118.912,464.763,115.049z"/>
</g>
<path style="fill:#F5F5F5;" d="M29.589,366.394c0.001,4.879,1.02,9.61,2.888,13.946h447.054c1.888-4.359,2.918-9.115,2.917-14.022
	l-0.036-220.713c-0.001-4.879-1.02-9.609-2.888-13.946H32.469c-1.888,4.359-2.918,9.115-2.917,14.022L29.589,366.394z"/>
<path style="fill:#41479B;" d="M307.947,255.999l25.972-44.984h-51.942l-25.975-44.991l-25.975,44.991h-51.942l25.972,44.984
	l-25.972,44.984h51.942l25.975,44.991l25.975-44.991h51.942L307.947,255.999z M308.437,225.728l-8.984,15.561l-8.984-15.561H308.437
	z M290.959,255.999l-17.478,30.272h-34.964l-17.478-30.272l17.478-30.272h34.964L290.959,255.999z M256,195.448l8.988,15.567
	h-17.975L256,195.448z M203.563,225.728h17.968l-8.984,15.561L203.563,225.728z M203.563,286.271l8.984-15.561l8.984,15.561H203.563
	z M256,316.55l-8.988-15.567h17.975L256,316.55z M299.453,270.71l8.984,15.561h-17.968L299.453,270.71z"/>
<g>
</g>
<g>
</g>
<g>
</g>
<g>
</g>
<g>
</g>
<g>
</g>
<g>
</g>
<g>
</g>
<g>
</g>
<g>
</g>
<g>
</g>
<g>
</g>
<g>
</g>
<g>
</g>
<g>
</g>
</svg>
