<?xml version="1.0" encoding="iso-8859-1"?>
<!-- Generator: Adobe Illustrator 19.0.0, SVG Export Plug-In . SVG Version: 6.00 Build 0)  -->
<svg version="1.1" id="Layer_1" xmlns="http://www.w3.org/2000/svg" xmlns:xlink="http://www.w3.org/1999/xlink" x="0px" y="0px"
	 viewBox="0 0 512 512" style="enable-background:new 0 0 512 512;" xml:space="preserve">
<path style="fill:#F5F5F5;" d="M482.43,256l-0.019-110.395c-0.003-12.607-6.729-24.255-17.649-30.557L273.6,4.725
	c-10.92-6.302-24.37-6.3-35.287,0.006L47.189,115.118c-10.917,6.305-17.64,17.955-17.638,30.562l0.019,110.319l0.019,110.395
	c0.003,12.607,6.729,24.255,17.649,30.557l191.161,110.325c10.918,6.301,24.37,6.299,35.287-0.006l191.125-110.39
	c10.917-6.305,17.64-17.955,17.639-30.563L482.43,256z"/>
<path style="fill:#FF4B55;" d="M47.236,396.951l191.161,110.325c10.918,6.301,24.37,6.299,35.287-0.006l191.125-110.389
	c10.917-6.305,17.64-17.955,17.639-30.563L482.43,256H29.568l0.019,110.395C29.59,379.001,36.317,390.649,47.236,396.951z"/>
<g>
</g>
<g>
</g>
<g>
</g>
<g>
</g>
<g>
</g>
<g>
</g>
<g>
</g>
<g>
</g>
<g>
</g>
<g>
</g>
<g>
</g>
<g>
</g>
<g>
</g>
<g>
</g>
<g>
</g>
</svg>
