<?xml version="1.0" encoding="iso-8859-1"?>
<!-- Generator: Adobe Illustrator 19.0.0, SVG Export Plug-In . SVG Version: 6.00 Build 0)  -->
<svg xmlns="http://www.w3.org/2000/svg" xmlns:xlink="http://www.w3.org/1999/xlink" version="1.1" id="Layer_1" x="0px" y="0px" viewBox="0 0 512.002 512.002" style="enable-background:new 0 0 512.002 512.002;" xml:space="preserve">
<path style="fill:#F5F5F5;" d="M482.446,342.435l-0.029-172.869l-0.004-23.96c-0.003-12.607-6.729-24.255-17.649-30.557  L273.602,4.725c-10.918-6.302-24.37-6.3-35.287,0.006L47.19,115.118c-10.917,6.306-17.64,17.955-17.638,30.562l0.004,23.885  l0.029,172.869l0.004,23.96c0.003,12.607,6.729,24.255,17.649,30.557l191.161,110.325c10.918,6.302,24.37,6.299,35.287-0.006  l191.125-110.39c10.917-6.306,17.64-17.955,17.639-30.562L482.446,342.435z"/>
<path style="fill:#FF4B55;" d="M482.413,145.606c-0.003-12.607-6.729-24.255-17.649-30.557L273.602,4.725  c-10.918-6.302-24.37-6.3-35.287,0.006L47.19,115.118c-10.917,6.306-17.64,17.955-17.638,30.562l0.004,23.885h452.861  L482.413,145.606z"/>
<path style="fill:#73AF00;" d="M29.589,366.395c0.003,12.607,6.729,24.255,17.649,30.557l191.161,110.325  c10.918,6.302,24.37,6.299,35.287-0.006l191.125-110.39c10.917-6.306,17.64-17.955,17.639-30.562l-0.004-23.885H29.585  L29.589,366.395z"/>
<g>
</g>
<g>
</g>
<g>
</g>
<g>
</g>
<g>
</g>
<g>
</g>
<g>
</g>
<g>
</g>
<g>
</g>
<g>
</g>
<g>
</g>
<g>
</g>
<g>
</g>
<g>
</g>
<g>
</g>
</svg>
