<?xml version="1.0" encoding="utf-8"?>
<!-- Generator: Adobe Illustrator 21.1.0, SVG Export Plug-In . SVG Version: 6.00 Build 0)  -->
<svg version="1.1" id="Layer_1" xmlns="http://www.w3.org/2000/svg" xmlns:xlink="http://www.w3.org/1999/xlink" x="0px" y="0px"
	 viewBox="0 0 512 512" style="enable-background:new 0 0 512 512;" xml:space="preserve">
<style type="text/css">
	.st0{fill:#429CD9;}
	.st1{fill:#FFFFFF;}
</style>
<path class="st0" d="M482.5,366.3v-42.4v-27.2v-81.5v-27.2v-42.5c0-3.1-0.4-6.1-1.2-9.1c-0.4-1.5-0.9-3.1-1.5-4.6
	c-2.6-6.1-6.8-11.5-12.4-15.3c-0.8-0.6-1.5-1.2-2.4-1.5l-23.7-13.6l-22.1-12.7l-17.9-10.2L332.9,39l0,0l-26.6-15.4l-20-11.5L274,4.9
	c-10.9-6.3-24.5-6.3-35.3,0L226.3,12l-20,11.5l-26.6,15.4l0,0l-68.4,39.7L81.5,95.8l-22.1,12.7l-11.7,6.8c-0.8,0.5-1.5,1-2.4,1.5
	c-3.3,2.3-6.3,5.3-8.6,8.5c-1.5,2.2-3,4.6-3.9,7.1c-1.7,4.2-2.7,8.8-2.7,13.4v42.4v27.2v81.5l0,0l0,0v27.2v42.5l0,0
	c0,11.6,5.7,22.4,15.1,29c0.8,0.6,1.5,1.2,2.4,1.5l23,13.4l22.1,12.7l18.2,10.6l95,54.8l20,11.5l12.4,7.2c10.9,6.3,24.5,6.3,35.3,0
	l12.4-7.1l20-11.5l26.6-15.4l0,0l57.7-33.3l10.7-6.2l27.3-15.8l22.1-12.7l14.3-8.2c0.8-0.5,1.5-1,2.4-1.5
	C476.7,388.8,482.5,378,482.5,366.3L482.5,366.3L482.5,366.3z"/>
<g>
	<path class="st1" d="M179.6,386.4l-31.3-258.6h164.5l-23.4,192.5l94.5-4.2l-29.7,70.4L179.6,386.4L179.6,386.4z"/>
</g>
</svg>
