<?xml version="1.0" encoding="iso-8859-1"?>
<!-- Generator: Adobe Illustrator 19.0.0, SVG Export Plug-In . SVG Version: 6.00 Build 0)  -->
<svg version="1.1" id="Layer_1" xmlns="http://www.w3.org/2000/svg" xmlns:xlink="http://www.w3.org/1999/xlink" x="0px" y="0px"
	 viewBox="0 0 512 512" style="enable-background:new 0 0 512 512;" xml:space="preserve">
<path style="fill:#FF4B55;" d="M482.435,296.744l-0.014-81.491l-0.005-27.164l-0.008-42.485
	c-0.003-11.607-5.715-22.388-15.14-28.946c-0.812-0.565-1.642-1.11-2.509-1.611l-23.711-13.684l-22.198-12.81L400.98,78.24
	l-94.999-54.826l-19.995-11.539l-12.39-7.151c-10.918-6.301-24.37-6.298-35.287,0.006l-12.307,7.108L206.01,23.386l-94.987,54.861
	L81.076,95.544l-22.191,12.818l-11.697,6.756c-0.841,0.486-1.648,1.015-2.439,1.561c-9.465,6.556-15.202,17.365-15.2,29.001
	l0.007,42.41l0.005,27.164l0.014,81.491l0.005,27.164l0.007,42.486c0.003,11.607,5.715,22.388,15.14,28.946
	c0.812,0.565,1.642,1.11,2.509,1.611l23.377,13.491l22.198,12.811l18.204,10.506l94.999,54.826l19.995,11.539l12.39,7.151
	c10.92,6.302,24.37,6.298,35.287-0.006l12.307-7.108l19.995-11.548l94.989-54.863l27.325-15.782l22.191-12.818l14.319-8.27
	c0.841-0.486,1.648-1.015,2.439-1.562c9.465-6.556,15.201-17.365,15.2-29.001l-0.008-42.41L482.435,296.744z"/>
<g>
	<path style="fill:#FFE15A;" d="M361.743,285.813c0,0-19.916-3.32-34.669-15.555c-4.353-3.609-10.668-6.367-16.82-8.405
		c4.946-0.22,10.191-0.081,15.148,0.921c20.534,4.151,40.445-5.816,40.445-5.816s-20.089,2.027-37.537-5.903
		c-4.719-2.144-10.84-3.155-16.813-3.582c4.296-1.236,8.856-2.203,13.358-2.452c20.918-1.16,37.672-15.824,37.672-15.824
		s-18.929,7.026-37.812,3.75c-5.5-0.955-12.25-0.24-18.532,1.022c4.133-2.596,8.683-5.021,13.404-6.584
		c19.89-6.581,32.234-25.112,32.234-25.112s-16.438,11.724-35.522,13.493c-5.667,0.525-12.122,3.069-17.945,5.998
		c3.36-3.684,7.196-7.33,11.443-10.15c17.455-11.584,24.487-32.711,24.487-32.711s-12.771,15.638-30.718,22.368
		c-4.892,1.835-9.962,5.508-14.516,9.469c2.177-3.956,4.735-7.917,7.774-11.314c13.962-15.618,15.427-37.836,15.427-37.836
		s-8.406,18.357-24.07,29.403c-4.566,3.219-8.834,8.508-12.383,13.85c1.085-4.764,2.583-9.704,4.817-14.155
		c9.399-18.724,5.01-40.553,5.01-40.553s-3.32,19.916-15.555,34.669c-3.609,4.353-6.367,10.668-8.405,16.822
		c-0.22-4.946-0.081-10.191,0.921-15.148c4.151-20.534-5.816-40.445-5.816-40.445s2.027,20.09-5.905,37.537
		c-2.144,4.719-3.155,10.84-3.582,16.813c-1.236-4.296-2.203-8.856-2.452-13.358c-1.16-20.918-15.824-37.672-15.824-37.672
		s7.026,18.929,3.75,37.812c-0.955,5.5-0.24,12.25,1.022,18.534c-2.596-4.133-5.021-8.683-6.583-13.405
		c-6.581-19.89-25.112-32.234-25.112-32.234s11.724,16.438,13.493,35.522c0.525,5.667,3.069,12.123,6,17.946
		c-3.684-3.36-7.33-7.196-10.15-11.444c-11.584-17.455-32.711-24.486-32.711-24.486s15.638,12.772,22.368,30.718
		c1.835,4.892,5.508,9.964,9.467,14.516c-3.956-2.177-7.915-4.735-11.314-7.774c-15.618-13.962-37.836-15.427-37.836-15.427
		s18.357,8.406,29.403,24.07c3.219,4.565,8.506,8.834,13.847,12.383c-4.762-1.085-9.702-2.583-14.152-4.817
		c-18.724-9.399-40.553-5.01-40.553-5.01s19.916,3.32,34.668,15.555c4.353,3.609,10.668,6.367,16.822,8.405
		c-4.946,0.22-10.191,0.081-15.148-0.921c-20.534-4.151-40.445,5.816-40.445,5.816s20.09-2.027,37.537,5.905
		c4.719,2.144,10.84,3.155,16.813,3.582c-4.296,1.236-8.856,2.203-13.358,2.452c-20.918,1.16-37.672,15.824-37.672,15.824
		s18.929-7.026,37.812-3.75c5.5,0.955,12.25,0.24,18.534-1.022c-4.133,2.596-8.683,5.021-13.405,6.583
		c-19.89,6.581-32.234,25.112-32.234,25.112s16.438-11.724,35.522-13.493c5.667-0.525,12.123-3.069,17.946-6
		c-3.36,3.684-7.196,7.33-11.444,10.15c-17.455,11.584-24.487,32.711-24.487,32.711s12.772-15.638,30.718-22.368
		c4.891-1.835,9.962-5.509,14.515-9.467c-2.176,3.956-4.735,7.915-7.773,11.313c-13.962,15.618-15.427,37.837-15.427,37.837
		s8.406-18.357,24.07-29.403c4.566-3.22,8.834-8.508,12.383-13.849c-1.085,4.764-2.583,9.702-4.817,14.154
		c-9.399,18.724-5.01,40.553-5.01,40.553s3.32-19.916,15.555-34.669c3.609-4.353,6.367-10.668,8.405-16.822
		c0.22,4.947,0.081,10.192-0.921,15.15c-4.151,20.534,5.816,40.444,5.816,40.444s-2.027-20.088,5.905-37.536
		c2.144-4.719,3.155-10.841,3.582-16.813c1.236,4.296,2.203,8.856,2.452,13.358c1.16,20.918,15.824,37.672,15.824,37.672
		s-7.026-18.93-3.75-37.812c0.955-5.5,0.24-12.25-1.022-18.532c2.596,4.133,5.021,8.681,6.583,13.404
		c6.581,19.89,25.112,32.234,25.112,32.234s-11.724-16.438-13.493-35.523c-0.525-5.667-3.069-12.123-6-17.946
		c3.684,3.36,7.331,7.196,10.15,11.444c11.584,17.455,32.711,24.487,32.711,24.487s-15.638-12.772-22.368-30.718
		c-1.835-4.891-5.509-9.962-9.467-14.515c3.956,2.176,7.914,4.735,11.313,7.773c15.618,13.962,37.836,15.427,37.836,15.427
		s-18.357-8.406-29.403-24.07c-3.22-4.566-8.508-8.834-13.85-12.383c4.764,1.085,9.702,2.583,14.154,4.817
		C339.914,290.203,361.743,285.813,361.743,285.813z M255.975,306.761c-28.032,0-50.757-22.725-50.757-50.757
		s22.725-50.757,50.757-50.757s50.757,22.725,50.757,50.757S284.008,306.761,255.975,306.761z"/>
	<path style="fill:#FFE15A;" d="M239.882,235.462c1.082-0.845,2.159-1.693,3.255-2.447c-7.192-3.27-13.665-4.841-18.206-5.545
		c-0.722,0.786-1.375,1.63-2.037,2.469C227.351,230.805,233.343,232.458,239.882,235.462z"/>
	<path style="fill:#FFE15A;" d="M227.113,225.23c4.88,0.551,11.943,2.004,19.782,5.376c1.313-0.784,2.621-1.477,3.93-2.146
		c-8.463-3.474-16.103-4.769-21.362-5.169C228.673,223.931,227.854,224.535,227.113,225.23z"/>
	<path style="fill:#FFE15A;" d="M252.526,248.757c-1.012-0.956-2.037-1.861-3.072-2.716c-9.502,9.044-17.816,22.233-21.569,41.372
		c1.365,1.221,2.719,2.456,4.234,3.494C234.876,271.442,242.957,258.008,252.526,248.757z"/>
	<path style="fill:#FFE15A;" d="M248.839,240.351c1.077-0.866,2.153-1.736,3.244-2.509c-1.33-0.849-2.654-1.593-3.975-2.319
		c-1.131,0.775-2.264,1.525-3.382,2.396C246.095,238.67,247.465,239.47,248.839,240.351z"/>
	<path style="fill:#FFE15A;" d="M275.1,237.9c8.148,7.157,15.595,17.233,20.893,31.204c1.36-4.149,2.279-8.498,2.279-13.1
		c0-8.739-2.656-16.855-7.196-23.596C286.875,233.244,281.234,234.876,275.1,237.9z"/>
	<path style="fill:#FFE15A;" d="M252.831,243.069c1.061,0.789,2.101,1.678,3.144,2.554c1.043-0.876,2.083-1.766,3.144-2.554
		c-1.045-0.87-2.086-1.725-3.144-2.507C254.916,241.344,253.875,242.2,252.831,243.069z"/>
	<path style="fill:#FFE15A;" d="M255.975,230.821c-1.328,0.674-2.658,1.433-3.994,2.224c1.33,0.699,2.657,1.448,3.994,2.269
		c1.337-0.82,2.666-1.57,3.994-2.269C258.633,232.254,257.303,231.494,255.975,230.821z"/>
	<path style="fill:#FFE15A;" d="M223.274,282.529c4.475-18.272,12.909-30.792,22.349-39.403c-1.32-0.932-2.634-1.787-3.953-2.579
		c-9.083,7.988-17.304,19.53-22.368,36.16C220.469,278.77,221.789,280.701,223.274,282.529z"/>
	<path style="fill:#FFE15A;" d="M236.85,237.9c-6.135-3.024-11.776-4.655-15.978-5.492c-4.54,6.741-7.196,14.857-7.196,23.596
		c0,4.602,0.92,8.951,2.279,13.1C221.255,255.132,228.702,245.056,236.85,237.9z"/>
	<path style="fill:#FFE15A;" d="M255.975,226.075c8.999-3.718,17.3-5.039,23.204-5.387c-6.667-4.389-14.625-6.982-23.204-6.982
		s-16.537,2.593-23.204,6.982C238.674,221.036,246.976,222.356,255.975,226.075z"/>
	<path style="fill:#FFE15A;" d="M255.975,252.335c-8.436,9.349-15.398,22.771-17.658,41.995c5.389,2.489,11.333,3.973,17.658,3.973
		c6.326,0,12.269-1.483,17.658-3.973C271.374,275.106,264.412,261.684,255.975,252.335z"/>
	<path style="fill:#FFE15A;" d="M270.28,240.547c-1.317,0.792-2.632,1.646-3.953,2.579c9.439,8.61,17.874,21.13,22.349,39.403
		c1.485-1.828,2.804-3.759,3.971-5.821C287.585,260.078,279.363,248.535,270.28,240.547z"/>
	<path style="fill:#FFE15A;" d="M284.066,287.413c-3.753-19.139-12.067-32.327-21.569-41.372c-1.035,0.855-2.059,1.76-3.072,2.716
		c9.569,9.251,17.65,22.686,20.407,42.15C281.347,289.868,282.701,288.634,284.066,287.413z"/>
	<path style="fill:#FFE15A;" d="M261.125,228.46c1.31,0.67,2.617,1.363,3.93,2.146c7.838-3.372,14.902-4.825,19.782-5.376
		c-0.741-0.695-1.561-1.298-2.351-1.939C277.229,223.69,269.587,224.985,261.125,228.46z"/>
	<path style="fill:#FFE15A;" d="M263.11,240.351c1.376-0.88,2.744-1.681,4.113-2.434c-1.117-0.871-2.252-1.621-3.382-2.396
		c-1.321,0.727-2.646,1.471-3.975,2.319C260.957,238.614,262.033,239.485,263.11,240.351z"/>
	<path style="fill:#FFE15A;" d="M272.068,235.462c6.538-3.004,12.53-4.657,16.988-5.522c-0.662-0.839-1.313-1.683-2.037-2.469
		c-4.541,0.704-11.014,2.273-18.206,5.545C269.908,233.769,270.987,234.617,272.068,235.462z"/>
</g>
<g>
</g>
<g>
</g>
<g>
</g>
<g>
</g>
<g>
</g>
<g>
</g>
<g>
</g>
<g>
</g>
<g>
</g>
<g>
</g>
<g>
</g>
<g>
</g>
<g>
</g>
<g>
</g>
<g>
</g>
</svg>
