<?xml version="1.0" encoding="iso-8859-1"?>
<!-- Generator: Adobe Illustrator 19.0.0, SVG Export Plug-In . SVG Version: 6.00 Build 0)  -->
<svg version="1.1" id="Layer_1" xmlns="http://www.w3.org/2000/svg" xmlns:xlink="http://www.w3.org/1999/xlink" x="0px" y="0px"
	 viewBox="0 0 512 512" style="enable-background:new 0 0 512 512;" xml:space="preserve">
<path style="fill:#F5F5F5;" d="M482.43,256l-0.019-110.395c-0.003-12.607-6.729-24.255-17.649-30.557L273.601,4.725
	c-10.92-6.302-24.37-6.3-35.287,0.006L101.927,83.505l-54.738,31.614c-10.917,6.305-17.64,17.955-17.638,30.562l0.036,220.713
	c0.003,12.606,6.73,24.254,17.65,30.556l54.679,31.558l136.483,78.768c10.918,6.301,24.37,6.299,35.287-0.006L464.81,396.881
	c10.917-6.305,17.64-17.955,17.639-30.563L482.43,256z"/>
<path style="fill:#FF4B55;" d="M101.915,428.508l136.483,78.768c10.918,6.301,24.37,6.299,35.287-0.006L464.81,396.881
	c10.917-6.305,17.64-17.955,17.639-30.563L482.43,256l-112.712-17.495L256,256L101.915,428.508z"/>
<path style="fill:#41479B;" d="M482.43,256l-0.019-110.395c-0.003-12.607-6.729-24.255-17.649-30.557L273.601,4.725
	c-10.92-6.302-24.37-6.3-35.287,0.006L101.927,83.505L256.001,256H482.43L482.43,256z"/>
<g>
	<circle style="fill:#FFE15A;" cx="111.49" cy="256.07" r="26.863"/>
	<polygon style="fill:#FFE15A;" points="111.488,256.072 101.414,215.777 111.488,202.346 121.561,215.777 	"/>
	<polygon style="fill:#FFE15A;" points="111.488,256.072 121.561,296.366 111.488,309.798 101.414,296.366 	"/>
	<polygon style="fill:#FFE15A;" points="111.488,256.072 71.194,266.146 57.761,256.072 71.194,245.999 	"/>
	<polygon style="fill:#FFE15A;" points="111.488,256.072 151.782,245.999 165.213,256.072 151.782,266.146 	"/>
	<polygon style="fill:#FFE15A;" points="111.488,256.072 132.857,220.457 149.477,218.083 147.103,234.703 	"/>
	<polygon style="fill:#FFE15A;" points="111.488,256.072 90.119,291.688 73.498,294.062 75.873,277.441 	"/>
	<polygon style="fill:#FFE15A;" points="111.488,256.072 75.873,234.703 73.498,218.083 90.119,220.457 	"/>
	<polygon style="fill:#FFE15A;" points="111.488,256.072 147.103,277.441 149.477,294.062 132.857,291.688 	"/>
	<path style="fill:#FFE15A;" d="M57.766,139.682l1.401,10.45l-9.434,4.709c-1.221,0.61-0.963,2.423,0.379,2.668l10.371,1.897
		l1.562,10.427c0.202,1.35,2.007,1.666,2.656,0.465l5.009-9.277l10.4,1.736c1.346,0.225,2.204-1.393,1.262-2.382l-7.276-7.63
		l4.865-9.354c0.63-1.211-0.645-2.527-1.874-1.937l-9.505,4.561l-7.393-7.517C59.23,137.523,57.585,138.328,57.766,139.682z"/>
	<path style="fill:#FFE15A;" d="M61.926,343.062l-1.77,10.393l-10.407,1.691c-1.347,0.219-1.641,2.027-0.432,2.661l9.339,4.895
		l-1.608,10.42c-0.209,1.35,1.421,2.187,2.397,1.233l7.54-7.369l9.412,4.749c1.218,0.615,2.518-0.675,1.913-1.898l-4.677-9.449
		l7.425-7.484c0.961-0.97,0.136-2.604-1.215-2.407l-10.432,1.53l-4.824-9.375C63.966,341.436,62.155,341.716,61.926,343.062z"/>
	<path style="fill:#FFE15A;" d="M205.282,240.674l-6.067,8.623l-10.122-2.949c-1.311-0.382-2.353,1.125-1.535,2.216l6.325,8.435
		l-5.933,8.715c-0.769,1.128,0.342,2.586,1.633,2.143l9.977-3.409l6.456,8.336c0.836,1.08,2.564,0.474,2.543-0.891l-0.159-10.542
		l9.922-3.563c1.285-0.461,1.243-2.292-0.061-2.694l-10.075-3.107l-0.322-10.538C207.823,240.084,206.068,239.558,205.282,240.674z"
		/>
</g>
<g>
</g>
<g>
</g>
<g>
</g>
<g>
</g>
<g>
</g>
<g>
</g>
<g>
</g>
<g>
</g>
<g>
</g>
<g>
</g>
<g>
</g>
<g>
</g>
<g>
</g>
<g>
</g>
<g>
</g>
</svg>
