<?xml version="1.0" encoding="iso-8859-1"?>
<!-- Generator: Adobe Illustrator 19.0.0, SVG Export Plug-In . SVG Version: 6.00 Build 0)  -->
<svg version="1.1" id="Layer_1" xmlns="http://www.w3.org/2000/svg" xmlns:xlink="http://www.w3.org/1999/xlink" x="0px" y="0px"
	 viewBox="0 0 512 512" style="enable-background:new 0 0 512 512;" xml:space="preserve">
<path style="fill:#F5F5F5;" d="M482.411,145.606c-0.003-12.607-6.729-24.255-17.649-30.557L273.601,4.725
	c-10.919-6.302-24.371-6.3-35.287,0.006L47.19,115.118c-10.917,6.306-17.64,17.955-17.639,30.562l0.036,220.713
	C29.59,379,36.316,390.648,47.236,396.95l191.161,110.325c10.919,6.302,24.371,6.299,35.286-0.006l191.125-110.388
	c10.917-6.306,17.64-17.955,17.639-30.562L482.411,145.606z"/>
<g>
	<path style="fill:#41479B;" d="M29.579,305.985l0.01,60.408c0.003,12.607,6.729,24.255,17.649,30.557l106.248,61.319V305.987
		H29.579V305.985z"/>
	<path style="fill:#41479B;" d="M153.486,53.725L47.19,115.118c-10.917,6.306-17.64,17.955-17.639,30.562l0.01,60.332h123.923
		V53.725H153.486z"/>
	<path style="fill:#41479B;" d="M482.421,206.013l-0.01-60.408c-0.003-12.607-6.729-24.255-17.649-30.557L273.601,4.725
		c-10.919-6.302-24.371-6.3-35.287,0.006l-5.972,3.449v197.834h250.079L482.421,206.013L482.421,206.013z"/>
	<path style="fill:#41479B;" d="M232.343,503.78l6.056,3.495c10.919,6.302,24.371,6.299,35.287-0.006L464.81,396.88
		c10.917-6.306,17.64-17.955,17.639-30.562l-0.01-60.332H232.343V503.78z"/>
</g>
<polygon style="fill:#FF4B55;" points="216.571,17.289 169.256,44.616 169.256,226.007 29.565,226.007 29.576,285.991
	169.256,285.991 169.256,467.371 216.571,494.677 216.571,285.991 482.435,285.991 482.425,226.007 216.571,226.007 "/>
<g>
</g>
<g>
</g>
<g>
</g>
<g>
</g>
<g>
</g>
<g>
</g>
<g>
</g>
<g>
</g>
<g>
</g>
<g>
</g>
<g>
</g>
<g>
</g>
<g>
</g>
<g>
</g>
<g>
</g>
</svg>
