<?xml version="1.0" encoding="iso-8859-1"?>
<!-- Generator: Adobe Illustrator 19.0.0, SVG Export Plug-In . SVG Version: 6.00 Build 0)  -->
<svg xmlns="http://www.w3.org/2000/svg" xmlns:xlink="http://www.w3.org/1999/xlink" version="1.1" id="Layer_1" x="0px" y="0px" viewBox="0 0 512.001 512.001" style="enable-background:new 0 0 512.001 512.001;" xml:space="preserve">
<path style="fill:#FF4B55;" d="M29.589,366.395l-0.036-220.713c-0.003-12.607,6.722-24.257,17.639-30.562L238.315,4.731  c10.917-6.306,24.368-6.307,35.287-0.006L464.763,115.05c10.918,6.302,17.646,17.95,17.649,30.557l0.036,220.713  c0.003,12.607-6.722,24.257-17.639,30.563L273.685,507.271c-10.917,6.306-24.368,6.307-35.287,0.006L47.238,396.952  C36.318,390.65,29.591,379.002,29.589,366.395z"/>
<g>
	<path style="fill:#F5F5F5;" d="M243.879,230.326l11.746,15.365l18.34-6.138c1.026-0.344,1.898,0.816,1.283,1.706l-10.983,15.918   l11.506,15.544c0.644,0.869-0.19,2.057-1.226,1.748l-18.534-5.527l-11.228,15.746c-0.629,0.881-2.016,0.455-2.042-0.626   l-0.471-19.333l-18.445-5.813c-1.031-0.325-1.056-1.776-0.035-2.136l18.243-6.422l-0.171-19.338   C241.85,229.938,243.223,229.467,243.879,230.326z"/>
	<path style="fill:#F5F5F5;" d="M178.929,315.98c-33.1,0-59.95-26.85-59.95-59.98c0-33.068,26.85-59.979,59.95-59.979   c12.315,0,23.672,3.788,33.136,10.198c1.45,0.982,3.103-0.922,1.889-2.184c-14.145-14.706-34.164-23.677-56.36-22.92   c-38.135,1.301-69.703,31.876-72.14,69.955c-2.79,43.616,31.745,79.862,74.743,79.862c21.18,0,40.216-8.855,53.81-23.012   c1.201-1.251-0.457-3.127-1.892-2.153C202.64,312.188,191.266,315.98,178.929,315.98z"/>
</g>
<g>
</g>
<g>
</g>
<g>
</g>
<g>
</g>
<g>
</g>
<g>
</g>
<g>
</g>
<g>
</g>
<g>
</g>
<g>
</g>
<g>
</g>
<g>
</g>
<g>
</g>
<g>
</g>
<g>
</g>
</svg>
