<svg id="svg7284" xmlns="http://www.w3.org/2000/svg" xmlns:xlink="http://www.w3.org/1999/xlink" viewBox="0 0 511 511.95"><defs><style>.cls-1,.cls-6{fill:none;}.cls-2{clip-path:url(#clip-path);}.cls-3{fill:#007000;}.cls-4{fill:#0070ff;}.cls-5{fill:#fff;}.cls-6,.cls-8,.cls-9{stroke:gold;}.cls-6{stroke-width:10px;}.cls-7{fill:gold;}.cls-8{stroke-width:2px;}.cls-9{stroke-width:4px;}</style><clipPath id="clip-path"><path class="cls-1" d="M482.4,323.42V168.82L256,133,29.6,168.83v127.4h0v45.9L251,378l231.4-35.79Zm0,18.81H29.6v23.7h0a35.15,35.15,0,0,0,15.1,28.9,21.28,21.28,0,0,0,2.5,1.6l23.4,13.5,22.2,12.8,18.2,10.5L206,488l20,11.5,12.4,7.21a35.38,35.38,0,0,0,35.3,0l12.3-7.1,20-11.5,26.7-15.4,57.6-33.3,10.7-6.2,27.3-15.8,22.2-12.8,14.3-8.3c.8-.5,1.6-1,2.4-1.6a35.3,35.3,0,0,0,15.2-29Zm0-197.1a35,35,0,0,0-1.2-9.11,25.06,25.06,0,0,0-1.6-4.6,35.49,35.49,0,0,0-12.4-15.3,21.28,21.28,0,0,0-2.5-1.6L441,100.82,418.8,88,401,77.72l-68.3-39.4L306,22.93l-20-11.5L273.6,4.22a35.38,35.38,0,0,0-35.3,0L226,11.32,206,22.83l-26.7,15.4h0L111,77.83,81.1,95.13l-22.2,12.8-11.7,6.8c-.8.5-1.6,1-2.4,1.6a34.74,34.74,0,0,0-8.6,8.5,32.76,32.76,0,0,0-3.9,7.1,35.61,35.61,0,0,0-2.7,13.4V169H482.5Z"/></clipPath></defs><title>Монтажная область 1</title><g class="cls-2"><path id="path6690" class="cls-3" d="M-131.5,255.52h777v259h-777Z"/><path id="path6686" class="cls-4" d="M-131.5-3.48h777v259h-777Z"/><path id="path6688" class="cls-5" d="M-131.5,169.22h777v172.7h-777Z"/><circle id="circle6692" class="cls-6" cx="257" cy="255.52" r="64.8"/><circle id="circle6694" class="cls-7" cx="257" cy="255.52" r="13.8"/><g id="use6696"><path id="path7870" class="cls-8" d="M257,255.52h43.2"/><circle id="circle7872" class="cls-7" cx="300.2" cy="255.52" r="8.6"/></g><g id="use6698"><path id="path7876" class="cls-8" d="M257,255.53l37.41-21.6"/><circle id="circle7878" class="cls-7" cx="294.41" cy="233.93" r="8.6"/></g><g id="use6700"><path id="path7882" class="cls-8" d="M257,255.53l21.6-37.42"/><circle id="circle7884" class="cls-7" cx="278.6" cy="218.11" r="8.6"/></g><g id="use6702"><path id="path7888" class="cls-8" d="M257,255.52v-43.2"/><circle id="circle7890" class="cls-7" cx="257" cy="212.32" r="8.6"/></g><g id="use6704"><path id="path7894" class="cls-8" d="M257,255.52l-21.6-37.41"/><circle id="circle7896" class="cls-7" cx="235.4" cy="218.11" r="8.6"/></g><g id="use6706"><path id="path7900" class="cls-8" d="M257,255.53l-37.41-21.6"/><circle id="circle7902" class="cls-7" cx="219.59" cy="233.93" r="8.6"/></g><g id="use6708"><path id="path7906" class="cls-8" d="M257,255.52H213.8"/><circle id="circle7908" class="cls-7" cx="213.8" cy="255.52" r="8.6"/></g><path id="path6710" class="cls-9" d="M257,255.52v43.21"/></g></svg>
