<?xml version="1.0" encoding="iso-8859-1"?>
<!-- Generator: Adobe Illustrator 19.0.0, SVG Export Plug-In . SVG Version: 6.00 Build 0)  -->
<svg version="1.1" id="Layer_1" xmlns="http://www.w3.org/2000/svg" xmlns:xlink="http://www.w3.org/1999/xlink" x="0px" y="0px"
	 viewBox="0 0 512.001 512.001" style="enable-background:new 0 0 512.001 512.001;" xml:space="preserve">
<path style="fill:#F5F5F5;" d="M482.446,342.019l-0.029-172.037l-0.004-24.376c-0.003-12.607-6.729-24.255-17.649-30.557
	L273.603,4.725c-10.918-6.302-24.37-6.3-35.287,0.006L47.191,115.118c-10.917,6.305-17.64,17.955-17.639,30.562l0.004,24.301
	l0.029,172.037l0.004,24.376c0.002,12.606,6.729,24.254,17.648,30.556l191.161,110.325c10.92,6.302,24.37,6.298,35.287-0.006
	L464.81,396.88c10.917-6.305,17.64-17.955,17.639-30.563L482.446,342.019z"/>
<path style="fill:#FAB446;" d="M482.413,145.605c-0.003-12.607-6.729-24.255-17.649-30.557L273.603,4.725
	c-10.918-6.302-24.37-6.3-35.287,0.006L47.191,115.118c-10.917,6.305-17.64,17.955-17.639,30.562l0.004,24.301h452.861
	L482.413,145.605z"/>
<path style="fill:#73AF00;" d="M29.589,366.395c0.003,12.607,6.729,24.255,17.649,30.557l191.161,110.325
	c10.92,6.302,24.37,6.298,35.287-0.006l191.125-110.389c10.917-6.305,17.64-17.955,17.639-30.563l-0.004-24.301H29.586
	L29.589,366.395z"/>
<path style="fill:#41479B;" d="M256.001,202.265c-29.631,0-53.735,24.105-53.735,53.735s24.105,53.735,53.735,53.735
	S309.737,285.63,309.737,256S285.632,202.265,256.001,202.265z M261.286,248.091l2.928-5.445l9.577-26.588
	c4.563,2.041,8.711,4.837,12.29,8.234l-20.886,19.01L261.286,248.091z M259.638,240.75l-1.781,5.921l0.621-6.152l-1.327-28.227
	c5.102,0.132,9.989,1.14,14.516,2.883L259.638,240.75z M254.145,246.671l-1.781-5.921l-12.03-25.576
	c4.528-1.743,9.414-2.751,14.516-2.883l-1.326,28.227L254.145,246.671z M247.788,242.646l2.928,5.445l-3.911-4.789l-20.886-19.01
	c3.579-3.397,7.728-6.195,12.29-8.234L247.788,242.646z M240.52,258.477l6.152-0.621l-5.921,1.781l-25.576,12.029
	c-1.743-4.527-2.751-9.412-2.883-14.516L240.52,258.477z M212.293,254.85c0.132-5.102,1.14-9.989,2.883-14.516l25.576,12.029
	l5.921,1.781l-6.152-0.621L212.293,254.85z M250.716,263.909l-2.928,5.446l-9.577,26.588c-4.563-2.041-8.711-4.837-12.29-8.234
	l20.886-19.01L250.716,263.909z M252.366,271.251l1.781-5.921l-0.621,6.151l1.326,28.227c-5.102-0.132-9.989-1.14-14.516-2.883
	L252.366,271.251z M257.857,265.33l1.781,5.921l12.03,25.576c-4.528,1.743-9.414,2.751-14.516,2.883l1.327-28.227L257.857,265.33z
	 M264.214,269.355l-2.928-5.446l3.911,4.789l20.886,19.01c-3.579,3.397-7.728,6.195-12.29,8.234L264.214,269.355z M271.482,253.523
	l-6.152,0.621l5.921-1.781l25.576-12.029c1.743,4.526,2.751,9.414,2.883,14.516L271.482,253.523z M299.711,257.151
	c-0.132,5.102-1.14,9.989-2.883,14.516l-25.576-12.029l-5.921-1.781l6.152,0.621L299.711,257.151z M295.944,238.211l-26.588,9.577
	l-5.446,2.928l4.79-3.911l19.01-20.886C291.107,229.498,293.905,233.648,295.944,238.211z M224.294,225.919l19.01,20.886l4.79,3.911
	l-5.446-2.928l-26.588-9.577C218.099,233.648,220.896,229.498,224.294,225.919z M216.058,273.79l26.588-9.577l5.446-2.928
	l-4.79,3.911l-19.01,20.886C220.896,282.501,218.099,278.352,216.058,273.79z M287.71,286.082l-19.01-20.886l-4.79-3.911
	l5.446,2.928l26.588,9.577C293.905,278.352,291.107,282.501,287.71,286.082z"/>
<g>
</g>
<g>
</g>
<g>
</g>
<g>
</g>
<g>
</g>
<g>
</g>
<g>
</g>
<g>
</g>
<g>
</g>
<g>
</g>
<g>
</g>
<g>
</g>
<g>
</g>
<g>
</g>
<g>
</g>
</svg>
