<?xml version="1.0" encoding="iso-8859-1"?>
<!-- Generator: Adobe Illustrator 19.0.0, SVG Export Plug-In . SVG Version: 6.00 Build 0)  -->
<svg version="1.1" id="Layer_1" xmlns="http://www.w3.org/2000/svg" xmlns:xlink="http://www.w3.org/1999/xlink" x="0px" y="0px"
	 viewBox="0 0 512.002 512.002" style="enable-background:new 0 0 512.002 512.002;" xml:space="preserve">
<path style="fill:#F5F5F5;" d="M482.441,323.911l-0.005-27.164l-0.014-81.491l-0.005-27.164l-0.004-18.605l-0.004-23.881
	c0-3.105-0.422-6.147-1.202-9.07c-0.42-1.572-0.949-3.107-1.576-4.597c-2.568-6.091-6.814-11.419-12.362-15.28
	c-0.812-0.565-1.642-1.11-2.509-1.611l-23.71-13.684l-22.198-12.81l-17.87-10.313l-68.336-39.44l-26.659-15.386l-19.995-11.539
	l-12.39-7.151c-10.918-6.302-24.37-6.3-35.287,0.006l-12.307,7.108l-19.995,11.548l-26.659,15.398l0,0l-68.33,39.466L81.077,95.547
	l-22.191,12.818l-11.697,6.756c-0.841,0.486-1.648,1.015-2.439,1.561c-3.392,2.349-6.296,5.254-8.638,8.538
	c-1.572,2.206-2.883,4.585-3.911,7.092c-1.715,4.179-2.652,8.706-2.651,13.371l0.007,42.41l0.005,27.164l0.014,81.478v0.014v0.005
	l0.005,27.159l0.004,18.605l0.004,23.873v0.006c0.003,11.607,5.715,22.389,15.14,28.946c0.812,0.565,1.642,1.11,2.509,1.611
	l23.377,13.491l22.198,12.811l18.204,10.506l94.999,54.826l19.995,11.539l12.39,7.151c10.918,6.302,24.37,6.298,35.287-0.006
	l12.307-7.108l19.995-11.548l26.659-15.397l57.587-33.261l10.742-6.205l27.325-15.782l22.191-12.818l14.319-8.27
	c0.841-0.486,1.648-1.013,2.439-1.562c9.465-6.556,15.201-17.365,15.2-29.001L482.441,323.911z"/>
<path style="fill:#FF4B55;" d="M482.445,342.515l-227.694-20.282L29.585,342.515l0.004,23.873v0.006
	c0.003,11.607,5.715,22.389,15.14,28.946c0.812,0.565,1.642,1.11,2.509,1.611l23.377,13.491l22.198,12.811l18.204,10.506
	l94.999,54.826l19.995,11.539l12.39,7.151c10.918,6.302,24.37,6.298,35.287-0.006l12.307-7.108l19.995-11.548l26.659-15.397
	l57.587-33.261l10.742-6.205l27.325-15.782l22.191-12.818l14.319-8.27c0.841-0.486,1.648-1.013,2.439-1.562
	c9.465-6.556,15.201-17.365,15.2-29.001L482.445,342.515z"/>
<polygon style="fill:#73AF00;" points="482.441,323.911 482.436,296.747 482.424,215.256 482.419,188.092 482.416,169.487
	29.555,169.487 29.558,188.092 29.563,215.256 29.577,296.733 29.577,296.747 29.577,296.752 29.58,323.911 29.584,342.515
	482.445,342.515 "/>
<g>
</g>
<g>
</g>
<g>
</g>
<g>
</g>
<g>
</g>
<g>
</g>
<g>
</g>
<g>
</g>
<g>
</g>
<g>
</g>
<g>
</g>
<g>
</g>
<g>
</g>
<g>
</g>
<g>
</g>
</svg>
