<?xml version="1.0" encoding="utf-8"?>
<!-- Generator: Adobe Illustrator 21.1.0, SVG Export Plug-In . SVG Version: 6.00 Build 0)  -->
<svg version="1.1" id="Layer_1" xmlns="http://www.w3.org/2000/svg" xmlns:xlink="http://www.w3.org/1999/xlink" x="0px" y="0px"
	 viewBox="0 0 512 512" style="enable-background:new 0 0 512 512;" xml:space="preserve">
<style type="text/css">
	.st0{fill:#F9F9F9;}
	.st1{fill:#E85B5B;}
</style>
<path class="st0" d="M482.5,366.3l0-42.4l0-27.2l0-81.5l0-27.2l0-42.5c0-3.1-0.4-6.1-1.2-9.1c-0.4-1.6-0.9-3.1-1.6-4.6
	c-2.6-6.1-6.8-11.4-12.4-15.3c-0.8-0.6-1.6-1.1-2.5-1.6l-23.7-13.7l-22.2-12.8L401,78.2l-68.3-39.4l0,0L306,23.4l-20-11.5l-12.4-7.2
	c-10.9-6.3-24.4-6.3-35.3,0L226,11.8l-20,11.5l-26.7,15.4v0L111,78.3L81.1,95.5l-22.2,12.8l-11.7,6.8c-0.8,0.5-1.6,1-2.4,1.6
	c-3.4,2.3-6.3,5.3-8.6,8.5c-1.6,2.2-2.9,4.6-3.9,7.1c-1.7,4.2-2.7,8.7-2.7,13.4l0,42.4l0,27.2l0,81.5v0v0l0,27.2l0,42.5v0
	c0,11.6,5.7,22.4,15.1,28.9c0.8,0.6,1.6,1.1,2.5,1.6l23.4,13.5l22.2,12.8l18.2,10.5l95,54.8l20,11.5l12.4,7.2
	c10.9,6.3,24.4,6.3,35.3,0l12.3-7.1l20-11.5l26.7-15.4l0,0l57.6-33.3l10.7-6.2l27.3-15.8l22.2-12.8l14.3-8.3c0.8-0.5,1.6-1,2.4-1.6
	C476.7,388.8,482.5,378,482.5,366.3L482.5,366.3L482.5,366.3z"/>
<g>
	<path class="st1" d="M198,372.3l-24-242.4h126l-18,180.4l72.4-4l-22.8,66H198z"/>
</g>
</svg>
