<?xml version="1.0" encoding="iso-8859-1"?>
<!-- Generator: Adobe Illustrator 19.0.0, SVG Export Plug-In . SVG Version: 6.00 Build 0)  -->
<svg version="1.1" id="Layer_1" xmlns="http://www.w3.org/2000/svg" xmlns:xlink="http://www.w3.org/1999/xlink" x="0px" y="0px"
	 viewBox="0 0 512 512" style="enable-background:new 0 0 512 512;" xml:space="preserve">
<path style="fill:#F5F5F5;" d="M29.589,366.395l-0.036-220.713c-0.003-12.607,6.722-24.257,17.639-30.563L238.315,4.731
	c10.917-6.306,24.368-6.307,35.287-0.006L464.763,115.05c10.919,6.302,17.646,17.95,17.649,30.557l0.036,220.713
	c0.003,12.607-6.722,24.257-17.639,30.563L273.684,507.269c-10.917,6.306-24.368,6.307-35.287,0.006L47.238,396.951
	C36.318,390.649,29.591,379.001,29.589,366.395z"/>
<g>
	<path style="fill:#C8414B;" d="M482.412,145.605c-0.003-12.607-6.729-24.255-17.649-30.557L273.602,4.726
		c-10.919-6.302-24.371-6.3-35.287,0.006L47.19,115.119c-10.917,6.306-17.64,17.955-17.639,30.563l0.012,75.329h452.86
		L482.412,145.605z"/>
	<path style="fill:#C8414B;" d="M482.436,290.99H29.576l0.012,75.404c0.003,12.607,6.729,24.255,17.649,30.557l191.161,110.325
		c10.919,6.302,24.371,6.299,35.286-0.006L464.81,396.881c10.917-6.306,17.64-17.955,17.639-30.563L482.436,290.99z"/>
</g>
<g>
</g>
<g>
</g>
<g>
</g>
<g>
</g>
<g>
</g>
<g>
</g>
<g>
</g>
<g>
</g>
<g>
</g>
<g>
</g>
<g>
</g>
<g>
</g>
<g>
</g>
<g>
</g>
<g>
</g>
</svg>
