<?xml version="1.0" encoding="iso-8859-1"?>
<!-- Generator: Adobe Illustrator 19.0.0, SVG Export Plug-In . SVG Version: 6.00 Build 0)  -->
<svg version="1.1" id="Layer_1" xmlns="http://www.w3.org/2000/svg" xmlns:xlink="http://www.w3.org/1999/xlink" x="0px" y="0px"
	 viewBox="0 0 512.005 512.005" style="enable-background:new 0 0 512.005 512.005;" xml:space="preserve">
<path style="fill:#F5F5F5;" d="M482.438,296.747l-0.014-81.491l-0.005-27.164l-0.008-42.486
	c-0.003-11.607-5.715-22.389-15.14-28.946c-0.812-0.565-1.642-1.11-2.509-1.611l-23.71-13.684l-22.198-12.81l-17.87-10.313
	l-94.999-54.826L285.99,11.877l-12.389-7.152c-10.918-6.301-24.37-6.3-35.287,0.006l-12.307,7.108l-19.995,11.548l-94.988,54.862
	L81.079,95.547l-22.191,12.818l-11.697,6.756c-0.841,0.486-1.648,1.015-2.439,1.562c-9.465,6.556-15.202,17.365-15.2,29.001
	l0.007,42.41l0.005,27.164l0.014,81.491l0.005,27.164l0.007,42.486c0.003,11.607,5.715,22.388,15.14,28.946
	c0.812,0.565,1.642,1.11,2.509,1.611l23.377,13.491l22.198,12.812l18.204,10.506l94.999,54.826l19.995,11.539l12.39,7.151
	c10.92,6.302,24.37,6.299,35.287-0.006l12.307-7.108l19.995-11.548l94.989-54.863l27.325-15.782l22.191-12.818l14.319-8.27
	c0.841-0.486,1.648-1.013,2.439-1.561c9.465-6.556,15.201-17.365,15.2-29.001l-0.008-42.41L482.438,296.747z"/>
<g>
	<polygon style="fill:#41479B;" points="482.437,285.992 196.018,275.989 206.015,488.586 226.009,500.126 226.009,305.987
		482.441,305.987 482.438,296.747 	"/>
	<polygon style="fill:#41479B;" points="29.566,226.009 154.779,236 146.031,58.032 126.037,69.58 126.037,206.014 29.563,206.014
		29.564,215.255 	"/>
	<polygon style="fill:#41479B;" points="194.768,236 482.427,226.009 482.426,215.255 482.423,206.014 226.009,206.014
		226.009,11.838 206.015,23.388 	"/>
	<polygon style="fill:#41479B;" points="157.278,277.238 29.576,285.992 29.578,296.747 29.579,305.987 126.037,305.987
		126.037,442.428 146.031,453.967 	"/>
</g>
<polygon style="fill:#FF4B55;" points="206.015,23.388 146.031,58.032 146.031,226.009 29.566,226.009 29.576,285.992
	146.031,285.992 146.031,453.967 206.015,488.586 206.015,285.992 482.437,285.992 482.427,226.009 206.015,226.009 "/>
<g>
</g>
<g>
</g>
<g>
</g>
<g>
</g>
<g>
</g>
<g>
</g>
<g>
</g>
<g>
</g>
<g>
</g>
<g>
</g>
<g>
</g>
<g>
</g>
<g>
</g>
<g>
</g>
<g>
</g>
</svg>
