<?xml version="1.0" encoding="iso-8859-1"?>
<!-- Generator: Adobe Illustrator 19.0.0, SVG Export Plug-In . SVG Version: 6.00 Build 0)  -->
<svg version="1.1" id="Layer_1" xmlns="http://www.w3.org/2000/svg" xmlns:xlink="http://www.w3.org/1999/xlink" x="0px" y="0px"
	 viewBox="0 0 512.003 512.003" style="enable-background:new 0 0 512.003 512.003;" xml:space="preserve">
<path style="fill:#F5F5F5;" d="M482.448,351.353l-0.001-4.629l-0.001-4.498v-4.539l-0.027-163.377l-0.001-4.539l-0.001-4.498
	l-0.001-5.206l-0.003-12.865v-1.6c0-0.98-0.055-1.951-0.135-2.917c-0.127-1.53-0.351-3.038-0.67-4.519
	c-2.078-9.627-8.115-18.084-16.843-23.12L273.602,4.725c-10.918-6.302-24.37-6.3-35.287,0.006L47.19,115.118
	c-8.735,5.045-14.775,13.516-16.843,23.157c-0.516,2.408-0.796,4.886-0.796,7.405l0.003,14.966l0.001,4.629l0.001,4.498v4.539
	l0.027,163.377l0.001,4.539l0.001,4.498l0.001,5.206l0.003,12.865v1.6c0,0.98,0.055,1.951,0.135,2.917
	c0.127,1.53,0.351,3.038,0.671,4.519c2.078,9.627,8.115,18.084,16.843,23.12l191.163,110.323c10.918,6.302,24.37,6.299,35.287-0.006
	l191.125-110.389c8.735-5.045,14.775-13.516,16.843-23.157c0.516-2.408,0.796-4.886,0.796-7.405L482.448,351.353z"/>
<path style="fill:#73AF00;" d="M33.244,167.418v2.356h4.406v-2.356c0-1.183,0.958-2.142,2.142-2.142h35.415
	c1.183,0,2.142,0.958,2.142,2.142v2.356h4.406v-2.356c0-1.183,0.958-2.142,2.142-2.142h35.415c1.183,0,2.142,0.958,2.142,2.142
	v2.356h4.406v-2.356c0-1.183,0.958-2.142,2.142-2.142h35.415c1.183,0,2.142,0.958,2.142,2.142v2.356h4.349v-2.356
	c0-1.183,0.958-2.142,2.142-2.142h35.473c1.183,0,2.142,0.958,2.142,2.142v2.356h4.404v-2.356c0-1.183,0.958-2.142,2.142-2.142
	h35.418c1.183,0,2.142,0.958,2.142,2.142v2.356h4.404v-2.356c0-1.183,0.958-2.142,2.142-2.142h35.418
	c1.183,0,2.142,0.958,2.142,2.142v2.356h4.404v-2.356c0-1.183,0.958-2.142,2.142-2.142h35.418c1.183,0,2.142,0.958,2.142,2.142
	v2.356h4.461v-2.356c0-1.183,0.958-2.142,2.142-2.142h35.36c1.183,0,2.142,0.958,2.142,2.142v2.356h4.404v-2.356
	c0-1.183,0.958-2.142,2.142-2.142h35.418c1.183,0,2.142,0.958,2.142,2.142v2.356h4.461v-2.356c0-1.183,0.958-2.142,2.142-2.142
	h35.358c1.183,0,2.142,0.958,2.142,2.142v2.356h4.461v-2.356c0-1.183,0.958-2.142,2.142-2.142h1.52l-0.001-5.206
	c-0.382,0.355-0.891,0.577-1.453,0.577h-0.065c-1.183,0-2.142-0.958-2.142-2.142v-9.159c0-1.183,0.958-2.142,2.142-2.142h1.517v-1.6
	c0-0.98-0.055-1.951-0.135-2.917h-1.381c-1.183,0-2.142-0.958-2.142-2.142v-0.235c0-1.183,0.958-2.142,2.142-2.142h0.711
	c-2.078-9.627-8.115-18.084-16.843-23.12L273.602,4.725c-10.918-6.302-24.37-6.3-35.287,0.006L47.19,115.118
	c-8.735,5.045-14.775,13.516-16.843,23.157c0.201-0.062,0.412-0.106,0.635-0.106h0.12c1.183,0,2.142,0.958,2.142,2.142v18.194
	c0,1.183-0.958,2.142-2.142,2.142h-1.547l0.001,4.629h1.547C32.286,165.276,33.244,166.236,33.244,167.418z M403.762,158.505
	c0,1.183-0.958,2.142-2.142,2.142h-0.177c-1.183,0-2.142-0.958-2.142-2.142v-0.122c0-1.183,0.958-2.142,2.142-2.142h0.177
	c1.183,0,2.142,0.958,2.142,2.142V158.505z M452.27,145.063v-4.751c0-1.183,0.958-2.142,2.142-2.142h0.122
	c1.183,0,2.142,0.958,2.142,2.142v13.787c0,1.183,0.958,2.142,2.142,2.142h0.12c1.183,0,2.142-0.958,2.142-2.142v-13.787
	c0-1.183,0.958-2.142,2.142-2.142h0.122c1.183,0,2.142,0.958,2.142,2.142v13.787c0,1.183,0.958,2.142,2.142,2.142h0.177
	c1.183,0,2.142-0.958,2.142-2.142v-13.787c0-1.183,0.958-2.142,2.142-2.142h0.062c1.183,0,2.142,0.958,2.142,2.142v18.194
	c0,1.183-0.958,2.142-2.142,2.142h-17.74c-1.183,0-2.142-0.958-2.142-2.142v-4.639c0-1.183-0.958-2.142-2.142-2.142h-8.875
	c-1.183,0-2.142,0.958-2.142,2.142v0.232c0,1.183,0.958,2.142,2.142,2.142h4.471c1.182,0,2.142,0.958,2.142,2.142v0.122
	c0,1.183-0.958,2.142-2.142,2.142h-8.93c-1.183,0-2.142-0.958-2.142-2.142v-9.159c0-1.183,0.958-2.142,2.142-2.142h13.334
	C451.311,147.205,452.27,146.246,452.27,145.063z M390.49,140.311c0-1.183,0.958-2.142,2.142-2.142h53.093
	c1.182,0,2.142,0.958,2.142,2.142v0.235c0,1.183-0.958,2.142-2.142,2.142h-53.094c-1.183,0-2.142-0.958-2.142-2.142v-0.235H390.49z
	 M390.49,149.346c0-1.183,0.958-2.142,2.142-2.142h17.74c1.182,0,2.142,0.958,2.142,2.142v4.752c0,1.183,0.958,2.142,2.142,2.142
	h9.045c1.183,0,2.142-0.958,2.142-2.142v-0.232c0-1.183-0.958-2.142-2.142-2.142h-4.584c-1.183,0-2.142-0.958-2.142-2.142v-0.235
	c0-1.183,0.958-2.142,2.142-2.142h8.933c1.183,0,2.142,0.958,2.142,2.142v9.159c0,1.183-0.958,2.142-2.142,2.142h-17.743
	c-1.183,0-2.142-0.958-2.142-2.142v-4.639c0-1.183-0.958-2.142-2.142-2.142h-8.985c-1.183,0-2.142,0.958-2.142,2.142v4.639
	c0,1.183-0.958,2.142-2.142,2.142h-0.122c-1.183,0-2.142-0.958-2.142-2.142V149.346L390.49,149.346z M315.496,158.505
	c0,1.183-0.958,2.142-2.142,2.142h-0.065c-1.183,0-2.142-0.958-2.142-2.142v-0.122c0-1.183,0.958-2.142,2.142-2.142h0.065
	c1.183,0,2.142,0.958,2.142,2.142V158.505z M364.06,145.063v-4.751c0-1.183,0.958-2.142,2.142-2.142h0.122
	c1.183,0,2.142,0.958,2.142,2.142v13.787c0,1.183,0.958,2.142,2.142,2.142h0.12c1.183,0,2.142-0.958,2.142-2.142v-13.787
	c0-1.183,0.958-2.142,2.142-2.142h0.122c1.183,0,2.142,0.958,2.142,2.142v13.787c0,1.183,0.958,2.142,2.142,2.142h0.12
	c1.183,0,2.142-0.958,2.142-2.142v-13.787c0-1.183,0.958-2.142,2.142-2.142h0.122c1.183,0,2.142,0.958,2.142,2.142v18.194
	c0,1.183-0.958,2.142-2.142,2.142h-17.743c-1.183,0-2.142-0.958-2.142-2.142v-4.639c0-1.183-0.958-2.142-2.142-2.142h-8.985
	c-1.183,0-2.142,0.958-2.142,2.142v0.232c0,1.183,0.958,2.142,2.142,2.142h4.581c1.183,0,2.142,0.958,2.142,2.142v0.122
	c0,1.183-0.958,2.142-2.142,2.142h-8.93c-1.183,0-2.142-0.958-2.142-2.142v-9.159c0-1.183,0.958-2.142,2.142-2.142h13.334
	C363.1,147.205,364.06,146.246,364.06,145.063z M302.279,140.311c0-1.183,0.958-2.142,2.142-2.142h53.093
	c1.183,0,2.142,0.958,2.142,2.142v0.235c0,1.183-0.958,2.142-2.142,2.142h-53.093c-1.183,0-2.142-0.958-2.142-2.142V140.311
	L302.279,140.311z M302.279,149.346c0-1.183,0.958-2.142,2.142-2.142h17.798c1.183,0,2.142,0.958,2.142,2.142v4.752
	c0,1.183,0.958,2.142,2.142,2.142h8.875c1.183,0,2.142-0.958,2.142-2.142v-0.232c0-1.183-0.958-2.142-2.142-2.142h-4.471
	c-1.183,0-2.142-0.958-2.142-2.142v-0.235c0-1.183,0.958-2.142,2.142-2.142h8.933c1.183,0,2.142,0.958,2.142,2.142v9.159
	c0,1.183-0.958,2.142-2.142,2.142h-17.799c-1.183,0-2.142-0.958-2.142-2.142v-4.639c0-1.183-0.958-2.142-2.142-2.142h-8.93
	c-1.183,0-2.142,0.958-2.142,2.142v4.639c0,1.183-0.958,2.142-2.142,2.142h-0.122c-1.183,0-2.142-0.958-2.142-2.142V149.346
	L302.279,149.346z M227.285,158.505c0,1.183-0.958,2.142-2.142,2.142h-0.065c-1.183,0-2.142-0.958-2.142-2.142v-0.122
	c0-1.183,0.958-2.142,2.142-2.142h0.065c1.183,0,2.142,0.958,2.142,2.142V158.505z M273.71,147.205c1.183,0,2.142-0.958,2.142-2.142
	v-4.751c0-1.183,0.958-2.142,2.142-2.142h0.12c1.183,0,2.142,0.958,2.142,2.142v13.787c0,1.183,0.958,2.142,2.142,2.142h0.122
	c1.183,0,2.142-0.958,2.142-2.142v-13.787c0-1.183,0.958-2.142,2.142-2.142h0.12c1.183,0,2.142,0.958,2.142,2.142v13.787
	c0,1.183,0.958,2.142,2.142,2.142h0.12c1.183,0,2.142-0.958,2.142-2.142v-13.787c0-1.183,0.958-2.142,2.142-2.142h0.122
	c1.183,0,2.142,0.958,2.142,2.142v18.194c0,1.183-0.958,2.142-2.142,2.142h-17.74c-1.183,0-2.142-0.958-2.142-2.142v-4.639
	c0-1.183-0.958-2.142-2.142-2.142h-8.988c-1.183,0-2.142,0.958-2.142,2.142v0.232c0,1.183,0.958,2.142,2.142,2.142h4.581
	c1.183,0,2.142,0.958,2.142,2.142v0.122c0,1.183-0.958,2.142-2.142,2.142h-8.988c-1.183,0-2.142-0.958-2.142-2.142v-9.159
	c0-1.183,0.958-2.142,2.142-2.142h13.395V147.205z M214.069,140.311c0-1.183,0.958-2.142,2.142-2.142h53.093
	c1.183,0,2.142,0.958,2.142,2.142v0.235c0,1.183-0.958,2.142-2.142,2.142h-53.093c-1.183,0-2.142-0.958-2.142-2.142L214.069,140.311
	L214.069,140.311z M214.069,149.346c0-1.183,0.958-2.142,2.142-2.142h17.798c1.183,0,2.142,0.958,2.142,2.142v4.752
	c0,1.183,0.958,2.142,2.142,2.142h8.93c1.183,0,2.142-0.958,2.142-2.142v-0.232c0-1.183-0.958-2.142-2.142-2.142h-4.581
	c-1.183,0-2.142-0.958-2.142-2.142v-0.235c0-1.183,0.958-2.142,2.142-2.142h8.988c1.183,0,2.142,0.958,2.142,2.142v9.159
	c0,1.183-0.958,2.142-2.142,2.142h-17.799c-1.183,0-2.142-0.958-2.142-2.142v-4.639c0-1.183-0.958-2.142-2.142-2.142h-8.93
	c-1.182,0-2.142,0.958-2.142,2.142v4.639c0,1.183-0.958,2.142-2.142,2.142h-0.122c-1.183,0-2.142-0.958-2.142-2.142L214.069,149.346
	L214.069,149.346z M139.075,158.505c0,1.183-0.958,2.142-2.142,2.142h-0.12c-1.183,0-2.142-0.958-2.142-2.142v-0.122
	c0-1.183,0.958-2.142,2.142-2.142h0.12c1.183,0,2.142,0.958,2.142,2.142V158.505z M187.642,145.063v-4.751
	c0-1.183,0.958-2.142,2.142-2.142h0.12c1.183,0,2.142,0.958,2.142,2.142v13.787c0,1.183,0.958,2.142,2.142,2.142h0.065
	c1.183,0,2.142-0.958,2.142-2.142v-13.787c0-1.183,0.958-2.142,2.142-2.142h0.177c1.183,0,2.142,0.958,2.142,2.142v13.787
	c0,1.183,0.958,2.142,2.142,2.142h0.122c1.183,0,2.142-0.958,2.142-2.142v-13.787c0-1.183,0.958-2.142,2.142-2.142h0.12
	c1.183,0,2.142,0.958,2.142,2.142v18.194c0,1.183-0.958,2.142-2.142,2.142h-17.74c-1.183,0-2.142-0.958-2.142-2.142v-4.639
	c0-1.183-0.958-2.142-2.142-2.142h-8.988c-1.183,0-2.142,0.958-2.142,2.142v0.232c0,1.183,0.958,2.142,2.142,2.142h4.526
	c1.183,0,2.142,0.958,2.142,2.142v0.122c0,1.183-0.958,2.142-2.142,2.142h-8.988c-1.182,0-2.142-0.958-2.142-2.142v-9.159
	c0-1.183,0.958-2.142,2.142-2.142h13.449C186.682,147.205,187.642,146.246,187.642,145.063z M125.861,140.311
	c0-1.183,0.958-2.142,2.142-2.142h53.035c1.183,0,2.142,0.958,2.142,2.142v0.235c0,1.183-0.958,2.142-2.142,2.142h-53.036
	c-1.183,0-2.142-0.958-2.142-2.142C125.861,140.546,125.861,140.311,125.861,140.311z M125.861,149.346
	c0-1.183,0.958-2.142,2.142-2.142h17.74c1.182,0,2.142,0.958,2.142,2.142v4.752c0,1.183,0.958,2.142,2.142,2.142h8.93
	c1.183,0,2.142-0.958,2.142-2.142v-0.232c0-1.183-0.958-2.142-2.142-2.142h-4.526c-1.183,0-2.142-0.958-2.142-2.142v-0.235
	c0-1.183,0.958-2.142,2.142-2.142h8.988c1.183,0,2.142,0.958,2.142,2.142v9.159c0,1.183-0.958,2.142-2.142,2.142h-17.798
	c-1.183,0-2.142-0.958-2.142-2.142v-4.639c0-1.183-0.958-2.142-2.142-2.142h-8.93c-1.183,0-2.142,0.958-2.142,2.142v4.639
	c0,1.183-0.958,2.142-2.142,2.142h-0.12c-1.183,0-2.142-0.958-2.142-2.142L125.861,149.346L125.861,149.346z M50.864,158.505
	c0,1.183-0.958,2.142-2.142,2.142h-0.12c-1.182,0-2.142-0.958-2.142-2.142v-0.122c0-1.183,0.958-2.142,2.142-2.142h0.12
	c1.183,0,2.142,0.958,2.142,2.142V158.505z M99.374,145.063v-4.751c0-1.183,0.958-2.142,2.142-2.142h0.122
	c1.183,0,2.142,0.958,2.142,2.142v13.787c0,1.183,0.958,2.142,2.142,2.142h0.177c1.183,0,2.142-0.958,2.142-2.142v-13.787
	c0-1.183,0.958-2.142,2.142-2.142h0.177c1.183,0,2.142,0.958,2.142,2.142v13.787c0,1.183,0.958,2.142,2.142,2.142h0.065
	c1.183,0,2.142-0.958,2.142-2.142v-13.787c0-1.183,0.958-2.142,2.142-2.142h0.12c1.183,0,2.142,0.958,2.142,2.142v18.194
	c0,1.183-0.958,2.142-2.142,2.142h-17.798c-1.183,0-2.142-0.958-2.142-2.142v-4.639c0-1.183-0.958-2.142-2.142-2.142h-8.93
	c-1.183,0-2.142,0.958-2.142,2.142v0.232c0,1.183,0.958,2.142,2.142,2.142h4.584c1.183,0,2.142,0.958,2.142,2.142v0.122
	c0,1.183-0.958,2.142-2.142,2.142h-8.988c-1.183,0-2.142-0.958-2.142-2.142v-9.159c0-1.183,0.958-2.142,2.142-2.142h13.334
	C98.414,147.205,99.374,146.246,99.374,145.063z M37.651,140.311c0-1.183,0.958-2.142,2.142-2.142h53.093
	c1.183,0,2.142,0.958,2.142,2.142v0.235c0,1.183-0.958,2.142-2.142,2.142H39.792c-1.183,0-2.142-0.958-2.142-2.142
	C37.651,140.546,37.651,140.311,37.651,140.311z M37.651,149.346c0-1.183,0.958-2.142,2.142-2.142h17.74
	c1.183,0,2.142,0.958,2.142,2.142v4.752c0,1.183,0.958,2.142,2.142,2.142h8.988c1.183,0,2.142-0.958,2.142-2.142v-0.232
	c0-1.183-0.958-2.142-2.142-2.142h-4.526c-1.182,0-2.142-0.958-2.142-2.142v-0.235c0-1.183,0.958-2.142,2.142-2.142h8.93
	c1.183,0,2.142,0.958,2.142,2.142v9.159c0,1.183-0.958,2.142-2.142,2.142H57.413c-1.183,0-2.142-0.958-2.142-2.142v-4.639
	c0-1.183-0.958-2.142-2.142-2.142h-8.933c-1.183,0-2.142,0.958-2.142,2.142v4.639c0,1.183-0.958,2.142-2.142,2.142h-0.12
	c-1.183,0-2.142-0.958-2.142-2.142C37.651,158.507,37.651,149.346,37.651,149.346z"/>
<path style="fill:#FF4B55;" d="M478.757,344.582v-2.356h-4.406v2.356c0,1.183-0.958,2.142-2.142,2.142h-35.415
	c-1.183,0-2.142-0.958-2.142-2.142v-2.356h-4.406v2.356c0,1.183-0.958,2.142-2.142,2.142h-35.415c-1.183,0-2.142-0.958-2.142-2.142
	v-2.356h-4.406v2.356c0,1.183-0.958,2.142-2.142,2.142h-35.415c-1.183,0-2.142-0.958-2.142-2.142v-2.356h-4.349v2.356
	c0,1.183-0.958,2.142-2.142,2.142h-35.473c-1.183,0-2.142-0.958-2.142-2.142v-2.356h-4.404v2.356c0,1.183-0.958,2.142-2.142,2.142
	h-35.418c-1.183,0-2.142-0.958-2.142-2.142v-2.356h-4.404v2.356c0,1.183-0.958,2.142-2.142,2.142h-35.418
	c-1.183,0-2.142-0.958-2.142-2.142v-2.356h-4.404v2.356c0,1.183-0.958,2.142-2.142,2.142h-35.417c-1.183,0-2.142-0.958-2.142-2.142
	v-2.356h-4.461v2.356c0,1.183-0.958,2.142-2.142,2.142h-35.36c-1.183,0-2.142-0.958-2.142-2.142v-2.356h-4.404v2.356
	c0,1.183-0.958,2.142-2.142,2.142H83.953c-1.183,0-2.142-0.958-2.142-2.142v-2.356H77.35v2.356c0,1.183-0.958,2.142-2.142,2.142
	H39.85c-1.183,0-2.142-0.958-2.142-2.142v-2.356h-4.461v2.356c0,1.183-0.958,2.142-2.142,2.142h-1.52l0.001,5.206
	c0.382-0.355,0.891-0.577,1.453-0.577h0.065c1.183,0,2.142,0.958,2.142,2.142v9.159c0,1.183-0.958,2.142-2.142,2.142h-1.516v1.6
	c0,0.98,0.055,1.951,0.135,2.917h1.381c1.183,0,2.142,0.958,2.142,2.142v0.236c0,1.183-0.958,2.142-2.142,2.142h-0.711
	c2.078,9.627,8.115,18.084,16.843,23.12l191.161,110.325c10.918,6.302,24.37,6.3,35.287-0.006l191.125-110.389
	c8.735-5.045,14.775-13.516,16.843-23.157c-0.201,0.062-0.411,0.106-0.635,0.106h-0.12c-1.183,0-2.142-0.958-2.142-2.142v-18.194
	c0-1.183,0.958-2.142,2.142-2.142h1.547l-0.001-4.629h-1.547C479.717,346.724,478.757,345.765,478.757,344.582z M108.241,353.494
	c0-1.183,0.958-2.142,2.142-2.142h0.177c1.183,0,2.142,0.958,2.142,2.142v0.122c0,1.183-0.958,2.142-2.142,2.142h-0.177
	c-1.183,0-2.142-0.958-2.142-2.142C108.241,353.617,108.241,353.494,108.241,353.494z M59.732,366.937v4.752
	c0,1.183-0.958,2.142-2.142,2.142h-0.122c-1.183,0-2.142-0.958-2.142-2.142v-13.787c0-1.183-0.958-2.142-2.142-2.142h-0.12
	c-1.183,0-2.142,0.958-2.142,2.142v13.787c0,1.183-0.958,2.142-2.142,2.142h-0.122c-1.183,0-2.142-0.958-2.142-2.142v-13.787
	c0-1.183-0.958-2.142-2.142-2.142h-0.177c-1.183,0-2.142,0.958-2.142,2.142v13.787c0,1.183-0.958,2.142-2.142,2.142h-0.062
	c-1.183,0-2.142-0.958-2.142-2.142v-18.194c0-1.183,0.958-2.142,2.142-2.142h17.74c1.183,0,2.142,0.958,2.142,2.142v4.639
	c0,1.183,0.958,2.142,2.142,2.142h8.875c1.183,0,2.142-0.958,2.142-2.142v-0.232c0-1.183-0.958-2.142-2.142-2.142h-4.471
	c-1.182,0-2.142-0.958-2.142-2.142v-0.122c0-1.183,0.958-2.142,2.142-2.142h8.93c1.183,0,2.142,0.958,2.142,2.142v9.159
	c0,1.183-0.958,2.142-2.142,2.142H61.874C60.692,364.795,59.732,365.754,59.732,366.937z M121.513,371.688
	c0,1.183-0.958,2.142-2.142,2.142H66.278c-1.182,0-2.142-0.958-2.142-2.142v-0.236c0-1.183,0.958-2.142,2.142-2.142h53.093
	c1.183,0,2.142,0.958,2.142,2.142C121.513,371.452,121.513,371.688,121.513,371.688z M121.513,362.653
	c0,1.183-0.958,2.142-2.142,2.142h-17.74c-1.183,0-2.142-0.958-2.142-2.142v-4.752c0-1.183-0.958-2.142-2.142-2.142h-9.045
	c-1.183,0-2.142,0.958-2.142,2.142v0.232c0,1.183,0.958,2.142,2.142,2.142h4.584c1.183,0,2.142,0.958,2.142,2.142v0.236
	c0,1.183-0.958,2.142-2.142,2.142h-8.933c-1.183,0-2.142-0.958-2.142-2.142v-9.159c0-1.183,0.958-2.142,2.142-2.142h17.743
	c1.183,0,2.142,0.958,2.142,2.142v4.639c0,1.183,0.958,2.142,2.142,2.142h8.985c1.183,0,2.142-0.958,2.142-2.142v-4.639
	c0-1.183,0.958-2.142,2.142-2.142h0.122c1.183,0,2.142,0.958,2.142,2.142V362.653L121.513,362.653z M196.507,353.494
	c0-1.183,0.958-2.142,2.142-2.142h0.065c1.183,0,2.142,0.958,2.142,2.142v0.122c0,1.183-0.958,2.142-2.142,2.142h-0.065
	c-1.183,0-2.142-0.958-2.142-2.142V353.494z M147.943,366.937v4.752c0,1.183-0.958,2.142-2.142,2.142h-0.122
	c-1.183,0-2.142-0.958-2.142-2.142v-13.787c0-1.183-0.958-2.142-2.142-2.142h-0.12c-1.183,0-2.142,0.958-2.142,2.142v13.787
	c0,1.183-0.958,2.142-2.142,2.142h-0.122c-1.183,0-2.142-0.958-2.142-2.142v-13.787c0-1.183-0.958-2.142-2.142-2.142h-0.12
	c-1.183,0-2.142,0.958-2.142,2.142v13.787c0,1.183-0.958,2.142-2.142,2.142h-0.122c-1.183,0-2.142-0.958-2.142-2.142v-18.194
	c0-1.183,0.958-2.142,2.142-2.142h17.742c1.183,0,2.142,0.958,2.142,2.142v4.639c0,1.183,0.958,2.142,2.142,2.142h8.985
	c1.183,0,2.142-0.958,2.142-2.142v-0.232c0-1.183-0.958-2.142-2.142-2.142h-4.581c-1.183,0-2.142-0.958-2.142-2.142v-0.122
	c0-1.183,0.958-2.142,2.142-2.142h8.93c1.183,0,2.142,0.958,2.142,2.142v9.159c0,1.183-0.958,2.142-2.142,2.142h-13.334
	C148.901,364.795,147.943,365.754,147.943,366.937z M209.724,371.688c0,1.183-0.958,2.142-2.142,2.142h-53.093
	c-1.183,0-2.142-0.958-2.142-2.142v-0.236c0-1.183,0.958-2.142,2.142-2.142h53.093c1.183,0,2.142,0.958,2.142,2.142V371.688z
	 M209.724,362.653c0,1.183-0.958,2.142-2.142,2.142h-17.798c-1.183,0-2.142-0.958-2.142-2.142v-4.752
	c0-1.183-0.958-2.142-2.142-2.142h-8.875c-1.182,0-2.142,0.958-2.142,2.142v0.232c0,1.183,0.958,2.142,2.142,2.142h4.471
	c1.183,0,2.142,0.958,2.142,2.142v0.236c0,1.183-0.958,2.142-2.142,2.142h-8.933c-1.183,0-2.142-0.958-2.142-2.142v-9.159
	c0-1.183,0.958-2.142,2.142-2.142h17.798c1.183,0,2.142,0.958,2.142,2.142v4.639c0,1.183,0.958,2.142,2.142,2.142h8.93
	c1.183,0,2.142-0.958,2.142-2.142v-4.639c0-1.183,0.958-2.142,2.142-2.142h0.122c1.183,0,2.142,0.958,2.142,2.142L209.724,362.653
	L209.724,362.653z M284.717,353.494c0-1.183,0.958-2.142,2.142-2.142h0.065c1.183,0,2.142,0.958,2.142,2.142v0.122
	c0,1.183-0.958,2.142-2.142,2.142h-0.065c-1.183,0-2.142-0.958-2.142-2.142V353.494z M238.292,364.795
	c-1.183,0-2.142,0.958-2.142,2.142v4.752c0,1.183-0.958,2.142-2.142,2.142h-0.12c-1.183,0-2.142-0.958-2.142-2.142v-13.787
	c0-1.183-0.958-2.142-2.142-2.142h-0.122c-1.183,0-2.142,0.958-2.142,2.142v13.787c0,1.183-0.958,2.142-2.142,2.142h-0.12
	c-1.183,0-2.142-0.958-2.142-2.142v-13.787c0-1.183-0.958-2.142-2.142-2.142h-0.12c-1.183,0-2.142,0.958-2.142,2.142v13.787
	c0,1.183-0.958,2.142-2.142,2.142h-0.122c-1.183,0-2.142-0.958-2.142-2.142v-18.194c0-1.183,0.958-2.142,2.142-2.142h17.74
	c1.183,0,2.142,0.958,2.142,2.142v4.639c0,1.183,0.958,2.142,2.142,2.142h8.988c1.182,0,2.142-0.958,2.142-2.142v-0.232
	c0-1.183-0.958-2.142-2.142-2.142h-4.581c-1.183,0-2.142-0.958-2.142-2.142v-0.122c0-1.183,0.958-2.142,2.142-2.142h8.988
	c1.183,0,2.142,0.958,2.142,2.142v9.159c0,1.183-0.958,2.142-2.142,2.142h-13.394v-0.002H238.292z M297.933,371.688
	c0,1.183-0.958,2.142-2.142,2.142h-53.093c-1.183,0-2.142-0.958-2.142-2.142v-0.236c0-1.183,0.958-2.142,2.142-2.142h53.093
	c1.183,0,2.142,0.958,2.142,2.142V371.688z M297.933,362.653c0,1.183-0.958,2.142-2.142,2.142h-17.798
	c-1.183,0-2.142-0.958-2.142-2.142v-4.752c0-1.183-0.958-2.142-2.142-2.142h-8.93c-1.183,0-2.142,0.958-2.142,2.142v0.232
	c0,1.183,0.958,2.142,2.142,2.142h4.581c1.183,0,2.142,0.958,2.142,2.142v0.236c0,1.183-0.958,2.142-2.142,2.142h-8.988
	c-1.183,0-2.142-0.958-2.142-2.142v-9.159c0-1.183,0.958-2.142,2.142-2.142h17.798c1.183,0,2.142,0.958,2.142,2.142v4.639
	c0,1.183,0.958,2.142,2.142,2.142h8.93c1.183,0,2.142-0.958,2.142-2.142v-4.639c0-1.183,0.958-2.142,2.142-2.142h0.122
	c1.183,0,2.142,0.958,2.142,2.142v9.159H297.933z M372.928,353.494c0-1.183,0.958-2.142,2.142-2.142h0.12
	c1.183,0,2.142,0.958,2.142,2.142v0.122c0,1.183-0.958,2.142-2.142,2.142h-0.12c-1.183,0-2.142-0.958-2.142-2.142V353.494z
	 M324.361,366.937v4.752c0,1.183-0.958,2.142-2.142,2.142h-0.12c-1.183,0-2.142-0.958-2.142-2.142v-13.787
	c0-1.183-0.958-2.142-2.142-2.142h-0.065c-1.183,0-2.142,0.958-2.142,2.142v13.787c0,1.183-0.958,2.142-2.142,2.142h-0.177
	c-1.183,0-2.142-0.958-2.142-2.142v-13.787c0-1.183-0.958-2.142-2.142-2.142h-0.122c-1.183,0-2.142,0.958-2.142,2.142v13.787
	c0,1.183-0.958,2.142-2.142,2.142h-0.12c-1.183,0-2.142-0.958-2.142-2.142v-18.194c0-1.183,0.958-2.142,2.142-2.142h17.74
	c1.183,0,2.142,0.958,2.142,2.142v4.639c0,1.183,0.958,2.142,2.142,2.142h8.988c1.183,0,2.142-0.958,2.142-2.142v-0.232
	c0-1.183-0.958-2.142-2.142-2.142h-4.526c-1.183,0-2.142-0.958-2.142-2.142v-0.122c0-1.183,0.958-2.142,2.142-2.142h8.988
	c1.182,0,2.142,0.958,2.142,2.142v9.159c0,1.183-0.958,2.142-2.142,2.142h-13.449C325.319,364.795,324.361,365.754,324.361,366.937z
	 M386.142,371.688c0,1.183-0.958,2.142-2.142,2.142h-53.036c-1.183,0-2.142-0.958-2.142-2.142v-0.236
	c0-1.183,0.958-2.142,2.142-2.142H384c1.183,0,2.142,0.958,2.142,2.142V371.688z M386.142,362.653c0,1.183-0.958,2.142-2.142,2.142
	h-17.74c-1.183,0-2.142-0.958-2.142-2.142v-4.752c0-1.183-0.958-2.142-2.142-2.142h-8.93c-1.183,0-2.142,0.958-2.142,2.142v0.232
	c0,1.183,0.958,2.142,2.142,2.142h4.526c1.183,0,2.142,0.958,2.142,2.142v0.236c0,1.183-0.958,2.142-2.142,2.142h-8.988
	c-1.183,0-2.142-0.958-2.142-2.142v-9.159c0-1.183,0.958-2.142,2.142-2.142h17.798c1.183,0,2.142,0.958,2.142,2.142v4.639
	c0,1.183,0.958,2.142,2.142,2.142h8.93c1.183,0,2.142-0.958,2.142-2.142v-4.639c0-1.183,0.958-2.142,2.142-2.142H384
	c1.183,0,2.142,0.958,2.142,2.142V362.653z M461.138,353.494c0-1.183,0.958-2.142,2.142-2.142h0.12c1.183,0,2.142,0.958,2.142,2.142
	v0.122c0,1.183-0.958,2.142-2.142,2.142h-0.12c-1.183,0-2.142-0.958-2.142-2.142V353.494z M412.629,366.937v4.752
	c0,1.183-0.958,2.142-2.142,2.142h-0.122c-1.183,0-2.142-0.958-2.142-2.142v-13.787c0-1.183-0.958-2.142-2.142-2.142h-0.177
	c-1.183,0-2.142,0.958-2.142,2.142v13.787c0,1.183-0.958,2.142-2.142,2.142h-0.177c-1.183,0-2.142-0.958-2.142-2.142v-13.787
	c0-1.183-0.958-2.142-2.142-2.142h-0.065c-1.183,0-2.142,0.958-2.142,2.142v13.787c0,1.183-0.958,2.142-2.142,2.142h-0.12
	c-1.183,0-2.142-0.958-2.142-2.142v-18.194c0-1.183,0.958-2.142,2.142-2.142h17.798c1.183,0,2.142,0.958,2.142,2.142v4.639
	c0,1.183,0.958,2.142,2.142,2.142h8.93c1.183,0,2.142-0.958,2.142-2.142v-0.232c0-1.183-0.958-2.142-2.142-2.142h-4.584
	c-1.183,0-2.142-0.958-2.142-2.142v-0.122c0-1.183,0.958-2.142,2.142-2.142h8.988c1.183,0,2.142,0.958,2.142,2.142v9.159
	c0,1.183-0.958,2.142-2.142,2.142h-13.335C413.588,364.795,412.629,365.754,412.629,366.937z M474.351,371.688
	c0,1.183-0.958,2.142-2.142,2.142h-53.093c-1.183,0-2.142-0.958-2.142-2.142v-0.236c0-1.183,0.958-2.142,2.142-2.142h53.093
	c1.183,0,2.142,0.958,2.142,2.142V371.688z M474.351,362.653c0,1.183-0.958,2.142-2.142,2.142h-17.74
	c-1.183,0-2.142-0.958-2.142-2.142v-4.752c0-1.183-0.958-2.142-2.142-2.142h-8.988c-1.183,0-2.142,0.958-2.142,2.142v0.232
	c0,1.183,0.958,2.142,2.142,2.142h4.526c1.182,0,2.142,0.958,2.142,2.142v0.236c0,1.183-0.958,2.142-2.142,2.142h-8.93
	c-1.183,0-2.142-0.958-2.142-2.142v-9.159c0-1.183,0.958-2.142,2.142-2.142h17.795c1.183,0,2.142,0.958,2.142,2.142v4.639
	c0,1.183,0.958,2.142,2.142,2.142h8.933c1.183,0,2.142-0.958,2.142-2.142v-4.639c0-1.183,0.958-2.142,2.142-2.142h0.12
	c1.183,0,2.142,0.958,2.142,2.142L474.351,362.653L474.351,362.653z"/>
<g>
	<path style="fill:#F5F5F5;" d="M478.755,172.17v-2.397h-4.461v2.397c0,1.183-0.958,2.142-2.142,2.142h-35.358
		c-1.183,0-2.142-0.958-2.142-2.142v-2.397h-4.461v2.397c0,1.183-0.958,2.142-2.142,2.142h-35.418c-1.183,0-2.142-0.958-2.142-2.142
		v-2.397h-4.404v2.397c0,1.183-0.958,2.142-2.142,2.142h-35.36c-1.183,0-2.142-0.958-2.142-2.142v-2.397h-4.461v2.397
		c0,1.183-0.958,2.142-2.142,2.142H304.42c-1.183,0-2.142-0.958-2.142-2.142v-2.397h-4.404v2.397c0,1.183-0.958,2.142-2.142,2.142
		h-35.418c-1.183,0-2.142-0.958-2.142-2.142v-2.397h-4.404v2.397c0,1.183-0.958,2.142-2.142,2.142h-35.418
		c-1.183,0-2.142-0.958-2.142-2.142v-2.397h-4.404v2.397c0,1.183-0.958,2.142-2.142,2.142h-35.473c-1.182,0-2.142-0.958-2.142-2.142
		v-2.397h-4.349v2.397c0,1.183-0.958,2.142-2.142,2.142h-35.413c-1.183,0-2.142-0.958-2.142-2.142v-2.397h-4.404v2.397
		c0,1.183-0.958,2.142-2.142,2.142H83.898c-1.183,0-2.142-0.958-2.142-2.142v-2.397H77.35v2.397c0,1.183-0.958,2.142-2.142,2.142
		H39.792c-1.183,0-2.142-0.958-2.142-2.142v-2.397h-4.406v2.397c0,1.183-0.958,2.142-2.142,2.142h-1.546l0.027,163.377h1.521
		c1.183,0,2.142,0.958,2.142,2.142v2.397h4.461v-2.397c0-1.183,0.958-2.142,2.142-2.142h35.358c1.183,0,2.142,0.958,2.142,2.142
		v2.397h4.461v-2.397c0-1.183,0.958-2.142,2.142-2.142h35.418c1.183,0,2.142,0.958,2.142,2.142v2.397h4.404v-2.397
		c0-1.183,0.958-2.142,2.142-2.142h35.36c1.183,0,2.142,0.958,2.142,2.142v2.397h4.461v-2.397c0-1.183,0.958-2.142,2.142-2.142
		h35.418c1.183,0,2.142,0.958,2.142,2.142v2.397h4.404v-2.397c0-1.183,0.958-2.142,2.142-2.142h35.418
		c1.183,0,2.142,0.958,2.142,2.142v2.397h4.404v-2.397c0-1.183,0.958-2.142,2.142-2.142h35.418c1.183,0,2.142,0.958,2.142,2.142
		v2.397h4.404v-2.397c0-1.183,0.958-2.142,2.142-2.142h35.473c1.182,0,2.142,0.958,2.142,2.142v2.397h4.349v-2.397
		c0-1.183,0.958-2.142,2.142-2.142h35.414c1.183,0,2.142,0.958,2.142,2.142v2.397h4.406v-2.397c0-1.183,0.958-2.142,2.142-2.142
		h35.415c1.183,0,2.142,0.958,2.142,2.142v2.397h4.406v-2.397c0-1.183,0.958-2.142,2.142-2.142h35.415
		c1.183,0,2.142,0.958,2.142,2.142v2.397h4.406v-2.397c0-1.183,0.958-2.142,2.142-2.142h1.546l-0.027-163.377h-1.521
		C479.713,174.312,478.755,173.352,478.755,172.17z"/>
	<path style="fill:#F5F5F5;" d="M33.244,158.505v-18.194c0-1.183-0.958-2.142-2.142-2.142h-0.12c-0.222,0-0.432,0.044-0.635,0.106
		c-0.516,2.408-0.796,4.886-0.796,7.405l0.003,14.966h1.547C32.286,160.647,33.244,159.689,33.244,158.505z"/>
	<path style="fill:#F5F5F5;" d="M39.792,142.688h53.093c1.183,0,2.142-0.958,2.142-2.142v-0.235c0-1.183-0.958-2.142-2.142-2.142
		H39.792c-1.183,0-2.142,0.958-2.142,2.142v0.235C37.651,141.73,38.61,142.688,39.792,142.688z"/>
	<path style="fill:#F5F5F5;" d="M39.792,160.647h0.12c1.183,0,2.142-0.958,2.142-2.142v-4.639c0-1.183,0.958-2.142,2.142-2.142
		h8.933c1.183,0,2.142,0.958,2.142,2.142v4.639c0,1.183,0.958,2.142,2.142,2.142h17.795c1.183,0,2.142-0.958,2.142-2.142v-9.159
		c0-1.183-0.958-2.142-2.142-2.142h-8.93c-1.182,0-2.142,0.958-2.142,2.142v0.235c0,1.183,0.958,2.142,2.142,2.142h4.526
		c1.183,0,2.142,0.958,2.142,2.142v0.232c0,1.183-0.958,2.142-2.142,2.142h-8.988c-1.182,0-2.142-0.958-2.142-2.142v-4.752
		c0-1.183-0.958-2.142-2.142-2.142h-17.74c-1.183,0-2.142,0.958-2.142,2.142v9.159C37.651,159.689,38.61,160.647,39.792,160.647z"/>
	<path style="fill:#F5F5F5;" d="M81.756,149.346v9.159c0,1.183,0.958,2.142,2.142,2.142h8.988c1.183,0,2.142-0.958,2.142-2.142
		v-0.122c0-1.183-0.958-2.142-2.142-2.142h-4.584c-1.183,0-2.142-0.958-2.142-2.142v-0.232c0-1.183,0.958-2.142,2.142-2.142h8.93
		c1.183,0,2.142,0.958,2.142,2.142v4.639c0,1.183,0.958,2.142,2.142,2.142h17.798c1.183,0,2.142-0.958,2.142-2.142v-18.194
		c0-1.183-0.958-2.142-2.142-2.142h-0.12c-1.183,0-2.142,0.958-2.142,2.142v13.787c0,1.183-0.958,2.142-2.142,2.142h-0.065
		c-1.183,0-2.142-0.958-2.142-2.142v-13.787c0-1.183-0.958-2.142-2.142-2.142h-0.177c-1.183,0-2.142,0.958-2.142,2.142v13.787
		c0,1.183-0.958,2.142-2.142,2.142h-0.177c-1.183,0-2.142-0.958-2.142-2.142v-13.787c0-1.183-0.958-2.142-2.142-2.142h-0.122
		c-1.183,0-2.142,0.958-2.142,2.142v4.751c0,1.183-0.958,2.142-2.142,2.142H83.898C82.714,147.205,81.756,148.164,81.756,149.346z"
		/>
	<path style="fill:#F5F5F5;" d="M48.723,156.241h-0.12c-1.182,0-2.142,0.958-2.142,2.142v0.122c0,1.183,0.958,2.142,2.142,2.142
		h0.12c1.183,0,2.142-0.958,2.142-2.142v-0.122C50.864,157.199,49.906,156.241,48.723,156.241z"/>
	<path style="fill:#F5F5F5;" d="M128.003,160.647h0.12c1.183,0,2.142-0.958,2.142-2.142v-4.639c0-1.183,0.958-2.142,2.142-2.142
		h8.93c1.183,0,2.142,0.958,2.142,2.142v4.639c0,1.183,0.958,2.142,2.142,2.142h17.798c1.183,0,2.142-0.958,2.142-2.142v-9.159
		c0-1.183-0.958-2.142-2.142-2.142h-8.988c-1.183,0-2.142,0.958-2.142,2.142v0.235c0,1.183,0.958,2.142,2.142,2.142h4.526
		c1.183,0,2.142,0.958,2.142,2.142v0.232c0,1.183-0.958,2.142-2.142,2.142h-8.93c-1.183,0-2.142-0.958-2.142-2.142v-4.752
		c0-1.183-0.958-2.142-2.142-2.142h-17.74c-1.183,0-2.142,0.958-2.142,2.142v9.159C125.861,159.689,126.82,160.647,128.003,160.647z
		"/>
	<path style="fill:#F5F5F5;" d="M128.003,142.688h53.035c1.183,0,2.142-0.958,2.142-2.142v-0.235c0-1.183-0.958-2.142-2.142-2.142
		h-53.036c-1.183,0-2.142,0.958-2.142,2.142v0.235C125.861,141.73,126.82,142.688,128.003,142.688z"/>
	<path style="fill:#F5F5F5;" d="M169.908,149.346v9.159c0,1.183,0.958,2.142,2.142,2.142h8.988c1.183,0,2.142-0.958,2.142-2.142
		v-0.122c0-1.183-0.958-2.142-2.142-2.142h-4.526c-1.183,0-2.142-0.958-2.142-2.142v-0.232c0-1.183,0.958-2.142,2.142-2.142h8.988
		c1.183,0,2.142,0.958,2.142,2.142v4.639c0,1.183,0.958,2.142,2.142,2.142h17.74c1.183,0,2.142-0.958,2.142-2.142v-18.194
		c0-1.183-0.958-2.142-2.142-2.142h-0.12c-1.183,0-2.142,0.958-2.142,2.142v13.787c0,1.183-0.958,2.142-2.142,2.142h-0.122
		c-1.183,0-2.142-0.958-2.142-2.142v-13.787c0-1.183-0.958-2.142-2.142-2.142h-0.177c-1.183,0-2.142,0.958-2.142,2.142v13.787
		c0,1.183-0.958,2.142-2.142,2.142h-0.065c-1.183,0-2.142-0.958-2.142-2.142v-13.787c0-1.183-0.958-2.142-2.142-2.142h-0.12
		c-1.183,0-2.142,0.958-2.142,2.142v4.751c0,1.183-0.958,2.142-2.142,2.142h-13.449
		C170.868,147.205,169.908,148.164,169.908,149.346z"/>
	<path style="fill:#F5F5F5;" d="M136.933,156.241h-0.12c-1.183,0-2.142,0.958-2.142,2.142v0.122c0,1.183,0.958,2.142,2.142,2.142
		h0.12c1.183,0,2.142-0.958,2.142-2.142v-0.122C139.075,157.199,138.116,156.241,136.933,156.241z"/>
	<path style="fill:#F5F5F5;" d="M216.21,142.688h53.093c1.183,0,2.142-0.958,2.142-2.142v-0.235c0-1.183-0.958-2.142-2.142-2.142
		H216.21c-1.183,0-2.142,0.958-2.142,2.142v0.235C214.069,141.73,215.028,142.688,216.21,142.688z"/>
	<path style="fill:#F5F5F5;" d="M216.21,160.647h0.122c1.183,0,2.142-0.958,2.142-2.142v-4.639c0-1.183,0.958-2.142,2.142-2.142
		h8.93c1.183,0,2.142,0.958,2.142,2.142v4.639c0,1.183,0.958,2.142,2.142,2.142h17.798c1.183,0,2.142-0.958,2.142-2.142v-9.159
		c0-1.183-0.958-2.142-2.142-2.142h-8.988c-1.183,0-2.142,0.958-2.142,2.142v0.235c0,1.183,0.958,2.142,2.142,2.142h4.581
		c1.183,0,2.142,0.958,2.142,2.142v0.232c0,1.183-0.958,2.142-2.142,2.142h-8.93c-1.183,0-2.142-0.958-2.142-2.142v-4.752
		c0-1.183-0.958-2.142-2.142-2.142h-17.798c-1.183,0-2.142,0.958-2.142,2.142v9.159C214.069,159.689,215.028,160.647,216.21,160.647
		z"/>
	<path style="fill:#F5F5F5;" d="M225.143,156.241h-0.065c-1.183,0-2.142,0.958-2.142,2.142v0.122c0,1.183,0.958,2.142,2.142,2.142
		h0.065c1.183,0,2.142-0.958,2.142-2.142v-0.122C227.285,157.199,226.326,156.241,225.143,156.241z"/>
	<path style="fill:#F5F5F5;" d="M258.174,149.346v9.159c0,1.183,0.958,2.142,2.142,2.142h8.988c1.183,0,2.142-0.958,2.142-2.142
		v-0.122c0-1.183-0.958-2.142-2.142-2.142h-4.581c-1.183,0-2.142-0.958-2.142-2.142v-0.232c0-1.183,0.958-2.142,2.142-2.142h8.988
		c1.183,0,2.142,0.958,2.142,2.142v4.639c0,1.183,0.958,2.142,2.142,2.142h17.74c1.183,0,2.142-0.958,2.142-2.142v-18.194
		c0-1.183-0.958-2.142-2.142-2.142h-0.122c-1.183,0-2.142,0.958-2.142,2.142v13.787c0,1.183-0.958,2.142-2.142,2.142h-0.12
		c-1.183,0-2.142-0.958-2.142-2.142v-13.787c0-1.183-0.958-2.142-2.142-2.142h-0.12c-1.183,0-2.142,0.958-2.142,2.142v13.787
		c0,1.183-0.958,2.142-2.142,2.142h-0.122c-1.182,0-2.142-0.958-2.142-2.142v-13.787c0-1.183-0.958-2.142-2.142-2.142h-0.12
		c-1.183,0-2.142,0.958-2.142,2.142v4.751c0,1.183-0.958,2.142-2.142,2.142h-13.394
		C259.133,147.205,258.174,148.164,258.174,149.346z"/>
	<path style="fill:#F5F5F5;" d="M304.421,142.688h53.093c1.183,0,2.142-0.958,2.142-2.142v-0.235c0-1.183-0.958-2.142-2.142-2.142
		h-53.093c-1.183,0-2.142,0.958-2.142,2.142v0.235C302.279,141.73,303.238,142.688,304.421,142.688z"/>
	<path style="fill:#F5F5F5;" d="M313.354,156.241h-0.065c-1.183,0-2.142,0.958-2.142,2.142v0.122c0,1.183,0.958,2.142,2.142,2.142
		h0.065c1.183,0,2.142-0.958,2.142-2.142v-0.122C315.496,157.199,314.537,156.241,313.354,156.241z"/>
	<path style="fill:#F5F5F5;" d="M346.442,149.346v9.159c0,1.183,0.958,2.142,2.142,2.142h8.93c1.183,0,2.142-0.958,2.142-2.142
		v-0.122c0-1.183-0.958-2.142-2.142-2.142h-4.581c-1.183,0-2.142-0.958-2.142-2.142v-0.232c0-1.183,0.958-2.142,2.142-2.142h8.985
		c1.183,0,2.142,0.958,2.142,2.142v4.639c0,1.183,0.958,2.142,2.142,2.142h17.743c1.183,0,2.142-0.958,2.142-2.142v-18.194
		c0-1.183-0.958-2.142-2.142-2.142h-0.122c-1.183,0-2.142,0.958-2.142,2.142v13.787c0,1.183-0.958,2.142-2.142,2.142h-0.12
		c-1.183,0-2.142-0.958-2.142-2.142v-13.787c0-1.183-0.958-2.142-2.142-2.142h-0.122c-1.183,0-2.142,0.958-2.142,2.142v13.787
		c0,1.183-0.958,2.142-2.142,2.142h-0.12c-1.183,0-2.142-0.958-2.142-2.142v-13.787c0-1.183-0.958-2.142-2.142-2.142h-0.122
		c-1.183,0-2.142,0.958-2.142,2.142v4.751c0,1.183-0.958,2.142-2.142,2.142h-13.334
		C347.401,147.205,346.442,148.164,346.442,149.346z"/>
	<path style="fill:#F5F5F5;" d="M304.421,160.647h0.122c1.183,0,2.142-0.958,2.142-2.142v-4.639c0-1.183,0.958-2.142,2.142-2.142
		h8.93c1.183,0,2.142,0.958,2.142,2.142v4.639c0,1.183,0.958,2.142,2.142,2.142h17.798c1.183,0,2.142-0.958,2.142-2.142v-9.159
		c0-1.183-0.958-2.142-2.142-2.142h-8.933c-1.183,0-2.142,0.958-2.142,2.142v0.235c0,1.183,0.958,2.142,2.142,2.142h4.471
		c1.183,0,2.142,0.958,2.142,2.142v0.232c0,1.183-0.958,2.142-2.142,2.142h-8.875c-1.183,0-2.142-0.958-2.142-2.142v-4.752
		c0-1.183-0.958-2.142-2.142-2.142h-17.797c-1.183,0-2.142,0.958-2.142,2.142v9.159
		C302.279,159.689,303.238,160.647,304.421,160.647z"/>
	<path style="fill:#F5F5F5;" d="M434.653,149.346v9.159c0,1.183,0.958,2.142,2.142,2.142h8.93c1.182,0,2.142-0.958,2.142-2.142
		v-0.122c0-1.183-0.958-2.142-2.142-2.142h-4.471c-1.183,0-2.142-0.958-2.142-2.142v-0.232c0-1.183,0.958-2.142,2.142-2.142h8.875
		c1.183,0,2.142,0.958,2.142,2.142v4.639c0,1.183,0.958,2.142,2.142,2.142h17.74c1.183,0,2.142-0.958,2.142-2.142v-18.194
		c0-1.183-0.958-2.142-2.142-2.142h-0.062c-1.183,0-2.142,0.958-2.142,2.142v13.787c0,1.183-0.958,2.142-2.142,2.142h-0.177
		c-1.183,0-2.142-0.958-2.142-2.142v-13.787c0-1.183-0.958-2.142-2.142-2.142h-0.122c-1.183,0-2.142,0.958-2.142,2.142v13.787
		c0,1.183-0.958,2.142-2.142,2.142h-0.12c-1.183,0-2.142-0.958-2.142-2.142v-13.787c0-1.183-0.958-2.142-2.142-2.142h-0.122
		c-1.183,0-2.142,0.958-2.142,2.142v4.751c0,1.183-0.958,2.142-2.142,2.142h-13.334
		C435.612,147.205,434.653,148.164,434.653,149.346z"/>
	<path style="fill:#F5F5F5;" d="M392.631,142.688h53.093c1.182,0,2.142-0.958,2.142-2.142v-0.235c0-1.183-0.958-2.142-2.142-2.142
		h-53.093c-1.183,0-2.142,0.958-2.142,2.142v0.235C390.49,141.73,391.449,142.688,392.631,142.688z"/>
	<path style="fill:#F5F5F5;" d="M401.62,156.241h-0.177c-1.183,0-2.142,0.958-2.142,2.142v0.122c0,1.183,0.958,2.142,2.142,2.142
		h0.177c1.183,0,2.142-0.958,2.142-2.142v-0.122C403.762,157.199,402.802,156.241,401.62,156.241z"/>
	<path style="fill:#F5F5F5;" d="M392.631,160.647h0.122c1.183,0,2.142-0.958,2.142-2.142v-4.639c0-1.183,0.958-2.142,2.142-2.142
		h8.985c1.183,0,2.142,0.958,2.142,2.142v4.639c0,1.183,0.958,2.142,2.142,2.142h17.743c1.183,0,2.142-0.958,2.142-2.142v-9.159
		c0-1.183-0.958-2.142-2.142-2.142h-8.933c-1.183,0-2.142,0.958-2.142,2.142v0.235c0,1.183,0.958,2.142,2.142,2.142h4.584
		c1.183,0,2.142,0.958,2.142,2.142v0.232c0,1.183-0.958,2.142-2.142,2.142h-9.045c-1.183,0-2.142-0.958-2.142-2.142v-4.752
		c0-1.183-0.958-2.142-2.142-2.142h-17.74c-1.183,0-2.142,0.958-2.142,2.142v9.159C390.49,159.689,391.449,160.647,392.631,160.647z
		"/>
	<path style="fill:#F5F5F5;" d="M478.755,140.311v0.235c0,1.183,0.958,2.142,2.142,2.142h1.381c-0.127-1.53-0.351-3.038-0.67-4.519
		h-0.711C479.713,138.17,478.755,139.128,478.755,140.311z"/>
	<path style="fill:#F5F5F5;" d="M478.755,149.346v9.159c0,1.183,0.958,2.142,2.142,2.142h0.065c0.564,0,1.071-0.221,1.453-0.577
		l-0.003-12.865h-1.517C479.713,147.205,478.755,148.164,478.755,149.346z"/>
	<path style="fill:#F5F5F5;" d="M33.244,169.773v-2.356c0-1.183-0.958-2.142-2.142-2.142h-1.547l0.001,4.498H33.244z"/>
	<path style="fill:#F5F5F5;" d="M33.244,172.17v-2.397h-3.688v4.539h1.546C32.286,174.312,33.244,173.352,33.244,172.17z"/>
	<path style="fill:#F5F5F5;" d="M77.35,167.418c0-1.183-0.958-2.142-2.142-2.142H39.792c-1.183,0-2.142,0.958-2.142,2.142v2.356
		h39.699C77.35,169.773,77.35,167.418,77.35,167.418z"/>
	<path style="fill:#F5F5F5;" d="M121.455,167.418c0-1.183-0.958-2.142-2.142-2.142H83.898c-1.183,0-2.142,0.958-2.142,2.142v2.356
		h39.699C121.455,169.774,121.455,167.418,121.455,167.418z"/>
	<path style="fill:#F5F5F5;" d="M39.792,174.312h35.415c1.183,0,2.142-0.958,2.142-2.142v-2.397H37.651v2.397
		C37.651,173.352,38.61,174.312,39.792,174.312z"/>
	<path style="fill:#F5F5F5;" d="M83.898,174.312h35.415c1.183,0,2.142-0.958,2.142-2.142v-2.397H81.756v2.397
		C81.756,173.352,82.714,174.312,83.898,174.312z"/>
	<path style="fill:#F5F5F5;" d="M209.665,167.418c0-1.183-0.958-2.142-2.142-2.142H172.05c-1.182,0-2.142,0.958-2.142,2.142v2.356
		h39.757L209.665,167.418L209.665,167.418z"/>
	<path style="fill:#F5F5F5;" d="M165.561,167.418c0-1.183-0.958-2.142-2.142-2.142h-35.415c-1.183,0-2.142,0.958-2.142,2.142v2.356
		h39.699V167.418z"/>
	<path style="fill:#F5F5F5;" d="M172.05,174.312h35.473c1.183,0,2.142-0.958,2.142-2.142v-2.397h-39.757v2.397
		C169.908,173.352,170.868,174.312,172.05,174.312z"/>
	<path style="fill:#F5F5F5;" d="M128.003,174.312h35.415c1.183,0,2.142-0.958,2.142-2.142v-2.397h-39.699v2.397
		C125.861,173.352,126.82,174.312,128.003,174.312z"/>
	<path style="fill:#F5F5F5;" d="M253.77,167.418c0-1.183-0.958-2.142-2.142-2.142H216.21c-1.183,0-2.142,0.958-2.142,2.142v2.356
		h39.702V167.418z"/>
	<path style="fill:#F5F5F5;" d="M297.876,167.418c0-1.183-0.958-2.142-2.142-2.142h-35.418c-1.183,0-2.142,0.958-2.142,2.142v2.356
		h39.702V167.418z"/>
	<path style="fill:#F5F5F5;" d="M260.316,174.312h35.418c1.183,0,2.142-0.958,2.142-2.142v-2.397h-39.702v2.397
		C258.174,173.352,259.133,174.312,260.316,174.312z"/>
	<path style="fill:#F5F5F5;" d="M216.21,174.312h35.418c1.183,0,2.142-0.958,2.142-2.142v-2.397h-39.702v2.397
		C214.069,173.352,215.028,174.312,216.21,174.312z"/>
	<path style="fill:#F5F5F5;" d="M386.087,167.418c0-1.183-0.958-2.142-2.142-2.142h-35.36c-1.183,0-2.142,0.958-2.142,2.142v2.356
		h39.644V167.418L386.087,167.418z"/>
	<path style="fill:#F5F5F5;" d="M341.981,167.418c0-1.183-0.958-2.142-2.142-2.142h-35.418c-1.183,0-2.142,0.958-2.142,2.142v2.356
		h39.702V167.418z"/>
	<path style="fill:#F5F5F5;" d="M304.421,174.312h35.418c1.183,0,2.142-0.958,2.142-2.142v-2.397h-39.702v2.397
		C302.279,173.352,303.238,174.312,304.421,174.312z"/>
	<path style="fill:#F5F5F5;" d="M348.584,174.312h35.36c1.183,0,2.142-0.958,2.142-2.142v-2.397h-39.644v2.397
		C346.442,173.352,347.401,174.312,348.584,174.312z"/>
	<path style="fill:#F5F5F5;" d="M474.294,167.418c0-1.183-0.958-2.142-2.142-2.142h-35.358c-1.183,0-2.142,0.958-2.142,2.142v2.356
		h39.64v-2.356H474.294z"/>
	<path style="fill:#F5F5F5;" d="M430.192,167.418c0-1.183-0.958-2.142-2.142-2.142h-35.419c-1.183,0-2.142,0.958-2.142,2.142v2.356
		h39.702v-2.356H430.192z"/>
	<path style="fill:#F5F5F5;" d="M392.631,174.312h35.418c1.183,0,2.142-0.958,2.142-2.142v-2.397h-39.702v2.397
		C390.49,173.352,391.449,174.312,392.631,174.312z"/>
	<path style="fill:#F5F5F5;" d="M436.795,174.312h35.358c1.183,0,2.142-0.958,2.142-2.142v-2.397h-39.64v2.397
		C434.653,173.352,435.612,174.312,436.795,174.312z"/>
	<path style="fill:#F5F5F5;" d="M478.755,167.418v2.356h3.661l-0.001-4.498h-1.52C479.713,165.276,478.755,166.236,478.755,167.418z
		"/>
	<path style="fill:#F5F5F5;" d="M478.755,169.773v2.397c0,1.183,0.958,2.142,2.142,2.142h1.521l-0.001-4.539H478.755z"/>
	<path style="fill:#F5F5F5;" d="M478.757,353.494v18.194c0,1.183,0.958,2.142,2.142,2.142h0.12c0.222,0,0.432-0.044,0.635-0.106
		c0.516-2.408,0.796-4.886,0.796-7.405l-0.003-14.966h-1.546C479.717,351.353,478.757,352.312,478.757,353.494z"/>
	<path style="fill:#F5F5F5;" d="M472.209,351.353h-0.12c-1.183,0-2.142,0.958-2.142,2.142v4.639c0,1.183-0.958,2.142-2.142,2.142
		h-8.933c-1.183,0-2.142-0.958-2.142-2.142v-4.639c0-1.183-0.958-2.142-2.142-2.142h-17.795c-1.183,0-2.142,0.958-2.142,2.142v9.159
		c0,1.183,0.958,2.142,2.142,2.142h8.93c1.182,0,2.142-0.958,2.142-2.142v-0.236c0-1.183-0.958-2.142-2.142-2.142h-4.526
		c-1.183,0-2.142-0.958-2.142-2.142v-0.232c0-1.183,0.958-2.142,2.142-2.142h8.988c1.183,0,2.142,0.958,2.142,2.142v4.752
		c0,1.183,0.958,2.142,2.142,2.142h17.74c1.183,0,2.142-0.958,2.142-2.142v-9.159C474.351,352.312,473.393,351.353,472.209,351.353z
		"/>
	<path style="fill:#F5F5F5;" d="M430.247,362.653v-9.159c0-1.183-0.958-2.142-2.142-2.142h-8.988c-1.183,0-2.142,0.958-2.142,2.142
		v0.122c0,1.183,0.958,2.142,2.142,2.142h4.584c1.183,0,2.142,0.958,2.142,2.142v0.232c0,1.183-0.958,2.142-2.142,2.142h-8.93
		c-1.183,0-2.142-0.958-2.142-2.142v-4.639c0-1.183-0.958-2.142-2.142-2.142h-17.798c-1.183,0-2.142,0.958-2.142,2.142v18.194
		c0,1.183,0.958,2.142,2.142,2.142h0.12c1.183,0,2.142-0.958,2.142-2.142V357.9c0-1.183,0.958-2.142,2.142-2.142h0.065
		c1.183,0,2.142,0.958,2.142,2.142v13.787c0,1.183,0.958,2.142,2.142,2.142h0.177c1.183,0,2.142-0.958,2.142-2.142V357.9
		c0-1.183,0.958-2.142,2.142-2.142h0.177c1.183,0,2.142,0.958,2.142,2.142v13.787c0,1.183,0.958,2.142,2.142,2.142h0.122
		c1.183,0,2.142-0.958,2.142-2.142v-4.752c0-1.183,0.958-2.142,2.142-2.142h13.334C429.287,364.795,430.247,363.837,430.247,362.653
		z"/>
	<path style="fill:#F5F5F5;" d="M463.279,355.759h0.12c1.183,0,2.142-0.958,2.142-2.142v-0.122c0-1.183-0.958-2.142-2.142-2.142
		h-0.12c-1.183,0-2.142,0.958-2.142,2.142v0.122C461.138,354.8,462.097,355.759,463.279,355.759z"/>
	<path style="fill:#F5F5F5;" d="M472.209,369.311h-53.093c-1.183,0-2.142,0.958-2.142,2.142v0.236c0,1.183,0.958,2.142,2.142,2.142
		h53.093c1.183,0,2.142-0.958,2.142-2.142v-0.236C474.351,370.27,473.393,369.311,472.209,369.311z"/>
	<path style="fill:#F5F5F5;" d="M375.07,355.759h0.12c1.183,0,2.142-0.958,2.142-2.142v-0.122c0-1.183-0.958-2.142-2.142-2.142
		h-0.12c-1.183,0-2.142,0.958-2.142,2.142v0.122C372.928,354.8,373.886,355.759,375.07,355.759z"/>
	<path style="fill:#F5F5F5;" d="M384,351.353h-0.12c-1.183,0-2.142,0.958-2.142,2.142v4.639c0,1.183-0.958,2.142-2.142,2.142h-8.93
		c-1.183,0-2.142-0.958-2.142-2.142v-4.639c0-1.183-0.958-2.142-2.142-2.142h-17.798c-1.183,0-2.142,0.958-2.142,2.142v9.159
		c0,1.183,0.958,2.142,2.142,2.142h8.988c1.183,0,2.142-0.958,2.142-2.142v-0.236c0-1.183-0.958-2.142-2.142-2.142h-4.526
		c-1.183,0-2.142-0.958-2.142-2.142v-0.232c0-1.183,0.958-2.142,2.142-2.142h8.93c1.183,0,2.142,0.958,2.142,2.142v4.752
		c0,1.183,0.958,2.142,2.142,2.142H384c1.183,0,2.142-0.958,2.142-2.142v-9.159C386.142,352.312,385.182,351.353,384,351.353z"/>
	<path style="fill:#F5F5F5;" d="M342.094,362.653v-9.159c0-1.183-0.958-2.142-2.142-2.142h-8.988c-1.183,0-2.142,0.958-2.142,2.142
		v0.122c0,1.183,0.958,2.142,2.142,2.142h4.526c1.183,0,2.142,0.958,2.142,2.142v0.232c0,1.183-0.958,2.142-2.142,2.142h-8.988
		c-1.183,0-2.142-0.958-2.142-2.142v-4.639c0-1.183-0.958-2.142-2.142-2.142h-17.74c-1.183,0-2.142,0.958-2.142,2.142v18.194
		c0,1.183,0.958,2.142,2.142,2.142h0.12c1.183,0,2.142-0.958,2.142-2.142V357.9c0-1.183,0.958-2.142,2.142-2.142h0.122
		c1.183,0,2.142,0.958,2.142,2.142v13.787c0,1.183,0.958,2.142,2.142,2.142h0.177c1.183,0,2.142-0.958,2.142-2.142V357.9
		c0-1.183,0.958-2.142,2.142-2.142h0.065c1.183,0,2.142,0.958,2.142,2.142v13.787c0,1.183,0.958,2.142,2.142,2.142h0.12
		c1.183,0,2.142-0.958,2.142-2.142v-4.752c0-1.183,0.958-2.142,2.142-2.142h13.449C341.135,364.795,342.094,363.837,342.094,362.653
		z"/>
	<path style="fill:#F5F5F5;" d="M384,369.311h-53.035c-1.183,0-2.142,0.958-2.142,2.142v0.236c0,1.183,0.958,2.142,2.142,2.142H384
		c1.183,0,2.142-0.958,2.142-2.142v-0.236C386.142,370.27,385.182,369.311,384,369.311z"/>
	<path style="fill:#F5F5F5;" d="M253.828,362.653v-9.159c0-1.183-0.958-2.142-2.142-2.142h-8.988c-1.183,0-2.142,0.958-2.142,2.142
		v0.122c0,1.183,0.958,2.142,2.142,2.142h4.581c1.182,0,2.142,0.958,2.142,2.142v0.232c0,1.183-0.958,2.142-2.142,2.142h-8.988
		c-1.183,0-2.142-0.958-2.142-2.142v-4.639c0-1.183-0.958-2.142-2.142-2.142h-17.74c-1.183,0-2.142,0.958-2.142,2.142v18.194
		c0,1.183,0.958,2.142,2.142,2.142h0.122c1.183,0,2.142-0.958,2.142-2.142V357.9c0-1.183,0.958-2.142,2.142-2.142h0.12
		c1.183,0,2.142,0.958,2.142,2.142v13.787c0,1.183,0.958,2.142,2.142,2.142h0.12c1.183,0,2.142-0.958,2.142-2.142V357.9
		c0-1.183,0.958-2.142,2.142-2.142h0.122c1.183,0,2.142,0.958,2.142,2.142v13.787c0,1.183,0.958,2.142,2.142,2.142h0.12
		c1.183,0,2.142-0.958,2.142-2.142v-4.752c0-1.183,0.958-2.142,2.142-2.142h13.394C252.869,364.795,253.828,363.837,253.828,362.653
		z"/>
	<path style="fill:#F5F5F5;" d="M295.791,369.311h-53.093c-1.183,0-2.142,0.958-2.142,2.142v0.236c0,1.183,0.958,2.142,2.142,2.142
		h53.093c1.183,0,2.142-0.958,2.142-2.142v-0.236C297.933,370.27,296.975,369.311,295.791,369.311z"/>
	<path style="fill:#F5F5F5;" d="M295.791,351.353h-0.122c-1.183,0-2.142,0.958-2.142,2.142v4.639c0,1.183-0.958,2.142-2.142,2.142
		h-8.93c-1.183,0-2.142-0.958-2.142-2.142v-4.639c0-1.183-0.958-2.142-2.142-2.142h-17.798c-1.183,0-2.142,0.958-2.142,2.142v9.159
		c0,1.183,0.958,2.142,2.142,2.142h8.988c1.183,0,2.142-0.958,2.142-2.142v-0.236c0-1.183-0.958-2.142-2.142-2.142h-4.581
		c-1.183,0-2.142-0.958-2.142-2.142v-0.232c0-1.183,0.958-2.142,2.142-2.142h8.93c1.183,0,2.142,0.958,2.142,2.142v4.752
		c0,1.183,0.958,2.142,2.142,2.142h17.798c1.183,0,2.142-0.958,2.142-2.142v-9.159C297.933,352.312,296.975,351.353,295.791,351.353
		z"/>
	<path style="fill:#F5F5F5;" d="M286.859,355.759h0.065c1.183,0,2.142-0.958,2.142-2.142v-0.122c0-1.183-0.958-2.142-2.142-2.142
		h-0.065c-1.183,0-2.142,0.958-2.142,2.142v0.122C284.717,354.8,285.676,355.759,286.859,355.759z"/>
	<path style="fill:#F5F5F5;" d="M207.582,351.353h-0.122c-1.183,0-2.142,0.958-2.142,2.142v4.639c0,1.183-0.958,2.142-2.142,2.142
		h-8.93c-1.183,0-2.142-0.958-2.142-2.142v-4.639c0-1.183-0.958-2.142-2.142-2.142h-17.798c-1.183,0-2.142,0.958-2.142,2.142v9.159
		c0,1.183,0.958,2.142,2.142,2.142h8.933c1.183,0,2.142-0.958,2.142-2.142v-0.236c0-1.183-0.958-2.142-2.142-2.142h-4.471
		c-1.182,0-2.142-0.958-2.142-2.142v-0.232c0-1.183,0.958-2.142,2.142-2.142h8.875c1.183,0,2.142,0.958,2.142,2.142v4.752
		c0,1.183,0.958,2.142,2.142,2.142h17.798c1.183,0,2.142-0.958,2.142-2.142v-9.159C209.724,352.312,208.764,351.353,207.582,351.353
		z"/>
	<path style="fill:#F5F5F5;" d="M207.582,369.311h-53.093c-1.183,0-2.142,0.958-2.142,2.142v0.236c0,1.183,0.958,2.142,2.142,2.142
		h53.093c1.183,0,2.142-0.958,2.142-2.142v-0.236C209.724,370.27,208.764,369.311,207.582,369.311z"/>
	<path style="fill:#F5F5F5;" d="M198.648,355.759h0.065c1.183,0,2.142-0.958,2.142-2.142v-0.122c0-1.183-0.958-2.142-2.142-2.142
		h-0.065c-1.183,0-2.142,0.958-2.142,2.142v0.122C196.507,354.8,197.466,355.759,198.648,355.759z"/>
	<path style="fill:#F5F5F5;" d="M165.561,362.653v-9.159c0-1.183-0.958-2.142-2.142-2.142h-8.93c-1.183,0-2.142,0.958-2.142,2.142
		v0.122c0,1.183,0.958,2.142,2.142,2.142h4.581c1.183,0,2.142,0.958,2.142,2.142v0.232c0,1.183-0.958,2.142-2.142,2.142h-8.985
		c-1.183,0-2.142-0.958-2.142-2.142v-4.639c0-1.183-0.958-2.142-2.142-2.142h-17.743c-1.183,0-2.142,0.958-2.142,2.142v18.194
		c0,1.183,0.958,2.142,2.142,2.142h0.122c1.183,0,2.142-0.958,2.142-2.142V357.9c0-1.183,0.958-2.142,2.142-2.142h0.12
		c1.183,0,2.142,0.958,2.142,2.142v13.787c0,1.183,0.958,2.142,2.142,2.142h0.122c1.183,0,2.142-0.958,2.142-2.142V357.9
		c0-1.183,0.958-2.142,2.142-2.142h0.12c1.183,0,2.142,0.958,2.142,2.142v13.787c0,1.183,0.958,2.142,2.142,2.142h0.122
		c1.183,0,2.142-0.958,2.142-2.142v-4.752c0-1.183,0.958-2.142,2.142-2.142h13.334C164.601,364.795,165.561,363.837,165.561,362.653
		z"/>
	<path style="fill:#F5F5F5;" d="M77.35,362.653v-9.159c0-1.183-0.958-2.142-2.142-2.142h-8.93c-1.182,0-2.142,0.958-2.142,2.142
		v0.122c0,1.183,0.958,2.142,2.142,2.142h4.471c1.183,0,2.142,0.958,2.142,2.142v0.232c0,1.183-0.958,2.142-2.142,2.142h-8.875
		c-1.182,0-2.142-0.958-2.142-2.142v-4.639c0-1.183-0.958-2.142-2.142-2.142H39.85c-1.183,0-2.142,0.958-2.142,2.142v18.194
		c0,1.183,0.958,2.142,2.142,2.142h0.062c1.183,0,2.142-0.958,2.142-2.142V357.9c0-1.183,0.958-2.142,2.142-2.142h0.177
		c1.182,0,2.142,0.958,2.142,2.142v13.787c0,1.183,0.958,2.142,2.142,2.142h0.122c1.183,0,2.142-0.958,2.142-2.142V357.9
		c0-1.183,0.958-2.142,2.142-2.142h0.12c1.183,0,2.142,0.958,2.142,2.142v13.787c0,1.183,0.958,2.142,2.142,2.142h0.122
		c1.183,0,2.142-0.958,2.142-2.142v-4.752c0-1.183,0.958-2.142,2.142-2.142h13.334C76.391,364.795,77.35,363.837,77.35,362.653z"/>
	<path style="fill:#F5F5F5;" d="M110.383,355.759h0.177c1.183,0,2.142-0.958,2.142-2.142v-0.122c0-1.183-0.958-2.142-2.142-2.142
		h-0.177c-1.183,0-2.142,0.958-2.142,2.142v0.122C108.241,354.8,109.2,355.759,110.383,355.759z"/>
	<path style="fill:#F5F5F5;" d="M119.371,351.353h-0.122c-1.183,0-2.142,0.958-2.142,2.142v4.639c0,1.183-0.958,2.142-2.142,2.142
		h-8.985c-1.183,0-2.142-0.958-2.142-2.142v-4.639c0-1.183-0.958-2.142-2.142-2.142H83.953c-1.183,0-2.142,0.958-2.142,2.142v9.159
		c0,1.183,0.958,2.142,2.142,2.142h8.933c1.183,0,2.142-0.958,2.142-2.142v-0.236c0-1.183-0.958-2.142-2.142-2.142h-4.584
		c-1.183,0-2.142-0.958-2.142-2.142v-0.232c0-1.183,0.958-2.142,2.142-2.142h9.046c1.182,0,2.142,0.958,2.142,2.142v4.752
		c0,1.183,0.958,2.142,2.142,2.142h17.74c1.183,0,2.142-0.958,2.142-2.142v-9.159C121.513,352.312,120.554,351.353,119.371,351.353z
		"/>
	<path style="fill:#F5F5F5;" d="M119.371,369.311H66.278c-1.182,0-2.142,0.958-2.142,2.142v0.236c0,1.183,0.958,2.142,2.142,2.142
		h53.093c1.183,0,2.142-0.958,2.142-2.142v-0.236C121.513,370.27,120.554,369.311,119.371,369.311z"/>
	<path style="fill:#F5F5F5;" d="M33.247,362.653v-9.159c0-1.183-0.958-2.142-2.142-2.142H31.04c-0.564,0-1.071,0.221-1.453,0.577
		l0.003,12.865h1.516C32.288,364.795,33.247,363.837,33.247,362.653z"/>
	<path style="fill:#F5F5F5;" d="M33.247,371.688v-0.236c0-1.183-0.958-2.142-2.142-2.142h-1.381c0.127,1.53,0.351,3.038,0.671,4.519
		h0.711C32.288,373.83,33.247,372.872,33.247,371.688z"/>
	<path style="fill:#F5F5F5;" d="M478.757,342.226v2.356c0,1.183,0.958,2.142,2.142,2.142h1.547l-0.001-4.498H478.757z"/>
	<path style="fill:#F5F5F5;" d="M478.757,339.831v2.397h3.688v-4.539h-1.546C479.717,337.689,478.757,338.647,478.757,339.831z"/>
	<path style="fill:#F5F5F5;" d="M436.795,346.724h35.415c1.183,0,2.142-0.958,2.142-2.142v-2.356h-39.699v2.356
		C434.653,345.765,435.612,346.724,436.795,346.724z"/>
	<path style="fill:#F5F5F5;" d="M392.69,346.724h35.415c1.183,0,2.142-0.958,2.142-2.142v-2.356h-39.699v2.356
		C390.548,345.765,391.506,346.724,392.69,346.724z"/>
	<path style="fill:#F5F5F5;" d="M430.247,339.831c0-1.183-0.958-2.142-2.142-2.142H392.69c-1.183,0-2.142,0.958-2.142,2.142v2.397
		h39.699V339.831L430.247,339.831z"/>
	<path style="fill:#F5F5F5;" d="M474.351,339.831c0-1.183-0.958-2.142-2.142-2.142h-35.415c-1.183,0-2.142,0.958-2.142,2.142v2.397
		h39.699V339.831L474.351,339.831z"/>
	<path style="fill:#F5F5F5;" d="M348.584,346.724h35.415c1.183,0,2.142-0.958,2.142-2.142v-2.356h-39.699v2.356
		C346.442,345.765,347.401,346.724,348.584,346.724z"/>
	<path style="fill:#F5F5F5;" d="M304.479,346.724h35.473c1.182,0,2.142-0.958,2.142-2.142v-2.356h-39.757v2.356
		C302.337,345.765,303.297,346.724,304.479,346.724z"/>
	<path style="fill:#F5F5F5;" d="M386.142,339.831c0-1.183-0.958-2.142-2.142-2.142h-35.415c-1.183,0-2.142,0.958-2.142,2.142v2.397
		h39.699V339.831L386.142,339.831z"/>
	<path style="fill:#F5F5F5;" d="M342.094,339.831c0-1.183-0.958-2.142-2.142-2.142h-35.473c-1.183,0-2.142,0.958-2.142,2.142v2.397
		h39.757V339.831z"/>
	<path style="fill:#F5F5F5;" d="M260.373,346.724h35.418c1.183,0,2.142-0.958,2.142-2.142v-2.356h-39.702v2.356
		C258.231,345.765,259.191,346.724,260.373,346.724z"/>
	<path style="fill:#F5F5F5;" d="M216.268,346.724h35.418c1.183,0,2.142-0.958,2.142-2.142v-2.356h-39.702v2.356
		C214.126,345.765,215.086,346.724,216.268,346.724z"/>
	<path style="fill:#F5F5F5;" d="M297.933,339.831c0-1.183-0.958-2.142-2.142-2.142h-35.418c-1.183,0-2.142,0.958-2.142,2.142v2.397
		h39.702V339.831z"/>
	<path style="fill:#F5F5F5;" d="M253.828,339.831c0-1.183-0.958-2.142-2.142-2.142h-35.418c-1.183,0-2.142,0.958-2.142,2.142v2.397
		h39.702V339.831z"/>
	<path style="fill:#F5F5F5;" d="M128.058,346.724h35.36c1.183,0,2.142-0.958,2.142-2.142v-2.356h-39.644v2.356
		C125.916,345.765,126.875,346.724,128.058,346.724z"/>
	<path style="fill:#F5F5F5;" d="M172.164,346.724h35.418c1.183,0,2.142-0.958,2.142-2.142v-2.356h-39.702v2.356
		C170.022,345.765,170.98,346.724,172.164,346.724z"/>
	<path style="fill:#F5F5F5;" d="M165.561,339.831c0-1.183-0.958-2.142-2.142-2.142h-35.36c-1.183,0-2.142,0.958-2.142,2.142v2.397
		h39.644V339.831z"/>
	<path style="fill:#F5F5F5;" d="M209.724,339.831c0-1.183-0.958-2.142-2.142-2.142h-35.418c-1.183,0-2.142,0.958-2.142,2.142v2.397
		h39.702V339.831z"/>
	<path style="fill:#F5F5F5;" d="M83.953,346.724h35.418c1.183,0,2.142-0.958,2.142-2.142v-2.356H81.811v2.356
		C81.811,345.765,82.769,346.724,83.953,346.724z"/>
	<path style="fill:#F5F5F5;" d="M39.85,346.724h35.358c1.183,0,2.142-0.958,2.142-2.142v-2.356H37.708v2.356
		C37.708,345.765,38.668,346.724,39.85,346.724z"/>
	<path style="fill:#F5F5F5;" d="M77.35,339.831c0-1.183-0.958-2.142-2.142-2.142H39.85c-1.183,0-2.142,0.958-2.142,2.142v2.397
		h39.64v-2.397H77.35z"/>
	<path style="fill:#F5F5F5;" d="M121.513,339.831c0-1.183-0.958-2.142-2.142-2.142H83.953c-1.183,0-2.142,0.958-2.142,2.142v2.397
		h39.702C121.513,342.227,121.513,339.831,121.513,339.831z"/>
	<path style="fill:#F5F5F5;" d="M33.247,344.582v-2.356h-3.661l0.001,4.498h1.52C32.288,346.724,33.247,345.765,33.247,344.582z"/>
	<path style="fill:#F5F5F5;" d="M33.247,342.226v-2.397c0-1.183-0.958-2.142-2.142-2.142h-1.521l0.001,4.539H33.247z"/>
</g>
<g>
	<path style="fill:#FF4B55;" d="M248.269,211.816c2.773,0.74,5.732-0.075,7.765-2.146c3.069,3.107,8.098,3.18,11.278,0.149
		c2.072-1.997,2.922-5.03,2.182-7.765c-2.698,4.364-8.393,5.768-12.757,3.033c-0.221-0.149-0.517-0.297-0.702-0.445
		c-4.104,3.033-9.909,2.219-13.016-1.848c-0.111-0.224-0.332-0.519-0.481-0.74C241.429,206.345,244.017,210.78,248.269,211.816z"/>
	<path style="fill:#FF4B55;" d="M265.496,298.21c9.94-5.457,18.235-14.055,22.784-25.379c7.745-19.412,2.867-41.321-11.948-55.534
		c-0.51-0.489-1.282,0.165-0.913,0.767c14.612,23.83,8.856,55.146-13.756,72.305l1.081-69.222c0.015-0.94-0.404-1.835-1.135-2.426
		l-3.677-2.972c-1.126-0.911-2.737-0.906-3.858,0.01l-3.624,2.963c-0.724,0.591-1.136,1.48-1.122,2.413l1.051,69.272
		c-22.616-17.152-28.385-48.495-13.795-72.341c0.369-0.602-0.405-1.255-0.915-0.766c-14.788,14.212-19.696,36.12-11.952,55.531
		c4.548,11.323,12.843,19.922,22.785,25.378c-6.327,2.168-12.978,3.319-19.702,3.125c-0.71-0.02-0.854,0.978-0.174,1.186
		c8.544,2.593,17.332,2.772,25.593,0.92l3.244,6.295c0.224,0.435,0.846,0.436,1.071,0.001l3.265-6.291
		c8.263,1.848,17.053,1.667,25.603-0.926c0.68-0.206,0.537-1.205-0.172-1.185C278.501,301.526,271.833,300.376,265.496,298.21z"/>
	<path style="fill:#FF4B55;" d="M305.955,233.855c-5.087-9.505-13.536-16.708-23.594-20.238c-0.63-0.221-1.121,0.611-0.606,1.035
		c22.203,18.29,26.654,50.865,9.484,74.448c-0.888,1.183-1.849,2.441-2.774,3.474C309.542,281.26,317.345,254.934,305.955,233.855z"
		/>
	<path style="fill:#FF4B55;" d="M220.795,289.101c-17.17-23.584-12.754-56.157,9.444-74.447c0.516-0.425,0.024-1.257-0.607-1.035
		c-10.045,3.53-18.434,10.733-23.555,20.237c-11.462,21.078-3.587,47.406,17.528,58.72
		C222.607,291.541,221.646,290.284,220.795,289.101z"/>
</g>
<g>
</g>
<g>
</g>
<g>
</g>
<g>
</g>
<g>
</g>
<g>
</g>
<g>
</g>
<g>
</g>
<g>
</g>
<g>
</g>
<g>
</g>
<g>
</g>
<g>
</g>
<g>
</g>
<g>
</g>
</svg>
