<?xml version="1.0" encoding="iso-8859-1"?>
<!-- Generator: Adobe Illustrator 19.0.0, SVG Export Plug-In . SVG Version: 6.00 Build 0)  -->
<svg version="1.1" id="Layer_1" xmlns="http://www.w3.org/2000/svg" xmlns:xlink="http://www.w3.org/1999/xlink" x="0px" y="0px"
	 viewBox="0 0 511.998 511.998" style="enable-background:new 0 0 511.998 511.998;" xml:space="preserve">
<polygon style="fill:#FF4B55;" points="482.44,323.909 482.435,296.745 482.422,215.254 482.417,188.09 482.416,181.221
	252.249,144.779 29.555,181.221 29.556,188.09 29.561,215.254 29.575,296.732 29.575,296.745 29.575,296.75 29.579,323.909
	29.58,330.777 255.998,368.468 482.441,330.777 "/>
<path style="fill:#73AF00;" d="M482.441,330.777H29.58l0.006,35.609v0.006c0.003,11.607,5.715,22.389,15.14,28.946
	c0.812,0.565,1.642,1.11,2.509,1.611l23.377,13.491l22.198,12.812l18.204,10.506l80.704,46.576l14.295,8.25l19.995,11.539
	l12.39,7.151c10.918,6.301,24.37,6.298,35.287-0.006l12.307-7.108l19.995-11.548l14.332-8.278l12.327-7.119l57.587-33.261
	l10.742-6.205l27.325-15.782l22.191-12.818l14.319-8.27c0.841-0.486,1.648-1.013,2.439-1.562c9.465-6.556,15.201-17.365,15.2-29.001
	L482.441,330.777z"/>
<path style="fill:#82AFFF;" d="M482.41,145.604c0-3.105-0.422-6.148-1.202-9.07c-0.42-1.572-0.948-3.107-1.576-4.597
	c-2.568-6.092-6.814-11.419-12.362-15.28c-0.812-0.565-1.642-1.11-2.509-1.611l-23.71-13.684l-22.198-12.81l-17.87-10.313
	L332.644,38.8l-12.364-7.136l-14.295-8.25L285.99,11.875L273.6,4.724c-10.918-6.301-24.37-6.298-35.287,0.006l-12.307,7.108
	l-19.995,11.548l-26.659,15.398l0,0l-68.331,39.464L81.076,95.545l-22.191,12.818l-11.697,6.756
	c-0.841,0.486-1.648,1.015-2.439,1.562c-3.392,2.349-6.296,5.254-8.638,8.536c-1.572,2.206-2.883,4.585-3.911,7.092
	c-1.715,4.179-2.652,8.706-2.651,13.371l0.006,35.54h452.861L482.41,145.604z"/>
<g>
	<path style="fill:#F5F5F5;" d="M271.405,302.64c-25.239,0-45.715-20.474-45.715-45.737c0-25.217,20.474-45.736,45.715-45.736
		c9.39,0,18.051,2.888,25.267,7.777c1.105,0.749,2.367-0.704,1.441-1.666c-10.786-11.213-26.052-18.055-42.977-17.478
		c-29.08,0.992-53.152,24.307-55.01,53.343c-2.128,33.258,24.206,60.898,56.994,60.898c16.151,0,30.667-6.752,41.033-17.548
		c0.916-0.953-0.349-2.384-1.443-1.642C289.486,299.748,280.811,302.64,271.405,302.64z"/>
	<path style="fill:#F5F5F5;" d="M311.425,228.748l4.742,13.336l12.784-6.077c0.963-0.457,1.968,0.547,1.51,1.51l-6.077,12.784
		l13.336,4.742c1.005,0.357,1.005,1.778,0,2.136l-13.336,4.742l6.077,12.784c0.457,0.963-0.547,1.968-1.51,1.51l-12.784-6.077
		l-4.742,13.336c-0.357,1.005-1.778,1.005-2.136,0l-4.742-13.336l-12.784,6.077c-0.963,0.457-1.968-0.547-1.51-1.51l6.077-12.784
		l-13.336-4.742c-1.005-0.357-1.005-1.778,0-2.136l13.336-4.742l-6.077-12.784c-0.457-0.963,0.547-1.967,1.51-1.51l12.784,6.077
		l4.742-13.336C309.647,227.744,311.068,227.744,311.425,228.748z"/>
</g>
<g>
</g>
<g>
</g>
<g>
</g>
<g>
</g>
<g>
</g>
<g>
</g>
<g>
</g>
<g>
</g>
<g>
</g>
<g>
</g>
<g>
</g>
<g>
</g>
<g>
</g>
<g>
</g>
<g>
</g>
</svg>
