<?xml version="1.0" encoding="iso-8859-1"?>
<!-- Generator: Adobe Illustrator 19.0.0, SVG Export Plug-In . SVG Version: 6.00 Build 0)  -->
<svg version="1.1" id="Layer_1" xmlns="http://www.w3.org/2000/svg" xmlns:xlink="http://www.w3.org/1999/xlink" x="0px" y="0px"
	 viewBox="0 0 512.002 512.002" style="enable-background:new 0 0 512.002 512.002;" xml:space="preserve">
<path style="fill:#73AF00;" d="M482.45,366.319l-0.008-42.41l-0.005-27.164l-0.014-81.491l-0.005-27.164l-0.008-42.485
	c-0.001-3.105-0.422-6.147-1.202-9.07c-0.42-1.572-0.948-3.107-1.577-4.597c-2.568-6.091-6.814-11.419-12.362-15.28
	c-0.812-0.565-1.642-1.11-2.509-1.611l-23.71-13.684l-22.198-12.81l-17.87-10.313L332.645,38.8l0,0l-26.659-15.386l-19.995-11.539
	l-12.39-7.151c-10.918-6.301-24.37-6.298-35.287,0.006l-12.307,7.108l-19.995,11.548l-26.659,15.398l0,0L111.026,78.25
	L81.079,95.547l-22.191,12.818l-11.697,6.755c-0.841,0.486-1.648,1.015-2.439,1.561c-3.392,2.349-6.296,5.254-8.638,8.538
	c-1.572,2.206-2.883,4.585-3.911,7.092c-1.715,4.179-2.652,8.706-2.651,13.371l0.007,42.41l0.005,27.164l0.014,81.478v0.014v0.005
	l0.005,27.159l0.007,42.478v0.006c0.003,11.607,5.715,22.388,15.14,28.946c0.812,0.565,1.642,1.11,2.509,1.611l23.377,13.491
	l22.198,12.812l18.204,10.506l94.999,54.826l19.995,11.539l12.39,7.151c10.918,6.301,24.37,6.298,35.287-0.006l12.307-7.108
	l19.995-11.548l26.659-15.397l0,0l57.588-33.261l10.742-6.205l27.325-15.782l22.191-12.818l14.319-8.27
	c0.841-0.486,1.648-1.015,2.439-1.561C476.716,388.765,482.452,377.956,482.45,366.319L482.45,366.319L482.45,366.319z"/>
<path style="fill:#FF4B55;" d="M152.215,361.366l23.415-23.415V302.83l-23.415-23.415L175.629,256v-35.122l-23.415-23.415
	l23.415-23.415v-35.122l-23.415-23.415l23.415-23.415v-35.12l-10.167-10.167l-13.648,7.883l12.107,10.09v9.756v9.756v0.001
	l-8.781,7.317l-14.633,12.194h-0.001h-23.414H93.678L82.667,94.63l-1.588,0.917l-12.092,6.984l12.983,12.983l-23.415,23.415v35.122
	l23.415,23.415L58.555,220.88v35.122l23.415,23.415L58.555,302.83v35.122l23.415,23.415l-23.415,23.415v18.701l11.707,6.757v-7.898
	v-9.756l0,0l15.053-12.543l8.361-6.968l0,0h23.414h23.415l23.415,19.512v9.756v9.756l0,0l-8.781,7.317l-14.633,12.195h-0.001
	h-23.412h-9.799l3.724,2.149l64.612,37.29v-86.268L152.215,361.366z M70.263,166.245v-19.512l11.707-9.756l0,0l6.231-5.192
	l5.476-4.564h17.56h11.707h17.561l0,0l5.09,4.243l6.617,5.513l0,0l11.707,9.756v19.512l-23.415,19.512l0,0h-17.558h-11.707H93.678
	L70.263,166.245z M70.263,248.196v-19.512l23.415-19.512h46.83l23.415,19.512v19.512l-23.415,19.512h-46.83L70.263,248.196z
	 M93.678,349.658l-23.415-19.511v-19.512l23.415-19.512h46.83l23.415,19.512v19.512l-23.415,19.512h-46.83L93.678,349.658
	L93.678,349.658z"/>
<g>
	<polygon style="fill:#F5F5F5;" points="140.415,74.537 163.921,74.537 163.921,64.781 151.815,54.691 130.448,67.032 	"/>
	<polygon style="fill:#F5F5F5;" points="103.993,82.311 82.666,94.629 93.678,103.806 117.092,103.806 117.092,92.097 	"/>
	<path style="fill:#F5F5F5;" d="M140.506,103.806l14.633-12.195L140.506,103.806z"/>
</g>
<g>
	<path style="fill:#73AF00;" d="M140.506,267.708l23.415-19.512v-19.512l-23.415-19.512H93.678l-23.415,19.512v19.512l23.415,19.512
		H140.506z M81.97,244.293v-11.707h11.707V220.88h46.83v11.707h11.707v11.707h-11.707V256h-46.83v-11.707H81.97z"/>
	<polygon style="fill:#73AF00;" points="140.506,185.757 140.506,185.757 163.921,166.245 163.921,146.733 152.215,136.976
		152.215,176 	"/>
	<rect x="122.941" y="162.34" style="fill:#73AF00;" width="17.558" height="23.415"/>
	<polygon style="fill:#73AF00;" points="140.506,127.219 140.506,127.219 145.596,131.462 	"/>
	<rect x="122.941" y="127.22" style="fill:#73AF00;" width="17.558" height="23.415"/>
	<polygon style="fill:#73AF00;" points="111.238,185.757 111.238,162.342 93.678,162.342 93.678,150.634 111.238,150.634
		111.238,127.219 93.678,127.219 88.201,131.784 93.677,127.22 93.677,185.756 81.97,176 81.97,136.976 70.263,146.733
		70.263,166.245 93.678,185.757 	"/>
	<path style="fill:#73AF00;" d="M163.921,310.634l-23.415-19.512H93.678l-23.415,19.512v19.512l23.415,19.512h46.83l23.415-19.512
		v-19.512H163.921z M105.385,326.245H93.678v-11.707h11.707V326.245z M122.946,337.951h-11.707v-11.708h11.707
		C122.946,326.243,122.946,337.951,122.946,337.951z M122.946,314.537h-11.707v-11.708h11.707
		C122.946,302.829,122.946,314.537,122.946,314.537z M140.506,326.245h-11.708v-11.707h11.708V326.245z"/>
</g>
<g>
	<polygon style="fill:#FFB400;" points="81.97,115.512 68.987,102.53 58.888,108.364 58.555,108.555 58.555,138.927 	"/>
	<polygon style="fill:#FFB400;" points="175.628,138.927 175.628,92.097 152.215,115.512 	"/>
	<polygon style="fill:#FFB400;" points="81.97,197.464 58.555,174.049 58.555,220.879 	"/>
	<polygon style="fill:#FFB400;" points="175.628,220.879 175.628,174.049 152.215,197.464 	"/>
	<polygon style="fill:#FFB400;" points="81.97,279.415 58.555,256 58.555,302.83 	"/>
	<polygon style="fill:#FFB400;" points="175.628,302.83 175.628,256 152.215,279.415 	"/>
	<polygon style="fill:#FFB400;" points="81.97,361.366 58.555,337.951 58.555,384.781 	"/>
	<polygon style="fill:#FFB400;" points="175.628,384.781 175.628,337.951 152.215,361.366 	"/>
	<polygon style="fill:#FFB400;" points="175.628,56.976 175.628,40.936 165.462,46.809 	"/>
	<rect x="111.231" y="127.22" style="fill:#FFB400;" width="11.707" height="23.415"/>
	<rect x="111.231" y="162.34" style="fill:#FFB400;" width="11.707" height="23.415"/>
</g>
<g>
	<rect x="122.941" y="150.63" style="fill:#FF4B55;" width="17.558" height="11.708"/>
	<rect x="93.681" y="150.63" style="fill:#FF4B55;" width="17.558" height="11.708"/>
	<rect x="111.231" y="150.63" style="fill:#FF4B55;" width="11.707" height="11.708"/>
</g>
<g>
	<polygon style="fill:#FFB400;" points="152.215,136.975 145.596,131.462 152.215,136.976 	"/>
	<polygon style="fill:#FFB400;" points="140.506,150.634 140.506,162.342 140.506,162.342 140.506,185.757 152.215,176
		152.215,136.976 145.596,131.462 140.506,127.219 	"/>
	<polygon style="fill:#FFB400;" points="81.97,136.975 81.97,136.976 88.201,131.784 	"/>
	<polygon style="fill:#FFB400;" points="93.677,185.756 93.677,127.22 88.201,131.784 81.97,136.976 81.97,176 	"/>
	<polygon style="fill:#FFB400;" points="163.921,84.293 163.921,84.293 155.14,91.61 	"/>
	<polygon style="fill:#FFB400;" points="140.427,74.545 140.506,74.605 140.506,74.606 140.506,74.606 117.092,92.097
		117.092,103.806 140.506,103.806 155.14,91.61 163.921,84.293 163.921,74.537 140.415,74.537 	"/>
</g>
<g>
	<polygon style="fill:#FF4B55;" points="140.415,74.537 140.415,74.537 130.448,67.032 117.454,74.537 	"/>
	<polygon style="fill:#FF4B55;" points="111.026,78.25 103.993,82.311 117.092,92.097 117.092,74.746 	"/>
	<polygon style="fill:#FF4B55;" points="140.427,74.545 140.415,74.537 140.415,74.537 	"/>
	<polygon style="fill:#FF4B55;" points="140.506,74.606 140.506,74.606 117.092,92.097 	"/>
</g>
<g>
	<polygon style="fill:#73AF00;" points="140.506,74.605 140.427,74.545 140.506,74.606 	"/>
	<polygon style="fill:#73AF00;" points="117.454,74.537 117.092,74.746 117.092,92.097 140.506,74.606 140.427,74.545
		140.415,74.537 	"/>
</g>
<path style="fill:#FF4B55;" d="M140.506,256v-11.707v-11.707V220.88h-46.83v11.707v11.707V256H140.506z M111.238,232.585h11.707
	v11.707h-11.707V232.585z"/>
<rect x="140.511" y="232.59" style="fill:#FFB400;" width="11.707" height="11.707"/>
<rect x="111.231" y="232.59" style="fill:#F5F5F5;" width="11.707" height="11.707"/>
<rect x="111.231" y="302.83" style="fill:#FF4B55;" width="11.707" height="11.708"/>
<g>
	<rect x="128.801" y="314.54" style="fill:#FFB400;" width="11.708" height="11.707"/>
	<rect x="93.681" y="314.54" style="fill:#FFB400;" width="11.707" height="11.707"/>
</g>
<rect x="111.231" y="326.25" style="fill:#FF4B55;" width="11.707" height="11.708"/>
<rect x="81.966" y="232.59" style="fill:#FFB400;" width="11.707" height="11.707"/>
<g>
	<path style="fill:#F5F5F5;" d="M140.506,431.611l14.633-12.195L140.506,431.611z"/>
	<polygon style="fill:#F5F5F5;" points="140.506,396.488 140.506,402.341 163.921,402.341 163.921,392.585 140.506,373.073
		117.092,373.073 117.092,384.781 	"/>
	<polygon style="fill:#F5F5F5;" points="92.812,423.254 107.293,431.611 117.092,431.611 117.092,419.903 93.677,408.196
		93.677,402.341 70.263,402.341 70.263,410.239 70.614,410.443 	"/>
	<path style="fill:#F5F5F5;" d="M93.678,373.073l-8.363,6.969L93.678,373.073z"/>
</g>
<g>
	<polygon style="fill:#FFB400;" points="70.263,392.585 70.263,392.585 85.315,380.042 	"/>
	<polygon style="fill:#FFB400;" points="93.677,396.488 117.092,384.781 117.092,373.073 93.678,373.073 85.315,380.042
		70.263,392.585 70.263,402.341 93.677,402.341 	"/>
	<polygon style="fill:#FFB400;" points="163.921,412.099 163.921,412.099 155.14,419.415 	"/>
	<polygon style="fill:#FFB400;" points="140.506,408.196 117.092,419.903 117.092,431.611 140.506,431.611 155.14,419.415
		163.921,412.099 163.921,402.341 140.506,402.341 	"/>
</g>
<g>
	<polygon style="fill:#FF4B55;" points="93.677,402.341 93.677,408.196 117.092,419.903 117.092,402.341 	"/>
	<polygon style="fill:#FF4B55;" points="140.506,402.341 140.506,396.488 117.092,384.781 117.092,402.341 	"/>
	<polygon style="fill:#FF4B55;" points="117.092,384.781 93.677,396.488 93.677,402.341 117.092,402.341 	"/>
	<polygon style="fill:#FF4B55;" points="140.506,402.341 117.092,402.341 117.092,419.903 140.506,408.196 	"/>
</g>
<g>
	<path style="fill:#F5F5F5;" d="M290.589,120.488c-1.065-0.524-2.028,0.862-1.165,1.676c11.313,10.676,18.464,25.669,18.464,42.392
		c0,32.851-26.405,59.206-58.874,59.206c-5.993,0-11.766-0.935-17.21-2.637c-1.128-0.352-1.858,1.161-0.887,1.836
		c9.492,6.599,20.934,10.543,33.425,10.543c32.898,0,59.781-26.359,59.781-59.685C324.123,150.398,310.375,130.215,290.589,120.488z
		"/>
	<path style="fill:#F5F5F5;" d="M209.233,159.06l-2.447,6.918l5.753,4.554c0.745,0.59,0.311,1.788-0.639,1.763l-7.335-0.189
		l-2.553,6.879c-0.33,0.891-1.605,0.849-1.874-0.062l-2.087-7.034l-7.332-0.302c-0.95-0.039-1.302-1.265-0.52-1.802l6.046-4.159
		l-1.978-7.067c-0.256-0.915,0.8-1.63,1.553-1.051l5.823,4.464l6.11-4.065C208.544,157.382,209.55,158.166,209.233,159.06z"/>
	<path style="fill:#F5F5F5;" d="M238.945,174.066l-2.447,6.918l5.753,4.554c0.745,0.59,0.311,1.788-0.639,1.763l-7.335-0.189
		l-2.553,6.879c-0.331,0.891-1.605,0.849-1.874-0.062l-2.087-7.034l-7.332-0.302c-0.95-0.039-1.302-1.265-0.52-1.802l6.046-4.159
		l-1.978-7.067c-0.256-0.915,0.8-1.63,1.553-1.051l5.823,4.464l6.11-4.065C238.255,172.388,239.261,173.172,238.945,174.066z"/>
	<path style="fill:#F5F5F5;" d="M238.643,143.155l-2.447,6.918l5.753,4.554c0.745,0.59,0.311,1.788-0.639,1.763l-7.335-0.189
		l-2.553,6.879c-0.331,0.891-1.605,0.849-1.874-0.062l-2.087-7.034l-7.332-0.302c-0.948-0.039-1.302-1.263-0.52-1.802l6.046-4.159
		l-1.978-7.067c-0.256-0.915,0.8-1.63,1.553-1.051l5.823,4.464l6.11-4.065C237.955,141.476,238.961,142.259,238.643,143.155z"/>
	<path style="fill:#F5F5F5;" d="M239.656,113.319l-2.447,6.918l5.753,4.554c0.745,0.59,0.311,1.788-0.639,1.763l-7.335-0.189
		l-2.553,6.879c-0.331,0.891-1.605,0.849-1.874-0.062l-2.087-7.034l-7.332-0.302c-0.95-0.039-1.302-1.263-0.52-1.802l6.046-4.159
		l-1.978-7.066c-0.256-0.915,0.8-1.63,1.553-1.051l5.823,4.464l6.11-4.065C238.967,111.64,239.973,112.423,239.656,113.319z"/>
	<path style="fill:#F5F5F5;" d="M268.766,128.325l-2.447,6.918l5.753,4.554c0.745,0.59,0.311,1.788-0.639,1.763l-7.335-0.189
		l-2.553,6.879c-0.331,0.891-1.605,0.849-1.874-0.062l-2.087-7.034l-7.332-0.302c-0.95-0.039-1.302-1.263-0.52-1.802l6.046-4.159
		l-1.978-7.067c-0.256-0.915,0.8-1.63,1.553-1.051l5.823,4.464l6.11-4.065C268.078,126.646,269.084,127.429,268.766,128.325z"/>
</g>
<g>
</g>
<g>
</g>
<g>
</g>
<g>
</g>
<g>
</g>
<g>
</g>
<g>
</g>
<g>
</g>
<g>
</g>
<g>
</g>
<g>
</g>
<g>
</g>
<g>
</g>
<g>
</g>
<g>
</g>
</svg>
