<?xml version="1.0" encoding="iso-8859-1"?>
<!-- Generator: Adobe Illustrator 19.0.0, SVG Export Plug-In . SVG Version: 6.00 Build 0)  -->
<svg version="1.1" id="Layer_1" xmlns="http://www.w3.org/2000/svg" xmlns:xlink="http://www.w3.org/1999/xlink" x="0px" y="0px"
	 viewBox="0 0 512 512" style="enable-background:new 0 0 512 512;" xml:space="preserve">
<path style="fill:#F5F5F5;" d="M482.412,145.606c-0.003-12.607-6.729-24.255-17.649-30.557L332.436,38.681L273.601,4.725
	c-10.918-6.302-24.37-6.3-35.287,0.006l-58.751,33.933L47.189,115.118c-10.917,6.305-17.64,17.955-17.639,30.562l0.036,220.713
	c0.003,12.607,6.729,24.255,17.649,30.557l132.326,76.369l58.835,33.956c10.92,6.302,24.37,6.299,35.287-0.006l58.753-33.933
	l132.373-76.455c10.917-6.305,17.64-17.955,17.639-30.562L482.412,145.606z"/>
<path style="fill:#73AF00;" d="M47.189,115.118c-10.917,6.305-17.64,17.955-17.639,30.562l0.036,220.713
	c0.003,12.607,6.729,24.255,17.649,30.557l132.326,76.369V38.664L47.189,115.118z"/>
<path style="fill:#FF9B46;" d="M464.81,396.881c10.917-6.305,17.64-17.955,17.639-30.562l-0.036-220.713
	c-0.003-12.607-6.729-24.255-17.649-30.557L332.438,38.681v434.656L464.81,396.881z"/>
<g>
</g>
<g>
</g>
<g>
</g>
<g>
</g>
<g>
</g>
<g>
</g>
<g>
</g>
<g>
</g>
<g>
</g>
<g>
</g>
<g>
</g>
<g>
</g>
<g>
</g>
<g>
</g>
<g>
</g>
</svg>
