<?xml version="1.0" encoding="iso-8859-1"?>
<!-- Generator: Adobe Illustrator 19.0.0, SVG Export Plug-In . SVG Version: 6.00 Build 0)  -->
<svg version="1.1" id="Layer_1" xmlns="http://www.w3.org/2000/svg" xmlns:xlink="http://www.w3.org/1999/xlink" x="0px" y="0px"
	 viewBox="0 0 512.001 512.001" style="enable-background:new 0 0 512.001 512.001;" xml:space="preserve">
<path style="fill:#F5F5F5;" d="M29.59,366.395l-0.036-220.713c-0.003-12.607,6.722-24.257,17.639-30.563L238.316,4.731
	c10.917-6.306,24.368-6.307,35.287-0.006L464.764,115.05c10.919,6.302,17.646,17.95,17.649,30.557l0.036,220.713
	c0.003,12.607-6.722,24.257-17.639,30.563L273.685,507.269c-10.917,6.306-24.368,6.307-35.287,0.006L47.239,396.951
	C36.319,390.649,29.592,379.001,29.59,366.395z"/>
<path style="fill:#FF4B55;" d="M482.413,145.605c-0.003-12.607-6.729-24.255-17.649-30.557L273.603,4.726
	c-10.919-6.302-24.371-6.3-35.287,0.006L47.191,115.119c-10.917,6.306-17.64,17.955-17.639,30.563l0.004,24.078h452.86
	L482.413,145.605z"/>
<path style="fill:#464655;" d="M29.59,366.395c0.003,12.607,6.729,24.255,17.649,30.557L238.4,507.277
	c10.919,6.302,24.371,6.299,35.286-0.006l191.125-110.39c10.917-6.306,17.64-17.955,17.639-30.563l-0.004-24.078H29.586
	L29.59,366.395z"/>
<g>
	<path style="fill:#73AF00;" d="M314.965,230.547c-1.051-0.547-2.296-2.504-1.907-3.36c0.409-0.898-0.227-0.821,1.921-0.182
		c3.884,1.006,6.397,0.547,8.866-1.553l2.193-1.736l2.561,1.28c1.416,0.639,2.878,1.095,3.29,1.003
		c1.188-0.274,3.475-3.199,3.428-4.205c-0.046-1.368,0.96-1.003,1.462,0.459c1.051,2.743-0.882,7.473-3.534,8.113
		c-1.277,0.365-2.467,0.274-4.479-0.365c-2.376-0.915-2.743-0.915-4.02,0C322.096,232.102,318.302,232.287,314.965,230.547"/>
	<path style="fill:#73AF00;" d="M324.971,219.966c-1.282-1.797-2.823-8.087-2.373-9.625c0.447-1.413,0.897-1.67,2.117-1.285
		c2.182,0.769,2.698,2.182,2.438,7.318C326.768,220.222,326.256,221.507,324.971,219.966"/>
	<path style="fill:#73AF00;" d="M239.02,247.767c-5.267,2.997-13.101,3.512-13.101,11.817c-11.472,0.427-25.001,0.941-37.202,0.684
		c3.307-4.271,24.237-23.616,32.94-31.283c1.441-1.268,1.929-3.724,1.092-5.451l-0.225-0.465c-1.255-2.588-4.669-3.204-6.747-1.216
		c-8.673,8.296-17.268,16.027-18.667,17.353c-11.229,11.348-14.521,14.655-16.286,16.43c-1.256,1.265-1.954,2.974-1.946,4.756
		l0.001,0.116c0.019,3.703,3.027,6.694,6.729,6.694h49.129c2.783,0-0.64-9.675,2.954-9.675c2.499,0,2.729,3.472,2.619,7.148
		c-0.084,2.797-2.388,5.01-5.186,5.014c-21.24,0.03-43.351,0.232-64.157,0.251c-1.718,0.001-3.098-1.393-3.098-3.112v-3.743
		c0-3.174-3.524-5.019-6.177-3.277c-0.097,0.064-0.192,0.125-0.287,0.184c-1.386,0.866-2.096,2.563-1.553,4.104
		c0.351,1.001,0.504,2.219,0.537,3.494c0.045,1.685-1.326,3.073-3.01,3.124c-6.881,0.211-14.359,0.272-16.483-3.785
		c-1.198-2.288-3.748-3.368-6.058-2.213l-0.307,0.154c-2.433,1.216-3.408,4.225-2.074,6.596c2.534,4.506,4.847,9.734,3.646,17.055
		c-0.978,2.308-2.822,3.751-4.82,5.052c-2.219,1.445-0.827,4.826,1.777,4.345c6.313-1.166,10.662-6.163,11.993-12.052h97.871
		c3.589,0,6.499-2.91,6.499-6.499v-21.24C248.525,251.792,241.716,252.049,239.02,247.767z"/>
	<path style="fill:#73AF00;" d="M363.158,219.701c1.443,0.928,2.89,1.858,4.501,2.627c1.762,0.841,2.436,2.993,1.406,4.651
		c-0.272,0.439-0.5,0.928-0.63,1.525v42.126c2.879,0.599,4.531,0.031,5.843-0.874c1.481-1.021,3.484-0.279,3.951,1.458
		c0.993,3.695,2.619,7.304,3.487,10.591c0.542,2.053-1,4.064-3.124,4.064h-16.503c-1.461,0-2.646-1.185-2.646-2.646v-61.494
		C359.444,219.822,361.555,218.668,363.158,219.701z"/>
	<path style="fill:#73AF00;" d="M343.176,229.958c0.013,11.633,0.149,24.162,0.167,36.631c0.003,1.616-1.308,2.925-2.924,2.925
		h-0.189c-1.613,0-2.922-1.308-2.922-2.922v-29.547c0-1.608-1.891-2.468-3.099-1.41l-3.873,3.347
		c-0.792,0.684-1.248,1.668-1.251,2.714c-0.013,4.806-0.055,18.8-0.072,24.908c-0.005,1.61-1.311,2.909-2.922,2.909h-0.265
		c-1.606,0-2.91-1.29-2.922-2.895c-0.029-4.066-0.079-11.603-0.099-17.257c-0.006-1.626-1.929-2.476-3.153-1.405
		c-4.013,3.517-4.939,4.311-7.044,6.487c0.171,1.113,1.027,0,1.541,0.855v5.652c-14.618-2.752-15.709,8.926-15.162,21.457
		c0.082,1.883,1.628,3.374,3.513,3.374h45.896c1.702,0,3.082-1.38,3.082-3.082v-57.057c0-1.906-2.262-2.884-3.668-1.597
		c-1.121,1.026-2.318,2.053-3.347,2.983C343.637,227.782,343.175,228.839,343.176,229.958z M309.399,269.088
		c-0.898-2.569,4.154-3.512,4.752-1.198C314.365,270.715,310.512,270.8,309.399,269.088z"/>
	<path style="fill:#73AF00;" d="M157.81,290.406c1.756,0,3.168,1.456,3.168,3.168c0,1.799-1.412,3.169-3.168,3.169
		c-1.797,0-3.255-1.37-3.255-3.169C154.554,291.861,156.011,290.406,157.81,290.406"/>
	<path style="fill:#73AF00;" d="M262.163,220.991c0.857,0.515,1.738,1.008,2.677,1.451c1.695,0.801,2.362,2.905,1.326,4.468
		c-0.311,0.47-0.577,1.003-0.734,1.678v42.04c3.05,0.679,4.719,0.014,6.05-0.971c1.325-0.98,3.232-0.302,3.656,1.29
		c0.761,2.854,1.908,5.676,2.793,8.355c1.082,3.277-1.347,6.652-4.799,6.652h-12.873c-2.084,0-3.775-1.69-3.775-3.775v-57.93
		C256.485,221.335,259.664,219.49,262.163,220.991z"/>
</g>
<g>
</g>
<g>
</g>
<g>
</g>
<g>
</g>
<g>
</g>
<g>
</g>
<g>
</g>
<g>
</g>
<g>
</g>
<g>
</g>
<g>
</g>
<g>
</g>
<g>
</g>
<g>
</g>
<g>
</g>
</svg>
