<?xml version="1.0" encoding="iso-8859-1"?>
<!-- Generator: Adobe Illustrator 19.0.0, SVG Export Plug-In . SVG Version: 6.00 Build 0)  -->
<svg version="1.1" id="Layer_1" xmlns="http://www.w3.org/2000/svg" xmlns:xlink="http://www.w3.org/1999/xlink" x="0px" y="0px"
	 viewBox="0 0 512 512" style="enable-background:new 0 0 512 512;" xml:space="preserve">
<path style="fill:#F5F5F5;" d="M29.588,366.395l-0.036-220.713c-0.003-12.607,6.722-24.257,17.639-30.562L238.315,4.73
	c10.917-6.305,24.368-6.307,35.287-0.006l191.161,110.325c10.918,6.302,17.646,17.95,17.649,30.557l0.036,220.713
	c0.003,12.607-6.722,24.257-17.639,30.562L273.684,507.269c-10.917,6.306-24.368,6.307-35.287,0.006L47.237,396.952
	C36.317,390.65,29.59,379.001,29.588,366.395z"/>
<polygon style="fill:#41479B;" points="216.248,226.008 216.248,17.475 168.545,45.028 168.545,226.008 29.564,226.008
	29.575,285.992 168.545,285.992 168.545,466.962 216.248,494.492 216.248,285.992 482.435,285.992 482.425,226.008 "/>
<g>
</g>
<g>
</g>
<g>
</g>
<g>
</g>
<g>
</g>
<g>
</g>
<g>
</g>
<g>
</g>
<g>
</g>
<g>
</g>
<g>
</g>
<g>
</g>
<g>
</g>
<g>
</g>
<g>
</g>
</svg>
