<?xml version="1.0" encoding="iso-8859-1"?>
<!-- Generator: Adobe Illustrator 19.0.0, SVG Export Plug-In . SVG Version: 6.00 Build 0)  -->
<svg version="1.1" id="Layer_1" xmlns="http://www.w3.org/2000/svg" xmlns:xlink="http://www.w3.org/1999/xlink" x="0px" y="0px"
	 viewBox="0 0 512 512" style="enable-background:new 0 0 512 512;" xml:space="preserve">
<path style="fill:#F5F5F5;" d="M482.411,145.606c-0.003-12.607-6.729-24.255-17.649-30.557l-4.18-2.413l0,0l-99.363-57.345l0,0
	L273.601,4.725c-10.918-6.302-24.37-6.3-35.287,0.006l-87.54,50.561l-99.288,57.344l-4.298,2.482
	c-10.917,6.306-17.64,17.955-17.639,30.562l0.036,220.713c0.003,12.607,6.729,24.255,17.649,30.557l4.181,2.413l99.363,57.345
	l87.617,50.567c10.918,6.302,24.37,6.299,35.286-0.006l87.54-50.561l99.286-57.345l4.298-2.482
	c10.917-6.305,17.64-17.955,17.639-30.562l-0.004-24.301L482.411,145.606z"/>
<g>
	<path style="fill:#41479B;" d="M47.237,396.95l4.181,2.413h409.095l4.298-2.482c10.917-6.305,17.64-17.955,17.639-30.562
		l-0.004-24.301H29.584l0.004,24.376C29.59,379,36.317,390.648,47.237,396.95z"/>
	<path style="fill:#41479B;" d="M238.398,507.275c10.918,6.302,24.37,6.299,35.287-0.006l87.54-50.561H150.781L238.398,507.275z"/>
	<polygon style="fill:#41479B;" points="29.555,170.439 29.555,169.982 29.565,227.327 29.574,284.671 90.927,284.671
		90.927,170.439 	"/>
	<path style="fill:#41479B;" d="M255.737,112.734v55.165l-107.353,0.625v116.148h334.05l-0.01-57.344v-0.001H255.999V169.98h226.415
		l-0.004-24.376c-0.003-12.607-6.729-24.255-17.649-30.557l-4.18-2.413H255.999V55.291h105.218L273.601,4.725
		c-8.84-5.102-19.341-6.068-28.812-2.907c-0.027,0.01-0.057,0.016-0.085,0.026c-0.641,0.216-1.275,0.459-1.906,0.712
		c-0.09,0.036-0.182,0.065-0.272,0.102c-0.571,0.235-1.133,0.499-1.695,0.765c-0.145,0.069-0.294,0.127-0.439,0.197
		c-0.702,0.345-1.395,0.715-2.078,1.11l-87.54,50.561l-2.391,1.381v56.062h107.353l0,0H255.737z"/>
	<polygon style="fill:#41479B;" points="90.927,112.734 90.927,89.856 51.487,112.636 51.318,112.734 	"/>
</g>
<g>
</g>
<g>
</g>
<g>
</g>
<g>
</g>
<g>
</g>
<g>
</g>
<g>
</g>
<g>
</g>
<g>
</g>
<g>
</g>
<g>
</g>
<g>
</g>
<g>
</g>
<g>
</g>
<g>
</g>
</svg>
