<?xml version="1.0" encoding="iso-8859-1"?>
<!-- Generator: Adobe Illustrator 19.0.0, SVG Export Plug-In . SVG Version: 6.00 Build 0)  -->
<svg version="1.1" id="Layer_1" xmlns="http://www.w3.org/2000/svg" xmlns:xlink="http://www.w3.org/1999/xlink" x="0px" y="0px"
	 viewBox="0 0 511.999 511.999" style="enable-background:new 0 0 511.999 511.999;" xml:space="preserve">
<path style="fill:#F5F5F5;" d="M482.448,366.319v-0.009l-0.004-24.07l0,0l-0.029-172.481l0,0l-0.004-24.153
	c-0.001-11.031-5.152-21.328-13.755-27.951c-1.228-0.946-2.528-1.817-3.893-2.604L273.601,4.725
	c-0.682-0.394-1.375-0.762-2.076-1.107c-1.402-0.69-2.838-1.281-4.3-1.773c-0.731-0.246-1.467-0.467-2.209-0.664
	C262.049,0.394,259.003,0,255.957,0c-3.047,0-6.092,0.395-9.059,1.183s-5.855,1.971-8.584,3.548L47.189,115.119
	c-5.458,3.152-9.869,7.642-12.914,12.918c-0.381,0.66-0.74,1.331-1.077,2.014c-2.362,4.781-3.648,10.113-3.646,15.629l0,0l0,0v0.034
	l0.004,24.045l0,0l0.029,172.481l0,0l0.004,24.121v0.032c0.001,4.727,0.947,9.32,2.706,13.546c1.172,2.818,2.706,5.472,4.56,7.897
	c2.782,3.635,6.287,6.751,10.382,9.114l109.235,63.043l81.926,47.282c3.412,1.969,7.072,3.323,10.823,4.061
	c1.501,0.295,3.017,0.491,4.537,0.59c6.843,0.442,13.785-1.111,19.926-4.657L464.808,396.88c1.365-0.789,2.664-1.66,3.893-2.607
	c3.685-2.84,6.737-6.354,9.021-10.311C480.769,378.687,482.449,372.622,482.448,366.319L482.448,366.319L482.448,366.319z"/>
<polygon style="fill:#464655;" points="29.555,169.759 29.584,342.241 482.444,342.241 482.416,169.759 255.999,157.27 "/>
<path style="fill:#4173CD;" d="M33.196,130.059c-0.316,0.641-0.611,1.295-0.889,1.954c-0.09,0.215-0.169,0.435-0.255,0.651
	c-0.18,0.452-0.356,0.907-0.517,1.368c-0.091,0.26-0.174,0.525-0.259,0.789c-0.137,0.426-0.271,0.854-0.392,1.285
	c-0.079,0.281-0.152,0.562-0.225,0.845c-0.109,0.426-0.21,0.855-0.302,1.286c-0.061,0.286-0.121,0.571-0.176,0.859
	c-0.084,0.444-0.156,0.89-0.224,1.337c-0.041,0.279-0.086,0.555-0.121,0.834c-0.061,0.491-0.106,0.985-0.147,1.48
	c-0.02,0.239-0.047,0.476-0.062,0.716c-0.046,0.735-0.074,1.475-0.074,2.217v0.034l0.004,24.045h452.86l-0.004-24.153
	c0-0.742-0.027-1.482-0.074-2.217c-0.015-0.24-0.042-0.479-0.062-0.717c-0.041-0.495-0.086-0.988-0.147-1.478
	c-0.035-0.28-0.08-0.556-0.122-0.835c-0.067-0.446-0.14-0.892-0.224-1.335c-0.055-0.289-0.115-0.576-0.177-0.862
	c-0.092-0.43-0.194-0.859-0.302-1.283c-0.073-0.284-0.146-0.566-0.225-0.846c-0.121-0.431-0.255-0.857-0.392-1.282
	c-0.086-0.265-0.169-0.53-0.26-0.792c-0.161-0.46-0.337-0.912-0.516-1.365c-0.086-0.217-0.166-0.437-0.256-0.654
	c-0.557-1.326-1.195-2.614-1.908-3.86c-0.115-0.201-0.241-0.397-0.361-0.597c-0.25-0.416-0.502-0.831-0.77-1.238
	c-0.151-0.231-0.311-0.455-0.467-0.682c-0.254-0.366-0.511-0.731-0.779-1.088c-0.174-0.231-0.351-0.46-0.531-0.687
	c-0.27-0.342-0.547-0.681-0.83-1.015c-0.189-0.221-0.377-0.442-0.571-0.659c-0.297-0.334-0.605-0.66-0.917-0.982
	c-0.192-0.2-0.382-0.401-0.58-0.597c-0.35-0.346-0.712-0.681-1.077-1.013c-0.172-0.156-0.339-0.319-0.515-0.472
	c-0.549-0.479-1.11-0.945-1.69-1.392c-0.41-0.315-0.839-0.61-1.263-0.908c-0.85-0.597-1.72-1.172-2.629-1.697L273.601,4.725
	c-0.682-0.394-1.375-0.762-2.076-1.107c-0.35-0.172-0.709-0.32-1.063-0.48c-1.063-0.48-2.139-0.922-3.237-1.292
	c-0.417-0.14-0.841-0.255-1.262-0.38c-0.316-0.094-0.629-0.2-0.947-0.285c-0.742-0.197-1.488-0.369-2.239-0.517
	c-0.751-0.147-1.505-0.271-2.261-0.369C259.003,0.099,257.48,0,255.957,0c-0.761,0-1.523,0.025-2.283,0.075
	c-2.281,0.149-4.55,0.517-6.776,1.108c-2.967,0.789-5.855,1.971-8.584,3.548L47.189,115.119c-4.094,2.364-7.598,5.481-10.378,9.116
	c-0.927,1.212-1.773,2.482-2.534,3.801c-0.286,0.495-0.547,1.003-0.809,1.511c-0.087,0.17-0.185,0.334-0.27,0.504
	C33.197,130.054,33.197,130.057,33.196,130.059z"/>
<g>
</g>
<g>
</g>
<g>
</g>
<g>
</g>
<g>
</g>
<g>
</g>
<g>
</g>
<g>
</g>
<g>
</g>
<g>
</g>
<g>
</g>
<g>
</g>
<g>
</g>
<g>
</g>
<g>
</g>
</svg>
