<?xml version="1.0" encoding="iso-8859-1"?>
<!-- Generator: Adobe Illustrator 19.0.0, SVG Export Plug-In . SVG Version: 6.00 Build 0)  -->
<svg version="1.1" id="Layer_1" xmlns="http://www.w3.org/2000/svg" xmlns:xlink="http://www.w3.org/1999/xlink" x="0px" y="0px"
	 viewBox="0 0 512.002 512.002" style="enable-background:new 0 0 512.002 512.002;" xml:space="preserve">
<path style="fill:#F5F5F5;" d="M29.588,366.395l-0.036-220.713c-0.003-12.607,6.722-24.257,17.639-30.563L238.315,4.731
	c10.917-6.306,24.368-6.307,35.287-0.006L464.763,115.05c10.919,6.302,17.646,17.95,17.649,30.557l0.036,220.713
	c0.003,12.607-6.722,24.257-17.639,30.563L273.684,507.271c-10.917,6.306-24.368,6.307-35.287,0.006L47.237,396.952
	C36.318,390.65,29.591,379.002,29.588,366.395z"/>
<path style="fill:#FF4B55;" d="M29.588,366.395c0.003,12.607,6.729,24.255,17.649,30.557l191.161,110.325
	c10.92,6.302,24.37,6.3,35.287-0.006L464.81,396.882c10.917-6.306,17.64-17.955,17.639-30.563l-0.004-24.301l-226.444-26.042
	L29.585,342.02L29.588,366.395z"/>
<polygon style="fill:#41479B;" points="482.445,342.02 482.417,169.983 29.556,169.983 29.585,342.02 "/>
<path style="fill:#FF4B55;" d="M145.929,358.349c-3.142-1.805-77.001-44.764-77.001-110.795v-90.253h159.27v90.253
	c0,66.031-73.86,108.99-77.001,110.795l-2.633,1.503L145.929,358.349z"/>
<polygon style="fill:#F5F5F5;" points="190.276,231.627 165.248,234.924 156.905,234.924 156.905,219.987 161.91,219.987
	181.933,223.285 179.221,211.644 181.933,200.006 161.91,203.301 156.905,203.301 156.905,198.256 160.201,173.228 148.562,176.617
	136.923,173.228 140.219,198.256 140.219,203.301 135.213,203.301 115.191,200.006 117.902,211.644 115.191,223.285
	135.213,219.987 140.219,219.987 140.219,234.924 131.877,234.924 106.849,231.627 110.238,243.267 106.849,254.906
	131.877,251.609 140.219,251.609 140.219,290.026 156.905,290.026 156.905,251.609 165.248,251.609 190.276,254.906
	186.887,243.267 "/>
<path style="fill:#41479B;" d="M148.562,274.099c-10.967,0-20.373,6.653-24.421,16.141c-0.712-0.059-1.397-0.214-2.124-0.214
	c-14.135,0-25.579,11.078-26.39,25.008c21.5,26.468,48.431,42.238,50.301,43.314l2.634,1.503l2.633-1.503
	c1.872-1.076,28.801-16.848,50.301-43.314c-0.811-13.93-12.255-25.008-26.39-25.008c-0.727,0-1.412,0.155-2.124,0.214
	C168.935,280.753,159.529,274.099,148.562,274.099z"/>
<path style="fill:#F5F5F5;" d="M222.888,162.61c0,0,0,63.708,0,84.944c0,63.709-74.326,106.181-74.326,106.181
	s-74.326-42.472-74.326-106.181c0-21.235,0-84.944,0-84.944L222.888,162.61 M233.506,151.993h-10.618H74.236H63.618v10.618v84.944
	c0,69.076,76.423,113.54,79.676,115.4l5.269,3.009l5.269-3.009c3.253-1.859,79.676-46.325,79.676-115.4v-84.944v-10.618H233.506z"/>
<g>
</g>
<g>
</g>
<g>
</g>
<g>
</g>
<g>
</g>
<g>
</g>
<g>
</g>
<g>
</g>
<g>
</g>
<g>
</g>
<g>
</g>
<g>
</g>
<g>
</g>
<g>
</g>
<g>
</g>
</svg>
