<?xml version="1.0" encoding="utf-8"?>
<!-- Generator: Adobe Illustrator 22.1.0, SVG Export Plug-In . SVG Version: 6.00 Build 0)  -->
<svg version="1.1" id="Layer_1" xmlns="http://www.w3.org/2000/svg" xmlns:xlink="http://www.w3.org/1999/xlink" x="0px" y="0px"
	 viewBox="0 0 600 600" style="enable-background:new 0 0 600 600;" xml:space="preserve">
<style type="text/css">
	.st0{stroke:#000000;stroke-width:12;stroke-miterlimit:10;}
	.st1{fill:#41479B;}
	.st2{fill:#FF4B55;}
	.st3{fill:#73AF00;}
	.st4{fill:#FFE15A;}
</style>
<path class="st0" d="M50.1-12.3"/>
<path class="st1" d="M57.3,133.3c-13.9,8-22.5,22.9-22.5,38.9v254.6c0,16,8.6,31,22.5,38.9l92,53.1V80.2L57.3,133.3z"/>
<path class="st2" d="M146.3,517.2L277.7,593c13.9,8,31.1,8.1,44.9,0l220.5-127.4c6.8-3.9,12.4-9.6,16.3-16.2
	C422.6,375.4,285.8,301.4,149,227.3C148.1,323.9,147.2,420.5,146.3,517.2z"/>
<path class="st3" d="M565.6,172.3c0-8.7-2.6-17.1-7.1-24.2c-88.3,52.4-176.6,104.9-264.9,157.3c88,49,176,98,264,147
	c5.2-7.4,8.1-16.4,8.1-25.7V172.3z"/>
<path class="st4" d="M558.6,148.3c-3.8-6.1-9.1-11.3-15.5-15L322.7,6.1c-6.9-4-14.7-6-22.5-6c-7.8,0-15.6,2-22.5,6L148.5,80.6v150.2
	l144.3,75.2L558.6,148.3z"/>
</svg>
