<?xml version="1.0" encoding="iso-8859-1"?>
<!-- Generator: Adobe Illustrator 19.0.0, SVG Export Plug-In . SVG Version: 6.00 Build 0)  -->
<svg xmlns="http://www.w3.org/2000/svg" xmlns:xlink="http://www.w3.org/1999/xlink" version="1.1" id="Layer_1" x="0px" y="0px" viewBox="0 0 512.001 512.001" style="enable-background:new 0 0 512.001 512.001;" xml:space="preserve">
<path style="fill:#F5F5F5;" d="M29.589,366.395l-0.036-220.713c-0.003-12.607,6.722-24.257,17.639-30.562L238.315,4.731  c10.917-6.306,24.368-6.307,35.287-0.006L464.763,115.05c10.918,6.302,17.646,17.95,17.649,30.557l0.036,220.713  c0.003,12.607-6.722,24.257-17.639,30.563L273.685,507.271c-10.917,6.306-24.368,6.307-35.287,0.006L47.238,396.952  C36.318,390.65,29.591,379.002,29.589,366.395z"/>
<path style="fill:#FF4B55;" d="M308.939,176.584c-43.847-29.231-103.071-17.279-132.283,26.492c-0.482,0.72-0.94,1.448-1.377,2.184  c-27.425,43.612-15.277,101.367,27.812,130.118c43.847,29.231,103.052,17.431,132.244-26.492c0.477-0.712,0.93-1.433,1.363-2.162  C364.142,263.111,352.036,205.341,308.939,176.584z"/>
<g>
</g>
<g>
</g>
<g>
</g>
<g>
</g>
<g>
</g>
<g>
</g>
<g>
</g>
<g>
</g>
<g>
</g>
<g>
</g>
<g>
</g>
<g>
</g>
<g>
</g>
<g>
</g>
<g>
</g>
</svg>
