<?xml version="1.0" encoding="iso-8859-1"?>
<!-- Generator: Adobe Illustrator 19.0.0, SVG Export Plug-In . SVG Version: 6.00 Build 0)  -->
<svg xmlns="http://www.w3.org/2000/svg" xmlns:xlink="http://www.w3.org/1999/xlink" version="1.1" id="Layer_1" x="0px" y="0px" viewBox="0 0 511.999 511.999" style="enable-background:new 0 0 511.999 511.999;" xml:space="preserve">
<path style="fill:#F5F5F5;" d="M482.429,256.624l-0.019-111.019c-0.003-12.607-6.729-24.255-17.649-30.557L273.6,4.725  c-10.918-6.302-24.37-6.3-35.287,0.006l-136.51,78.843l-54.615,31.544c-10.917,6.306-17.64,17.955-17.638,30.562l0.036,220.713  c0.003,12.607,6.729,24.255,17.649,30.557l55.292,31.911l135.869,78.413c10.918,6.302,24.37,6.299,35.287-0.006L464.808,396.88  c10.917-6.306,17.64-17.955,17.639-30.563L482.429,256.624z"/>
<path style="fill:#FF4B55;" d="M482.429,256.624h-226.43l-88.726,74.354l-64.745,97.882l135.869,78.413  c10.918,6.302,24.37,6.299,35.287-0.006l191.125-110.388c10.917-6.306,17.64-17.955,17.639-30.563L482.429,256.624z"/>
<path style="fill:#41479B;" d="M101.804,83.574l-54.615,31.544c-10.917,6.306-17.64,17.955-17.638,30.562l0.036,220.713  C29.59,379,36.316,390.648,47.236,396.95l55.292,31.911l153.47-172.236L101.804,83.574z"/>
<g>
</g>
<g>
</g>
<g>
</g>
<g>
</g>
<g>
</g>
<g>
</g>
<g>
</g>
<g>
</g>
<g>
</g>
<g>
</g>
<g>
</g>
<g>
</g>
<g>
</g>
<g>
</g>
<g>
</g>
</svg>
