<?xml version="1.0" encoding="iso-8859-1"?>
<!-- Generator: Adobe Illustrator 19.0.0, SVG Export Plug-In . SVG Version: 6.00 Build 0)  -->
<svg version="1.1" id="Layer_1" xmlns="http://www.w3.org/2000/svg" xmlns:xlink="http://www.w3.org/1999/xlink" x="0px" y="0px"
	 viewBox="0 0 512 512" style="enable-background:new 0 0 512 512;" xml:space="preserve">
<path style="fill:#F5F5F5;" d="M29.589,366.394l-0.036-220.713c-0.003-12.607,6.722-24.257,17.639-30.562L238.315,4.73
	c10.917-6.305,24.368-6.307,35.287-0.006l191.161,110.325c10.919,6.302,17.646,17.95,17.649,30.557l0.036,220.713
	c0.003,12.607-6.722,24.257-17.639,30.562L273.684,507.268c-10.917,6.306-24.368,6.307-35.287,0.006L47.238,396.951
	C36.318,390.649,29.591,379.001,29.589,366.394z"/>
<g>
	<path style="fill:#FF4B55;" d="M482.425,226.008l-0.014-80.403c-0.003-12.607-6.729-24.255-17.649-30.557L273.601,4.725
		c-10.918-6.302-24.37-6.3-35.287,0.006l-21.637,12.497v208.781h265.747L482.425,226.008L482.425,226.008z"/>
	<path style="fill:#FF4B55;" d="M169.494,44.48L47.19,115.118c-10.917,6.306-17.64,17.955-17.639,30.562l0.014,80.327h139.929V44.48
		z"/>
	<path style="fill:#FF4B55;" d="M482.435,285.991H216.68V494.74l21.719,12.535c10.918,6.302,24.37,6.299,35.286-0.006
		L464.81,396.881c10.917-6.305,17.64-17.955,17.639-30.562L482.435,285.991z"/>
	<path style="fill:#FF4B55;" d="M29.575,285.991l0.014,80.403c0.003,12.607,6.729,24.255,17.649,30.557l122.256,70.558V285.991
		H29.575z"/>
</g>
<g>
</g>
<g>
</g>
<g>
</g>
<g>
</g>
<g>
</g>
<g>
</g>
<g>
</g>
<g>
</g>
<g>
</g>
<g>
</g>
<g>
</g>
<g>
</g>
<g>
</g>
<g>
</g>
<g>
</g>
</svg>
