<?xml version="1.0" encoding="iso-8859-1"?>
<!-- Generator: Adobe Illustrator 19.0.0, SVG Export Plug-In . SVG Version: 6.00 Build 0)  -->
<svg version="1.1" id="Layer_1" xmlns="http://www.w3.org/2000/svg" xmlns:xlink="http://www.w3.org/1999/xlink" x="0px" y="0px"
	 viewBox="0 0 512.002 512.002" style="enable-background:new 0 0 512.002 512.002;" xml:space="preserve">
<path style="fill:#F5F5F5;" d="M482.436,296.746l-0.014-81.491l-0.005-27.164l-0.008-42.486
	c-0.001-11.607-5.715-22.388-15.14-28.946c-0.812-0.565-1.642-1.11-2.508-1.611l-23.711-13.684l-22.198-12.81l-17.87-10.313
	l-94.999-54.826l-19.993-11.54l-12.39-7.15c-10.918-6.301-24.37-6.3-35.287,0.006l-12.307,7.108l-19.995,11.548L111.024,78.25
	L81.077,95.546l-22.191,12.818l-11.697,6.756c-0.841,0.486-1.648,1.015-2.439,1.561c-9.465,6.556-15.201,17.365-15.2,29.001
	l0.007,42.41l0.005,27.164l0.014,81.491l0.005,27.164l0.007,42.486c0.002,11.607,5.715,22.388,15.14,28.946
	c0.812,0.565,1.642,1.11,2.509,1.61l23.377,13.491l22.198,12.812l18.204,10.506l94.999,54.826l19.995,11.539l12.39,7.151
	c10.92,6.302,24.37,6.298,35.287-0.006l12.307-7.108l19.995-11.548l94.989-54.862l27.325-15.782l22.191-12.818l14.319-8.27
	c0.841-0.486,1.648-1.015,2.439-1.561c9.465-6.556,15.201-17.365,15.2-29.001l-0.008-42.41L482.436,296.746z"/>
<path style="fill:#82AFFF;" d="M482.411,145.605c-0.003-11.607-5.715-22.389-15.14-28.946c-0.812-0.565-1.642-1.11-2.509-1.611
	l-23.71-13.684l-22.198-12.81l-17.87-10.313l-94.998-54.826l-1.907-1.101l-18.088-10.438l-12.39-7.151
	c-10.918-6.302-24.37-6.3-35.287,0.006l-12.307,7.108l-18.138,10.476l-1.857,1.072l-94.99,54.862L81.077,95.546l-22.191,12.818
	l-11.697,6.756c-0.841,0.486-1.648,1.015-2.439,1.561c-9.465,6.556-15.201,17.365-15.2,29.001l0.003,18.585l232.694,9.256
	l220.167-9.256L482.411,145.605z"/>
<path style="fill:#73AF00;" d="M482.445,347.733l-223.946-9.256l-228.915,9.256l0.004,18.661
	c0.003,11.607,5.715,22.389,15.14,28.946c0.812,0.565,1.642,1.11,2.509,1.611l23.377,13.491l22.198,12.812l18.204,10.506
	l94.999,54.826l1.907,1.101l18.088,10.44l12.39,7.151c10.92,6.302,24.37,6.298,35.287-0.006l12.307-7.108l18.138-10.476l1.857-1.072
	l94.989-54.862l27.325-15.782l22.191-12.818l14.319-8.27c0.841-0.486,1.648-1.013,2.439-1.562
	c9.465-6.556,15.201-17.365,15.2-29.001L482.445,347.733z"/>
<g>
	<polygon style="fill:#FF4B55;" points="482.418,178.105 482.415,164.266 29.554,164.266 29.557,178.105 29.558,183.692
		482.418,183.692 	"/>
	<polygon style="fill:#FF4B55;" points="482.443,333.896 482.443,328.309 29.582,328.309 29.583,333.896 29.585,347.733
		482.445,347.733 	"/>
</g>
<g>
	<path style="fill:#F5F5F5;" d="M181.795,146.773c-18.956,0-34.321-15.33-34.321-34.217c0-18.957,15.365-34.356,34.321-34.356
		c0.072,0,0.145,0,0.216,0.001c1.116,0.015,1.507-1.468,0.524-1.996c-5.837-3.128-12.499-4.899-19.581-4.849
		c-22.681,0.162-41.106,18.957-40.865,41.639c0.237,22.448,18.59,40.619,41.161,40.619c6.986,0,13.554-1.767,19.317-4.852
		c0.981-0.525,0.585-2.008-0.529-1.992C181.957,146.772,181.876,146.773,181.795,146.773z"/>
	<path style="fill:#F5F5F5;" d="M208.67,137.311l-1.533,4.596l-4.845,0.037c-0.627,0.005-0.887,0.806-0.382,1.178l3.898,2.878
		l-1.461,4.62c-0.189,0.599,0.491,1.092,1.002,0.729l3.941-2.818l3.941,2.818c0.51,0.365,1.191-0.13,1.002-0.729l-1.461-4.62
		l3.898-2.878c0.505-0.372,0.245-1.173-0.382-1.178l-4.845-0.037l-1.533-4.596C209.711,136.716,208.869,136.716,208.67,137.311z"/>
	<path style="fill:#F5F5F5;" d="M242.804,137.311l-1.533,4.596l-4.845,0.037c-0.627,0.005-0.887,0.806-0.382,1.178l3.898,2.878
		l-1.461,4.62c-0.189,0.599,0.491,1.092,1.002,0.729l3.941-2.818l3.941,2.818c0.51,0.365,1.191-0.13,1.002-0.729l-1.461-4.62
		l3.898-2.878c0.505-0.372,0.245-1.173-0.382-1.178l-4.845-0.037l-1.533-4.596C243.845,136.716,243.003,136.716,242.804,137.311z"/>
	<path style="fill:#F5F5F5;" d="M276.939,137.311l-1.533,4.596l-4.845,0.037c-0.627,0.005-0.887,0.806-0.382,1.178l3.898,2.878
		l-1.461,4.62c-0.189,0.599,0.492,1.092,1.002,0.729l3.941-2.818l3.941,2.818c0.51,0.365,1.191-0.13,1.002-0.729L281.04,146
		l3.898-2.878c0.505-0.372,0.245-1.173-0.382-1.178l-4.845-0.037l-1.533-4.596C277.98,136.716,277.138,136.716,276.939,137.311z"/>
	<path style="fill:#F5F5F5;" d="M311.073,137.311l-1.533,4.596l-4.845,0.037c-0.627,0.005-0.887,0.806-0.382,1.178l3.898,2.878
		l-1.462,4.62c-0.189,0.599,0.492,1.092,1.002,0.729l3.941-2.818l3.941,2.818c0.51,0.365,1.191-0.13,1.002-0.729l-1.461-4.62
		l3.898-2.878c0.505-0.372,0.245-1.173-0.382-1.178l-4.845-0.037l-1.533-4.596C312.113,136.716,311.272,136.716,311.073,137.311z"/>
	<path style="fill:#F5F5F5;" d="M345.208,137.311l-1.533,4.596l-4.845,0.037c-0.627,0.005-0.887,0.806-0.382,1.178l3.898,2.878
		l-1.462,4.62c-0.189,0.599,0.492,1.092,1.002,0.729l3.941-2.818l3.941,2.818c0.51,0.365,1.191-0.13,1.002-0.729l-1.462-4.62
		l3.898-2.878c0.505-0.372,0.245-1.173-0.382-1.178l-4.845-0.037l-1.533-4.596C346.247,136.716,345.406,136.716,345.208,137.311z"/>
	<path style="fill:#F5F5F5;" d="M242.804,105.452l-1.533,4.596l-4.845,0.037c-0.627,0.005-0.887,0.806-0.382,1.178l3.898,2.878
		l-1.461,4.62c-0.189,0.599,0.491,1.092,1.002,0.727l3.941-2.818l3.941,2.818c0.51,0.365,1.191-0.13,1.002-0.729l-1.461-4.62
		l3.898-2.878c0.505-0.372,0.245-1.173-0.382-1.178l-4.845-0.037l-1.533-4.596C243.845,104.857,243.003,104.857,242.804,105.452z"/>
	<path style="fill:#F5F5F5;" d="M276.939,105.452l-1.533,4.596l-4.845,0.037c-0.627,0.005-0.887,0.806-0.382,1.178l3.898,2.878
		l-1.461,4.62c-0.189,0.599,0.492,1.092,1.002,0.727l3.941-2.818l3.941,2.818c0.51,0.365,1.191-0.13,1.002-0.729l-1.462-4.62
		l3.898-2.878c0.505-0.372,0.245-1.173-0.382-1.178l-4.845-0.037l-1.533-4.596C277.98,104.857,277.138,104.857,276.939,105.452z"/>
	<path style="fill:#F5F5F5;" d="M311.073,105.452l-1.533,4.596l-4.845,0.037c-0.627,0.005-0.887,0.806-0.382,1.178l3.898,2.878
		l-1.462,4.62c-0.189,0.599,0.492,1.092,1.002,0.727l3.941-2.818l3.941,2.818c0.51,0.365,1.191-0.13,1.002-0.729l-1.461-4.62
		l3.898-2.878c0.505-0.372,0.245-1.173-0.382-1.178l-4.845-0.037l-1.533-4.596C312.113,104.857,311.272,104.857,311.073,105.452z"/>
	<path style="fill:#F5F5F5;" d="M345.208,105.452l-1.533,4.596l-4.845,0.037c-0.627,0.005-0.887,0.806-0.382,1.178l3.898,2.878
		l-1.462,4.62c-0.189,0.599,0.492,1.092,1.002,0.727l3.941-2.818l3.941,2.818c0.51,0.365,1.191-0.13,1.002-0.729l-1.462-4.62
		l3.898-2.878c0.505-0.372,0.245-1.173-0.382-1.178l-4.845-0.037l-1.533-4.596C346.247,104.857,345.406,104.857,345.208,105.452z"/>
	<path style="fill:#F5F5F5;" d="M276.939,137.311l-1.533,4.596l-4.845,0.037c-0.627,0.005-0.887,0.806-0.382,1.178l3.898,2.878
		l-1.461,4.62c-0.189,0.599,0.492,1.092,1.002,0.729l3.941-2.818l3.941,2.818c0.51,0.365,1.191-0.13,1.002-0.729L281.04,146
		l3.898-2.878c0.505-0.372,0.245-1.173-0.382-1.178l-4.845-0.037l-1.533-4.596C277.98,136.716,277.138,136.716,276.939,137.311z"/>
	<path style="fill:#F5F5F5;" d="M276.939,73.593l-1.533,4.596l-4.845,0.037c-0.627,0.005-0.887,0.806-0.382,1.178l3.898,2.878
		l-1.461,4.62c-0.189,0.599,0.492,1.093,1.002,0.729l3.941-2.818l3.941,2.818c0.51,0.365,1.191-0.13,1.002-0.729l-1.462-4.62
		l3.898-2.878c0.505-0.372,0.245-1.173-0.382-1.178l-4.845-0.037l-1.533-4.596C277.98,72.999,277.138,72.999,276.939,73.593z"/>
	<path style="fill:#F5F5F5;" d="M311.073,137.311l-1.533,4.596l-4.845,0.037c-0.627,0.005-0.887,0.806-0.382,1.178l3.898,2.878
		l-1.462,4.62c-0.189,0.599,0.492,1.092,1.002,0.729l3.941-2.818l3.941,2.818c0.51,0.365,1.191-0.13,1.002-0.729l-1.461-4.62
		l3.898-2.878c0.505-0.372,0.245-1.173-0.382-1.178l-4.845-0.037l-1.533-4.596C312.113,136.716,311.272,136.716,311.073,137.311z"/>
	<path style="fill:#F5F5F5;" d="M345.208,137.311l-1.533,4.596l-4.845,0.037c-0.627,0.005-0.887,0.806-0.382,1.178l3.898,2.878
		l-1.462,4.62c-0.189,0.599,0.492,1.092,1.002,0.729l3.941-2.818l3.941,2.818c0.51,0.365,1.191-0.13,1.002-0.729l-1.462-4.62
		l3.898-2.878c0.505-0.372,0.245-1.173-0.382-1.178l-4.845-0.037l-1.533-4.596C346.247,136.716,345.406,136.716,345.208,137.311z"/>
	<path style="fill:#F5F5F5;" d="M311.073,73.593l-1.533,4.596l-4.845,0.037c-0.627,0.005-0.887,0.806-0.382,1.178l3.898,2.878
		l-1.462,4.62c-0.189,0.599,0.492,1.093,1.002,0.729l3.941-2.818l3.941,2.818c0.51,0.365,1.191-0.13,1.002-0.729l-1.461-4.62
		l3.898-2.878c0.505-0.372,0.245-1.173-0.382-1.178l-4.845-0.037l-1.533-4.596C312.113,72.999,311.272,72.999,311.073,73.593z"/>
	<path style="fill:#F5F5F5;" d="M345.208,73.593l-1.533,4.596l-4.845,0.037c-0.627,0.005-0.887,0.806-0.382,1.178l3.898,2.878
		l-1.462,4.62c-0.189,0.599,0.492,1.093,1.002,0.729l3.941-2.818l3.941,2.818c0.51,0.365,1.191-0.13,1.002-0.729l-1.462-4.62
		l3.898-2.878c0.505-0.372,0.245-1.173-0.382-1.178l-4.845-0.037l-1.533-4.596C346.247,72.999,345.406,72.999,345.208,73.593z"/>
</g>
<g>
</g>
<g>
</g>
<g>
</g>
<g>
</g>
<g>
</g>
<g>
</g>
<g>
</g>
<g>
</g>
<g>
</g>
<g>
</g>
<g>
</g>
<g>
</g>
<g>
</g>
<g>
</g>
<g>
</g>
</svg>
