<?xml version="1.0" encoding="iso-8859-1"?>
<!-- Generator: Adobe Illustrator 19.0.0, SVG Export Plug-In . SVG Version: 6.00 Build 0)  -->
<svg xmlns="http://www.w3.org/2000/svg" xmlns:xlink="http://www.w3.org/1999/xlink" version="1.1" id="Layer_1" x="0px" y="0px" viewBox="0 0 511.999 511.999" style="enable-background:new 0 0 511.999 511.999;" xml:space="preserve">
<path style="fill:#FFE15A;" d="M482.445,341.601l-0.029-171.203l-0.004-24.793c-0.003-12.607-6.729-24.255-17.649-30.557  L273.602,4.725c-10.918-6.302-24.37-6.3-35.287,0.006L47.19,115.118c-10.917,6.305-17.64,17.955-17.639,30.562l0.004,24.717  L29.583,341.6l0.004,24.793c0.003,12.607,6.73,24.255,17.649,30.557l191.161,110.325c10.92,6.302,24.37,6.298,35.287-0.006  L464.809,396.88c10.917-6.305,17.64-17.955,17.639-30.563L482.445,341.601z"/>
<polygon style="fill:#FF4B55;" points="482.417,170.398 254.751,136.033 29.556,170.398 29.585,341.601 482.445,341.601 "/>
<path style="fill:#464655;" d="M482.412,145.605c-0.003-12.607-6.729-24.255-17.649-30.557L273.602,4.725  c-10.918-6.302-24.37-6.3-35.287,0.006L47.19,115.118c-10.917,6.305-17.64,17.955-17.639,30.562l0.004,24.717h452.86  L482.412,145.605z"/>
<g>
</g>
<g>
</g>
<g>
</g>
<g>
</g>
<g>
</g>
<g>
</g>
<g>
</g>
<g>
</g>
<g>
</g>
<g>
</g>
<g>
</g>
<g>
</g>
<g>
</g>
<g>
</g>
<g>
</g>
</svg>
