<?xml version="1.0" encoding="iso-8859-1"?>
<!-- Generator: Adobe Illustrator 19.0.0, SVG Export Plug-In . SVG Version: 6.00 Build 0)  -->
<svg xmlns="http://www.w3.org/2000/svg" xmlns:xlink="http://www.w3.org/1999/xlink" version="1.1" id="Layer_1" x="0px" y="0px" viewBox="0 0 512.001 512.001" style="enable-background:new 0 0 512.001 512.001;" xml:space="preserve">
<path style="fill:#FF4B55;" d="M29.589,366.395l-0.036-220.713c-0.003-12.607,6.722-24.257,17.639-30.562L238.315,4.731  c10.917-6.306,24.368-6.307,35.287-0.006L464.763,115.05c10.918,6.302,17.646,17.95,17.649,30.557l0.036,220.713  c0.003,12.607-6.722,24.257-17.639,30.563L273.685,507.271c-10.917,6.306-24.368,6.307-35.287,0.006L47.238,396.952  C36.318,390.65,29.591,379.002,29.589,366.395z"/>
<g>
	<path style="fill:#FFE15A;" d="M125.125,125.189l9.004,26.996l28.457,0.22c3.684,0.029,5.212,4.73,2.248,6.919l-22.893,16.905   l8.584,27.133c1.111,3.513-2.888,6.418-5.886,4.276l-23.152-16.548l-23.151,16.548c-2.998,2.143-6.997-0.764-5.886-4.276   l8.584-27.133l-22.893-16.905c-2.964-2.188-1.436-6.891,2.248-6.919l28.457-0.22l9.004-26.996   C119.016,121.694,123.959,121.694,125.125,125.189z"/>
	<path style="fill:#FFE15A;" d="M228.462,131.842l6.456,8.804l10.42-3.258c1.348-0.422,2.458,1.116,1.633,2.263l-6.378,8.86   l6.318,8.903c0.819,1.152-0.301,2.683-1.648,2.252l-10.397-3.328l-6.514,8.76c-0.844,1.135-2.646,0.542-2.652-0.871l-0.049-10.917   l-10.345-3.489c-1.34-0.452-1.333-2.348,0.01-2.79l10.367-3.419l0.121-10.916C225.82,131.282,227.626,130.701,228.462,131.842z"/>
	<path style="fill:#FFE15A;" d="M189.155,105.599l10.853,1.18l4.63-9.887c0.6-1.28,2.483-1.061,2.772,0.324l2.232,10.686   l10.833,1.348c1.402,0.175,1.776,2.034,0.55,2.737l-9.474,5.425l2.066,10.72c0.267,1.387-1.386,2.317-2.433,1.368l-8.087-7.334   l-9.557,5.277c-1.237,0.684-2.632-0.601-2.053-1.891l4.476-9.957l-7.973-7.458C186.96,107.17,187.749,105.447,189.155,105.599z"/>
	<path style="fill:#FFE15A;" d="M206.312,211.398l-6.456,8.804l-10.42-3.258c-1.348-0.422-2.458,1.116-1.633,2.263l6.378,8.86   l-6.318,8.903c-0.819,1.152,0.302,2.683,1.648,2.252l10.397-3.328l6.514,8.76c0.844,1.135,2.646,0.542,2.652-0.871l0.047-10.917   l10.345-3.489c1.34-0.451,1.333-2.348-0.009-2.79l-10.367-3.419l-0.121-10.917C208.953,210.839,207.148,210.258,206.312,211.398z"/>
	<path style="fill:#FFE15A;" d="M245.618,186.737l-10.853,1.18l-4.63-9.886c-0.6-1.28-2.483-1.061-2.772,0.322l-2.232,10.686   l-10.833,1.348c-1.402,0.175-1.776,2.034-0.55,2.737l9.474,5.425l-2.066,10.72c-0.267,1.388,1.386,2.317,2.433,1.368l8.087-7.334   l9.557,5.277c1.237,0.684,2.632-0.602,2.053-1.891l-4.476-9.957l7.972-7.458C247.815,188.309,247.024,186.585,245.618,186.737z"/>
</g>
<g>
</g>
<g>
</g>
<g>
</g>
<g>
</g>
<g>
</g>
<g>
</g>
<g>
</g>
<g>
</g>
<g>
</g>
<g>
</g>
<g>
</g>
<g>
</g>
<g>
</g>
<g>
</g>
<g>
</g>
</svg>
