<?xml version="1.0" encoding="iso-8859-1"?>
<!-- Generator: Adobe Illustrator 19.0.0, SVG Export Plug-In . SVG Version: 6.00 Build 0)  -->
<svg version="1.1" id="Layer_1" xmlns="http://www.w3.org/2000/svg" xmlns:xlink="http://www.w3.org/1999/xlink" x="0px" y="0px"
	 viewBox="0 0 512.001 512.001" style="enable-background:new 0 0 512.001 512.001;" xml:space="preserve">
<path style="fill:#F5F5F5;" d="M482.45,366.319l-0.036-220.622v-0.091c0-2.364-0.237-4.694-0.694-6.962
	c-0.152-0.756-0.329-1.505-0.529-2.246c-0.401-1.482-0.897-2.93-1.483-4.34c-1.172-2.818-2.706-5.472-4.56-7.897
	c-2.782-3.635-6.287-6.751-10.382-9.114L273.602,4.725c-4.094-2.363-8.545-3.839-13.085-4.43c-3.027-0.394-6.092-0.392-9.119,0.001
	c-2.269,0.296-4.518,0.814-6.708,1.552c-2.192,0.739-4.328,1.7-6.375,2.882L47.191,115.118c-4.094,2.364-7.598,5.481-10.378,9.118
	c-1.854,2.424-3.387,5.08-4.558,7.898c-0.586,1.41-1.081,2.859-1.482,4.34c-0.601,2.223-0.987,4.518-1.142,6.856
	c-0.051,0.78-0.077,1.563-0.077,2.352l0.036,220.622v0.091c0.001,8.668,3.182,16.882,8.718,23.216
	c2.517,2.879,5.518,5.371,8.931,7.34L238.4,507.276c10.918,6.302,24.37,6.3,35.287-0.006l191.125-110.389
	c7.505-4.335,13.029-11.196,15.747-19.157c0.494-1.447,0.896-2.932,1.2-4.444c0.152-0.756,0.28-1.518,0.382-2.287
	C482.345,369.456,482.45,367.895,482.45,366.319L482.45,366.319L482.45,366.319z"/>
<path style="fill:#FF4B55;" d="M482.418,169.486l-0.004-23.79v-0.091c0-0.71-0.029-1.415-0.071-2.117
	c-0.013-0.209-0.031-0.416-0.047-0.624c-0.04-0.519-0.092-1.036-0.155-1.55c-0.025-0.204-0.047-0.409-0.076-0.611
	c-0.096-0.691-0.207-1.378-0.345-2.058c-0.152-0.756-0.329-1.505-0.529-2.246c-0.2-0.741-0.425-1.473-0.672-2.197
	s-0.517-1.438-0.811-2.143c-0.88-2.113-1.962-4.135-3.23-6.036c-0.422-0.634-0.866-1.253-1.33-1.859
	c-0.617-0.807-1.285-1.578-1.972-2.332c-0.172-0.189-0.346-0.375-0.522-0.561c-0.705-0.739-1.431-1.461-2.202-2.139
	c-0.001-0.001-0.001-0.001-0.003-0.002c-0.001-0.001-0.001-0.001-0.003-0.002c-0.77-0.677-1.583-1.311-2.416-1.923
	c-0.21-0.154-0.421-0.305-0.634-0.455c-0.851-0.597-1.721-1.173-2.632-1.698L273.602,4.725c-0.615-0.355-1.24-0.682-1.87-0.997
	c-0.187-0.094-0.376-0.181-0.564-0.271c-0.469-0.224-0.941-0.437-1.416-0.639c-0.191-0.081-0.381-0.164-0.574-0.242
	c-0.646-0.261-1.296-0.509-1.953-0.73c-0.659-0.221-1.322-0.416-1.989-0.599c-0.197-0.054-0.395-0.102-0.592-0.152
	c-0.496-0.126-0.995-0.241-1.495-0.345c-0.199-0.041-0.397-0.085-0.597-0.122c-0.676-0.129-1.353-0.244-2.034-0.332
	c-0.756-0.099-1.516-0.172-2.276-0.221c-1.521-0.099-3.047-0.097-4.566,0.001c-0.76,0.049-1.52,0.124-2.276,0.222
	c-0.681,0.089-1.358,0.204-2.036,0.332c-0.2,0.037-0.397,0.081-0.597,0.122c-0.5,0.104-0.998,0.219-1.495,0.345
	c-0.197,0.05-0.396,0.099-0.592,0.152c-0.667,0.182-1.332,0.377-1.989,0.599s-1.308,0.47-1.956,0.732
	c-0.19,0.076-0.377,0.159-0.565,0.239c-0.479,0.204-0.955,0.419-1.426,0.644c-0.185,0.089-0.371,0.176-0.556,0.267
	c-0.631,0.315-1.256,0.644-1.872,1L47.191,115.118c-0.001,0.001-0.002,0.001-0.004,0.002c-0.91,0.525-1.778,1.101-2.628,1.697
	c-0.212,0.15-0.424,0.301-0.632,0.455c-0.832,0.612-1.646,1.247-2.416,1.924c-0.001,0.001-0.004,0.002-0.005,0.005
	c-0.771,0.68-1.497,1.401-2.202,2.141c-0.176,0.185-0.35,0.371-0.521,0.559c-0.687,0.754-1.353,1.526-1.972,2.333
	c-0.464,0.606-0.907,1.226-1.33,1.861c-0.422,0.634-0.825,1.281-1.206,1.941c-0.761,1.318-1.437,2.688-2.023,4.096
	c-0.292,0.705-0.564,1.42-0.811,2.143c-0.247,0.724-0.471,1.457-0.671,2.198c0,0,0,0.001,0,0.003
	c-0.18,0.666-0.334,1.341-0.475,2.019c-0.041,0.2-0.077,0.401-0.116,0.602c-0.096,0.506-0.181,1.015-0.255,1.526
	c-0.03,0.205-0.061,0.409-0.087,0.615c-0.087,0.694-0.162,1.39-0.209,2.091c-0.051,0.78-0.077,1.563-0.077,2.352l0.004,23.806
	l228.944,15.277L482.418,169.486z"/>
<polygon style="fill:#41479B;" points="482.447,342.514 482.418,169.486 29.557,169.486 29.585,342.514 "/>
<polygon style="fill:#FFE15A;" points="207.937,164.452 115.583,164.452 111.734,141.364 211.784,141.364 "/>
<polygon style="fill:#FFD350;" points="114.621,158.68 115.583,164.452 207.937,164.452 208.899,158.68 "/>
<g>
	<rect x="159.83" y="87.49" style="fill:#FFE15A;" width="3.848" height="15.392"/>
	<rect x="155.98" y="91.34" style="fill:#FFE15A;" width="11.544" height="3.848"/>
	<path style="fill:#FFE15A;" d="M208.238,149.06c-0.436,0-0.877-0.075-1.311-0.229c-1.997-0.725-3.03-2.932-2.306-4.93l8.15-22.495
		c0.404-1.116,0.309-2.346-0.261-3.37c-0.302-0.545-1.011-1.503-2.359-1.793c-9.937-2.112-29.201-5.663-46.532-5.663h-3.716
		c-17.332,0-36.595,3.552-46.536,5.667c-1.346,0.286-2.053,1.243-2.356,1.788c-0.57,1.026-0.665,2.254-0.259,3.37l8.149,22.495
		c0.725,1.999-0.309,4.205-2.306,4.93c-1.996,0.714-4.208-0.312-4.929-2.307l-8.153-22.495c-1.163-3.209-0.885-6.753,0.765-9.725
		c1.593-2.874,4.32-4.911,7.482-5.585c10.238-2.179,30.104-5.836,48.141-5.836h3.716c18.036,0,37.902,3.657,48.137,5.832
		c3.167,0.676,5.892,2.713,7.485,5.588c1.65,2.973,1.928,6.516,0.767,9.725l-8.153,22.495
		C211.289,148.087,209.81,149.06,208.238,149.06z"/>
	<path style="fill:#FFE15A;" d="M161.774,145.694c-2.126,0-3.848-1.721-3.848-3.848V110.58c0-2.127,1.723-3.848,3.848-3.848
		c2.126,0,3.848,1.721,3.848,3.848v31.265C165.623,143.972,163.9,145.694,161.774,145.694z"/>
	<path style="fill:#FFE15A;" d="M188.376,149.06c-0.26,0-0.522-0.026-0.785-0.079c-2.082-0.432-3.418-2.469-2.985-4.551
		l4.667-22.495c0.607-2.932-0.344-5.497-0.884-5.948c-5.336-1.958-16.041-5.407-25.565-5.407h-2.129
		c-9.525,0-20.228,3.449-25.762,5.51c-0.342,0.35-1.292,2.917-0.686,5.847l4.667,22.495c0.432,2.082-0.904,4.119-2.985,4.551
		c-2.083,0.402-4.12-0.906-4.549-2.988l-4.667-22.495c-1.163-5.607,0.622-12.788,5.533-14.622c7.355-2.736,18.258-5.993,28.45-5.993
		h2.129c10.191,0,21.093,3.258,28.446,5.99c4.915,1.837,6.701,9.019,5.537,14.626l-4.667,22.495
		C191.762,147.813,190.16,149.06,188.376,149.06z"/>
</g>
<polygon style="fill:#FFD350;" points="112.696,147.136 210.823,147.136 211.784,141.364 111.734,141.364 "/>
<path style="fill:#FF4B55;" d="M88.647,164.452c-2.126,0-3.848,1.723-3.848,3.848v134.387c0,42.668,34.457,77.258,76.961,77.258
	s76.961-34.589,76.961-77.258V168.3c0-2.126-1.723-3.848-3.848-3.848H88.647z"/>
<path style="fill:#F5F5F5;" d="M169.456,291.439l7.697-19.241l-15.392,3.848l-15.392-3.848l7.697,19.241l-19.241,65.417
	c0,0,11.544,7.697,26.936,7.697s26.936-7.697,26.936-7.697L169.456,291.439z"/>
<polygon style="fill:#FFE15A;" points="133.889,306.948 127.1,308.645 142.035,281.763 135.308,278.027 117.168,310.68
	100.19,310.68 100.19,318.376 108.46,318.376 97.787,326.914 102.594,332.926 111.659,325.673 108.084,336.399 115.386,338.833
	122.414,317.748 135.758,314.411 "/>
<path style="fill:#F5F5F5;" d="M134.823,202.933l-17.566-8.783c-3.227-1.613-4.9-5.251-4.025-8.75l0.993-3.974
	c0.69-2.758-1.396-5.429-4.239-5.429c-1.327,0-2.583,0.604-3.412,1.64c-9.115,11.393-14.08,25.549-14.08,40.14v81.359
	c0,0,16.069-3.214,30.585-24.326c2.666-3.876,7.052-6.171,11.728-6.411l-7.68,23.041l15.392,3.848l13.469-16.028L134.823,202.933z"
	/>
<polygon style="fill:#FFE15A;" points="189.63,306.948 196.42,308.645 181.485,281.763 188.212,278.027 206.352,310.68
	223.329,310.68 223.329,318.376 215.06,318.376 225.732,326.914 220.926,332.926 211.861,325.673 215.436,336.399 208.134,338.833
	201.106,317.748 187.762,314.411 "/>
<path style="fill:#F5F5F5;" d="M188.697,202.933l17.566-8.783c3.227-1.613,4.9-5.251,4.025-8.75l-0.993-3.974
	c-0.69-2.758,1.396-5.429,4.239-5.429c1.327,0,2.583,0.604,3.412,1.64c9.115,11.393,14.08,25.549,14.08,40.14v81.359
	c0,0-16.069-3.214-30.585-24.326c-2.666-3.876-7.052-6.171-11.728-6.411l7.68,23.041L181,295.289l-13.469-16.028L188.697,202.933z"
	/>
<g>
	<polygon style="fill:#FFE15A;" points="138.672,175.997 119.431,175.997 125.203,183.693 138.672,187.541 130.975,191.389
		142.52,191.389 	"/>
	<polygon style="fill:#FFE15A;" points="184.848,175.997 204.089,175.997 198.317,183.693 184.848,187.541 192.545,191.389
		181,191.389 	"/>
</g>
<path style="fill:#F5F5F5;" d="M187.557,172.98l-18.101,3.017l-7.697,15.392l-7.697-15.392l-18.101-3.017
	c-2.076-0.346-3.667,1.808-2.726,3.69l9.284,18.566l-7.697,7.697h26.936h26.936l-7.697-7.697l9.282-18.566
	C191.224,174.788,189.633,172.634,187.557,172.98z"/>
<circle style="fill:#FFBE50;" cx="161.76" cy="143.05" r="5.772"/>
<ellipse style="fill:#41479B;" cx="161.68" cy="156.83" rx="4.563" ry="3.207"/>
<ellipse style="fill:#FF4B55;" cx="138.91" cy="156.83" rx="4.563" ry="3.207"/>
<g>
	<ellipse style="fill:#41479B;" cx="116.14" cy="156.83" rx="4.563" ry="3.207"/>
	<ellipse style="fill:#41479B;" cx="207.22" cy="156.83" rx="4.563" ry="3.207"/>
</g>
<ellipse style="fill:#FF4B55;" cx="184.45" cy="156.83" rx="4.563" ry="3.207"/>
<g>
	<circle style="fill:#FFBE50;" cx="188.5" cy="143.05" r="5.772"/>
	<circle style="fill:#FFBE50;" cx="209.61" cy="143.05" r="5.772"/>
	<circle style="fill:#FFBE50;" cx="135.04" cy="143.05" r="5.772"/>
	<circle style="fill:#FFBE50;" cx="113.93" cy="143.05" r="5.772"/>
</g>
<path style="fill:#41479B;" d="M168.389,110.579c0.661-1.136,1.067-2.439,1.067-3.848c0-4.25-3.445-7.697-7.697-7.697
	c-4.25,0-7.697,3.445-7.697,7.697c0,1.41,0.406,2.712,1.067,3.848H168.389z"/>
<path style="fill:#FF4B55;" d="M161.759,281.819c-15.914,0-28.861-12.946-28.861-28.861v-51.95h57.722v51.95
	C190.62,268.874,177.675,281.819,161.759,281.819z"/>
<path style="fill:#A54B50;" d="M188.697,202.933v50.025c0,14.876-12.06,26.936-26.936,26.936s-26.936-12.06-26.936-26.936v-50.025
	L188.697,202.933 M192.545,199.085h-3.848h-53.873h-3.848v3.848v50.025c0,16.975,13.81,30.785,30.784,30.785
	s30.784-13.81,30.784-30.785v-50.025v-3.848H192.545z"/>
<g>
	<path style="fill:#F5F5F5;" d="M155.987,279.26c1.862,0.407,3.789,0.635,5.772,0.635s3.911-0.229,5.772-0.635v-76.327h-11.544
		C155.987,202.933,155.987,279.26,155.987,279.26z"/>
	<rect x="134.83" y="234.69" style="fill:#F5F5F5;" width="53.873" height="11.544"/>
</g>
<g>
</g>
<g>
</g>
<g>
</g>
<g>
</g>
<g>
</g>
<g>
</g>
<g>
</g>
<g>
</g>
<g>
</g>
<g>
</g>
<g>
</g>
<g>
</g>
<g>
</g>
<g>
</g>
<g>
</g>
</svg>
