<?xml version="1.0" encoding="iso-8859-1"?>
<!-- Generator: Adobe Illustrator 19.0.0, SVG Export Plug-In . SVG Version: 6.00 Build 0)  -->
<svg version="1.1" id="Layer_1" xmlns="http://www.w3.org/2000/svg" xmlns:xlink="http://www.w3.org/1999/xlink" x="0px" y="0px"
	 viewBox="0 0 512 512" style="enable-background:new 0 0 512 512;" xml:space="preserve">
<path style="fill:#FFE15A;" d="M482.435,296.744l-0.014-81.491l-0.005-27.164l-0.008-42.485
	c-0.001-11.607-5.715-22.388-15.14-28.946c-0.812-0.565-1.642-1.11-2.509-1.611l-23.711-13.684l-22.198-12.81L400.98,78.24
	l-94.999-54.826l-19.995-11.539l-12.39-7.151c-10.918-6.301-24.37-6.298-35.287,0.006l-12.307,7.108l-19.995,11.548L111.02,78.247
	L81.076,95.544l-22.191,12.818l-11.697,6.756c-0.841,0.486-1.648,1.015-2.439,1.561c-9.465,6.556-15.201,17.365-15.2,29.001
	l0.007,42.41l0.005,27.164l0.014,81.491l0.005,27.164l0.007,42.486c0.003,11.607,5.715,22.388,15.14,28.946
	c0.812,0.565,1.642,1.11,2.509,1.611l23.377,13.491l22.198,12.811l18.204,10.506l94.999,54.826l19.995,11.539l12.39,7.151
	c10.92,6.301,24.37,6.298,35.287-0.006l12.307-7.108l19.995-11.548l94.989-54.863l27.325-15.782l22.191-12.818l14.319-8.27
	c0.841-0.486,1.648-1.015,2.439-1.561c9.465-6.556,15.201-17.365,15.2-29.001l-0.008-42.41L482.435,296.744z"/>
<path style="fill:#FF4B55;" d="M482.44,323.907l-0.005-27.164l-0.003-17.322l-176.964-18.306v0.004
	c0.176-1.707,0.516-3.367,0.516-5.121s-0.34-3.413-0.516-5.121v0.004l176.955-18.306l-0.003-17.323l-0.005-27.164l-0.008-42.485
	c-0.001-11.607-5.715-22.389-15.14-28.946c0.225,0.156,0.439,0.327,0.659,0.489L297.762,228.634
	c-2.137-3.254-4.667-6.193-7.483-8.859c0.006,0.005,0.013,0.01,0.019,0.015L416.122,86.976l-15.141-8.738l-94.999-54.826
	l-11.432-6.598l-7.978,49.235l-22.806,140.745c-2.548-0.401-5.107-0.784-7.769-0.784s-5.221,0.382-7.769,0.784L226.339,66.05
	l-7.764-49.92l-12.562,7.256l-94.99,54.862L95.886,86.99l125.811,132.801c0.006-0.005,0.012-0.01,0.019-0.015
	c-2.815,2.666-5.347,5.605-7.483,8.859L44.092,117.163c0.22-0.16,0.432-0.33,0.656-0.485c-9.465,6.556-15.201,17.365-15.2,29.001
	l0.007,42.41l0.005,27.164l0.003,17.322l176.963,18.306l0.001-0.004c-0.176,1.707-0.516,3.367-0.516,5.121s0.34,3.413,0.516,5.121
	l-0.001-0.004L29.571,279.421l0.003,17.323l0.005,27.164l0.007,42.485c0.003,11.607,5.715,22.389,15.14,28.946
	c-0.225-0.156-0.439-0.327-0.66-0.489l170.166-111.488c2.137,3.254,4.667,6.193,7.483,8.859c-0.006-0.005-0.012-0.01-0.019-0.015
	L95.873,425.019l15.141,8.738l94.999,54.826l12.259,7.076l7.819-49.713l22.139-140.744c2.548,0.401,5.107,0.782,7.769,0.782
	s5.221-0.382,7.769-0.782l22.651,140.744l7.947,49.376l11.619-6.711l94.989-54.863l15.137-8.743L290.3,292.205
	c-0.006,0.005-0.012,0.01-0.019,0.015c2.815-2.665,5.347-5.605,7.483-8.859l170.14,111.471c-0.22,0.16-0.432,0.33-0.656,0.485
	c9.465-6.556,15.201-17.365,15.2-29.001L482.44,323.907z"/>
<circle style="fill:#FFE15A;" cx="256" cy="256" r="39.989"/>
<g>
</g>
<g>
</g>
<g>
</g>
<g>
</g>
<g>
</g>
<g>
</g>
<g>
</g>
<g>
</g>
<g>
</g>
<g>
</g>
<g>
</g>
<g>
</g>
<g>
</g>
<g>
</g>
<g>
</g>
</svg>
