<?xml version="1.0" encoding="utf-8"?>
<!-- Generator: Adobe Illustrator 21.1.0, SVG Export Plug-In . SVG Version: 6.00 Build 0)  -->
<svg version="1.1" id="Layer_1" xmlns="http://www.w3.org/2000/svg" xmlns:xlink="http://www.w3.org/1999/xlink" x="0px" y="0px"
	 viewBox="0 0 512 512" style="enable-background:new 0 0 512 512;" xml:space="preserve">
<style type="text/css">
	.st0{fill:#FFFFFF;}
	.st1{fill:#429CD9;}
</style>
<path class="st0" d="M432,341.7v-32.9v-21.1v-63.3v-21.1v-33c0-2.4-0.3-4.7-0.9-7.1c-0.3-1.2-0.7-2.4-1.2-3.6
	c-2-4.7-5.3-8.9-9.6-11.9c-0.6-0.5-1.2-0.9-1.9-1.2l-18.4-10.6l-17.2-9.9l-13.9-7.9l-53.1-30.6l0,0l-20.7-12l-15.5-8.9l-9.6-5.6
	c-8.5-4.9-19-4.9-27.4,0l-9.6,5.5l-15.5,8.9l-20.7,12l0,0l-53.1,30.8l-23.2,13.4l-17.2,9.9l-9.1,5.3c-0.6,0.4-1.2,0.8-1.9,1.2
	c-2.6,1.8-4.9,4.1-6.7,6.6c-1.2,1.7-2.3,3.6-3,5.5c-1.3,3.3-2.1,6.8-2.1,10.4v32.9v21.1v63.3l0,0l0,0v21.1v33l0,0
	c0,9,4.4,17.4,11.7,22.5c0.6,0.5,1.2,0.9,1.9,1.2L112,376l17.2,9.9l14.1,8.2l73.8,42.6l15.5,8.9l9.6,5.6c8.5,4.9,19,4.9,27.4,0
	l9.6-5.5l15.5-8.9l20.7-12l0,0l44.8-25.9l8.3-4.8l21.2-12.3l17.2-9.9l11.1-6.4c0.6-0.4,1.2-0.8,1.9-1.2
	C427.5,359.2,432,350.8,432,341.7L432,341.7L432,341.7z"/>
<g>
	<path class="st1" d="M196.7,357.3l-24.3-200.9h127.8l-18.2,149.5l73.4-3.3l-23.1,54.7H196.7z"/>
</g>
</svg>
