<?xml version="1.0" encoding="iso-8859-1"?>
<!-- Generator: Adobe Illustrator 19.0.0, SVG Export Plug-In . SVG Version: 6.00 Build 0)  -->
<svg version="1.1" id="Layer_1" xmlns="http://www.w3.org/2000/svg" xmlns:xlink="http://www.w3.org/1999/xlink" x="0px" y="0px"
	 viewBox="0 0 512 512" style="enable-background:new 0 0 512 512;" xml:space="preserve">
<path style="fill:#F5F5F5;" d="M482.445,337.689l-0.003-13.615l-0.003-13.615l-0.019-108.918l-0.003-13.615l-0.003-13.615
	l-0.005-28.706c-0.003-12.607-6.729-24.255-17.649-30.557L273.602,4.725c-10.918-6.302-24.37-6.3-35.287,0.006L146.97,57.489
	l-8.673,5.01l-9.257,5.347l-71.722,41.422l-10.128,5.85c-0.844,0.487-1.652,1.016-2.444,1.565c-1.678,1.163-3.242,2.457-4.675,3.869
	c-6.641,6.548-10.521,15.559-10.52,25.128l0.036,220.713c0.001,9.544,3.863,18.532,10.472,25.073
	c1.43,1.415,2.992,2.707,4.666,3.873c0.812,0.565,1.643,1.111,2.509,1.611l10.065,5.808l71.733,41.399l9.261,5.345l8.673,5.005
	l91.43,52.767c10.918,6.301,24.37,6.299,35.287-0.006l191.125-110.389c10.917-6.305,17.64-17.955,17.639-30.563L482.445,337.689z"/>
<path style="fill:#FF4B55;" d="M482.417,174.312l-0.005-28.706c-0.003-12.607-6.729-24.255-17.649-30.557L273.602,4.725
	c-10.918-6.302-24.37-6.3-35.287,0.006L146.97,57.489l85.938,116.823H482.417z"/>
<path style="fill:#41479B;" d="M146.969,454.509l91.43,52.767c10.918,6.301,24.37,6.299,35.287-0.006l191.125-110.389
	c10.917-6.305,17.64-17.955,17.639-30.563l-0.005-28.631H232.907L146.969,454.509z"/>
<path style="fill:#464655;" d="M40.072,120.552c-6.641,6.548-10.521,15.559-10.52,25.128l0.036,220.713
	c0.001,9.544,3.863,18.532,10.472,25.073L146.03,256L40.072,120.552z"/>
<path style="fill:#FFE15A;" d="M57.318,109.269l-10.128,5.85c-0.844,0.487-1.652,1.016-2.444,1.565
	c-1.678,1.163-3.242,2.457-4.675,3.869L139.712,256L40.061,391.467c1.43,1.415,2.992,2.707,4.666,3.873
	c0.812,0.565,1.643,1.111,2.509,1.611l10.065,5.808l114.972-146.76L57.318,109.269z"/>
<polygon style="fill:#73AF00;" points="129.04,67.845 57.318,109.269 165.26,256 57.302,402.76 129.035,444.158 227.391,310.459
	482.44,310.459 482.422,201.541 227.391,201.541 "/>
<g>
</g>
<g>
</g>
<g>
</g>
<g>
</g>
<g>
</g>
<g>
</g>
<g>
</g>
<g>
</g>
<g>
</g>
<g>
</g>
<g>
</g>
<g>
</g>
<g>
</g>
<g>
</g>
<g>
</g>
</svg>
