<?xml version="1.0" encoding="iso-8859-1"?>
<!-- Generator: Adobe Illustrator 19.0.0, SVG Export Plug-In . SVG Version: 6.00 Build 0)  -->
<svg version="1.1" id="Layer_1" xmlns="http://www.w3.org/2000/svg" xmlns:xlink="http://www.w3.org/1999/xlink" x="0px" y="0px"
	 viewBox="0 0 512.002 512.002" style="enable-background:new 0 0 512.002 512.002;" xml:space="preserve">
<path style="fill:#F5F5F5;" d="M482.413,145.606c-0.003-12.607-6.729-24.255-17.649-30.557L273.603,4.725
	c-10.918-6.302-24.37-6.3-35.287,0.006L144.997,58.63l0,0l-97.806,56.488c-10.917,6.306-17.64,17.955-17.639,30.563l0.036,220.713
	c0.003,12.607,6.729,24.255,17.649,30.557l97.76,56.42l0,0l93.402,53.905c10.918,6.302,24.37,6.299,35.287-0.006l191.125-110.389
	c10.917-6.306,17.64-17.955,17.638-30.563L482.413,145.606z"/>
<path style="fill:#73AF00;" d="M482.413,145.606c-0.003-12.607-6.729-24.255-17.649-30.557L273.603,4.725
	c-10.918-6.302-24.37-6.3-35.287,0.006L144.997,58.63v394.742l93.402,53.905c10.918,6.302,24.37,6.299,35.287-0.006l191.125-110.389
	c10.917-6.306,17.64-17.955,17.638-30.563L482.413,145.606z"/>
<g>
	<path style="fill:#F5F5F5;" d="M419.252,302.101c-40.49,36.07-102.473,32.362-138.471-8.199
		c-35.929-40.488-32.291-102.649,8.198-138.717c0.059-0.052,0.117-0.105,0.177-0.156c0.957-0.841,0.033-2.368-1.155-1.906
		c-39.929,15.548-68.24,54.389-68.24,99.864c0,59.236,47.903,107.211,106.998,107.211c40.88,0,76.305-23.002,94.303-56.769
		c0.6-1.127-0.807-2.223-1.76-1.372C419.287,302.07,419.269,302.085,419.252,302.101z"/>
	<path style="fill:#F5F5F5;" d="M367.17,172.955l14.07,15.786l19.491-8.203c2.523-1.062,4.946,1.7,3.565,4.064l-10.666,18.26
		l13.824,16.002c1.79,2.072-0.087,5.23-2.763,4.646l-20.662-4.501l-10.947,18.093c-1.417,2.342-5,1.533-5.274-1.192l-2.104-21.042
		l-20.589-4.821c-2.666-0.624-3.003-4.283-0.496-5.384l19.361-8.504l-1.778-21.072C361.974,172.363,365.348,170.912,367.17,172.955z
		"/>
</g>
<g>
</g>
<g>
</g>
<g>
</g>
<g>
</g>
<g>
</g>
<g>
</g>
<g>
</g>
<g>
</g>
<g>
</g>
<g>
</g>
<g>
</g>
<g>
</g>
<g>
</g>
<g>
</g>
<g>
</g>
</svg>
