<?xml version="1.0" encoding="iso-8859-1"?>
<!-- Generator: Adobe Illustrator 19.0.0, SVG Export Plug-In . SVG Version: 6.00 Build 0)  -->
<svg version="1.1" id="Layer_1" xmlns="http://www.w3.org/2000/svg" xmlns:xlink="http://www.w3.org/1999/xlink" x="0px" y="0px"
	 viewBox="0 0 512.002 512.002" style="enable-background:new 0 0 512.002 512.002;" xml:space="preserve">
<path style="fill:#F5F5F5;" d="M482.45,366.319l-0.008-42.41l-0.005-27.164l-0.014-81.491l-0.005-27.164l-0.008-42.486
	c0-3.105-0.422-6.147-1.202-9.07c-0.42-1.572-0.948-3.107-1.577-4.598c-2.568-6.091-6.814-11.419-12.362-15.28
	c-0.812-0.565-1.642-1.11-2.509-1.611l-23.71-13.684l-22.198-12.81l-17.87-10.313l-68.335-39.437l0,0l-26.659-15.386l-19.995-11.539
	l-12.39-7.151c-10.918-6.301-24.37-6.3-35.287,0.006l-12.307,7.108l-19.995,11.548l-26.659,15.398l0,0l-68.33,39.466L81.078,95.547
	l-22.191,12.818l-11.697,6.756c-0.841,0.486-1.648,1.015-2.439,1.561c-3.392,2.349-6.296,5.254-8.638,8.538
	c-1.572,2.206-2.883,4.585-3.911,7.092c-1.715,4.179-2.652,8.706-2.651,13.371l0.007,42.41l0.005,27.164l0.014,81.478v0.014v0.005
	l0.005,27.159l0.007,42.478v0.006c0.003,11.607,5.715,22.388,15.14,28.946c0.812,0.565,1.642,1.11,2.509,1.61l23.377,13.491
	l22.198,12.812l18.204,10.506l94.999,54.826l19.995,11.539l12.39,7.151c10.918,6.302,24.37,6.298,35.287-0.006l12.307-7.108
	l19.995-11.548l26.659-15.397l0,0l57.587-33.261l10.742-6.205l27.325-15.782l22.191-12.818l14.319-8.27
	c0.841-0.486,1.648-1.015,2.439-1.561C476.715,388.766,482.451,377.956,482.45,366.319L482.45,366.319L482.45,366.319z"/>
<path style="fill:#41479B;" d="M29.588,366.389v0.006c0.003,11.607,5.715,22.389,15.14,28.946c0.812,0.565,1.642,1.11,2.509,1.611
	l23.377,13.491l22.198,12.812l18.204,10.506l94.999,54.826l19.995,11.539l12.39,7.151c10.92,6.302,24.37,6.298,35.287-0.006
	l12.307-7.108l19.995-11.548l26.659-15.397l57.587-33.261l10.742-6.205l27.325-15.782l22.191-12.818l14.319-8.27
	c0.841-0.486,1.648-1.013,2.439-1.562c9.465-6.556,15.201-17.365,15.2-29.001l-0.004-24.351H29.585L29.588,366.389z"/>
<g>
	<path style="fill:#FF4B55;" d="M482.412,145.606c0-3.105-0.422-6.147-1.202-9.07c-0.42-1.572-0.948-3.107-1.577-4.598
		c-2.568-6.091-6.814-11.419-12.362-15.28c-0.812-0.565-1.642-1.11-2.509-1.611l-23.71-13.684l-22.198-12.81l-17.87-10.313
		l-68.337-39.439l-26.659-15.386l-19.995-11.539l-12.39-7.151c-10.918-6.302-24.37-6.3-35.287,0.006l-12.307,7.108l-19.995,11.548
		l-26.659,15.398l0,0l-68.33,39.466L81.078,95.547l-22.191,12.818l-11.697,6.756c-0.841,0.486-1.648,1.015-2.439,1.561
		c-3.392,2.349-6.296,5.254-8.638,8.538c-1.572,2.206-2.883,4.585-3.911,7.092c-1.716,4.179-2.652,8.706-2.651,13.371l0.004,24.351
		h452.861L482.412,145.606z"/>
	<rect x="174.65" y="167.981" style="fill:#FF4B55;" width="32.541" height="37.19"/>
	<rect x="239.74" y="167.981" style="fill:#FF4B55;" width="32.541" height="37.19"/>
	<rect x="207.19" y="205.171" style="fill:#FF4B55;" width="32.541" height="37.19"/>
	<rect x="304.8" y="167.981" style="fill:#FF4B55;" width="32.541" height="37.19"/>
	<rect x="272.26" y="205.171" style="fill:#FF4B55;" width="32.541" height="37.19"/>
</g>
<g>
	<rect x="207.19" y="167.981" style="fill:#F5F5F5;" width="32.541" height="37.19"/>
	<rect x="272.26" y="167.981" style="fill:#F5F5F5;" width="32.541" height="37.19"/>
	<rect x="174.65" y="205.171" style="fill:#F5F5F5;" width="32.541" height="37.19"/>
	<rect x="239.74" y="205.171" style="fill:#F5F5F5;" width="32.541" height="37.19"/>
	<rect x="304.8" y="205.171" style="fill:#F5F5F5;" width="32.541" height="37.19"/>
</g>
<g>
	<rect x="239.74" y="242.361" style="fill:#FF4B55;" width="32.541" height="37.19"/>
	<rect x="207.19" y="279.541" style="fill:#FF4B55;" width="32.541" height="37.19"/>
	<rect x="272.26" y="279.541" style="fill:#FF4B55;" width="32.541" height="37.19"/>
</g>
<g>
	<rect x="207.19" y="242.361" style="fill:#F5F5F5;" width="32.541" height="37.19"/>
	<rect x="272.26" y="242.361" style="fill:#F5F5F5;" width="32.541" height="37.19"/>
	<rect x="239.74" y="279.541" style="fill:#F5F5F5;" width="32.541" height="37.19"/>
</g>
<g>
	<path style="fill:#FF4B55;" d="M337.344,167.98v104.586c0,44.925-36.42,81.345-81.345,81.345s-81.345-36.42-81.345-81.345V167.98
		H337.344 M343.155,162.17h-5.811h-162.69h-5.81v5.81v104.586c0,48.057,39.098,87.155,87.155,87.155s87.155-39.098,87.155-87.155
		V167.98v-5.81H343.155z"/>
	<path style="fill:#FF4B55;" d="M207.192,279.539v-37.186h-32.539v30.214c0,2.354,0.156,4.669,0.352,6.972L207.192,279.539
		L207.192,279.539z"/>
</g>
<g>
	<path style="fill:#F5F5F5;" d="M336.993,279.539h-32.186v37.186h19.448C331.312,305.84,335.832,293.178,336.993,279.539z"/>
	<path style="fill:#F5F5F5;" d="M187.744,316.725h19.448v-37.186h-32.186C176.166,293.178,180.686,305.84,187.744,316.725z"/>
</g>
<g>
	<path style="fill:#FF4B55;" d="M304.807,279.539h32.186c0.196-2.303,0.351-4.617,0.351-6.972v-30.214h-32.537L304.807,279.539
		L304.807,279.539z"/>
	<path style="fill:#FF4B55;" d="M207.192,337.532v-20.807h-19.448C192.955,324.765,199.556,331.786,207.192,337.532z"/>
	<path style="fill:#FF4B55;" d="M324.255,316.725h-19.448v20.807C312.444,331.786,319.044,324.765,324.255,316.725z"/>
</g>
<g>
	<path style="fill:#F5F5F5;" d="M207.192,337.532c9.471,7.127,20.493,12.302,32.537,14.746v-35.553h-32.537V337.532z"/>
	<path style="fill:#F5F5F5;" d="M272.268,352.28c12.045-2.444,23.067-7.619,32.537-14.746v-20.807h-32.537V352.28z"/>
</g>
<path style="fill:#FF4B55;" d="M272.268,316.725H239.73v35.553c5.257,1.067,10.697,1.633,16.269,1.633
	c5.572,0,11.012-0.566,16.269-1.633V316.725z"/>
<g>
	<path style="fill:#4173CD;" d="M197.116,106.447c-7.079-1.095-14.322-1.886-21.705-2.342c-5.711,4.701-11.154,9.602-16.322,14.677
		c5.189,12.525,10.377,25.051,15.564,37.577c10.417-4.314,21.09-7.767,31.92-10.356
		C203.421,132.818,200.269,119.633,197.116,106.447z"/>
	<path style="fill:#4173CD;" d="M275.75,100.278c-6.362-3.219-12.95-6.195-19.75-8.906c-6.801,2.712-13.389,5.687-19.75,8.906
		c1.057,13.515,2.114,27.031,3.172,40.549c11.034-0.864,22.121-0.864,33.156,0C273.634,127.311,274.691,113.795,275.75,100.278z"/>
	<path style="fill:#4173CD;" d="M352.909,118.783c-5.167-5.076-10.611-9.976-16.322-14.677c-7.383,0.457-14.626,1.247-21.705,2.342
		c-3.152,13.186-6.305,26.372-9.457,39.558c10.828,2.589,21.503,6.041,31.92,10.356
		C342.533,143.834,347.721,131.309,352.909,118.783z"/>
</g>
<g>
	<path style="fill:#41479B;" d="M236.249,100.278c-6.784-2.189-13.765-4.105-20.923-5.722c-6.316,3.74-12.389,7.712-18.209,11.89
		c3.152,13.186,6.305,26.372,9.457,39.558c10.83-2.589,21.813-4.314,32.847-5.177C238.364,127.311,237.307,113.795,236.249,100.278z
		"/>
	<path style="fill:#41479B;" d="M314.882,106.447c-5.821-4.18-11.894-8.152-18.209-11.89c-7.158,1.617-14.139,3.534-20.923,5.722
		c-1.057,13.515-2.116,27.031-3.172,40.549c11.034,0.864,22.019,2.588,32.847,5.177C308.577,132.818,311.73,119.633,314.882,106.447
		z"/>
</g>
<g>
	<path style="fill:#FF4B55;" d="M237.518,116.498c-12.302,0.962-24.547,2.885-36.619,5.772c-0.631-2.637-1.261-5.274-1.892-7.912
		c12.487-2.984,25.151-4.974,37.876-5.97C237.095,111.092,237.307,113.795,237.518,116.498z"/>
	<path style="fill:#FF4B55;" d="M238.787,132.717c-11.457,0.896-22.861,2.688-34.104,5.376c-0.631-2.637-1.261-5.275-1.892-7.912
		c11.658-2.788,23.482-4.646,35.362-5.575C238.364,127.31,238.575,130.014,238.787,132.717z"/>
</g>
<path style="fill:#FFE15A;" d="M294.605,135.446c-2.837-0.505-5.682-0.952-8.533-1.345c-4.689-0.647-8.18-4.627-7.774-9.104l0,0
	c0.406-4.471,4.889-7.718,9.991-7.013c3.06,0.421,6.115,0.902,9.161,1.443c5.079,0.897,8.369,5.372,7.378,9.75l0,0
	C303.838,133.564,299.276,136.27,294.605,135.446z"/>
<path style="fill:#FF4B55;" d="M340.457,148.844c-10.815-4.479-21.899-8.064-33.142-10.752c0.631-2.637,1.261-5.275,1.892-7.912
	c11.657,2.785,23.149,6.502,34.363,11.148C342.533,143.834,341.494,146.34,340.457,148.844z"/>
<g>
	<path style="fill:#FFE15A;" d="M337.554,124.439c-1.15,3.168-5.025,4.676-8.688,3.485c-3.661-1.192-5.902-4.674-4.975-7.914
		c0.927-3.24,4.851-4.956,8.736-3.694C336.516,117.576,338.704,121.271,337.554,124.439z"/>
	<path style="fill:#FFE15A;" d="M188.106,120.011c0.926,3.244-1.317,6.726-4.975,7.914c-3.66,1.186-7.537-0.322-8.688-3.485
		c-1.151-3.169,1.041-6.863,4.925-8.123C183.253,115.058,187.182,116.773,188.106,120.011z"/>
	<path style="fill:#FFE15A;" d="M254.143,114.684c0.007,2.696-2.414,4.89-5.415,4.98c-2.999,0.096-5.557-1.949-5.716-4.634
		c-0.157-2.686,2.263-5.01,5.412-5.111C251.573,109.821,254.131,111.99,254.143,114.684z"/>
	<path style="fill:#FFE15A;" d="M268.987,115.032c-0.16,2.689-2.718,4.73-5.716,4.634c-2.999-0.092-5.423-2.287-5.415-4.98
		c0.011-2.692,2.571-4.866,5.72-4.765C266.724,110.015,269.142,112.344,268.987,115.032z"/>
	<path style="fill:#FFE15A;" d="M261.275,127.231c-0.075,2.696-2.437,4.815-5.276,4.814c-2.839-0.001-5.199-2.118-5.276-4.814
		c-0.074-2.687,2.286-4.944,5.276-4.936C258.988,122.289,261.349,124.543,261.275,127.231z"/>
</g>
<g>
</g>
<g>
</g>
<g>
</g>
<g>
</g>
<g>
</g>
<g>
</g>
<g>
</g>
<g>
</g>
<g>
</g>
<g>
</g>
<g>
</g>
<g>
</g>
<g>
</g>
<g>
</g>
<g>
</g>
</svg>
