<?xml version="1.0" encoding="iso-8859-1"?>
<!-- Generator: Adobe Illustrator 19.0.0, SVG Export Plug-In . SVG Version: 6.00 Build 0)  -->
<svg version="1.1" id="Layer_1" xmlns="http://www.w3.org/2000/svg" xmlns:xlink="http://www.w3.org/1999/xlink" x="0px" y="0px"
	 viewBox="0 0 512.001 512.001" style="enable-background:new 0 0 512.001 512.001;" xml:space="preserve">
<path style="fill:#82C3D2;" d="M29.589,366.395l-0.036-220.713c-0.003-12.607,6.722-24.257,17.639-30.563L238.315,4.731
	c10.917-6.306,24.368-6.307,35.287-0.006L464.763,115.05c10.92,6.302,17.646,17.95,17.649,30.557l0.036,220.713
	c0.003,12.607-6.722,24.257-17.639,30.563L273.685,507.271c-10.917,6.306-24.368,6.307-35.287,0.006L47.238,396.952
	C36.318,390.65,29.591,379.002,29.589,366.395z"/>
<g>
	<path style="fill:#FFE15A;" d="M92.871,415.922c0.589-2.491,1.321-5.595,1.321-9.421c0-3.648-1.748-7.119-4.669-9.307
		c2.92-2.188,4.669-5.661,4.669-9.307c0-3.826-0.732-6.931-1.321-9.421c-0.981-4.154-1.225-5.686,0.639-7.549
		c0.908-0.909,0.908-2.382,0-3.29c-0.909-0.909-2.382-0.909-3.29,0c-3.773,3.774-2.873,7.69-1.896,11.836
		c-2.974-0.972-6.058-0.255-7.712,1.836c-0.82,1.041-2.407,3.959,0.566,8.618c0.691,1.082,2.121,1.4,3.213,0.714
		c1.083-0.691,1.4-2.132,0.709-3.213c-1.116-1.755-1.147-2.837-0.836-3.232c0.369-0.467,1.511-0.709,2.707-0.291
		c0.772,0.269,2.568,1.196,2.568,3.995c0,2.236-1.033,4.286-2.835,5.617c-1.807,1.336-4.145,1.718-6.4,1.013
		c-2.784-0.85-4.726-3.781-4.726-7.131c0-2.396,0.514-4.817,1.488-7.008l15.238-34.287c1.252-2.818,1.888-5.812,1.888-8.899
		c0-3.97-1.806-7.595-4.646-9.807c2.84-2.212,4.646-5.838,4.646-9.807c0-3.085-0.636-6.081-1.888-8.899l-15.238-34.287
		c-0.975-2.191-1.488-4.612-1.488-7.008c0-3.349,1.943-6.281,4.726-7.131c2.263-0.7,4.592-0.322,6.399,1.013
		c1.802,1.331,2.835,3.382,2.835,5.617c0,2.799-1.796,3.727-2.568,3.995c-1.195,0.422-2.338,0.177-2.707-0.291
		c-0.311-0.395-0.28-1.477,0.836-3.232c0.691-1.081,0.375-2.522-0.709-3.213c-1.086-0.681-2.521-0.364-3.213,0.714
		c-2.973,4.659-1.386,7.577-0.566,8.616c1.655,2.086,4.737,2.803,7.712,1.835c-0.977,4.145-1.877,8.063,1.896,11.836
		c0.455,0.455,1.05,0.682,1.646,0.682c0.595,0,1.191-0.227,1.646-0.682c0.909-0.909,0.909-2.382,0-3.29
		c-1.863-1.863-1.621-3.395-0.639-7.549c0.589-2.491,1.321-5.595,1.321-9.421c0-2.547-0.895-4.981-2.402-6.981h0.075
		c1.286,0,2.327-1.041,2.327-2.327s-1.041-2.327-2.327-2.327h-0.075c1.507-1.999,2.402-4.434,2.402-6.981
		c0-3.826-0.732-6.931-1.321-9.421c-0.981-4.154-1.225-5.686,0.639-7.549c0.909-0.909,0.909-2.382,0-3.29
		c-0.909-0.909-2.382-0.909-3.29,0c-3.773,3.774-2.873,7.692-1.896,11.835c-2.974-0.967-6.058-0.251-7.712,1.835
		c-0.82,1.041-2.407,3.959,0.566,8.618c0.691,1.082,2.121,1.396,3.213,0.714c1.083-0.691,1.4-2.132,0.709-3.213
		c-1.116-1.755-1.147-2.835-0.836-3.232c0.369-0.469,1.511-0.709,2.707-0.291c0.772,0.269,2.568,1.195,2.568,3.995
		c0,2.236-1.033,4.286-2.835,5.617c-1.807,1.336-4.145,1.713-6.4,1.013c-2.784-0.85-4.726-3.781-4.726-7.131
		c0-2.396,0.514-4.817,1.488-7.008l15.238-34.287c1.252-2.818,1.888-5.813,1.888-8.899c0-3.97-1.806-7.595-4.646-9.807
		c2.84-2.212,4.646-5.837,4.646-9.807c0-3.085-0.636-6.081-1.888-8.899l-15.238-34.287c-0.975-2.191-1.488-4.613-1.488-7.008
		c0-3.349,1.943-6.281,4.726-7.131c2.263-0.7,4.592-0.322,6.4,1.013c1.802,1.332,2.835,3.382,2.835,5.617
		c0,2.799-1.796,3.726-2.568,3.995c-1.195,0.419-2.338,0.172-2.707-0.291c-0.311-0.395-0.28-1.477,0.836-3.232
		c0.691-1.082,0.375-2.522-0.709-3.213c-1.086-0.681-2.521-0.367-3.213,0.714c-2.973,4.659-1.386,7.577-0.566,8.618
		c1.655,2.086,4.737,2.803,7.712,1.835c-0.977,4.145-1.877,8.063,1.896,11.836c0.455,0.455,1.05,0.682,1.646,0.682
		c0.595,0,1.191-0.227,1.646-0.682c0.909-0.908,0.909-2.382,0-3.29c-1.863-1.863-1.621-3.395-0.639-7.549
		c0.589-2.491,1.321-5.595,1.321-9.421c0-2.547-0.895-4.981-2.402-6.981h0.075c1.286,0,2.327-1.041,2.327-2.327
		s-1.041-2.327-2.327-2.327h-0.075c1.507-1.999,2.402-4.434,2.402-6.981c0-3.826-0.732-6.931-1.321-9.421
		c-0.981-4.154-1.225-5.686,0.639-7.549c0.909-0.909,0.909-2.382,0-3.29c-0.005-0.005-0.011-0.007-0.016-0.013L88.1,91.496
		c-1.148,2.812-0.486,5.711,0.226,8.733c-2.974-0.972-6.058-0.251-7.712,1.835c-0.82,1.041-2.407,3.959,0.566,8.618
		c0.691,1.082,2.121,1.4,3.213,0.714c1.083-0.691,1.4-2.132,0.709-3.213c-1.116-1.755-1.147-2.835-0.836-3.232
		c0.369-0.469,1.511-0.714,2.707-0.291c0.772,0.269,2.568,1.196,2.568,3.995c0,2.236-1.033,4.286-2.835,5.617
		c-1.807,1.336-4.145,1.713-6.399,1.013c-2.784-0.85-4.726-3.781-4.726-7.131c0-2.396,0.514-4.817,1.457-6.939
		c0.077-0.162,1.076-2.232,2.144-4.565l-9.389,5.422c0.73,1.939,1.135,4.016,1.135,6.082c0,3.349-1.943,6.281-4.726,7.131
		c-2.261,0.7-4.592,0.327-6.399-1.013c-1.585-1.171-2.574-2.897-2.789-4.817l-4.206,2.429c0.41,1.35,1.057,2.621,1.908,3.751h-0.075
		c-1.286,0-2.327,1.041-2.327,2.327s1.041,2.327,2.327,2.327h0.075c-1.507,1.999-2.402,4.434-2.402,6.981
		c0,3.826,0.732,6.931,1.32,9.421c0.982,4.154,1.225,5.686-0.639,7.549c-0.909,0.908-0.909,2.382,0,3.29
		c0.455,0.455,1.05,0.682,1.646,0.682s1.191-0.227,1.646-0.682c3.773-3.773,2.873-7.692,1.896-11.836
		c2.974,0.968,6.058,0.251,7.712-1.835c0.82-1.041,2.407-3.959-0.566-8.618c-0.689-1.082-2.127-1.405-3.213-0.714
		c-1.085,0.691-1.4,2.132-0.709,3.213c1.116,1.755,1.147,2.835,0.836,3.232c-0.37,0.464-1.507,0.709-2.707,0.291
		c-0.772-0.269-2.568-1.195-2.568-3.995c0-2.236,1.033-4.285,2.835-5.617c1.807-1.336,4.143-1.718,6.399-1.013
		c2.784,0.85,4.726,3.781,4.726,7.131c0,2.396-0.514,4.817-1.488,7.008l-15.238,34.287c-1.252,2.818-1.888,5.813-1.888,8.899
		c0,3.97,1.806,7.595,4.646,9.807c-2.84,2.212-4.646,5.838-4.646,9.807c0,3.085,0.636,6.081,1.888,8.899l15.238,34.287
		c0.975,2.191,1.488,4.612,1.488,7.008c0,3.349-1.943,6.281-4.726,7.131c-2.261,0.705-4.592,0.327-6.4-1.013
		c-1.802-1.332-2.835-3.382-2.835-5.617c0-2.799,1.796-3.726,2.568-3.995c1.2-0.419,2.336-0.177,2.707,0.291
		c0.311,0.395,0.28,1.477-0.836,3.232c-0.691,1.082-0.375,2.522,0.709,3.213c1.093,0.691,2.527,0.372,3.213-0.714
		c2.972-4.659,1.386-7.577,0.566-8.618c-1.655-2.086-4.737-2.803-7.712-1.834c0.977-4.145,1.877-8.063-1.896-11.836
		c-0.909-0.909-2.382-0.909-3.29,0c-0.909,0.909-0.909,2.382,0,3.29c1.863,1.863,1.621,3.395,0.639,7.549
		c-0.589,2.491-1.32,5.595-1.32,9.421c0,2.547,0.895,4.981,2.402,6.981h-0.075c-1.286,0-2.327,1.041-2.327,2.327
		s1.041,2.327,2.327,2.327h0.075c-1.507,1.999-2.402,4.434-2.402,6.981c0,3.826,0.732,6.931,1.32,9.421
		c0.982,4.154,1.225,5.686-0.639,7.549c-0.909,0.909-0.909,2.382,0,3.29c0.455,0.455,1.05,0.682,1.646,0.682
		s1.191-0.227,1.646-0.682c3.773-3.774,2.873-7.69,1.896-11.836c2.974,0.969,6.058,0.251,7.712-1.834
		c0.82-1.041,2.407-3.959-0.566-8.616c-0.689-1.082-2.127-1.405-3.213-0.714c-1.085,0.691-1.4,2.132-0.709,3.213
		c1.116,1.755,1.147,2.837,0.836,3.232c-0.37,0.467-1.507,0.714-2.707,0.291c-0.772-0.269-2.568-1.196-2.568-3.995
		c0-2.236,1.033-4.286,2.835-5.617c1.807-1.336,4.143-1.718,6.399-1.013c2.784,0.85,4.726,3.781,4.726,7.131
		c0,2.396-0.514,4.817-1.488,7.008l-15.238,34.287c-1.252,2.818-1.888,5.812-1.888,8.899c0,3.97,1.806,7.595,4.646,9.807
		c-2.84,2.212-4.646,5.838-4.646,9.807c0,3.087,0.636,6.081,1.888,8.899L69.44,380.38c0.975,2.191,1.488,4.612,1.488,7.008
		c0,3.349-1.943,6.281-4.726,7.131c-2.261,0.705-4.592,0.322-6.4-1.013c-1.802-1.331-2.835-3.382-2.835-5.617
		c0-2.799,1.796-3.726,2.568-3.995c1.2-0.419,2.336-0.177,2.707,0.291c0.311,0.395,0.28,1.477-0.836,3.232
		c-0.691,1.082-0.375,2.522,0.709,3.213c1.093,0.691,2.527,0.372,3.213-0.714c2.972-4.659,1.386-7.577,0.566-8.618
		c-1.655-2.091-4.737-2.807-7.712-1.836c0.977-4.145,1.877-8.063-1.896-11.836c-0.909-0.909-2.382-0.909-3.29,0
		c-0.909,0.908-0.909,2.382,0,3.29c1.863,1.863,1.621,3.395,0.639,7.549c-0.589,2.491-1.32,5.595-1.32,9.421
		c0,3.648,1.748,7.119,4.669,9.307c-1.293,0.97-2.341,2.199-3.124,3.575l4.009,2.313c0.476-0.845,1.123-1.597,1.937-2.198
		c1.807-1.336,4.143-1.713,6.4-1.013c2.784,0.85,4.726,3.781,4.726,7.131c0,1.146-0.125,2.296-0.35,3.418l6.597,3.808
		c-0.054-0.111-0.095-0.196-0.104-0.217c-0.975-2.191-1.488-4.612-1.488-7.008c0-3.349,1.943-6.281,4.726-7.131
		c2.263-0.7,4.592-0.322,6.399,1.013c1.802,1.332,2.835,3.382,2.835,5.617c0,2.799-1.796,3.726-2.568,3.995
		c-1.195,0.419-2.338,0.177-2.707-0.291c-0.311-0.395-0.28-1.477,0.836-3.232c0.691-1.082,0.375-2.522-0.709-3.213
		c-1.086-0.682-2.521-0.364-3.213,0.714c-2.973,4.659-1.386,7.577-0.566,8.618c1.655,2.086,4.737,2.803,7.712,1.834
		c-0.422,1.79-0.827,3.535-0.851,5.247l6.325,3.65c-0.082-0.124-0.177-0.242-0.287-0.351
		C91.647,421.608,91.891,420.076,92.871,415.922z M73.249,115.525c0.657,0.927,1.438,1.747,2.319,2.433
		c-0.881,0.686-1.662,1.506-2.319,2.433c-0.657-0.927-1.438-1.747-2.319-2.433C71.811,117.271,72.592,116.451,73.249,115.525z
		 M58.448,170.95l14.8-33.3l14.8,33.3c0.975,2.191,1.488,4.612,1.488,7.008c0,3.349-1.943,6.281-4.726,7.131
		c-2.258,0.705-4.595,0.322-6.399-1.013c-1.802-1.332-2.835-3.382-2.835-5.617c0-2.799,1.796-3.726,2.568-3.995
		c1.197-0.419,2.338-0.177,2.707,0.291c0.311,0.395,0.28,1.477-0.836,3.232c-0.691,1.082-0.375,2.522,0.709,3.213
		c1.093,0.686,2.527,0.372,3.213-0.714c2.972-4.659,1.386-7.577,0.566-8.616c-1.686-2.127-4.854-2.854-7.885-1.799
		c-0.346,0.12-0.695,0.267-1.041,0.444v-5.886c0,0.001,0.004,0.004,0.004,0.004c0.071,1.225,1.085,2.193,2.323,2.193
		c1.286,0,2.327-1.041,2.327-2.327c0-1.518-1.062-4.151-4.654-4.966v-4.341c0-1.286-1.041-2.327-2.327-2.327
		s-2.327,1.041-2.327,2.327v4.341c-3.593,0.816-4.654,3.449-4.654,4.966c0,1.286,1.038,2.404,2.322,2.404
		c1.286,0,2.322-0.963,2.322-2.249c0.001-0.005,0.007-0.009,0.009-0.014v5.875c-0.346-0.176-0.695-0.324-1.041-0.444
		c-3.032-1.055-6.201-0.327-7.885,1.799c-0.82,1.041-2.407,3.959,0.566,8.616c0.691,1.082,2.127,1.396,3.213,0.714
		c1.083-0.691,1.4-2.132,0.709-3.213c-1.116-1.755-1.147-2.837-0.836-3.232c0.366-0.467,1.507-0.709,2.707-0.291
		c0.772,0.269,2.568,1.195,2.568,3.995c0,2.236-1.033,4.286-2.835,5.617c-1.807,1.336-4.14,1.718-6.4,1.013
		c-2.784-0.85-4.726-3.781-4.726-7.131C56.96,175.564,57.474,173.141,58.448,170.95z M75.591,187.767
		c-0.918,0.689-1.675,1.532-2.342,2.441c-0.669-0.909-1.423-1.752-2.342-2.441c0.918-0.689,1.675-1.532,2.342-2.441
		C73.918,186.233,74.673,187.078,75.591,187.767z M58.448,204.582c-0.975-2.191-1.488-4.612-1.488-7.008
		c0-3.349,1.943-6.281,4.726-7.131c2.261-0.7,4.595-0.322,6.399,1.013c1.802,1.332,2.835,3.382,2.835,5.617
		c0,2.799-1.796,3.726-2.568,3.995c-1.2,0.422-2.341,0.177-2.707-0.291c-0.311-0.395-0.28-1.477,0.836-3.232
		c0.691-1.082,0.375-2.522-0.709-3.213c-1.086-0.686-2.521-0.369-3.213,0.714c-2.973,4.659-1.386,7.577-0.566,8.618
		c1.683,2.127,4.854,2.854,7.885,1.799c0.346-0.12,0.695-0.269,1.041-0.444v5.886l-0.005-0.006c-0.07-1.222-1.083-2.191-2.322-2.191
		c-1.286,0-2.327,1.041-2.327,2.327c0,1.518,1.061,4.15,4.654,4.966v4.341c0,1.286,1.041,2.327,2.327,2.327s2.327-1.041,2.327-2.327
		v-4.341c3.593-0.816,4.654-3.448,4.654-4.966c0-1.286-1.038-2.404-2.323-2.404c-1.286,0-2.322,0.963-2.322,2.249
		c-0.001,0.005-0.007,0.009-0.007,0.009l-0.001-5.87c0.346,0.175,0.695,0.324,1.041,0.444c3.032,1.055,6.2,0.327,7.885-1.799
		c0.821-1.041,2.407-3.959-0.566-8.618c-0.691-1.086-2.127-1.405-3.213-0.714c-1.083,0.691-1.4,2.132-0.709,3.213
		c1.116,1.755,1.147,2.835,0.836,3.232c-0.369,0.469-1.508,0.714-2.707,0.291c-0.772-0.269-2.568-1.196-2.568-3.995
		c0-2.236,1.033-4.286,2.835-5.617c1.807-1.336,4.145-1.713,6.399-1.013c2.784,0.85,4.726,3.781,4.726,7.131
		c0,2.396-0.514,4.817-1.488,7.008l-14.8,33.3L58.448,204.582z M75.569,257.575c-0.881,0.686-1.662,1.506-2.319,2.433
		c-0.657-0.927-1.438-1.747-2.319-2.433c0.881-0.686,1.662-1.506,2.319-2.433C73.907,256.069,74.688,256.889,75.569,257.575z
		 M58.448,310.568l14.8-33.3l14.8,33.3c0.975,2.191,1.488,4.612,1.488,7.008c0,3.349-1.943,6.281-4.726,7.131
		c-2.258,0.705-4.595,0.322-6.399-1.013c-1.802-1.332-2.835-3.382-2.835-5.617c0-2.799,1.796-3.726,2.568-3.995
		c1.197-0.419,2.338-0.177,2.707,0.291c0.311,0.395,0.28,1.477-0.836,3.232c-0.691,1.082-0.375,2.522,0.709,3.213
		c1.093,0.691,2.527,0.372,3.213-0.714c2.972-4.659,1.386-7.577,0.566-8.618c-1.686-2.127-4.854-2.849-7.885-1.799
		c-0.346,0.12-0.695,0.267-1.041,0.444v-5.886l0.005,0.006c0.07,1.222,1.083,2.191,2.322,2.191c1.286,0,2.327-1.041,2.327-2.327
		c0-1.518-1.062-4.15-4.654-4.966v-4.341c0-1.286-1.041-2.327-2.327-2.327s-2.327,1.041-2.327,2.327v4.341
		c-3.593,0.816-4.654,3.449-4.654,4.966c0,1.286,1.038,2.404,2.322,2.404c1.286,0,2.322-0.963,2.322-2.249
		c0.001-0.005,0.007-0.009,0.007-0.009l0.001,5.871c-0.346-0.176-0.695-0.324-1.041-0.444c-3.032-1.05-6.201-0.327-7.885,1.8
		c-0.82,1.041-2.407,3.959,0.566,8.618c0.691,1.082,2.127,1.396,3.213,0.714c1.083-0.691,1.4-2.132,0.709-3.213
		c-1.116-1.755-1.147-2.835-0.836-3.232c0.366-0.469,1.507-0.709,2.707-0.291c0.772,0.269,2.568,1.195,2.568,3.995
		c0,2.236-1.033,4.285-2.835,5.617c-1.807,1.336-4.14,1.718-6.4,1.013c-2.784-0.85-4.726-3.781-4.726-7.131
		C56.96,315.181,57.474,312.759,58.448,310.568z M75.591,327.384c-0.918,0.689-1.675,1.532-2.342,2.441
		c-0.669-0.908-1.423-1.752-2.342-2.441c0.918-0.689,1.675-1.532,2.342-2.441C73.918,325.852,74.673,326.695,75.591,327.384z
		 M73.249,399.625c-0.657-0.927-1.438-1.747-2.319-2.433c0.881-0.686,1.662-1.505,2.319-2.433c0.657,0.927,1.438,1.747,2.319,2.433
		C74.688,397.879,73.907,398.699,73.249,399.625z M73.249,377.5l-14.8-33.3c-0.975-2.191-1.488-4.612-1.488-7.008
		c0-3.349,1.943-6.281,4.726-7.131c2.261-0.7,4.595-0.322,6.4,1.013c1.802,1.332,2.835,3.382,2.835,5.617
		c0,2.799-1.796,3.726-2.568,3.995c-1.2,0.419-2.341,0.177-2.707-0.291c-0.311-0.395-0.28-1.477,0.836-3.232
		c0.691-1.082,0.375-2.522-0.709-3.213c-1.086-0.681-2.521-0.364-3.213,0.714c-2.973,4.659-1.386,7.577-0.566,8.618
		c1.683,2.127,4.854,2.859,7.885,1.799c0.346-0.12,0.695-0.269,1.041-0.444v5.886c0-0.001-0.004-0.004-0.004-0.004
		c-0.071-1.225-1.085-2.193-2.323-2.193c-1.286,0-2.327,1.041-2.327,2.327c0,1.518,1.061,4.15,4.654,4.966v4.341
		c0,1.286,1.041,2.327,2.327,2.327s2.327-1.041,2.327-2.327v-4.341c3.593-0.816,4.654-3.449,4.654-4.966
		c0-1.286-1.038-2.404-2.323-2.404c-1.286,0-2.322,0.963-2.322,2.249c-0.001,0.005-0.007,0.009-0.009,0.014v-5.875
		c0.346,0.176,0.695,0.324,1.041,0.444c3.032,1.058,6.2,0.327,7.885-1.8c0.821-1.041,2.407-3.959-0.566-8.618
		c-0.691-1.082-2.127-1.4-3.213-0.714c-1.083,0.691-1.4,2.132-0.709,3.213c1.116,1.755,1.147,2.835,0.836,3.232
		c-0.369,0.469-1.508,0.709-2.707,0.291c-0.772-0.269-2.568-1.196-2.568-3.995c0-2.236,1.033-4.286,2.835-5.617
		c1.807-1.336,4.145-1.718,6.399-1.013c2.784,0.85,4.726,3.781,4.726,7.131c0,2.396-0.514,4.817-1.488,7.008L73.249,377.5z"/>
	<circle style="fill:#FFE15A;" cx="281.95" cy="232.26" r="51.648"/>
	<path style="fill:#FFE15A;" d="M285.827,166.4c0,2.139-1.735,3.874-3.874,3.874s-3.874-1.735-3.874-3.874
		c0-2.139,3.874-11.622,3.874-11.622S285.827,164.261,285.827,166.4z"/>
	<path style="fill:#FFE15A;" d="M278.08,298.114c0-2.139,1.735-3.874,3.874-3.874s3.874,1.735,3.874,3.874
		s-3.874,11.622-3.874,11.622S278.08,300.254,278.08,298.114z"/>
	<path style="fill:#FFE15A;" d="M347.811,236.131c-2.139,0-3.874-1.735-3.874-3.874s1.735-3.874,3.874-3.874
		s11.622,3.874,11.622,3.874S349.95,236.131,347.811,236.131z"/>
	<path style="fill:#FFE15A;" d="M216.097,228.383c2.139,0,3.874,1.735,3.874,3.874s-1.735,3.874-3.874,3.874
		s-11.622-3.874-11.622-3.874S213.957,228.383,216.097,228.383z"/>
	<path style="fill:#FFE15A;" d="M331.26,188.429c-1.513,1.513-3.966,1.513-5.479,0s-1.513-3.965,0-5.479s10.957-5.479,10.957-5.479
		S332.773,186.916,331.26,188.429z"/>
	<path style="fill:#FFE15A;" d="M232.646,276.086c1.513-1.513,3.965-1.513,5.479,0s1.513,3.966,0,5.479
		c-1.513,1.512-10.957,5.478-10.957,5.478S231.134,277.598,232.646,276.086z"/>
	<path style="fill:#FFE15A;" d="M325.782,281.565c-1.513-1.513-1.513-3.965,0-5.479s3.965-1.513,5.479,0s5.479,10.957,5.479,10.957
		S327.295,283.077,325.782,281.565z"/>
	<path style="fill:#FFE15A;" d="M238.124,182.951c1.513,1.513,1.513,3.965,0,5.479s-3.965,1.513-5.479,0
		c-1.513-1.513-5.479-10.957-5.479-10.957S236.612,181.437,238.124,182.951z"/>
	<path style="fill:#FFE15A;" d="M260.329,169.93c0.819,1.977-0.12,4.243-2.097,5.061c-1.977,0.819-4.243-0.12-5.061-2.097
		s-0.869-12.219-0.869-12.219S259.511,167.955,260.329,169.93z"/>
	<path style="fill:#FFE15A;" d="M303.576,294.584c-0.819-1.977,0.12-4.243,2.097-5.061c1.977-0.819,4.243,0.12,5.061,2.097
		c0.819,1.977,0.869,12.219,0.869,12.219S304.395,296.561,303.576,294.584z"/>
	<path style="fill:#FFE15A;" d="M344.28,210.634c-1.977,0.819-4.243-0.12-5.061-2.097c-0.819-1.977,0.12-4.243,2.097-5.061
		s12.219-0.869,12.219-0.869S346.256,209.816,344.28,210.634z"/>
	<path style="fill:#FFE15A;" d="M219.627,253.881c1.977-0.819,4.243,0.12,5.061,2.097c0.818,1.977-0.12,4.243-2.097,5.061
		c-1.977,0.819-12.219,0.868-12.219,0.868S217.65,254.7,219.627,253.881z"/>
	<path style="fill:#FFE15A;" d="M310.734,172.896c-0.819,1.977-3.084,2.915-5.061,2.097s-2.915-3.085-2.097-5.061
		c0.819-1.977,8.027-9.255,8.027-9.255S311.553,170.919,310.734,172.896z"/>
	<path style="fill:#FFE15A;" d="M253.171,291.618c0.819-1.977,3.085-2.915,5.061-2.097c1.977,0.819,2.915,3.085,2.097,5.061
		c-0.819,1.977-8.027,9.255-8.027,9.255S252.353,293.595,253.171,291.618z"/>
	<path style="fill:#FFE15A;" d="M341.315,261.039c-1.977-0.819-2.915-3.085-2.097-5.061c0.819-1.977,3.085-2.915,5.061-2.097
		c1.977,0.819,9.255,8.027,9.255,8.027S343.292,261.858,341.315,261.039z"/>
	<path style="fill:#FFE15A;" d="M222.592,203.476c1.977,0.819,2.915,3.085,2.097,5.061c-0.819,1.977-3.085,2.915-5.061,2.097
		c-1.977-0.819-9.255-8.027-9.255-8.027S220.615,202.658,222.592,203.476z"/>
	<path style="fill:#FFE15A;" d="M272.905,166.91c0.417,2.098-0.946,4.138-3.044,4.555c-2.098,0.417-4.138-0.946-4.555-3.044
		s1.532-12.154,1.532-12.154S272.487,164.812,272.905,166.91z"/>
	<path style="fill:#FFE15A;" d="M291.002,297.604c-0.417-2.098,0.946-4.138,3.044-4.555s4.138,0.946,4.555,3.044
		s-1.532,12.154-1.532,12.154S291.42,299.704,291.002,297.604z"/>
	<path style="fill:#FFE15A;" d="M347.301,223.208c-2.098,0.417-4.138-0.945-4.555-3.044c-0.417-2.098,0.945-4.138,3.044-4.555
		c2.098-0.417,12.154,1.532,12.154,1.532S349.399,222.791,347.301,223.208z"/>
	<path style="fill:#FFE15A;" d="M216.606,241.306c2.098-0.417,4.138,0.945,4.555,3.044c0.417,2.098-0.946,4.138-3.044,4.555
		c-2.098,0.417-12.154-1.532-12.154-1.532S214.507,241.723,216.606,241.306z"/>
	<path style="fill:#FFE15A;" d="M321.763,179.651c-1.188,1.78-3.594,2.257-5.374,1.068s-2.258-3.594-1.068-5.374
		c1.188-1.78,9.677-7.51,9.677-7.51S322.951,177.872,321.763,179.651z"/>
	<path style="fill:#FFE15A;" d="M242.144,284.863c1.188-1.78,3.594-2.257,5.374-1.068c1.78,1.188,2.257,3.594,1.068,5.374
		c-1.188,1.778-9.677,7.51-9.677,7.51S240.955,286.642,242.144,284.863z"/>
	<path style="fill:#FFE15A;" d="M334.559,272.066c-1.78-1.188-2.257-3.594-1.068-5.374c1.188-1.78,3.594-2.257,5.374-1.068
		c1.78,1.188,7.51,9.677,7.51,9.677S336.337,273.255,334.559,272.066z"/>
	<path style="fill:#FFE15A;" d="M229.348,192.448c1.78,1.188,2.258,3.594,1.068,5.374c-1.188,1.779-3.594,2.257-5.374,1.068
		c-1.779-1.188-7.51-9.677-7.51-9.677S227.568,191.26,229.348,192.448z"/>
	<path style="fill:#FFE15A;" d="M248.586,175.346c1.188,1.78,0.71,4.185-1.068,5.374c-1.78,1.188-4.185,0.71-5.374-1.068
		c-1.188-1.78-3.235-11.816-3.235-11.816S247.398,173.568,248.586,175.346z"/>
	<path style="fill:#FFE15A;" d="M315.321,289.168c-1.188-1.78-0.71-4.185,1.068-5.374c1.778-1.188,4.185-0.71,5.374,1.068
		c1.188,1.78,3.235,11.816,3.235,11.816S316.509,290.946,315.321,289.168z"/>
	<path style="fill:#FFE15A;" d="M338.863,198.89c-1.778,1.188-4.185,0.71-5.374-1.068c-1.188-1.78-0.71-4.185,1.068-5.374
		s11.816-3.235,11.816-3.235S340.642,197.702,338.863,198.89z"/>
	<path style="fill:#FFE15A;" d="M225.043,265.624c1.778-1.188,4.185-0.71,5.374,1.068c1.188,1.78,0.71,4.185-1.068,5.374
		c-1.78,1.188-11.816,3.235-11.816,3.235S223.263,266.813,225.043,265.624z"/>
	<path style="fill:#FFE15A;" d="M298.6,168.422c-0.417,2.098-2.457,3.462-4.555,3.044c-2.098-0.417-3.462-2.457-3.044-4.555
		s6.067-10.643,6.067-10.643S299.018,166.323,298.6,168.422z"/>
	<path style="fill:#FFE15A;" d="M265.306,296.093c0.417-2.098,2.457-3.462,4.555-3.044s3.462,2.457,3.044,4.555
		c-0.417,2.098-6.067,10.642-6.067,10.642S264.888,298.192,265.306,296.093z"/>
	<path style="fill:#FFE15A;" d="M345.789,248.905c-2.098-0.417-3.462-2.457-3.044-4.555c0.417-2.098,2.457-3.462,4.555-3.044
		c2.098,0.417,10.643,6.067,10.643,6.067S347.888,249.322,345.789,248.905z"/>
	<path style="fill:#FFE15A;" d="M218.117,215.61c2.098,0.417,3.462,2.457,3.044,4.555c-0.417,2.098-2.457,3.462-4.555,3.044
		c-2.098-0.417-10.643-6.067-10.643-6.067S216.019,215.192,218.117,215.61z"/>
	<path style="fill:#FFE15A;" d="M403.449,245.847c-1.513-0.636-3.243,0.092-3.873,1.597c0,0.006,0,0.006,0,0.006
		c-0.011,0.029-0.07,0.167-0.171,0.405c-2.239,5.23-6.871,12.873-11.548,20.063c4.356-14.024,8.339-29.002,8.618-30.056
		c0.416-1.573-0.515-3.188-2.086-3.617c-1.573-0.422-3.19,0.492-3.63,2.059c-2.033,7.284-6.191,16.87-10.026,24.987
		c0.704-9.049,0.836-17.431,0.845-18.039c0.022-1.602-1.232-2.928-2.836-3.003c-1.507,0.046-2.962,1.146-3.08,2.748
		c-3.793,52.172-53.995,75.511-58.884,77.658c-2.557,0.255-14.47,1.597-25.282,5.351c-1.227,0.426-2.269,0.852-3.309,1.276
		c-0.386-0.145-0.801-0.226-1.237-0.2c-33.185,2.401-59.645-11.212-78.661-40.376c-14.369-22.036-18.875-45.166-18.919-45.398
		c-0.304-1.608-1.843-2.644-3.459-2.361c-1.608,0.306-2.664,1.852-2.361,3.46c0.12,0.639,2.097,10.735,7.543,24.022
		c-7.286-11.501-12.363-25.433-14.15-32.689c-0.036-0.145-0.129-0.255-0.184-0.389c-0.082-0.205-0.154-0.411-0.277-0.589
		c-0.087-0.126-0.201-0.217-0.305-0.327c-0.162-0.171-0.317-0.339-0.515-0.466c-0.114-0.074-0.24-0.11-0.364-0.167
		c-0.219-0.102-0.432-0.202-0.676-0.247c-0.169-0.032-0.341-0.011-0.516-0.015c-0.177-0.003-0.345-0.047-0.526-0.016
		c-0.04,0.006-0.07,0.034-0.11,0.042c-0.039,0.007-0.075-0.005-0.114,0.004c-0.159,0.039-0.28,0.139-0.425,0.2
		c-0.185,0.08-0.374,0.14-0.536,0.252c-0.16,0.11-0.279,0.252-0.411,0.39c-0.132,0.136-0.271,0.256-0.375,0.414
		c-0.105,0.161-0.162,0.34-0.236,0.517c-0.071,0.174-0.154,0.336-0.191,0.524c-0.039,0.191-0.021,0.389-0.02,0.589
		c0,0.16-0.044,0.312-0.016,0.476c0.011,0.069,0.034,0.14,0.046,0.209v0.011c0.004,0.012,0.008,0.03,0.011,0.042
		c1.832,10.796,6.2,21.988,10.148,30.522c-6.271-7.116-11.511-15.315-13.368-20.168c-0.054-0.141-0.161-0.24-0.234-0.367
		c-0.11-0.197-0.206-0.396-0.355-0.559c-0.105-0.115-0.234-0.19-0.354-0.286c-0.18-0.145-0.351-0.291-0.56-0.391
		c-0.134-0.064-0.277-0.084-0.42-0.127c-0.219-0.066-0.43-0.139-0.662-0.151c-0.182-0.012-0.364,0.034-0.549,0.057
		c-0.171,0.021-0.34,0-0.51,0.054c-0.032,0.01-0.055,0.036-0.086,0.047c-0.031,0.01-0.064,0.004-0.095,0.016
		c-0.161,0.061-0.275,0.18-0.419,0.265c-0.169,0.1-0.349,0.182-0.492,0.311c-0.147,0.134-0.249,0.296-0.365,0.454
		c-0.11,0.149-0.232,0.281-0.314,0.446c-0.085,0.174-0.116,0.361-0.165,0.549c-0.049,0.182-0.114,0.352-0.126,0.544
		c-0.014,0.191,0.034,0.382,0.059,0.576c0.021,0.167-0.001,0.334,0.051,0.5c3.223,10.396,10.974,22.765,17.047,31.479
		c-5.06-3.899-8.779-8.117-9.859-9.39c-0.116-0.139-0.231-0.277-0.347-0.416c-1.045-1.256-2.89-1.435-4.154-0.411
		c-1.261,1.03-1.458,2.882-0.44,4.148c0.055,0.07,0.277,0.347,0.647,0.781c4.444,5.289,9.285,10.222,13.671,14.389l-6-2.557
		c-1.368-0.59-2.977-0.057-3.726,1.243c-0.749,1.302-0.411,2.95,0.79,3.853c0.585,0.434,11.209,8.371,20.408,13.063
		c-0.867,0.052-1.886-0.011-3.025-0.099c-1.391-0.134-2.759,0.862-3.098,2.273c-0.332,1.417,0.407,2.864,1.753,3.419
		c0.226,0.092,3.029,1.25,6.491,2.482c-0.807,0.33-1.45,1.007-1.716,1.886c-0.399,1.313,0.162,2.737,1.353,3.419
		c0.31,0.18,4.499,2.581,9.679,4.709c-0.139,0.214-0.251,0.446-0.335,0.7c-0.405,1.243,0.057,2.609,1.137,3.355
		c0.9,0.619,21.018,14.272,44.515,14.272c1.542,0,3.1-0.057,4.669-0.185c1.628-0.127,2.847-1.556,2.717-3.188
		s-1.545-2.864-3.19-2.713c-14.761,1.203-28.982-4.339-37.44-8.574c1.117-0.272,1.758-0.521,1.918-0.585
		c1.305-0.532,2.057-1.903,1.802-3.287c-0.255-1.383-1.446-2.396-2.855-2.424c-3.434-0.07-8.189-1.742-12.285-3.535
		c1.547-0.775,2.451-1.516,2.531-1.58c0.891-0.746,1.267-1.938,0.963-3.06c-0.306-1.116-1.238-1.956-2.383-2.141
		c-1.258-0.209-2.825-0.614-4.469-1.111c1.597-0.92,2.277-1.932,2.537-2.447c0.411-0.821,0.42-1.782,0.026-2.609
		c-0.396-0.827-1.151-1.423-2.048-1.615c-0.775-0.167-1.652-0.451-2.601-0.821c0.174-0.174,0.332-0.37,0.462-0.596
		c0.755-1.278,0.442-2.922-0.729-3.841c-0.061-0.046-2.361-1.851-5.841-4.854c0.552-0.202,1.041-0.579,1.395-1.087
		c0.746-1.076,0.695-2.517-0.125-3.535c-0.066-0.081-2.368-2.977-5.541-7.373c1.047,0.814,2.094,1.645,3.14,2.317
		c0.492,0.312,1.05,0.469,1.602,0.469c0.75,0,1.49-0.284,2.059-0.834c0.235-0.226,0.417-0.487,0.562-0.765
		c1.797,1.919,3.685,3.663,5.668,5.151c0.259,0.194,0.572,0.19,0.862,0.287c0.84,1.408,1.715,2.82,2.632,4.231
		c17.988,27.676,43.349,42.501,73.769,43.391c-2.8,1.701-5.841,3.459-10.656,5.334c-1.051,0.41-1.979,0.82-2.913,1.231
		c-0.451,0.089-0.874,0.251-1.227,0.531c-8.403,3.89-11.882,7.734-13.294,10.422c-1.408,2.673-0.194,5.415,1.527,6.838
		c0.535,0.44,1.215,0.665,1.897,0.665c0.469,0,0.937-0.104,1.362-0.319c1.047-0.521,1.747-1.626,1.701-2.788
		c0.121-0.134,0.636-0.561,2.251-0.614c1.177-0.099,3.654,0.167,6.543,0.399c2.749,0.226,6.047,0.484,9.554,0.664
		c-2.193,2.557-4.742,5.521-4.742,5.521c-0.766,0.891-0.935,2.152-0.425,3.21c0.512,1.065,1.615,1.725,2.772,1.683
		c2.341-0.081,3.931-0.127,4.975-0.15c0.911,1.192,2.028,1.666,2.748,1.851c2.037,0.521,4.066-0.295,5.597-1.261
		c1.157,0.834,2.314,1.186,3.232,1.32c2.068,0.284,3.983-0.319,5.369-1.001c1.435,0.926,2.84,1.163,3.911,1.163
		c0.015,0,0.031,0,0.049,0c2.312-0.011,4.333-1.128,5.765-2.222c1.265,0.752,2.473,0.995,3.408,1.036
		c2.121,0.075,3.879-0.741,5.047-1.505c4.174,0.839,7.773-1.128,10.151-3.298c1.085,0.631,2.117,0.787,2.939,0.746
		c2.114-0.075,3.725-1.36,4.759-2.511c4.732,0.572,8.128-0.301,10.092-2.632c1.071-1.267,1.505-2.696,1.623-3.998
		c13.13-0.075,14.319-7.243,14.415-8.129c0.086-0.804-0.159-1.608-0.682-2.227c-0.521-0.619-1.276-1.001-2.083-1.047l-34.423-2.071
		c-1.441-0.104-2.725,0.862-3.06,2.268c-0.006,0.024-0.594,2.209-2.429,3.958c-2.471,2.359-6.449,3.605-10.777,4.265
		c0.016-0.396-0.04-0.8-0.191-1.193c-0.59-1.527-2.308-2.268-3.83-1.696c-7.107,2.758-18.612,2.411-27.614,1.785
		c1.381-1.128,3.043-2.246,4.371-2.975c1.122-0.619,1.725-1.886,1.487-3.147c-0.172-0.916-0.835-1.553-1.633-1.963
		c2.503-1.263,4.555-2.484,6.502-3.671c3.379-2.071,6.572-4.02,12.387-6.04c11.223-3.899,24.212-5.085,24.342-5.097
		c0.295-0.022,0.585-0.099,0.86-0.209c0.462-0.191,37.099-15.539,54.359-50.952c-0.226,1.07-0.469,2.048-0.732,2.904
		c-0.451,1.458,0.277,3.014,1.683,3.604c1.087,0.457,2.323,0.22,3.159-0.555c-1.091,2.875-2.077,5.137-2.882,6.473
		c-0.821,1.36-0.425,3.124,0.897,4.004c0.31,0.202,0.642,0.341,0.983,0.422c-1.336,1.956-2.691,3.806-4.041,5.502
		c-0.9,1.128-0.847,2.737,0.092,3.801c-2.321,2.429-4.376,4.431-5.938,5.705c-1.021,0.827-1.353,2.211-0.885,3.39
		c-1.507,0.862-2.745,1.47-3.604,1.73c-1.441,0.434-2.326,1.886-2.053,3.367c0.141,0.781,0.581,1.441,1.188,1.874
		c-1.811,0.486-3.793,0.955-5.945,1.382c-1.212,0.242-2.146,1.208-2.346,2.429c-0.196,1.221,0.382,2.436,1.455,3.049
		c0.092,0.052,1.105,0.625,2.653,1.285c-5.73,2.308-15.962,5.322-32.751,6.977c-1.626,0.162-2.818,1.615-2.656,3.24
		c0.159,1.626,1.565,2.754,3.239,2.662c31.871-3.153,41.712-11.131,42.115-11.473c0.92-0.77,1.285-2.024,0.92-3.17
		c-0.242-0.759-0.775-1.371-1.458-1.725c10.182-3.205,14.553-6.752,14.782-6.942c1.116-0.926,1.397-2.528,0.662-3.784
		c-0.741-1.256-2.282-1.8-3.628-1.256c-0.379,0.145-0.983,0.295-1.747,0.445c6.832-4.68,14.087-10.252,17.278-12.739
		c0.561-0.416,1.071-0.816,1.518-1.192c1.238-1.041,1.412-2.88,0.391-4.136c-1.016-1.25-2.864-1.458-4.13-0.457
		c-0.462,0.365-0.944,0.741-1.441,1.128c-1.472,1.093-3.355,2.332-5.41,3.604c7.755-8.805,15.562-18.351,17.793-21.093
		c0.202-0.249,0.402-0.497,0.605-0.746c1.023-1.273,0.825-3.135-0.449-4.16c-1.276-1.041-3.142-0.827-4.163,0.44l-0.006,0.006
		l-0.003,0.006c-0.055,0.064-0.306,0.376-0.729,0.897c-2.337,2.852-4.796,5.612-7.223,8.191c7.9-14.319,13.882-28.412,14.758-30.5
		c0.031-0.075,0.061-0.15,0.092-0.226C405.673,248.208,404.959,246.472,403.449,245.847z M264.615,345.697l0.809,0.105
		c-0.992,0.927-1.798,1.967-2.441,3.04c-1.407-0.114-2.683-0.211-3.683-0.257C260.678,347.684,262.453,346.707,264.615,345.697z"/>
</g>
<g>
</g>
<g>
</g>
<g>
</g>
<g>
</g>
<g>
</g>
<g>
</g>
<g>
</g>
<g>
</g>
<g>
</g>
<g>
</g>
<g>
</g>
<g>
</g>
<g>
</g>
<g>
</g>
<g>
</g>
</svg>
