<?xml version="1.0" encoding="iso-8859-1"?>
<!-- Generator: Adobe Illustrator 19.0.0, SVG Export Plug-In . SVG Version: 6.00 Build 0)  -->
<svg version="1.1" id="Layer_1" xmlns="http://www.w3.org/2000/svg" xmlns:xlink="http://www.w3.org/1999/xlink" x="0px" y="0px"
	 viewBox="0 0 511.998 511.998" style="enable-background:new 0 0 511.998 511.998;" xml:space="preserve">
<path style="fill:#FF4B55;" d="M482.41,145.606c-0.003-12.607-6.729-24.255-17.649-30.557L273.6,4.725
	c-10.92-6.302-24.37-6.3-35.287,0.006l-45.401,26.223L47.188,115.118c-10.917,6.305-17.64,17.955-17.638,30.562l0.036,220.713
	c0.003,12.607,6.729,24.255,17.649,30.557l145.678,84.074l45.485,26.25c10.918,6.301,24.37,6.299,35.287-0.006L464.81,396.88
	c10.917-6.305,17.64-17.955,17.639-30.563L482.41,145.606z"/>
<path style="fill:#73AF00;" d="M29.55,145.681l0.036,220.713c0.003,12.607,6.729,24.255,17.649,30.557l145.678,84.075V30.953
	L47.188,115.118C36.272,121.424,29.548,133.073,29.55,145.681z"/>
<circle style="fill:#FFE15A;" cx="193.43" cy="256" r="89.9"/>
<path style="fill:#FF4B55;" d="M223.43,226.008v39.989c0,16.538-13.454,29.992-29.992,29.992s-29.992-13.454-29.992-29.992v-39.989
	L223.43,226.008 M233.427,206.014h-79.978c-5.521,0-9.997,4.476-9.997,9.997v49.986c0,27.606,22.38,49.986,49.986,49.986
	s49.986-22.38,49.986-49.986v-49.986C243.424,210.49,238.948,206.014,233.427,206.014L233.427,206.014z"/>
<path style="fill:#F5F5F5;" d="M223.43,226.008v39.989c0,16.538-13.454,29.992-29.992,29.992s-29.992-13.454-29.992-29.992v-39.989
	L223.43,226.008"/>
<g>
	<circle style="fill:#FFE15A;" cx="153.37" cy="216.02" r="4.999"/>
	<circle style="fill:#FFE15A;" cx="233.35" cy="216.02" r="4.999"/>
	<circle style="fill:#FFE15A;" cx="153.37" cy="256" r="4.999"/>
	<circle style="fill:#FFE15A;" cx="233.35" cy="256" r="4.999"/>
	<circle style="fill:#FFE15A;" cx="193.36" cy="216.02" r="4.999"/>
	<circle style="fill:#FFE15A;" cx="223.37" cy="292.87" r="4.999"/>
	<circle style="fill:#FFE15A;" cx="163.94" cy="292.87" r="4.999"/>
</g>
<g>
	<path style="fill:#41479B;" d="M199.894,253.466v8.609c0,3.56-2.897,6.457-6.457,6.457s-6.457-2.897-6.457-6.457v-8.609
		L199.894,253.466"/>
	<path style="fill:#41479B;" d="M199.894,233.055v8.609c0,3.56-2.897,6.457-6.457,6.457s-6.457-2.897-6.457-6.457v-8.609H199.894"/>
	<path style="fill:#41479B;" d="M199.894,274.085v8.609c0,3.56-2.897,6.457-6.457,6.457s-6.457-2.897-6.457-6.457v-8.609H199.894"/>
	<path style="fill:#41479B;" d="M217.285,253.466v8.609c0,3.56-2.897,6.457-6.457,6.457s-6.457-2.897-6.457-6.457v-8.609
		L217.285,253.466"/>
	<path style="fill:#41479B;" d="M182.503,253.466v8.609c0,3.56-2.897,6.457-6.457,6.457s-6.457-2.897-6.457-6.457v-8.609
		L182.503,253.466"/>
</g>
<g>
</g>
<g>
</g>
<g>
</g>
<g>
</g>
<g>
</g>
<g>
</g>
<g>
</g>
<g>
</g>
<g>
</g>
<g>
</g>
<g>
</g>
<g>
</g>
<g>
</g>
<g>
</g>
<g>
</g>
</svg>
