<?xml version="1.0" encoding="iso-8859-1"?>
<!-- Generator: Adobe Illustrator 19.0.0, SVG Export Plug-In . SVG Version: 6.00 Build 0)  -->
<svg version="1.1" id="Layer_1" xmlns="http://www.w3.org/2000/svg" xmlns:xlink="http://www.w3.org/1999/xlink" x="0px" y="0px"
	 viewBox="0 0 512.005 512.005" style="enable-background:new 0 0 512.005 512.005;" xml:space="preserve">
<path style="fill:#FF4B55;" d="M482.451,366.319l-0.008-42.41l-0.005-27.164l-0.014-81.491l-0.005-27.164l-0.008-42.486
	c0-3.105-0.422-6.147-1.202-9.07c-0.42-1.572-0.949-3.107-1.576-4.598c-2.568-6.092-6.814-11.419-12.362-15.28
	c-0.812-0.565-1.642-1.11-2.509-1.611l-23.71-13.684l-22.198-12.81l-17.87-10.313l-68.335-39.437l0,0L305.99,23.415l-19.995-11.539
	l-12.39-7.151c-10.918-6.302-24.37-6.3-35.287,0.006l-12.307,7.108l-19.995,11.548l-26.659,15.398v-0.001l-68.33,39.467
	L81.08,95.547l-22.191,12.818l-11.697,6.756c-0.841,0.486-1.648,1.015-2.439,1.562c-3.392,2.349-6.296,5.254-8.638,8.538
	c-1.572,2.206-2.883,4.585-3.911,7.092c-1.716,4.179-2.652,8.706-2.651,13.371l0.007,42.41l0.005,27.164l0.014,81.478v0.014v0.005
	l0.005,27.159l0.007,42.478v0.006c0.002,11.607,5.715,22.388,15.14,28.946c0.812,0.565,1.642,1.11,2.509,1.611l23.377,13.491
	l22.198,12.812l18.204,10.506l94.999,54.826l19.995,11.539l12.39,7.151c10.918,6.302,24.37,6.299,35.287-0.006l12.307-7.108
	l19.995-11.548l26.659-15.397l0,0l57.587-33.261l10.742-6.205l27.325-15.782l22.191-12.818l14.319-8.27
	c0.841-0.486,1.648-1.015,2.439-1.562C476.717,388.766,482.453,377.956,482.451,366.319L482.451,366.319L482.451,366.319z"/>
<path style="fill:#464655;" d="M357.237,303.851c-5.061-3.182-8.099,1.881-8.099,1.881l-14.751,1.736l7.376-6.218
	c5.351,0.434,6.075-1.157,7.52-3.327c1.446-2.169,7.52-1.157,7.52-1.157c-0.867-6.653-9.256-2.893-9.256-2.893
	c-6.797-0.724-7.954,4.772-7.954,4.772l-10.557,8.099l-23.234-6.884c2.411-2.656,4.303-5.271,4.578-6.854
	c0.462-2.659-17.162-7.136-22.561-12.727c-5.399-5.593-7.328-14.462-4.82-16.777c2.507-2.314,4.627,4.241,7.327,9.641
	c2.701,5.4,7.714,9.641,10.991,6.942c3.278-2.699-3.47-6.748-6.556-12.533c-3.085-5.785,2.314-7.907,4.821-7.328
	c2.507,0.579,4.049,12.534,10.027,18.705c5.977,6.171,11.377,5.014,11.955,1.157c0.579-3.856-9.866-8.608-11.987-11.887
	c-2.121-3.278-2.668-9.71,0.804-9.902c3.47-0.194,16.197,18.774,26.996,26.032c11.762,7.905,21.21-1.351,19.668-5.206
	c-1.543-3.858-8.678-2.314-16.969-4.436c-8.292-2.121-16.775-13.305-19.282-19.475c-2.507-6.17-0.434-6.17,1.012-5.592
	c1.446,0.579,6.942,8.678,17.499,14.896c10.557,6.218,17.933,0.29,18.801-1.157c0.868-1.447,4.203-7.938-6.652-6.412
	c-12.34,1.736-19.38-5.592-24.441-9.496c-5.062-3.905-7.087-9.256-4.772-11.426c2.314-2.169,9.931,7.617,21.5,10.702
	c10.628,2.834,14.943-1.736,14.655-5.93c-0.289-4.194-2.748-2.458-14.751-3.615c-12.003-1.157-20.392-12.438-20.826-13.16
	c-0.434-0.724-0.29-4.772,5.785-0.867s16.92,6.218,23.284,5.93c6.363-0.289,7.665-8.821,4.627-10.268
	c-3.037-1.446-3.76,0.724-10.702,2.169c-6.942,1.446-19.958-5.64-23.14-8.966c-3.182-3.327,0.289-5.496,1.879-5.206
	c1.591,0.29,12.003,6.363,21.259,6.075c9.256-0.289,13.16-8.821,12.871-11.426c-0.29-2.603-2.893-4.772-6.797-2.169
	s-9.111,5.64-17.789,4.194s-12.727-7.231-11.569-9.4c1.157-2.169,9.545,1.591,22.85,0.145s13.884-13.16,12.582-15.475
	c-1.302-2.314-4.484-1.591-8.966,2.603c-4.484,4.194-13.16,5.061-19.957,5.061s-6.942-3.327-5.93-5.64
	c1.012-2.314,8.243-1.736,18.367-4.917c10.124-3.182,15.908-11.281,17.499-16.342c1.591-5.062-2.314-8.966-3.905-8.966
	s-0.579-2.314-7.52,7.665c-6.942,9.979-25.164,13.884-25.164,13.884c-1.302-2.458-3.327-3.327-3.327-3.327
	c-12.293,2.458-27.121,13.073-27.121,13.073s2.614,8.384-0.654,14.917c-4.205,8.41-18.62,3.158-14.701-10.127
	c3.264-11.061,15.898-17.749,26.57-18.947c10.671-1.197,11.216-5.226,11.216-5.226s-11.207,3.649-11.407-1.36
	c2.314,0.47,5.725,0.675,11.514,0.161c8.603-0.761,13.394-6.861,9.582-8.167c-3.811-1.306-2.178,2.613-8.711,5.663
	c-4.66,2.174-9.552,1.196-11.999,0.452c2.262-4.937,11.782-2.412,11.782-2.412c0.109-8.603-11.307-5.526-11.307-5.526
	c-5.014-10.8-34.324,1.736-34.324,1.736l6.942,5.592c-16.969,9.449-20.439,27.383-20.439,27.383s-3.47-17.933-20.439-27.383
	l6.942-5.592c0,0-29.309-12.534-34.324-1.736c0,0-11.416-3.077-11.307,5.526c0,0,9.521-2.526,11.782,2.412
	c-2.448,0.744-7.339,1.723-11.999-0.452c-6.534-3.049-4.9-6.969-8.711-5.663s0.98,7.405,9.582,8.167
	c5.791,0.514,9.201,0.309,11.514-0.161c-0.2,5.009-11.407,1.36-11.407,1.36s0.545,4.029,11.216,5.226
	c10.672,1.198,23.306,7.887,26.57,18.947c3.92,13.285-10.495,18.537-14.701,10.127c-3.267-6.534-0.654-14.917-0.654-14.917
	s-14.828-10.613-27.121-13.073c0,0-2.024,0.867-3.327,3.327c0,0-18.223-3.905-25.164-13.884c-6.942-9.979-5.93-7.665-7.52-7.665
	c-1.591,0-5.496,3.905-3.905,8.966s7.375,13.16,17.499,16.342s17.354,2.603,18.367,4.917c1.012,2.314,0.867,5.64-5.93,5.64
	s-15.475-0.867-19.958-5.061s-7.665-4.917-8.966-2.603c-1.302,2.314-0.724,14.029,12.582,15.475
	c13.305,1.446,21.693-2.314,22.85-0.145c1.157,2.169-2.892,7.954-11.569,9.4c-8.678,1.446-13.884-1.591-17.789-4.194
	s-6.508-0.434-6.797,2.169c-0.289,2.603,3.615,11.136,12.871,11.426c9.256,0.289,19.668-5.785,21.259-6.075
	c1.591-0.289,5.061,1.881,1.879,5.206c-3.182,3.327-16.198,10.413-23.139,8.966c-6.942-1.446-7.665-3.615-10.702-2.169
	s-1.736,9.979,4.627,10.268c6.363,0.29,17.21-2.024,23.284-5.93c6.075-3.905,6.218,0.145,5.785,0.867
	c-0.434,0.724-8.821,12.003-20.826,13.16c-12.004,1.157-14.462-0.579-14.751,3.615s4.026,8.764,14.655,5.93
	c11.569-3.085,19.187-12.871,21.5-10.702c2.314,2.169,0.29,7.52-4.772,11.426c-5.061,3.905-12.1,11.232-24.441,9.496
	c-10.856-1.526-7.52,4.966-6.653,6.412c0.867,1.446,8.244,7.375,18.801,1.157c10.557-6.218,16.053-14.317,17.499-14.896
	s3.519-0.579,1.012,5.592c-2.507,6.171-10.991,17.354-19.282,19.475c-8.291,2.122-15.427,0.579-16.969,4.436
	c-1.542,3.856,7.907,13.113,19.668,5.206c10.8-7.258,23.525-26.225,26.996-26.032c3.47,0.192,2.924,6.624,0.804,9.902
	c-2.121,3.279-12.565,8.032-11.987,11.887c0.579,3.856,5.977,5.014,11.954-1.157c5.978-6.17,7.52-18.126,10.027-18.705
	c2.507-0.579,7.905,1.543,4.82,7.328c-3.085,5.785-9.835,9.835-6.556,12.533c3.278,2.699,8.291-1.542,10.991-6.942
	c2.699-5.4,4.82-11.955,7.327-9.641c2.507,2.314,0.579,11.183-4.821,16.777c-5.399,5.592-23.024,10.067-22.561,12.727
	c0.276,1.585,2.167,4.2,4.577,6.854l-23.234,6.884l-10.557-8.099c0,0-1.157-5.496-7.954-4.772c0,0-8.388-3.76-9.256,2.893
	c0,0,6.075-1.012,7.52,1.157s2.169,3.76,7.52,3.327l7.375,6.218l-14.751-1.736c0,0-3.037-5.061-8.099-1.881
	c0,0-6.363-2.024-7.954,4.049c0,0,5.496-1.012,6.942-0.289c0,0,2.169,4.917,9.111,2.024l14.607,0.724l-8.243,4.049
	c0,0-10.413-3.327-9.979,5.351c0,0-3.037,3.47-0.29,6.942c0,0,0.579-3.76,3.327-5.351c0,0,5.351,2.169,8.821-4.194l10.557-6.363
	l10.412,5.061c0,0-0.289,5.64,7.375,3.327c0,0,2.603,1.736,3.327,4.049c0,0,3.327-3.615-2.024-7.809c0,0-1.302-4.917-7.665-3.037
	l-5.93-3.037l21.939-6.511c3.798,3.618,7.897,6.583,9.332,6.087c2.832-0.98,5.009-3.919,6.969-8.058
	c1.961-4.139,10.781-18.511,15.136-18.402c4.355,0.109,6.316,3.593,5.226,9.8c-1.088,6.206-9.577,18.095-15.073,20.554
	c-5.496,2.458-6.363,3.615-11.426,3.182c-5.062-0.434-6.797,1.736-5.64,4.627c1.157,2.893,6.851,4.731,12.438,2.603
	c6.075-2.314,8.388-5.496,10.702-3.615c2.314,1.879-2.458,8.678-8.966,10.702c-6.508,2.024-11.426,0.724-10.413,4.772
	c1.012,4.049,7.954,4.339,12.438,1.736c4.484-2.603,9.545-9.835,10.847-7.52c1.302,2.314,0.434,8.243-3.905,11.424
	c-4.339,3.182-9.274,1.31-10.268,4.194c-1.446,4.194,3.615,6.942,7.52,5.351c3.905-1.591,8.388-6.508,10.412-10.847
	s5.785-0.579,4.627,3.47c-1.157,4.049-0.192,7.375-8.485,13.739l15.426,23.717l15.427-23.717c-8.291-6.363-7.328-9.69-8.485-13.739
	c-1.157-4.049,2.603-7.809,4.628-3.47c2.024,4.339,6.508,9.256,10.412,10.847c3.905,1.591,8.966-1.157,7.52-5.351
	c-0.995-2.884-5.93-1.012-10.268-4.194c-4.339-3.182-5.206-9.111-3.905-11.424c1.302-2.314,6.363,4.917,10.847,7.52
	c4.483,2.603,11.426,2.314,12.438-1.736c1.012-4.049-3.905-2.748-10.413-4.772c-6.508-2.024-11.281-8.823-8.966-10.702
	c2.314-1.879,4.627,1.302,10.702,3.615c5.587,2.128,11.281,0.289,12.438-2.603c1.157-2.892-0.579-5.061-5.64-4.627
	s-5.93-0.724-11.426-3.182s-13.984-14.349-15.073-20.554c-1.09-6.207,0.871-9.692,5.226-9.8c4.355-0.11,13.176,14.264,15.136,18.402
	c1.959,4.139,4.138,7.078,6.969,8.058c1.436,0.497,5.535-2.469,9.332-6.087l21.939,6.511l-5.93,3.037
	c-6.363-1.881-7.665,3.037-7.665,3.037c-5.351,4.194-2.024,7.809-2.024,7.809c0.724-2.314,3.327-4.049,3.327-4.049
	c7.665,2.314,7.375-3.327,7.375-3.327l10.412-5.061l10.557,6.363c3.47,6.363,8.823,4.194,8.823,4.194
	c2.748,1.591,3.327,5.351,3.327,5.351c2.748-3.47-0.289-6.942-0.289-6.942c0.434-8.678-9.978-5.351-9.978-5.351l-8.244-4.049
	l14.607-0.724c6.942,2.892,9.111-2.024,9.111-2.024c1.446-0.724,6.942,0.289,6.942,0.289
	C363.6,301.827,357.237,303.851,357.237,303.851z"/>
<g>
</g>
<g>
</g>
<g>
</g>
<g>
</g>
<g>
</g>
<g>
</g>
<g>
</g>
<g>
</g>
<g>
</g>
<g>
</g>
<g>
</g>
<g>
</g>
<g>
</g>
<g>
</g>
<g>
</g>
</svg>
