<?xml version="1.0" encoding="iso-8859-1"?>
<!-- Generator: Adobe Illustrator 19.0.0, SVG Export Plug-In . SVG Version: 6.00 Build 0)  -->
<svg version="1.1" id="Layer_1" xmlns="http://www.w3.org/2000/svg" xmlns:xlink="http://www.w3.org/1999/xlink" x="0px" y="0px"
	 viewBox="0 0 512.001 512.001" style="enable-background:new 0 0 512.001 512.001;" xml:space="preserve">
<path style="fill:#73AF00;" d="M29.589,366.395l-0.036-220.713c-0.003-12.607,6.722-24.257,17.639-30.562L238.315,4.731
	c10.917-6.306,24.368-6.307,35.287-0.006L464.763,115.05c10.92,6.302,17.646,17.95,17.649,30.557l0.036,220.713
	c0.003,12.607-6.722,24.257-17.639,30.563L273.685,507.271c-10.917,6.306-24.368,6.307-35.287,0.006L47.238,396.952
	C36.318,390.65,29.591,379.002,29.589,366.395z"/>
<path style="fill:#FFE15A;" d="M251.226,130.331L57.657,248.155c-5.878,3.578-5.878,12.112,0,15.689l193.568,117.824
	c2.933,1.786,6.617,1.786,9.55,0l193.568-117.824c5.878-3.578,5.878-12.112,0-15.689L260.776,130.331
	C257.843,128.547,254.159,128.547,251.226,130.331z"/>
<circle style="fill:#41479B;" cx="256.01" cy="256.01" r="73.47"/>
<g>
	<path style="fill:#F5F5F5;" d="M192.954,218.416c-3.467,5.803-6.143,12.11-7.912,18.806c40.73-3.065,100.98,8.329,139.329,45.54
		c2.503-6.389,4.155-13.195,4.775-20.311C289.55,229.127,234.806,217.275,192.954,218.416z"/>
	<path style="fill:#F5F5F5;" d="M259.044,281.073l1.956,5.866l6.183,0.047c0.801,0.006,1.132,1.028,0.489,1.503l-4.974,3.673
		l1.866,5.896c0.241,0.764-0.627,1.395-1.278,0.928l-5.03-3.595l-5.03,3.595c-0.651,0.465-1.521-0.166-1.278-0.928l1.866-5.896
		l-4.974-3.673c-0.644-0.475-0.312-1.497,0.489-1.503l6.183-0.047l1.957-5.866C257.716,280.313,258.791,280.313,259.044,281.073z"/>
	<path style="fill:#F5F5F5;" d="M283.074,296.246l0.842,2.524l2.662,0.021c0.345,0.003,0.487,0.442,0.21,0.647l-2.141,1.581
		l0.802,2.537c0.104,0.329-0.27,0.6-0.551,0.4l-2.166-1.547l-2.166,1.547c-0.28,0.2-0.655-0.071-0.55-0.4l0.802-2.538l-2.141-1.581
		c-0.277-0.205-0.134-0.645,0.21-0.647l2.662-0.021l0.842-2.524C282.503,295.92,282.966,295.92,283.074,296.246z"/>
	<path style="fill:#F5F5F5;" d="M248.654,269.931l0.842,2.524l2.662,0.02c0.345,0.003,0.487,0.442,0.21,0.647l-2.141,1.581
		l0.802,2.538c0.104,0.329-0.27,0.6-0.55,0.4l-2.166-1.547l-2.164,1.547c-0.28,0.2-0.655-0.071-0.551-0.4l0.802-2.538l-2.141-1.581
		c-0.277-0.205-0.135-0.645,0.21-0.647l2.662-0.02l0.842-2.524C248.083,269.604,248.545,269.604,248.654,269.931z"/>
	<path style="fill:#F5F5F5;" d="M202.037,266.87l0.842,2.524l2.662,0.02c0.345,0.003,0.487,0.442,0.21,0.647l-2.141,1.581
		l0.802,2.538c0.104,0.329-0.27,0.6-0.55,0.4l-2.166-1.547l-2.164,1.547c-0.28,0.2-0.655-0.071-0.55-0.4l0.802-2.538l-2.141-1.581
		c-0.277-0.205-0.134-0.645,0.21-0.647l2.662-0.02l0.842-2.524C201.466,266.543,201.928,266.543,202.037,266.87z"/>
	<path style="fill:#F5F5F5;" d="M241.035,295.375l0.842,2.524l2.662,0.021c0.345,0.002,0.487,0.442,0.21,0.647l-2.141,1.581
		l0.802,2.537c0.104,0.329-0.27,0.6-0.55,0.4l-2.166-1.547l-2.164,1.547c-0.28,0.2-0.655-0.071-0.551-0.4l0.802-2.537l-2.141-1.581
		c-0.277-0.205-0.135-0.645,0.21-0.647l2.662-0.021l0.842-2.524C240.464,295.049,240.926,295.049,241.035,295.375z"/>
	<path style="fill:#F5F5F5;" d="M219.577,265.108l0.689,2.064l2.177,0.017c0.282,0.003,0.399,0.362,0.172,0.53l-1.751,1.293
		l0.656,2.074c0.085,0.269-0.221,0.491-0.45,0.327l-1.771-1.266l-1.771,1.266c-0.23,0.164-0.535-0.059-0.45-0.327l0.656-2.074
		l-1.751-1.293c-0.226-0.167-0.11-0.527,0.172-0.53l2.177-0.017l0.689-2.064C219.109,264.841,219.488,264.841,219.577,265.108z"/>
	<path style="fill:#F5F5F5;" d="M284.943,222.494l0.861,2.582l2.722,0.021c0.352,0.002,0.499,0.452,0.215,0.662l-2.189,1.617
		l0.821,2.596c0.106,0.336-0.276,0.614-0.564,0.409l-2.214-1.583l-2.214,1.583c-0.286,0.205-0.67-0.072-0.564-0.409l0.821-2.596
		l-2.189-1.617c-0.284-0.21-0.137-0.659,0.215-0.662l2.722-0.021l0.861-2.582C284.359,222.16,284.832,222.16,284.943,222.494z"/>
	<path style="fill:#F5F5F5;" d="M205.036,252.48l0.689,2.064l2.177,0.016c0.282,0.002,0.399,0.362,0.172,0.529l-1.751,1.293
		l0.656,2.076c0.085,0.269-0.221,0.491-0.45,0.327l-1.771-1.266l-1.771,1.266c-0.229,0.164-0.535-0.059-0.45-0.327l0.656-2.076
		l-1.751-1.293c-0.226-0.167-0.11-0.527,0.172-0.529l2.177-0.016l0.689-2.064C204.568,252.213,204.946,252.213,205.036,252.48z"/>
	<path style="fill:#F5F5F5;" d="M215.543,281.574l1.042,3.127l3.295,0.025c0.427,0.004,0.604,0.547,0.26,0.801l-2.652,1.958
		l0.995,3.143c0.129,0.407-0.335,0.744-0.681,0.495l-2.682-1.917l-2.682,1.917c-0.347,0.249-0.81-0.089-0.682-0.495l0.995-3.143
		l-2.652-1.958c-0.344-0.254-0.166-0.799,0.26-0.801l3.295-0.025l1.043-3.127C214.836,281.17,215.408,281.17,215.543,281.574z"/>
	<path style="fill:#F5F5F5;" d="M296.475,296.902l0.656,1.967l2.073,0.016c0.269,0.003,0.38,0.345,0.164,0.504l-1.668,1.232
		l0.626,1.977c0.081,0.256-0.21,0.467-0.429,0.311l-1.687-1.206l-1.687,1.206c-0.219,0.156-0.51-0.056-0.429-0.311l0.625-1.977
		l-1.668-1.232c-0.216-0.16-0.105-0.502,0.164-0.504l2.073-0.016l0.656-1.967C296.03,296.647,296.39,296.647,296.475,296.902z"/>
	<path style="fill:#F5F5F5;" d="M303.73,281.89l0.842,2.524l2.662,0.021c0.345,0.003,0.487,0.442,0.21,0.647l-2.141,1.581
		l0.802,2.538c0.104,0.329-0.27,0.6-0.55,0.4l-2.166-1.547l-2.166,1.547c-0.28,0.2-0.655-0.071-0.55-0.4l0.802-2.538l-2.141-1.581
		c-0.277-0.205-0.134-0.645,0.21-0.647l2.662-0.021l0.842-2.524C303.159,281.562,303.621,281.562,303.73,281.89z"/>
</g>
<g>
</g>
<g>
</g>
<g>
</g>
<g>
</g>
<g>
</g>
<g>
</g>
<g>
</g>
<g>
</g>
<g>
</g>
<g>
</g>
<g>
</g>
<g>
</g>
<g>
</g>
<g>
</g>
<g>
</g>
</svg>
