<?xml version="1.0" encoding="iso-8859-1"?>
<!-- Generator: Adobe Illustrator 19.0.0, SVG Export Plug-In . SVG Version: 6.00 Build 0)  -->
<svg xmlns="http://www.w3.org/2000/svg" xmlns:xlink="http://www.w3.org/1999/xlink" version="1.1" id="Layer_1" x="0px" y="0px" viewBox="0 0 512.001 512.001" style="enable-background:new 0 0 512.001 512.001;" xml:space="preserve">
<path style="fill:#F5F5F5;" d="M482.449,354.877l-0.006-39.552l-0.006-39.551l-0.006-39.552l-0.006-39.552l-0.006-39.552  l-0.001-11.516c-0.001-11.08-5.202-21.416-13.874-28.036c-1.195-0.912-2.453-1.757-3.775-2.521l-64.164-37.031l-68.534-39.552  L273.601,4.72c-6.077-3.507-12.938-5.055-19.71-4.658c-5.396,0.317-10.736,1.868-15.577,4.664l-58.412,33.736l-68.479,39.552  l-64.236,37.101c-1.251,0.722-6.697,5.037-6.697,5.037c-6.894,6.578-10.943,15.758-10.941,25.526l0.001,4.453l0.001,6.988  l0.001,9.695l0.005,29.857v0.446l0.003,16.677l0.004,22.428l0.005,27.96l0.003,11.592l0.006,39.551l0.006,39.552l0.001,11.516  c0.003,11.08,5.202,21.416,13.874,28.036c1.195,0.912,2.453,1.757,3.775,2.521l64.164,37.031l68.532,39.552l58.467,33.744  c10.918,6.301,24.37,6.298,35.287-0.006l58.412-33.737l68.479-39.552l64.236-37.1c1.287-0.744,2.511-1.566,3.677-2.451  c8.726-6.619,13.964-16.991,13.963-28.111L482.449,354.877z"/>
<g>
	<path style="fill:#FF4B55;" d="M253.932,38.462h78.137L273.602,4.719c-6.077-3.507-12.938-5.055-19.71-4.658   c0.015,0.262,0.04,0.521,0.04,0.787L253.932,38.462L253.932,38.462z"/>
	<polygon style="fill:#FF4B55;" points="253.932,196.67 482.423,196.67 482.416,157.118 253.932,157.118  "/>
	<path style="fill:#FF4B55;" d="M253.932,117.566h214.61c-1.195-0.912-2.453-1.757-3.775-2.521l-64.164-37.031h-146.67v39.552   H253.932z"/>
	<path style="fill:#FF4B55;" d="M253.932,250.651c0,7.473-6.058,13.531-13.531,13.531H29.569l0.003,11.592h452.864l-0.006-39.552   H253.932V250.651z"/>
	<path style="fill:#FF4B55;" d="M47.234,396.95l64.164,37.031h289.177l64.236-37.1c1.287-0.744,2.511-1.566,3.677-2.451H43.459   C44.655,395.341,45.912,396.186,47.234,396.95z"/>
	<path style="fill:#FF4B55;" d="M238.399,507.276c10.918,6.301,24.37,6.298,35.287-0.006l58.412-33.737H179.932L238.399,507.276z"/>
	<polygon style="fill:#FF4B55;" points="29.584,354.877 482.449,354.877 482.443,315.325 29.577,315.325  "/>
</g>
<path style="fill:#41479B;" d="M253.892,0.062c-5.396,0.317-10.736,1.868-15.577,4.664l-58.412,33.736l-68.479,39.552  l-64.236,37.101c-1.251,0.722-6.697,5.037-6.697,5.037c-6.894,6.578-10.943,15.758-10.941,25.526l0.001,4.453l0.001,6.988  l0.001,9.695l0.005,29.857v0.446l0.003,16.677l0.004,22.428l0.005,27.96h210.832c7.473,0,13.531-6.058,13.531-13.531v-14.429V196.67  v-39.552v-39.552V78.014V38.462V0.849C253.932,0.583,253.907,0.324,253.892,0.062z"/>
<g>
	<path style="fill:#F5F5F5;" d="M85.107,136.207l-9.468-0.074l-2.995-8.983c-0.076-0.227-0.209-0.397-0.364-0.536   c-0.476-0.43-1.217-0.43-1.695,0c-0.154,0.139-0.287,0.309-0.364,0.536l-2.995,8.983l-9.469,0.074   c-1.226,0.009-1.735,1.573-0.749,2.302l7.617,5.625l-2.855,9.028c-0.37,1.168,0.961,2.136,1.958,1.423l7.703-5.506l7.703,5.506   c0.997,0.712,2.328-0.255,1.958-1.423l-2.855-9.028l7.617-5.625C86.84,137.782,86.333,136.217,85.107,136.207z"/>
	<path style="fill:#F5F5F5;" d="M85.107,183.194l-9.468-0.074l-2.995-8.983c-0.387-1.162-2.033-1.162-2.421,0l-2.995,8.983   l-9.469,0.074c-1.226,0.009-1.735,1.573-0.749,2.302l7.617,5.625l-2.855,9.028c-0.37,1.17,0.961,2.136,1.958,1.423l7.703-5.506   l7.703,5.506c0.997,0.712,2.328-0.254,1.958-1.423l-2.855-9.028l7.617-5.625C86.84,184.768,86.333,183.204,85.107,183.194z"/>
	<path style="fill:#F5F5F5;" d="M85.107,230.181l-9.468-0.074l-2.995-8.983c-0.387-1.163-2.033-1.163-2.421,0l-2.995,8.983   l-9.469,0.074c-1.226,0.01-1.735,1.573-0.749,2.302l7.617,5.625l-2.267,7.163l-0.59,1.863c-0.37,1.17,0.961,2.136,1.958,1.423   l4.599-3.287l3.105-2.219l3.104,2.219l4.599,3.287c0.997,0.712,2.328-0.254,1.958-1.423l-0.59-1.863l-2.267-7.163l7.617-5.625   C86.84,231.755,86.333,230.19,85.107,230.181z"/>
	<path style="fill:#F5F5F5;" d="M121.577,112.259l-9.469-0.074l-2.995-8.983c-0.387-1.162-2.033-1.162-2.421,0l-2.995,8.983   l-9.469,0.074c-1.226,0.009-1.735,1.573-0.749,2.302l7.617,5.625l-2.034,6.431l-0.822,2.597c-0.37,1.168,0.961,2.136,1.958,1.423   l5.625-4.02l2.078-1.486l2.078,1.486l5.625,4.02c0.997,0.712,2.328-0.254,1.958-1.423l-0.822-2.597l-2.034-6.431l7.617-5.625   C123.31,113.832,122.803,112.267,121.577,112.259z"/>
	<path style="fill:#F5F5F5;" d="M122.324,161.547c0.986-0.729,0.477-2.292-0.749-2.302l-9.469-0.074l-2.995-8.983   c-0.387-1.163-2.033-1.163-2.421,0l-2.995,8.983l-9.469,0.074c-1.226,0.01-1.735,1.573-0.749,2.302l6.257,4.62l1.36,1.005   l-2.856,9.028c-0.37,1.17,0.961,2.136,1.958,1.423l7.703-5.506l7.703,5.506c0.997,0.712,2.328-0.254,1.958-1.423l-2.856-9.028   l1.36-1.005L122.324,161.547z"/>
	<path style="fill:#F5F5F5;" d="M121.577,206.231l-9.469-0.074l-0.146-0.439l-2.849-8.543c-0.387-1.163-2.033-1.163-2.421,0   l-2.849,8.543l-0.146,0.439l-9.469,0.074c-1.226,0.01-1.735,1.573-0.749,2.302l7.617,5.625l-2.855,9.028   c-0.37,1.17,0.961,2.136,1.958,1.423l7.703-5.506l7.703,5.506c0.997,0.712,2.328-0.254,1.958-1.423l-2.855-9.028l7.617-5.625   C123.31,207.805,122.803,206.241,121.577,206.231z"/>
	<path style="fill:#F5F5F5;" d="M158.047,89.221l-9.469-0.074l-0.695-2.084l-2.301-6.898c-0.387-1.163-2.033-1.163-2.421,0   l-2.301,6.898l-0.695,2.084l-9.469,0.074c-1.226,0.009-1.735,1.573-0.749,2.302l7.617,5.625l-2.855,9.028   c-0.37,1.168,0.961,2.136,1.958,1.423l7.703-5.506l7.703,5.506c0.997,0.712,2.328-0.255,1.958-1.423l-2.855-9.028l7.617-5.625   C159.781,90.795,159.273,89.231,158.047,89.221z"/>
	<path style="fill:#F5F5F5;" d="M158.047,136.207l-9.469-0.074l-2.995-8.983c-0.076-0.227-0.21-0.397-0.364-0.536   c-0.476-0.43-1.217-0.43-1.695,0c-0.154,0.139-0.287,0.309-0.364,0.536l-2.995,8.983l-9.469,0.074   c-1.226,0.009-1.735,1.573-0.749,2.302l7.617,5.625l-2.855,9.028c-0.37,1.168,0.961,2.136,1.958,1.423l7.703-5.506l7.703,5.506   c0.997,0.712,2.328-0.255,1.958-1.423l-2.855-9.028l7.617-5.625C159.781,137.782,159.273,136.217,158.047,136.207z"/>
	<path style="fill:#F5F5F5;" d="M158.047,183.194l-9.469-0.074l-2.995-8.983c-0.387-1.162-2.033-1.162-2.421,0l-2.995,8.983   l-9.469,0.074c-1.226,0.009-1.735,1.573-0.749,2.302l7.617,5.625l-2.855,9.028c-0.37,1.17,0.961,2.136,1.958,1.423l7.703-5.506   l7.703,5.506c0.997,0.712,2.328-0.254,1.958-1.423l-2.855-9.028l7.617-5.625C159.781,184.768,159.273,183.204,158.047,183.194z"/>
	<path style="fill:#F5F5F5;" d="M158.047,230.181l-9.469-0.074l-2.995-8.983c-0.387-1.163-2.033-1.163-2.421,0l-2.995,8.983   l-9.469,0.074c-1.226,0.01-1.735,1.573-0.749,2.302l7.617,5.625l-2.267,7.163l-0.59,1.863c-0.37,1.17,0.961,2.136,1.958,1.423   l4.599-3.287l3.105-2.219l3.104,2.219l4.599,3.287c0.997,0.712,2.328-0.254,1.958-1.423l-0.59-1.863l-2.266-7.163l7.617-5.625   C159.781,231.755,159.273,230.19,158.047,230.181z"/>
	<path style="fill:#F5F5F5;" d="M174.038,73.198l-2.855,9.028c-0.37,1.168,0.961,2.136,1.958,1.423l7.703-5.506l7.703,5.506   c0.997,0.712,2.328-0.255,1.958-1.423l-2.856-9.028l7.617-5.625c0.986-0.729,0.477-2.292-0.749-2.302l-9.469-0.074l-2.995-8.983   c-0.387-1.162-2.033-1.162-2.421,0l-2.995,8.983l-9.469,0.074c-1.226,0.009-1.735,1.573-0.747,2.302L174.038,73.198z"/>
	<path style="fill:#F5F5F5;" d="M194.518,112.259l-9.469-0.074l-2.995-8.983c-0.387-1.162-2.033-1.162-2.421,0l-2.995,8.983   l-9.469,0.074c-1.226,0.009-1.735,1.573-0.747,2.302l7.617,5.625l-2.034,6.431l-0.822,2.597c-0.37,1.168,0.961,2.136,1.958,1.423   l5.625-4.02l2.078-1.486l2.078,1.486l5.625,4.02c0.997,0.712,2.328-0.254,1.958-1.423l-0.822-2.597l-2.034-6.431l7.617-5.625   C196.252,113.832,195.744,112.267,194.518,112.259z"/>
	<path style="fill:#F5F5F5;" d="M195.265,161.547c0.986-0.729,0.477-2.292-0.749-2.302l-9.469-0.074l-2.995-8.983   c-0.387-1.163-2.033-1.163-2.421,0l-2.995,8.983l-9.469,0.074c-1.226,0.01-1.735,1.573-0.747,2.302l6.257,4.62l1.36,1.005   l-2.855,9.028c-0.37,1.17,0.961,2.136,1.958,1.423l7.703-5.506l7.703,5.506c0.997,0.712,2.328-0.254,1.958-1.423l-2.855-9.028   l1.36-1.005L195.265,161.547z"/>
	<path style="fill:#F5F5F5;" d="M194.518,206.231l-9.469-0.074l-0.146-0.439l-2.849-8.543c-0.387-1.163-2.033-1.163-2.421,0   l-2.849,8.543l-0.146,0.439l-9.469,0.074c-1.226,0.01-1.735,1.573-0.747,2.302l7.617,5.625l-2.855,9.028   c-0.37,1.17,0.961,2.136,1.958,1.423l7.703-5.506l7.703,5.506c0.997,0.712,2.328-0.254,1.958-1.423l-2.856-9.028l7.617-5.625   C196.252,207.805,195.744,206.241,194.518,206.231z"/>
	<path style="fill:#F5F5F5;" d="M230.988,42.234l-9.469-0.074l-2.995-8.983c-0.387-1.163-2.033-1.163-2.421,0l-2.995,8.983   l-9.469,0.074c-1.226,0.009-1.735,1.573-0.749,2.302l4.029,2.975l3.588,2.649l-2.855,9.028c-0.37,1.168,0.961,2.136,1.958,1.422   l7.703-5.506l7.703,5.506c0.997,0.714,2.328-0.254,1.958-1.422l-2.857-9.028l3.588-2.649l4.029-2.975   C232.723,43.808,232.214,42.243,230.988,42.234z"/>
	<path style="fill:#F5F5F5;" d="M230.988,89.221l-9.469-0.074l-0.695-2.084l-2.301-6.898c-0.387-1.163-2.033-1.163-2.421,0   l-2.301,6.898l-0.695,2.084l-9.469,0.074c-1.226,0.009-1.735,1.573-0.749,2.302l7.617,5.625l-2.855,9.028   c-0.37,1.168,0.961,2.136,1.958,1.423l7.703-5.506l7.703,5.506c0.997,0.712,2.328-0.255,1.958-1.423l-2.857-9.028l7.617-5.625   C232.723,90.795,232.214,89.231,230.988,89.221z"/>
	<path style="fill:#F5F5F5;" d="M230.988,136.207l-9.469-0.074l-2.995-8.983c-0.076-0.227-0.209-0.397-0.364-0.536   c-0.476-0.43-1.217-0.43-1.695,0c-0.154,0.139-0.287,0.309-0.364,0.536l-2.995,8.983l-9.469,0.074   c-1.226,0.009-1.735,1.573-0.749,2.302l7.617,5.625l-2.855,9.028c-0.37,1.168,0.961,2.136,1.958,1.423l7.703-5.506l7.703,5.506   c0.997,0.712,2.328-0.255,1.958-1.423l-2.857-9.028l7.617-5.625C232.723,137.782,232.214,136.217,230.988,136.207z"/>
	<path style="fill:#F5F5F5;" d="M210.509,191.121l-2.855,9.028c-0.37,1.17,0.961,2.136,1.958,1.423l7.703-5.506l7.703,5.506   c0.997,0.712,2.328-0.254,1.958-1.423l-2.857-9.028l7.617-5.625c0.986-0.729,0.477-2.293-0.747-2.302l-9.469-0.074l-2.995-8.983   c-0.387-1.162-2.033-1.162-2.421,0l-2.995,8.983l-9.469,0.074c-1.226,0.009-1.735,1.573-0.749,2.302L210.509,191.121z"/>
	<path style="fill:#F5F5F5;" d="M230.988,230.181l-9.469-0.074l-2.995-8.983c-0.387-1.163-2.033-1.163-2.421,0l-2.995,8.983   l-9.469,0.074c-1.226,0.01-1.735,1.573-0.749,2.302l7.617,5.625l-2.266,7.163l-0.59,1.863c-0.37,1.17,0.961,2.136,1.958,1.423   l4.599-3.287l3.104-2.219l3.104,2.219l4.599,3.287c0.997,0.712,2.328-0.254,1.958-1.423l-0.59-1.863l-2.267-7.163l7.617-5.625   C232.723,231.755,232.214,230.19,230.988,230.181z"/>
</g>
<g>
</g>
<g>
</g>
<g>
</g>
<g>
</g>
<g>
</g>
<g>
</g>
<g>
</g>
<g>
</g>
<g>
</g>
<g>
</g>
<g>
</g>
<g>
</g>
<g>
</g>
<g>
</g>
<g>
</g>
</svg>
