<?xml version="1.0" encoding="iso-8859-1"?>
<!-- Generator: Adobe Illustrator 19.0.0, SVG Export Plug-In . SVG Version: 6.00 Build 0)  -->
<svg version="1.1" id="Layer_1" xmlns="http://www.w3.org/2000/svg" xmlns:xlink="http://www.w3.org/1999/xlink" x="0px" y="0px"
	 viewBox="0 0 512.005 512.005" style="enable-background:new 0 0 512.005 512.005;" xml:space="preserve">
<path style="fill:#F5F5F5;" d="M482.451,366.319l-0.008-42.41l-0.005-27.164l-0.014-81.491l-0.005-27.164l-0.008-42.486
	c0-3.105-0.422-6.147-1.202-9.07c-0.42-1.572-0.949-3.107-1.576-4.598c-2.568-6.092-6.814-11.419-12.362-15.28
	c-0.812-0.565-1.642-1.11-2.509-1.611l-23.71-13.684l-22.198-12.81l-17.87-10.313l-68.335-39.437l0,0L305.99,23.415l-19.995-11.539
	l-12.39-7.151c-10.918-6.302-24.37-6.3-35.287,0.006l-12.307,7.108l-19.995,11.548l-26.659,15.398v-0.001l-68.33,39.467
	L81.08,95.547l-22.191,12.818l-11.697,6.756c-0.841,0.486-1.648,1.015-2.439,1.562c-3.392,2.349-6.296,5.254-8.638,8.538
	c-1.572,2.206-2.883,4.585-3.911,7.092c-1.716,4.179-2.652,8.706-2.651,13.371l0.007,42.41l0.005,27.164l0.014,81.478v0.014v0.005
	l0.005,27.159l0.007,42.478v0.006c0.002,11.607,5.715,22.388,15.14,28.946c0.812,0.565,1.642,1.11,2.509,1.611l23.377,13.491
	l22.198,12.812l18.204,10.506l94.999,54.826l19.995,11.539l12.39,7.151c10.918,6.302,24.37,6.299,35.287-0.006l12.307-7.108
	l19.995-11.548l26.659-15.397l0,0l57.587-33.261l10.742-6.205l27.325-15.782l22.191-12.818l14.319-8.27
	c0.841-0.486,1.648-1.015,2.439-1.562C476.717,388.766,482.453,377.956,482.451,366.319L482.451,366.319L482.451,366.319z"/>
<path style="fill:#464655;" d="M147.427,272.83c0,0,0.239,4.544-3.588,8.609c-3.826,4.068-1.913,9.329,3.109,11.721
	c0,0-3.467,8.251,1.675,11.718c3.247,2.192,7.653,1.913,7.653,1.913s2.392,9.807,0.479,16.024
	c-1.913,6.22,0.717,24.156,44.485,13.872c0,0,0.397,11.481,17.938,20.409c17.538,8.929,14.104,30.079,14.104,30.079
	s24.141,13.976,50.824-19.059s28.588-37.482,47.647-45.106c0,0-29.859-30.494-19.059-57.177c1.422-3.517,3.03-7.207,4.705-11.001
	c3.092,10.044,9.2,24.707,20.111,33.237c3.395,2.641,7.584,3.474,11.634,4.289c4.348,0.874,8.1,1.628,9.867,4.308
	c1.553,2.387,1.695,6.598,0.494,12.425c-12.974,14.152-25.512,17.925-25.688,17.97l-3.018,0.814l6.343,20.921l-18.93,17.417
	l0.337,1.687c2.343,11.674,9.55,13.223,12.528,13.361c0.179,0,0.357,0.02,0.536,0.02c6.889,0,13.897-5.797,16.121-13.44
	c3.851-13.203,16.418-14.711,16.558-14.711l1.906-0.219l0.635-1.807c0.277-0.794,6.809-19.615,10.026-38.793
	c1.293-7.758,1.538-13.932,1.276-19.335c0.099-0.186,0.214-0.29,0.312-0.479l-0.327-0.171c-1.213-20.448-12.304-25.89-23.257-30.939
	c-9.339-4.335-13.004-8.544-14.818-11.882c0.377,0.01,0.697,0.109,1.08,0.109c2.978,0,6.115-0.337,9.291-1.231
	c8.854-2.462,16.022-8.516,21.303-17.988c3.217-5.797,27.139-71.432,29.859-78.896l1.886-5.181l-30.882,6.591l2.353-18.781
	l-40.024,14.116l0.953,2.859c0.139,0.377,12.885,38.654,11.654,62.021c-0.337,6.135-2.263,10.582-5.777,13.203
	c-4.418,3.263-10.406,3.089-13.533,2.752c6.966-18.509,11.458-37.955,4.816-55.362c-11.001-28.845-59.719-55.271-96.565-51.46
	c-36.847,3.811-67.387,12.715-77.551,49.563c-10.165,36.847-7.33,46.582-6.061,52.936c1.271,6.353-22.663,34.396-18.335,43.052
	C137.381,273.547,147.427,272.83,147.427,272.83z M324.052,239.507c0.64-1.511,1.281-3.015,1.903-4.546
	c1.13,0.201,2.802,0.44,5.261,0.44c4.169,0,9.629-0.794,14.175-4.189c5.022-3.753,7.783-9.729,8.199-17.769
	c1.131-20.965-8-51.876-11.018-61.426l25.094-8.835l-6.095,48.68l6.036,0.755l4.171-33.308l22.193-4.73
	c-10.582,28.986-25.452,69.03-27.576,72.841c-4.466,8-10.403,13.083-17.629,15.088C337.915,245.585,327.576,241.236,324.052,239.507
	z M339.107,355.277l3.097,10.22c-0.08,0.249-0.231,0.38-0.305,0.635c-1.45,4.964-6.115,9.033-10.265,9.033c-0.099,0-0.199,0-0.277,0
	c-3.771-0.159-5.578-3.831-6.432-6.829L339.107,355.277z M371.897,302.548c-0.246,2.739-0.511,5.515-1.052,8.77
	c-2.581,15.426-7.544,31.07-9.211,36.093c-3.415,0.8-10.462,3.214-15.493,10.041l-7.755-25.527
	C344.565,329.468,359.049,321.354,371.897,302.548z M321.353,245.872c0.116-0.265,0.231-0.509,0.345-0.775
	c2.293,1.087,6.162,2.686,11.324,3.693c1.435,4.269,4.795,11.411,19.28,18.116c10.046,4.639,18.495,8.571,19.841,24.097
	c-1.896,3.487-3.973,5.908-5.998,8.773c-0.295-2.467-0.868-4.68-2.029-6.444c-3.177-4.825-8.795-5.956-13.777-6.948
	c-3.514-0.715-6.829-1.37-9.073-3.117C328.442,273.255,322.949,252.908,321.353,245.872z M162.734,200.838
	c0,0,0.956-21.523,10.525-39.702l146.372,67.925l-12.438,26.786L162.734,200.838z"/>
<g>
</g>
<g>
</g>
<g>
</g>
<g>
</g>
<g>
</g>
<g>
</g>
<g>
</g>
<g>
</g>
<g>
</g>
<g>
</g>
<g>
</g>
<g>
</g>
<g>
</g>
<g>
</g>
<g>
</g>
</svg>
