<?xml version="1.0" encoding="iso-8859-1"?>
<!-- Generator: Adobe Illustrator 19.0.0, SVG Export Plug-In . SVG Version: 6.00 Build 0)  -->
<svg version="1.1" id="Layer_1" xmlns="http://www.w3.org/2000/svg" xmlns:xlink="http://www.w3.org/1999/xlink" x="0px" y="0px"
	 viewBox="0 0 512.001 512.001" style="enable-background:new 0 0 512.001 512.001;" xml:space="preserve">
<path style="fill:#F5F5F5;" d="M482.436,296.746l-0.014-81.491l-0.005-27.164l-0.008-42.486
	c-0.001-11.607-5.715-22.389-15.14-28.946c-0.812-0.565-1.642-1.11-2.509-1.611l-23.711-13.684l-22.198-12.81l-17.87-10.313
	l-94.999-54.826l-19.995-11.539l-12.39-7.151c-10.918-6.302-24.37-6.3-35.287,0.006l-12.307,7.108L206.01,23.387L111.024,78.25
	L81.077,95.546l-22.191,12.818l-11.697,6.756c-0.841,0.486-1.648,1.015-2.439,1.561c-9.465,6.556-15.201,17.365-15.2,29.001
	l0.007,42.41l0.005,27.164l0.014,81.491l0.005,27.164l0.007,42.485c0.003,11.607,5.715,22.389,15.14,28.946
	c0.812,0.565,1.642,1.11,2.509,1.611l23.377,13.491l22.198,12.811l18.204,10.506l94.999,54.826l19.995,11.539l12.39,7.151
	c10.918,6.302,24.37,6.298,35.287-0.006l12.307-7.108l19.995-11.548l94.989-54.863l27.325-15.782l22.191-12.818l14.319-8.27
	c0.841-0.486,1.648-1.013,2.439-1.562c9.465-6.556,15.201-17.365,15.2-29.001l-0.008-42.41L482.436,296.746z"/>
<g>
	<polygon style="fill:#41479B;" points="305.985,488.614 400.974,433.751 305.985,349.203 	"/>
	<polygon style="fill:#41479B;" points="400.984,78.241 305.985,23.415 305.985,162.798 	"/>
	<polygon style="fill:#41479B;" points="111.015,433.759 206.013,488.585 206.013,349.203 	"/>
	<path style="fill:#41479B;" d="M467.249,395.319c9.465-6.556,15.201-17.365,15.2-29.001l-0.008-42.41H387.02L467.249,395.319z"/>
	<path style="fill:#41479B;" d="M29.58,323.91l0.007,42.485c0.003,11.607,5.715,22.389,15.14,28.946l80.252-71.432H29.58V323.91z"/>
	<path style="fill:#41479B;" d="M44.751,116.68c-9.465,6.556-15.201,17.365-15.2,29.001l0.007,42.41h95.421L44.751,116.68z"/>
	<path style="fill:#41479B;" d="M482.418,188.091l-0.008-42.486c-0.001-11.607-5.715-22.389-15.14-28.946l-80.252,71.432H482.418z"
		/>
	<polygon style="fill:#41479B;" points="206.013,23.387 111.024,78.25 206.013,162.798 	"/>
</g>
<g>
	<path style="fill:#FF4B55;" d="M285.991,11.875L273.6,4.725c-10.918-6.302-24.37-6.3-35.287,0.006l-12.307,7.108v203.416H29.562
		l0.014,81.491h196.431v203.379l12.39,7.151c10.918,6.302,24.37,6.298,35.287-0.006l12.307-7.108V296.746h196.445l-0.014-81.491
		H285.991V11.875z"/>
	<polygon style="fill:#FF4B55;" points="168.738,323.91 70.612,410.443 92.81,423.254 205.463,323.91 	"/>
	<polygon style="fill:#FF4B55;" points="321.639,323.91 428.299,417.969 450.491,405.152 358.363,323.91 	"/>
	<polygon style="fill:#FF4B55;" points="186.018,188.091 81.077,95.546 58.885,108.364 149.293,188.091 	"/>
	<polygon style="fill:#FF4B55;" points="305.985,188.091 342.71,188.091 441.052,101.366 418.854,88.554 	"/>
</g>
<g>
</g>
<g>
</g>
<g>
</g>
<g>
</g>
<g>
</g>
<g>
</g>
<g>
</g>
<g>
</g>
<g>
</g>
<g>
</g>
<g>
</g>
<g>
</g>
<g>
</g>
<g>
</g>
<g>
</g>
</svg>
