<?xml version="1.0" encoding="iso-8859-1"?>
<!-- Generator: Adobe Illustrator 19.0.0, SVG Export Plug-In . SVG Version: 6.00 Build 0)  -->
<svg version="1.1" id="Layer_1" xmlns="http://www.w3.org/2000/svg" xmlns:xlink="http://www.w3.org/1999/xlink" x="0px" y="0px"
	 viewBox="0 0 512 512" style="enable-background:new 0 0 512 512;" xml:space="preserve">
<path style="fill:#F5F5F5;" d="M482.448,342.513L482.448,342.513l-0.033-196.822V145.6c-0.001-11.597-5.706-22.372-15.117-28.93
	c-0.82-0.571-1.657-1.122-2.531-1.627L343.555,45.089L273.6,4.715c-0.682-0.394-1.375-0.764-2.076-1.107
	c-7.549-3.712-16.1-4.554-24.11-2.553c-3.148,0.786-6.215,1.999-9.101,3.667L162.932,48.26L47.183,115.112
	c-4.094,2.364-7.598,5.481-10.379,9.116c-4.635,6.061-7.261,13.567-7.259,21.446l0.004,23.807l0,0l0.032,196.912
	c0,0.946,0.05,1.883,0.125,2.817c0.1,1.243,0.264,2.473,0.492,3.685c0.352,1.877,0.857,3.712,1.501,5.49
	c0.969,2.677,2.243,5.23,3.819,7.591c0.422,0.634,0.866,1.253,1.33,1.86c2.782,3.635,6.287,6.751,10.382,9.114l119.054,68.709
	l72.113,41.618c4.799,2.769,10.087,4.32,15.435,4.654c6.82,0.426,13.734-1.125,19.854-4.66L464.815,396.88
	c2.729-1.577,5.196-3.487,7.362-5.662c1.082-1.089,2.089-2.243,3.017-3.454c4.635-6.061,7.261-13.567,7.259-21.446L482.448,342.513z
	"/>
<path style="fill:#FF4B55;" d="M476.693,385.628c0.15-0.23,0.289-0.465,0.434-0.699c0.32-0.516,0.63-1.038,0.924-1.57
	c0.147-0.267,0.292-0.537,0.432-0.809c0.28-0.54,0.544-1.088,0.795-1.642c0.112-0.249,0.231-0.494,0.339-0.745
	c0.341-0.8,0.661-1.608,0.942-2.433c0.001-0.005,0.004-0.011,0.005-0.016c0.281-0.824,0.524-1.662,0.744-2.508
	c0.07-0.266,0.126-0.536,0.189-0.805c0.141-0.597,0.269-1.198,0.379-1.805c0.055-0.305,0.106-0.611,0.154-0.917
	c0.094-0.61,0.167-1.223,0.23-1.842c0.027-0.279,0.062-0.556,0.084-0.837c0.067-0.886,0.111-1.777,0.111-2.674c0,0,0-0.006,0-0.01
	l-0.004-23.805l-226.449-20.289l-226.423,20.29l0.004,23.88c0,0.61,0.03,1.216,0.061,1.821c0.019,0.332,0.037,0.665,0.064,0.996l0,0
	v0.005c0.1,1.24,0.264,2.466,0.491,3.675c0,0,0,0.004,0.001,0.005l0,0c0.352,1.878,0.857,3.712,1.501,5.49
	c0.481,1.331,1.04,2.631,1.672,3.892c0.051,0.102,0.11,0.201,0.162,0.302c0.269,0.524,0.545,1.045,0.841,1.555
	c0.364,0.625,0.744,1.24,1.145,1.842c0.422,0.634,0.866,1.253,1.33,1.86c0,0,0.001,0.001,0.002,0.003
	c0.616,0.806,1.282,1.576,1.968,2.328c0.172,0.189,0.347,0.376,0.525,0.562c0.704,0.739,1.428,1.458,2.198,2.137
	c0.004,0.004,0.006,0.006,0.01,0.009c0.769,0.677,1.581,1.31,2.412,1.921c0.21,0.155,0.422,0.307,0.637,0.457
	c0.846,0.594,1.711,1.166,2.617,1.69c0.005,0.003,0.009,0.005,0.012,0.009l119.054,68.709l72.113,41.618
	c0.644,0.371,1.297,0.717,1.957,1.045c0.225,0.111,0.454,0.21,0.68,0.316c0.439,0.206,0.877,0.41,1.322,0.596
	c0.275,0.116,0.554,0.221,0.831,0.33c0.402,0.157,0.805,0.311,1.211,0.452c0.299,0.104,0.6,0.202,0.901,0.299
	c0.391,0.125,0.785,0.244,1.18,0.355c0.311,0.087,0.624,0.172,0.936,0.251c0.391,0.099,0.784,0.186,1.177,0.271
	c0.317,0.069,0.634,0.139,0.952,0.197c0.401,0.075,0.805,0.136,1.208,0.197c0.31,0.047,0.62,0.1,0.931,0.139
	c0.461,0.056,0.925,0.095,1.387,0.134c0.252,0.021,0.505,0.054,0.757,0.07c0,0,0.001,0,0.003,0c0.009,0,0.018,0,0.026,0
	c0.801,0.049,1.603,0.069,2.407,0.062c0.224-0.001,0.447-0.016,0.671-0.021c0.589-0.015,1.176-0.038,1.763-0.081
	c0.281-0.021,0.562-0.054,0.844-0.082c0.529-0.052,1.056-0.112,1.582-0.189c0.306-0.045,0.611-0.098,0.916-0.15
	c0.499-0.086,0.997-0.182,1.492-0.289c0.316-0.069,0.63-0.141,0.945-0.219c0.486-0.119,0.969-0.252,1.45-0.392
	c0.312-0.091,0.625-0.182,0.936-0.282c0.485-0.156,0.966-0.33,1.445-0.509c0.296-0.11,0.595-0.214,0.889-0.332
	c0.514-0.206,1.02-0.435,1.526-0.667c0.25-0.115,0.504-0.219,0.751-0.34c0.735-0.357,1.461-0.739,2.174-1.15
	c0.012-0.006,0.025-0.013,0.037-0.02l191.129-110.391c2.729-1.577,5.196-3.487,7.362-5.662c1.082-1.088,2.089-2.243,3.017-3.454
	c0.004-0.004,0.006-0.009,0.01-0.014C475.727,387.063,476.219,386.352,476.693,385.628z"/>
<g>
	<polygon style="fill:#41479B;" points="29.576,342.513 482.448,342.513 482.421,182.093 482.419,169.481 29.548,169.481
		29.581,366.282 29.581,366.393 	"/>
	<path style="fill:#41479B;" d="M216.008,121.943c0,0-2.398,76.412-13.12,97.869c-13.273,26.375-26.616,34.066-46.47,41.176
		c-19.851-7.106-33.195-14.796-46.47-41.176c-10.72-21.46-13.123-97.863-13.12-97.869
		C134.713,104.838,178.123,104.838,216.008,121.943z"/>
</g>
<g>
	<path style="fill:#F5F5F5;" d="M173.673,227.907c-1.452-0.931-2.499-1.597-4.881-1.597c-2.376,0-3.424,0.666-4.869,1.597
		c-1.656,1.053-3.715,2.373-7.543,2.373c-3.832,0-5.891-1.318-7.546-2.379c-1.445-0.925-2.489-1.591-4.866-1.591
		s-3.42,0.666-4.866,1.591c-1.565,1.002-3.542,2.197-6.978,2.331c7.234,8.823,14.82,13.007,24.288,16.642
		c9.461-3.634,17.046-7.817,24.281-16.64C177.229,230.109,175.242,228.906,173.673,227.907z"/>
	<path style="fill:#F5F5F5;" d="M126.703,213.791c1.445,0.925,2.487,1.591,4.856,1.591c2.376,0,3.42-0.666,4.866-1.591
		c1.656-1.061,3.714-2.379,7.543-2.379c3.828,0,5.887,1.32,7.543,2.373c1.445,0.931,2.493,1.597,4.869,1.597s3.42-0.666,4.866-1.591
		c1.655-1.061,3.714-2.379,7.546-2.379c3.834,0,5.897,1.32,7.552,2.373c1.452,0.931,2.496,1.597,4.879,1.597s3.43-0.666,4.881-1.597
		c1.383-0.881,3.119-1.901,5.87-2.228c0.721-1.877,1.42-4.015,2.073-6.613l-17.772-29.619l-6.621,13.243l-13.243-26.485
		l-13.242,26.485l-6.621-13.243l-17.761,29.601c0.65,2.596,1.347,4.744,2.069,6.632
		C123.597,211.887,125.324,212.907,126.703,213.791z"/>
	<path style="fill:#F5F5F5;" d="M188.774,217.975c-1.656,1.053-3.718,2.373-7.552,2.373c-3.832,0-5.894-1.318-7.549-2.373
		c-1.452-0.931-2.499-1.597-4.881-1.597c-2.376,0-3.424,0.666-4.869,1.597c-1.656,1.053-3.715,2.373-7.543,2.373
		c-3.832,0-5.891-1.318-7.546-2.379c-1.445-0.925-2.489-1.591-4.866-1.591s-3.42,0.666-4.866,1.591
		c-1.656,1.061-3.715,2.379-7.543,2.379c-3.825,0-5.881-1.318-7.533-2.379c-0.007-0.005-0.015-0.009-0.022-0.015
		c1.297,2.356,2.596,4.52,3.888,6.482c0.967,0.53,1.977,0.877,3.668,0.877c2.376,0,3.42-0.666,4.866-1.591
		c1.656-1.061,3.714-2.379,7.543-2.379c3.828,0,5.887,1.32,7.543,2.373c1.445,0.931,2.493,1.597,4.869,1.597s3.42-0.666,4.866-1.591
		c1.655-1.061,3.714-2.379,7.546-2.379c3.834,0,5.897,1.32,7.552,2.373c1.452,0.931,2.496,1.597,4.879,1.597
		c1.716,0,2.736-0.354,3.717-0.895c1.292-1.959,2.588-4.123,3.885-6.475C188.806,217.957,188.791,217.964,188.774,217.975z"/>
</g>
<g>
	<path style="fill:#FFE15A;" d="M156.678,139.286l1.162,3.797l3.869-0.892c0.262-0.061,0.445,0.255,0.261,0.452l-2.707,2.904
		l2.707,2.904c0.184,0.197,0.001,0.514-0.261,0.452l-3.869-0.892l-1.162,3.797c-0.079,0.257-0.444,0.257-0.522,0l-1.162-3.797
		l-3.869,0.892c-0.262,0.061-0.445-0.255-0.261-0.452l2.707-2.904l-2.707-2.904c-0.184-0.197-0.001-0.514,0.261-0.452l3.869,0.892
		l1.162-3.797C156.235,139.029,156.6,139.029,156.678,139.286z"/>
	<path style="fill:#FFE15A;" d="M137.643,121.042l1.162,3.797l3.869-0.892c0.262-0.061,0.445,0.255,0.261,0.452l-2.707,2.904
		l2.707,2.904c0.184,0.197,0.001,0.514-0.261,0.452l-3.869-0.892l-1.162,3.797c-0.079,0.257-0.444,0.257-0.524,0l-1.162-3.797
		l-3.869,0.892c-0.262,0.06-0.445-0.256-0.261-0.452l2.707-2.904l-2.707-2.904c-0.184-0.197-0.001-0.514,0.261-0.452l3.869,0.892
		l1.162-3.797C137.199,120.785,137.564,120.785,137.643,121.042z"/>
	<path style="fill:#FFE15A;" d="M175.852,121.042l1.162,3.797l3.869-0.892c0.262-0.061,0.445,0.255,0.261,0.452l-2.707,2.904
		l2.707,2.904c0.184,0.197,0.001,0.514-0.261,0.452l-3.869-0.892l-1.162,3.797c-0.079,0.257-0.444,0.257-0.522,0l-1.162-3.797
		l-3.869,0.892c-0.262,0.06-0.445-0.256-0.261-0.452l2.707-2.904l-2.707-2.904c-0.184-0.197-0.001-0.514,0.261-0.452l3.869,0.892
		l1.162-3.797C175.409,120.785,175.773,120.785,175.852,121.042z"/>
</g>
<path style="fill:#FF1722;" d="M209.154,119.066c0.04,2.111,0.075,4.243,0.075,6.542c-0.955,23.889-4.51,75.915-12.256,91.581
	c-11.42,22.935-21.963,30.515-40.555,37.501c-18.592-6.984-29.134-14.563-40.546-37.483c-7.774-15.729-11.353-68.636-12.268-91.598
	c0-2.303,0.037-4.41,0.07-6.54c-2.292,0.897-4.57,1.847-6.826,2.864c0.159,4.639,1.315,35.074,4.784,61.833
	c1.957,14.938,4.649,28.707,8.317,36.046c13.274,26.38,26.618,34.069,46.47,41.176c19.854-7.109,33.197-14.803,46.47-41.176
	c3.668-7.339,6.36-21.107,8.317-36.046c3.468-26.76,4.623-57.193,4.783-61.833C213.728,120.915,211.448,119.965,209.154,119.066z"/>
<g>
</g>
<g>
</g>
<g>
</g>
<g>
</g>
<g>
</g>
<g>
</g>
<g>
</g>
<g>
</g>
<g>
</g>
<g>
</g>
<g>
</g>
<g>
</g>
<g>
</g>
<g>
</g>
<g>
</g>
</svg>
