<?xml version="1.0" encoding="iso-8859-1"?>
<!-- Generator: Adobe Illustrator 19.0.0, SVG Export Plug-In . SVG Version: 6.00 Build 0)  -->
<svg version="1.1" id="Layer_1" xmlns="http://www.w3.org/2000/svg" xmlns:xlink="http://www.w3.org/1999/xlink" x="0px" y="0px"
	 viewBox="0 0 512.001 512.001" style="enable-background:new 0 0 512.001 512.001;" xml:space="preserve">
<path style="fill:#FF4B55;" d="M29.589,366.395l-0.036-220.713c-0.003-12.607,6.722-24.257,17.639-30.562L238.315,4.731
	c10.917-6.306,24.368-6.307,35.287-0.006L464.763,115.05c10.92,6.302,17.646,17.95,17.649,30.557l0.036,220.713
	c0.003,12.607-6.722,24.257-17.639,30.563L273.685,507.271c-10.917,6.306-24.368,6.307-35.287,0.006L47.238,396.952
	C36.318,390.65,29.591,379.002,29.589,366.395z"/>
<path style="fill:#FFE15A;" d="M259.797,162.279l21.759,65.241l68.771,0.534c3.845,0.03,5.44,4.937,2.347,7.222l-55.324,40.855
	l20.744,65.571c1.16,3.666-3.014,6.699-6.143,4.464L256,306.174l-55.951,39.992c-3.129,2.236-7.303-0.797-6.143-4.464l20.744-65.571
	l-55.324-40.855c-3.094-2.284-1.5-7.192,2.347-7.222l68.772-0.534l21.759-65.241C253.421,158.631,258.581,158.631,259.797,162.279z"
	/>
<g>
</g>
<g>
</g>
<g>
</g>
<g>
</g>
<g>
</g>
<g>
</g>
<g>
</g>
<g>
</g>
<g>
</g>
<g>
</g>
<g>
</g>
<g>
</g>
<g>
</g>
<g>
</g>
<g>
</g>
</svg>
