<?xml version="1.0" encoding="iso-8859-1"?>
<!-- Generator: Adobe Illustrator 19.0.0, SVG Export Plug-In . SVG Version: 6.00 Build 0)  -->
<svg version="1.1" id="Layer_1" xmlns="http://www.w3.org/2000/svg" xmlns:xlink="http://www.w3.org/1999/xlink" x="0px" y="0px"
	 viewBox="0 0 512.001 512.001" style="enable-background:new 0 0 512.001 512.001;" xml:space="preserve">
<path style="fill:#F5F5F5;" d="M29.589,366.395l-0.036-220.713c-0.003-12.607,6.722-24.257,17.639-30.562L238.315,4.731
	c10.917-6.306,24.368-6.307,35.287-0.006L464.763,115.05c10.92,6.302,17.646,17.95,17.649,30.557l0.036,220.713
	c0.003,12.607-6.722,24.257-17.639,30.563L273.685,507.271c-10.917,6.306-24.368,6.307-35.287,0.006L47.238,396.952
	C36.318,390.65,29.591,379.002,29.589,366.395z"/>
<path style="fill:#FF4B55;" d="M308.977,176.585c-43.847-29.231-103.071-17.279-132.283,26.492
	c-14.652,21.848-8.698,51.535,13.226,66.151c21.905,14.616,51.497,8.68,66.113-13.244c14.616-21.924,44.227-27.785,66.133-13.245
	c21.942,14.616,27.842,44.303,13.206,66.151C364.605,265.039,352.788,205.816,308.977,176.585"/>
<path style="fill:#41479B;" d="M176.695,203.075c-14.652,21.848-8.698,51.535,13.226,66.151
	c21.905,14.616,51.497,8.68,66.113-13.244c14.616-21.924,44.227-27.785,66.133-13.245c21.942,14.616,27.842,44.303,13.206,66.151
	c-29.192,43.923-88.397,55.722-132.244,26.492C159.32,306.147,147.464,246.922,176.695,203.075"/>
<g>
	<path style="fill:#464655;" d="M357.527,140.542l17.333,26.053c1.457,2.189,0.867,5.145-1.317,6.607l-4.396,2.943
		c-2.193,1.468-5.161,0.877-6.626-1.32l-17.355-26.047c-1.461-2.192-0.869-5.151,1.321-6.613l4.418-2.949
		C353.099,137.752,356.064,138.345,357.527,140.542z"/>
	<path style="fill:#464655;" d="M384.269,180.712l17.39,26.037c1.468,2.198,0.869,5.172-1.337,6.631l-4.414,2.917
		c-2.191,1.447-5.139,0.854-6.598-1.33l-17.38-26.009c-1.463-2.191-0.875-5.152,1.315-6.617l4.404-2.944
		C379.84,177.931,382.805,178.521,384.269,180.712z"/>
	<path style="fill:#464655;" d="M376.084,128.157l44.135,66.236c1.461,2.192,0.869,5.154-1.323,6.616l-4.434,2.957
		c-2.193,1.462-5.155,0.87-6.617-1.323l-44.149-66.231c-1.462-2.193-0.869-5.157,1.326-6.618l4.449-2.96
		C371.663,125.371,374.623,125.965,376.084,128.157z"/>
	<path style="fill:#464655;" d="M394.593,115.79l17.371,26.104c1.463,2.198,0.862,5.167-1.341,6.623l-4.418,2.919
		c-2.192,1.448-5.142,0.852-6.599-1.333l-17.385-26.07c-1.462-2.193-0.87-5.155,1.323-6.617l4.431-2.954
		C390.168,113.001,393.132,113.595,394.593,115.79z"/>
	<path style="fill:#464655;" d="M421.354,156.044l17.345,26.05c1.458,2.191,0.869,5.149-1.32,6.611l-4.405,2.945
		c-2.193,1.467-5.161,0.875-6.623-1.322l-17.345-26.05c-1.458-2.191-0.869-5.149,1.32-6.611l4.405-2.945
		C416.924,153.255,419.891,153.847,421.354,156.044z"/>
	<path style="fill:#464655;" d="M122.74,297.058l44.129,66.163c1.462,2.192,0.871,5.154-1.32,6.616l-4.42,2.95
		c-2.192,1.463-5.156,0.872-6.618-1.321l-44.13-66.162c-1.462-2.192-0.871-5.154,1.321-6.616l4.42-2.95
		C118.313,294.274,121.276,294.866,122.74,297.058z"/>
	<path style="fill:#464655;" d="M104.213,309.435l17.325,25.988c1.46,2.189,0.871,5.147-1.316,6.612l-4.395,2.942
		c-2.192,1.467-5.157,0.879-6.622-1.316l-17.348-25.982c-1.463-2.192-0.872-5.154,1.318-6.617l4.416-2.949
		C99.787,306.649,102.751,307.24,104.213,309.435z"/>
	<path style="fill:#464655;" d="M130.987,349.619l17.346,26.053c1.458,2.191,0.869,5.149-1.32,6.611l-4.408,2.947
		c-2.193,1.466-5.16,0.875-6.622-1.321l-17.357-26.049c-1.46-2.192-0.869-5.151,1.321-6.613l4.419-2.95
		C126.56,346.83,129.525,347.423,130.987,349.619z"/>
	<path style="fill:#464655;" d="M85.685,321.806l44.102,66.167c1.46,2.191,0.87,5.15-1.318,6.613l-4.406,2.947
		c-2.192,1.466-5.157,0.875-6.621-1.318l-44.128-66.158c-1.462-2.192-0.87-5.156,1.323-6.617l4.434-2.955
		C81.261,319.021,84.224,319.614,85.685,321.806z"/>
	<path style="fill:#464655;" d="M110.389,206.754l44.123-66.217c1.462-2.194,4.426-2.787,6.619-1.322l4.419,2.949
		c2.191,1.462,2.782,4.424,1.32,6.616l-44.14,66.179c-1.458,2.187-4.411,2.782-6.603,1.331l-4.4-2.913
		C109.523,211.92,108.925,208.951,110.389,206.754z"/>
	<path style="fill:#464655;" d="M91.852,194.395l44.132-66.229c1.462-2.196,4.429-2.787,6.622-1.321l4.408,2.947
		c2.188,1.462,2.778,4.421,1.32,6.612l-44.119,66.234c-1.462,2.194-4.428,2.787-6.621,1.323l-4.419-2.95
		C90.983,199.546,90.392,196.587,91.852,194.395z"/>
	<path style="fill:#464655;" d="M73.307,182.09l44.134-66.296c1.462-2.197,4.43-2.789,6.623-1.322l4.406,2.947
		c2.187,1.462,2.778,4.419,1.321,6.609l-44.109,66.304c-1.461,2.196-4.425,2.789-6.618,1.327l-4.434-2.955
		C72.441,187.242,71.847,184.281,73.307,182.09z"/>
	<path style="fill:#464655;" d="M345.173,363.221l17.348-25.98c1.465-2.193,4.431-2.783,6.622-1.315l4.395,2.943
		c2.187,1.463,2.775,4.421,1.315,6.611l-17.324,25.987c-1.462,2.193-4.426,2.785-6.619,1.321l-4.418-2.949
		C344.3,368.376,343.709,365.413,345.173,363.221z"/>
	<path style="fill:#464655;" d="M371.928,323.172l17.374-26.11c1.461-2.194,4.425-2.789,6.618-1.327l4.428,2.952
		c2.194,1.462,2.785,4.428,1.321,6.619l-17.411,26.069c-1.46,2.186-4.413,2.779-6.603,1.327l-4.391-2.91
		C371.064,328.336,370.466,325.369,371.928,323.172z"/>
	<path style="fill:#464655;" d="M363.694,375.663l17.358-26.049c1.462-2.193,4.424-2.787,6.617-1.325l4.436,2.958
		c2.192,1.461,2.784,4.421,1.325,6.614l-17.347,26.052c-1.46,2.193-4.421,2.788-6.614,1.327l-4.448-2.96
		C362.826,380.819,362.233,377.856,363.694,375.663z"/>
	<path style="fill:#464655;" d="M390.476,335.413l17.368-25.988c1.463-2.189,4.423-2.779,6.613-1.318l4.433,2.955
		c2.194,1.463,2.785,4.428,1.321,6.621l-17.366,25.989c-1.463,2.189-4.423,2.779-6.613,1.32l-4.435-2.957
		C389.603,340.571,389.01,337.606,390.476,335.413z"/>
	<path style="fill:#464655;" d="M382.227,387.967l17.376-26.004c1.458-2.183,4.408-2.777,6.598-1.33l4.418,2.919
		c2.204,1.457,2.805,4.429,1.34,6.627l-17.364,26.038c-1.462,2.192-4.424,2.784-6.616,1.323l-4.431-2.954
		C381.354,393.126,380.762,390.16,382.227,387.967z"/>
	<path style="fill:#464655;" d="M409.016,347.85l17.334-26.034c1.462-2.197,4.43-2.789,6.623-1.322l4.401,2.943
		c2.189,1.463,2.778,4.424,1.317,6.614l-17.348,26c-1.46,2.187-4.414,2.782-6.604,1.328l-4.388-2.908
		C408.151,353.013,407.554,350.046,409.016,347.85z"/>
</g>
<g>
</g>
<g>
</g>
<g>
</g>
<g>
</g>
<g>
</g>
<g>
</g>
<g>
</g>
<g>
</g>
<g>
</g>
<g>
</g>
<g>
</g>
<g>
</g>
<g>
</g>
<g>
</g>
<g>
</g>
</svg>
