<?xml version="1.0" encoding="iso-8859-1"?>
<!-- Generator: Adobe Illustrator 19.0.0, SVG Export Plug-In . SVG Version: 6.00 Build 0)  -->
<svg version="1.1" id="Layer_1" xmlns="http://www.w3.org/2000/svg" xmlns:xlink="http://www.w3.org/1999/xlink" x="0px" y="0px"
	 viewBox="0 0 512.001 512.001" style="enable-background:new 0 0 512.001 512.001;" xml:space="preserve">
<path style="fill:#82AFFF;" d="M29.589,366.395l-0.036-220.713c-0.003-12.607,6.722-24.257,17.639-30.563L238.315,4.731
	c10.917-6.306,24.368-6.307,35.287-0.006L464.763,115.05c10.92,6.302,17.646,17.95,17.649,30.557l0.036,220.713
	c0.003,12.607-6.722,24.257-17.639,30.563L273.685,507.271c-10.917,6.306-24.368,6.307-35.287,0.006L47.238,396.952
	C36.318,390.65,29.591,379.002,29.589,366.395z"/>
<g>
	<path style="fill:#F5F5F5;" d="M256.001,330.354c50.851,0,92.221-41.372,92.221-92.221s-41.37-92.221-92.221-92.221
		s-92.221,41.372-92.221,92.221C163.78,288.983,205.15,330.354,256.001,330.354z M266.521,155.558l7.927-2.92
		c11.186,2.412,21.587,6.946,30.742,13.195c-0.787-0.079-2.868-0.292-3.227-0.412c-0.444-0.147-1.13,2.824-1.13,2.824l3.638,1.447
		l0.992-3.654c3.778,2.599,7.305,5.522,10.625,8.668l-5.347,5.347h-0.945l-0.769-3.018l-2.925-5.259l-10.333-3.725l-7.146,3.459
		l4.055,8.78c-9.993-6.36-21.718-10.18-34.311-10.612V157.44l7.282,2.299l-3.027-5.336l-4.255,1.821v-5.464
		c3.16,0.085,6.272,0.344,9.34,0.757l-3.577,1.192L266.521,155.558z M314.378,223.06l1.741-0.737l0.439-4.284
		c1.866,5.608,2.942,11.558,3.169,17.731h-16.038l0.591-2.562l4.533-0.394l3.751-6.388l-0.106-1.198l-3.843,4.926l-2.347,0.576
		l-1.496-1.758l1.76-2.99l-3.828-2.824l-3.44,3.015c-0.926-3.343-2.188-6.546-3.82-9.529l1.866-0.679l1.496-0.892l-0.012-1.76
		l0.96-1.193l-0.555-0.34c-0.41,0.195-2.549,0.816-2.549,0.816l-0.742,2.408l-1.065,0.647c-1.57-2.701-3.414-5.214-5.492-7.52
		l8.844-8.844l0.076,0.125l2.154-1.295l-0.334-0.729l2.628-2.628c5.926,6.378,10.553,13.951,13.491,22.331l-2.201-3.272
		l-1.135,0.424L314.378,223.06z M302.719,281.506l-4.784-4.784l-1.806-4.786l-0.928,2.052l-1.851-1.851l1.897-5.816l-1.228-4.22
		l-0.089,0.011c1.3-2.048,2.472-4.185,3.432-6.439l0.022-0.002c0.296,0,1.38-1.38,1.38-1.38l2.661,0.295l6.877-2.718l-2.641-2.504
		l-1.555-1.388l-1.205-2.453l-2.156-3.751c0.034-0.421,0.042-0.849,0.065-1.273h18.917
		C319.143,256.313,312.806,270.649,302.719,281.506z M210.925,278.481l2.368-4.138l-5.097-17.815l-4.02-9.921l3.645-1.577
		l0.985-2.955l2.462-0.071c0.86,10.011,5.025,19.07,11.386,26.133l-10.443,10.443L210.925,278.481z M216.615,234.809l-0.051,0.961
		h-0.642c0.021-0.364,0.025-0.732,0.055-1.093L216.615,234.809z M277.325,272.149l-0.81-0.44l-10.316,3.989l-5.346-2.058
		l-2.488,0.687v-3.4l2.574-0.777l1.561,0.376l3.285,1.286l-1.981-3.622l4.245,3.558l2.036,0.465l-0.62-2.714l1.381-4.486l4.81-2.934
		l0.416,2.701l-5.867,3.189l1.126,2.246l6.103-1.232l0.096,3.044C277.464,272.066,277.394,272.106,277.325,272.149z
		 M253.013,254.384l-0.184-0.394l-1.107,0.064c-1.425-0.385-2.764-0.95-4.01-1.678l4.116-0.5l1.808-4.854v7.424
		C253.431,254.417,253.216,254.421,253.013,254.384z M235.725,244.258l-4.021-0.62l2.051-3.14h1.203
		C235.104,241.793,235.356,243.043,235.725,244.258z M258.365,227.896l1.108,0.336l1.395,1.691l-2.503,2.503V227.896
		L258.365,227.896z M265.824,257.953l-1.919,2.247l-3.2,1.591l-1.072-1.879l-0.646,3.738l-0.62,0.242v-4.715
		c0.447-0.05,0.909-0.059,1.347-0.136l1.531,1.919l1.271-1.582l-0.099-1.057c0.706-0.225,1.426-0.412,2.098-0.707L265.824,257.953z
		 M264.385,233.094l-0.051,2.558l-0.092,0.116h-2.532L264.385,233.094z M265.903,241.902l3.062-0.097l1.67,1.391l-0.556,1.001
		l-2.337-1.335l-1.28,1.001l0.642,1.918l-0.026,0.085l-5.367-5.367h3.575L265.903,241.902z M263.877,249.354l-2.924-0.315
		l-2.066,5.355c-0.17,0.03-0.35,0.029-0.521,0.053v-10.605L263.877,249.354z M248.695,235.769l-0.206-0.862l-2.053,0.862h-0.909
		l0.3-1.247l1.326-1.285l-1.052-0.239l-1.093,1.555l-1.137,0.521l0.134,0.696h-1.193l0.719-2.794l2.102-1.864l4.659,4.659h-1.595
		v-0.002H248.695z M239.921,240.499l0.485,0.571l0.327-0.571h1.691l-2.199,2.379c-0.234-0.775-0.419-1.562-0.537-2.379H239.921z
		 M242.541,247.697l3.057-5.28l-0.8-0.715l1.347-0.695l0.169-0.51h2.152l-0.494,0.265l-0.205,0.709l1.666-0.114l-1.24,1.24
		l-1.261,0.265l-0.261,1.257l-3.88,3.879C242.712,247.894,242.617,247.804,242.541,247.697z M253.636,222.315l-0.883-0.136
		l0.684,2.837l0.2,0.156v7.254l-3.974-3.974l2.789-1.507l-2.519-4.174c1.173-0.465,2.418-0.764,3.704-0.95v0.494H253.636z
		 M216.311,240.499l-0.047,0.9l-0.199,1.201c-0.076-0.692-0.102-1.398-0.144-2.101H216.311z M218.625,246.113l2.942,2.957
		l2.413-1.681l5.685,4.77l6.116,1.076l1.71-4.811c0.576,1.031,1.225,2.002,1.958,2.919l-5.254,5.254l0.845-2.153l-3.128-0.509
		l1.002,3.673l0.149,0.124L226,264.794c-4.602-5.175-7.923-11.512-9.37-18.544L218.625,246.113z M242.79,254.687
		c3.053,2.442,6.761,4.03,10.846,4.489v5.469l-0.052,0.129l0.052-0.017v4.089l-1.377,0.276l-0.799,5.134l2.176-0.252v1.628
		l-3.445,0.951l-1.147,1.106c-7.485-1.315-14.249-4.699-19.703-9.551L242.79,254.687z M282.681,274.198l3.47,0.736l3.413,0.105
		l1.877,1.877l-5.733-0.209l-3.694-2.009C282.24,274.536,282.457,274.364,282.681,274.198z M286.005,264.793l-1.035-1.035
		l2.107-0.161C286.737,264.011,286.361,264.393,286.005,264.793z M291.428,219.172c-1.61,0.024-3.169,0.045-3.308,0.045
		c-0.296,0-2.614,1.982-2.614,1.982l-1.771,2.293l-0.534-2.798l1.255-2.858l-0.967-0.886l-4.335,2.759l-0.92-0.465l3.387-3.387
		l0.745,0.246l2.158-0.507l-1.097-1.543l2.578-2.578C288.091,213.82,289.931,216.385,291.428,219.172z M278.746,212.045
		l-0.207-0.662l-1.405,0.221l-0.872,1.688l-3.858,0.381c0.282,0.565,1.482,2.909,1.591,3.12l-4.785,4.785
		c-1.017-0.814-2.103-1.525-3.26-2.143l0.592-0.319l-0.704-2.376l-0.479-0.876l-2.134,2.334c-1.546-0.562-3.173-0.92-4.861-1.11
		v-19.036c9.301,0.545,17.746,4.249,24.296,10.076L278.746,212.045z M253.636,217.091c-1.527,0.172-2.997,0.49-4.409,0.968
		l0.707-1.643l-3.689,2.899l0.006,0.011c-1.233,0.642-2.386,1.392-3.463,2.253l-13.45-13.449
		c6.549-5.827,14.995-9.531,24.296-10.076v19.036h0.002V217.091z M238.688,224.166l-6.358,1.112l0.222-2.416l-5.27-1.818
		l-8.428,1.762c1.735-4.186,4.175-7.995,7.142-11.332L238.688,224.166z M218.278,224.377l2.647,0.554l-3.172,0.877
		C217.911,225.322,218.104,224.854,218.278,224.377z M211.193,235.769h-0.41l0.43-0.397
		C211.204,235.504,211.199,235.636,211.193,235.769z M216.235,281.242l9.764-9.762c5.329,4.799,11.793,8.33,18.954,10.151
		l-3.363,3.24l7.238,9.564l4.81,0.265v7.159c-12.63-0.465-24.332-4.573-34.066-11.366l1.563-1.015L216.235,281.242z M258.365,294.96
		l6.098,0.336l0.155,1.398l3.71,4.065c-3.237,0.636-6.573,0.975-9.964,1.1L258.365,294.96L258.365,294.96z M297.104,282.58
		l2.271,2.271c-1.086,1.008-2.178,2.008-3.332,2.942L297.104,282.58z M299.375,191.417l-1.385,1.385l-1.642-3.588l-2.985-1.588
		c0,0-2.78-2.453-4.228-3.964C292.809,185.907,296.236,188.502,299.375,191.417z M288.49,183.272l2.089,7.311l4.881,4.249
		l0.19,0.311l-9.647,9.646c-7.413-6.678-17.035-10.907-27.639-11.463v-18.917C269.342,174.813,279.599,177.986,288.49,183.272z
		 M253.636,193.325c-10.603,0.556-20.224,4.785-27.639,11.463l-13.37-13.37c10.858-10.089,25.194-16.426,41.009-17.009
		L253.636,193.325L253.636,193.325z M222.654,208.131c-5.067,5.626-8.741,12.513-10.458,20.152l-4.156,7.485h-15.763
		c0.584-15.814,6.921-30.15,17.008-41.008L222.654,208.131z M205.759,240.499l-4.491,9.654l-6.353-2.363l-1.192,4.229
		c-0.831-3.728-1.301-7.58-1.446-11.521h13.483v0.001H205.759z M201.023,288.382l0.734,0.65l-9.186,9.186
		c-6.342-6.692-11.613-14.379-15.603-22.805l2.443,1.427l16.293,14.497L201.023,288.382z M205.302,292.174l2.224,1.972l7.214-1.371
		c10.905,8.255,24.316,13.311,38.897,13.812v18.917c-22.333-0.601-42.571-9.582-57.723-23.943L205.302,292.174z M258.365,306.588
		c4.008-0.137,7.943-0.555,11.748-1.356l0.441,2.914l11.271,8.311l12.69-7.041l3.643-7.68l-0.239-4.752l2.397-5.622l-0.585-0.457
		c1.036-0.86,2.002-1.796,2.984-2.713l2.181,2.179l0.664,4.119l2.476-0.981l8.053,8.053c-15.152,14.361-35.39,23.342-57.723,23.943
		L258.365,306.588L258.365,306.588z M309.165,287.952l-0.452-5.384l-0.606,0.027c9.761-11.422,15.798-26.064,16.349-42.098h18.917
		c-0.601,22.331-9.582,42.568-23.941,57.72L309.165,287.952z M324.456,235.769c-0.41-11.933-3.87-23.079-9.644-32.72l8.04,7.52
		l6.452-5.541l-9.902-14.927l-6.536-5.025l0.017-0.481l6.547-6.547c14.36,15.152,23.34,35.389,23.941,57.72L324.456,235.769
		L324.456,235.769z M253.636,169.679c-17.118,0.587-32.634,7.454-44.352,18.396l-13.371-13.37
		c15.152-14.361,35.39-23.342,57.723-23.943L253.636,169.679L253.636,169.679z M205.942,191.42
		c-10.941,11.718-17.806,27.233-18.395,44.35H168.63c0.601-22.331,9.582-42.568,23.941-57.72L205.942,191.42z M187.546,240.499
		c0.241,7.031,1.535,13.785,3.748,20.128l-0.714,2.533l-18.482-0.406c-2.084-7.089-3.26-14.55-3.468-22.255L187.546,240.499
		L187.546,240.499z"/>
	<path style="fill:#F5F5F5;" d="M192.291,347.696l17.074-2.764c1.526-0.247,2.159-2.091,1.102-3.219
		c-4.106-4.388-12.268-13.475-16.995-21.209c-6.503-10.641-17.953-19.413-17.953-19.413s2.188,29.266,24.258,39.315
		c0,0-21.873-5.517-35.864-9.261s-17.82-7.864-17.82-7.864S157.018,351.242,192.291,347.696z"/>
	<path style="fill:#F5F5F5;" d="M175.344,314.984c-0.591-7.292-5.921-25.933-15.966-41.342c0,0,0.012,37.451,13.31,50.135
		c0,0-18.822-18.055-30.054-26.332c-10.516-7.748-15.173-16.553-15.173-16.553s2.825,23.665,18.129,35.469
		c10.345,7.98,33.302,13.596,33.302,13.596S175.935,322.275,175.344,314.984z"/>
	<path style="fill:#F5F5F5;" d="M139.283,287.002l11.499,9.946c1.2,1.037,3.068,0.219,3.093-1.367
		c0.062-4,0.307-10.071,1.172-13.899c1.38-6.108,3.085-25.944-3.876-40.363c0,0-8.415,25.839-1.838,47.358
		c0,0-10.332-16.427-20.888-28.868c-5.517-6.503-7.702-14.17-7.702-14.17S120.563,271.435,139.283,287.002z"/>
	<path style="fill:#F5F5F5;" d="M136.128,261.549c0.901,1.216,2.772,0.958,3.287-0.464c1.512-4.171,4.446-11.672,8.341-18.814
		c7.094-13.005,3.821-28.312,3.821-28.312s-11.388,19.521-14.69,41.214c-0.215-0.967-0.451-2.001-0.732-3.183
		c-3.125-13.139-15.283-45.914-15.283-45.914s-4.276,17.999,1.068,32.254C124.687,245.647,132.359,256.464,136.128,261.549z"/>
	<path style="fill:#F5F5F5;" d="M133.783,232.773c0.344,1.308,2.174,1.341,2.564,0.045c1.088-3.613,3.352-8.593,8.06-13.405
		c8.868-9.064,15.591-21.647,19.027-32.894c0,0-18.92,15.18-24.886,25.416c0,0,0.59-14.076-1.433-24.248
		c-1.725-8.67,1.939-17.023,1.939-17.023s-11.989,11.507-10.216,32.591C129.955,216.52,132.241,226.9,133.783,232.773z"/>
	<path style="fill:#F5F5F5;" d="M145.763,196.632c3.589-3.29,9.875-8.894,15.934-12.294c8.047-4.514,14.41-19.076,15.813-22.316
		c0,0-22.42,18.348-28.523,24.237c0,0,3.695-16.404,6.06-23.499s2.069-9.459,4.138-12.414c0,0-10.788,9.459-13.745,16.995
		c-2.429,6.195-1.963,20.276-2.294,28.049C143.085,196.798,144.726,197.583,145.763,196.632z"/>
	<path style="fill:#F5F5F5;" d="M168.447,163.647c6.306-5.124,16.356-20.1,16.356-20.1c-2.489,1.422-12.612,4.926-21.084,13.596
		c-8.474,8.67-10.247,20.493-10.247,20.493S162.141,168.771,168.447,163.647z"/>
	<path style="fill:#F5F5F5;" d="M311.633,352.031c-18.522-3.645-34.386-6.306-52.979-1.468c-0.915,0.237-1.771,0.512-2.652,0.771
		c-0.882-0.259-1.737-0.532-2.652-0.771c-18.594-4.836-34.457-2.177-52.979,1.468c-16.695,3.285-32.681,0.442-32.681,0.442
		s11.597,11.776,38.002,11.776c11.519,0,25.997-9.696,35.132-10.213c2.249-0.127,4.471,0.009,6.672,0.255
		c-19.615,8.002-28.67,20.136-28.847,20.371c-0.787,1.04-0.584,2.522,0.455,3.307c0.427,0.327,0.928,0.485,1.427,0.485
		c0.714,0,1.42-0.324,1.884-0.934c0.721-0.949,15.211-15.938,33.588-21.475c18.377,5.538,32.867,20.527,33.588,21.475
		c0.464,0.61,1.171,0.934,1.884,0.934c0.499,0,1-0.157,1.427-0.485c1.038-0.785,1.242-2.268,0.455-3.307
		c-0.177-0.235-9.232-12.369-28.847-20.371c2.202-0.245,4.423-0.381,6.672-0.255c9.135,0.516,23.612,10.213,35.132,10.213
		c26.405,0,38.002-11.776,38.002-11.776S328.328,355.315,311.633,352.031z"/>
	<path style="fill:#F5F5F5;" d="M312.224,340.404c22.07-10.05,24.258-39.315,24.258-39.315s-11.451,8.773-17.953,19.413
		c-4.726,7.734-12.888,16.822-16.994,21.209c-1.056,1.128-0.424,2.972,1.102,3.219l17.074,2.764
		c35.273,3.547,46.196-24.417,46.196-24.417s-3.83,4.12-17.82,7.864C334.097,334.887,312.224,340.404,312.224,340.404z"/>
	<path style="fill:#F5F5F5;" d="M369.37,297.447c-11.232,8.276-30.054,26.332-30.054,26.332
		c13.298-12.685,13.309-50.135,13.309-50.135c-10.045,15.41-15.375,34.051-15.966,41.342c-0.591,7.291-3.547,14.976-3.547,14.976
		s22.956-5.616,33.302-13.596c15.303-11.806,18.129-35.469,18.129-35.469S379.884,289.699,369.37,297.447z"/>
	<path style="fill:#F5F5F5;" d="M362.669,288.678c6.577-21.52-1.838-47.358-1.838-47.358c-6.962,14.419-5.256,34.254-3.876,40.363
		c0.865,3.828,1.11,9.899,1.172,13.899c0.025,1.586,1.893,2.404,3.093,1.367l11.499-9.946c18.72-15.567,18.54-41.362,18.54-41.362
		s-2.184,7.667-7.702,14.17C373.001,272.251,362.669,288.678,362.669,288.678z"/>
	<path style="fill:#F5F5F5;" d="M375.113,255.173c-3.302-21.693-14.69-41.214-14.69-41.214s-3.272,15.307,3.821,28.312
		c3.895,7.142,6.829,14.642,8.341,18.814c0.515,1.422,2.386,1.678,3.287,0.464c3.769-5.084,11.442-15.902,14.186-23.219
		c5.345-14.255,1.068-32.254,1.068-32.254s-12.158,32.775-15.283,45.914C375.564,253.173,375.328,254.206,375.113,255.173z"/>
	<path style="fill:#F5F5F5;" d="M374.887,187.688c-2.023,10.172-1.433,24.248-1.433,24.248
		c-5.965-10.236-24.886-25.416-24.886-25.416c3.437,11.246,10.16,23.828,19.027,32.894c4.709,4.814,6.972,9.792,8.06,13.405
		c0.39,1.295,2.221,1.262,2.564-0.045c1.542-5.873,3.828-16.253,4.944-29.518c1.773-21.084-10.216-32.591-10.216-32.591
		S376.611,179.018,374.887,187.688z"/>
	<path style="fill:#F5F5F5;" d="M363.014,186.26c-6.103-5.891-28.523-24.237-28.523-24.237c1.403,3.24,7.767,17.803,15.813,22.316
		c6.06,3.399,12.345,9.004,15.934,12.294c1.037,0.951,2.678,0.166,2.618-1.241c-0.331-7.774,0.135-21.854-2.294-28.049
		c-2.955-7.537-13.745-16.995-13.745-16.995c2.069,2.955,1.773,5.32,4.138,12.414C359.32,169.854,363.014,186.26,363.014,186.26z"/>
	<path style="fill:#F5F5F5;" d="M343.555,163.647c6.306,5.124,14.976,13.99,14.976,13.99s-1.773-11.823-10.247-20.493
		c-8.473-8.67-18.595-12.174-21.084-13.596C327.2,143.548,337.25,158.524,343.555,163.647z"/>
	<polygon style="fill:#F5F5F5;" points="304.919,212.389 300.9,215.036 305.187,215.707 309.872,220.888 312.496,219.198
		309.349,212.761 	"/>
	<polygon style="fill:#F5F5F5;" points="311.264,234.46 312.753,235.03 316.522,224.907 315.487,223.502 313.861,224.316
		311.274,233.478 	"/>
	<polygon style="fill:#F5F5F5;" points="273.44,217.295 272.257,216.039 269.598,219.438 270.258,220.467 	"/>
	<polygon style="fill:#F5F5F5;" points="300.671,209.39 301.388,207.076 299.01,207.56 298.337,207.75 297.63,208.694
		300.202,211.676 301.245,210.792 	"/>
	<polygon style="fill:#F5F5F5;" points="252.898,263.554 252.935,262.115 251.124,264.736 251.641,265.623 	"/>
</g>
<g>
</g>
<g>
</g>
<g>
</g>
<g>
</g>
<g>
</g>
<g>
</g>
<g>
</g>
<g>
</g>
<g>
</g>
<g>
</g>
<g>
</g>
<g>
</g>
<g>
</g>
<g>
</g>
<g>
</g>
</svg>
