<?xml version="1.0" encoding="iso-8859-1"?>
<!-- Generator: Adobe Illustrator 19.0.0, SVG Export Plug-In . SVG Version: 6.00 Build 0)  -->
<svg version="1.1" id="Layer_1" xmlns="http://www.w3.org/2000/svg" xmlns:xlink="http://www.w3.org/1999/xlink" x="0px" y="0px"
	 viewBox="0 0 512.002 512.002" style="enable-background:new 0 0 512.002 512.002;" xml:space="preserve">
<path style="fill:#F5F5F5;" d="M29.588,366.395l-0.036-220.713c-0.003-12.607,6.722-24.257,17.639-30.563L238.315,4.731
	c10.917-6.306,24.368-6.307,35.287-0.006L464.763,115.05c10.918,6.302,17.646,17.95,17.649,30.557l0.036,220.713
	c0.003,12.607-6.722,24.257-17.639,30.563L273.684,507.271c-10.917,6.306-24.368,6.307-35.287,0.006L47.237,396.952
	C36.318,390.65,29.591,379.002,29.588,366.395z"/>
<path style="fill:#73AF00;" d="M47.237,396.952l191.161,110.325c10.918,6.302,24.37,6.3,35.287-0.005L464.81,396.883
	c10.917-6.306,17.64-17.955,17.639-30.563l-0.019-110.319H29.57l0.019,110.394C29.591,379.002,36.318,390.65,47.237,396.952z"/>
<g>
	<path style="fill:#FF4B55;" d="M371.791,195.662c0,0,5.294,14.517,5.747,15.273l0.605-1.21l3.629-18.904l9.376-17.543l-2.722,0.302
		l-21.323,10.283c0,0-12.703,13.912-12.854,14.366C354.097,198.686,371.791,195.662,371.791,195.662z"/>
	<path style="fill:#FF4B55;" d="M379.302,334.489c-0.706-0.101-11.191,0.402-11.191,0.402l-3.428-11.493l-1.966-21.727l3.705-0.983
		l4.613,2.193l1.663-8.695c0,0-4.008-4.385-4.764-4.687s-9.83-2.344-9.83-2.344l-12.174-16.106l14.517-8.09l11.342-15.577
		l2.722-14.064l-2.268-11.644l-5.157-8.636c-0.076-0.246-0.135-0.437-0.135-0.437c-0.036-0.045-0.164-0.134-0.245-0.2l-0.965-1.615
		l-0.015,0.942c-2.237-1.397-6.816-3.828-8-4.42c-1.512-0.756-9.527-2.117-11.191-0.907c-1.663,1.21-9.376,4.839-10.737,7.41
		s-2.268,11.796-2.268,11.796s2.268,5.142,5.142,6.352c2.873,1.21,8.469,2.571,9.376,2.268c0.784-0.261,9.66-2.884,12.082-3.988
		l1.075,2.173l-0.454,6.201l-4.99,3.478l-9.225,3.629c0,0-14.064-3.931-14.668-3.78c-0.605,0.151-17.996-5.142-17.996-5.142
		l-16.333-3.78l5.445-2.722l14.821-1.058c0,0,2.873-16.787,3.327-17.089s10.132-8.015,10.132-8.015l8.015-1.966l-4.839-20.517
		l7.259-22.381l-18.954,5.445l-30.044,7.46l-19.155-1.21l-16.938,5.444l-10.888,9.881l-6.251,8.469l-2.218,13.51l-1.412,17.946
		l-5.242,9.88l-5.941,4.656c-0.666-1.758-3.789-8.488-3.789-8.488l7.562-1.814l-1.966-4.99l-5.294-3.931l1.663-6.05l6.05,3.327
		l1.663,1.21l1.058-6.201l-6.654-9.376l1.058-4.687l8.015,4.234l-0.907-10.888l-7.108-4.385l0.454-6.05l7.763,2.318l-0.807-5.747
		l-8.469-6.15l8.266-13.308l-10.082,0.505l-0.807-4.335l-2.622-1.008c0,0-14.014,5.948-15.022,5.747
		c-1.008-0.201-12.199-1.713-13.51-1.411c-1.311,0.302-5.948,1.512-5.948,1.512l-1.311,5.142l-8.569-1.411l-12.703-1.058
		l-3.831,4.687l6.05,2.419c0,0-1.411,10.686-1.008,11.493c0.404,0.806,4.033,6.05,4.033,6.05l-8.266,11.292l8.469,1.21l11.696-1.814
		l-0.404,2.823l15.526-1.613l-3.428,1.814l-4.436,13.308l-12.905,26.213l-4.538,23.289l-7.259-7.562l-4.839-19.962l-7.259-19.66
		c0,0-1.512-6.05-2.419-6.201c-0.907-0.151-4.839-0.907-4.839-0.907l-4.99,4.084l-6.352-0.907l-3.629,4.99l4.083,6.352
		c0,0-6.806,2.722-6.806,3.478s0.454,5.142,0.907,5.292c0.454,0.151,10.737-0.151,10.737-0.151l6.201,11.039l-4.839,12.703
		l2.419,4.839l4.234,0.605l3.931-4.536l13.61,40.68c0,0-1.058,5.294-1.814,5.747c-0.756,0.454-4.385,4.536-3.478,4.536
		s6.503,0.756,7.108,0.454s8.469-6.352,8.469-6.352s12.4-9.527,13.156-8.771c0.756,0.756,12.552,8.015,12.552,8.015l-5.445,18.752
		l-12.854,18.752l-8.015-4.84l-5.747-8.167l-4.234,1.361l-1.512,2.571l0.605,5.445c0,0-4.386,3.478-4.386,4.234
		s0.454,6.201,0.454,6.201s2.873,1.361,3.024,2.117s1.663,6.201,1.663,6.201l3.024,1.058l5.747-3.478h9.527l5.898,0.907
		l12.552-3.931l18.299,0.907l-1.663-3.478c0,0-7.41-3.78-9.981-4.536s-5.142-1.361-5.142-1.361l-1.058-5.294l17.996-21.323
		l6.654-1.361l2.268,5.596c0,0,7.46-1.814,7.46-2.419s0-7.057,0-7.663c0-0.605-1.613-5.646-1.613-5.646s-0.021-0.185-0.054-0.462
		l5.7-0.95l19.761-9.476l6.957,8.368l8.67,4.134l-10.788,19.357l-9.275,6.251l-6.654-3.024l-9.275-6.856l-3.629,2.218l0.807,6.856
		l-5.445-0.402l-2.419,4.839l4.033,5.847l-1.412,4.637c0,0,1.008,4.234,2.017,4.234c1.008,0,7.057-2.218,7.057-2.218l17.744-1.411
		l12.905-4.234l13.51,1.008c0,0,2.622-9.074,2.017-9.074s-0.807-0.202-2.419-0.202c-1.613,0-7.259,0.202-7.259,0.202l-0.201-2.017
		l4.436-8.065l17.139-14.316l5.041,1.008l1.814,2.621l5.041-3.831l-0.201-6.452l-4.436-4.637l-4.436-5.242l1.412-7.864l7.662,3.629
		c0,0,12.098,8.469,13.106,8.873c1.008,0.402,24.398,6.452,24.398,6.452l4.839,11.493l-2.419,18.148l-7.46-2.218l-7.057-9.074
		c0,0-2.017-1.008-3.024-0.807c-1.008,0.202-3.428,4.234-3.428,4.234l2.419,5.646l-3.227,1.008l-3.024,2.017l-0.605,4.234
		l2.823,2.621c0,0,0,4.839,0,5.445c0,0.605,1.613,2.823,2.218,3.024c0.605,0.201,5.242,0.806,6.352,0.706
		c1.108-0.101,9.376-3.529,9.376-3.529s15.526,0.302,15.929,0.202c0.404-0.101,13.812-3.024,13.812-3.024l7.562,1.21
		c0,0,5.041-3.831,4.839-4.335C385.049,339.328,380.008,334.589,379.302,334.489z M350.317,225.303
		c-4.083,0.454-6.201,1.663-6.503-0.605c-0.302-2.268-0.302-6.806,0.151-6.957c0.454-0.151,5.142-2.873,5.294-2.419
		c0.151,0.454,4.839,2.722,4.839,2.722l2.854,5.771C355.446,224.613,353.121,224.99,350.317,225.303z"/>
	<path style="fill:#FF4B55;" d="M144.193,188.252c0,0,1.663-8.62,2.117-8.62s6.654-2.268,6.654-2.268l-18.45-11.947
		c0,0,3.175,14.67,3.478,15.879C138.295,182.504,144.193,188.252,144.193,188.252z"/>
</g>
<g>
	<path style="fill:#464655;" d="M191.121,170.51c0.064,0.015,0.432,0.096,0.995,0.207l-0.139,0.605
		c-0.227,0.973,0.382,1.952,1.361,2.174c0.137,0.034,0.274,0.047,0.409,0.047c0.825,0,1.573-0.567,1.766-1.408l0.195-0.845
		c1.307,0.162,2.747,0.287,4.136,0.287c1.175,0,2.308-0.085,3.284-0.312c0.976-0.227,1.586-1.201,1.358-2.174
		c-0.227-0.978-1.193-1.602-2.177-1.361c-2.87,0.676-8.469-0.321-10.378-0.756c-0.957-0.227-1.947,0.382-2.174,1.361
		C189.536,169.314,190.145,170.288,191.121,170.51z"/>
	<path style="fill:#464655;" d="M370.785,199.807l4.574,13.964c0.246,0.747,0.942,1.247,1.725,1.247c0.026,0,0.052,0,0.08,0
		c0.812-0.037,1.503-0.61,1.687-1.403c3.345-14.339,10.042-37.017,14.776-40.723c0.66-0.515,0.879-1.408,0.536-2.174
		c-0.34-0.756-1.151-1.191-1.982-1.04c-0.968,0.18-23.925,4.65-39.895,28.606c-0.409,0.615-0.406,1.413,0.005,2.023
		c0.414,0.61,1.151,0.893,1.873,0.761l13.3-2.751c-1.863,4.49-3.049,8.44-3.46,9.891c-6.056-3.686-12.886-4.341-17.623-3.114
		c-5.406,1.418-9.95,4.862-12.469,9.456c-1.931,3.52-2.441,7.387-1.401,10.605c1.207,3.738,4.43,8.389,9.859,10.217
		c3.595,1.222,9.407,1.492,17.068-3.249c0,0.036,0.005,0.07,0.005,0.106c-0.052,3.024-1.605,5.491-4.62,7.339
		c-5.992,3.671-16.5,3.918-23.416,0.534c-9.12-4.453-22.834-6.987-30.494-8.137c4.75-1.515,10.492-1.941,17.394-0.36
		c0.094,0.024,0.185-0.012,0.279-0.006c0.046,0.004,0.081,0.052,0.127,0.052c0.05,0,0.089-0.054,0.14-0.057
		c0.417-0.034,0.821-0.161,1.127-0.457c0.005-0.005,0.005-0.011,0.01-0.016c0.001-0.001,0.005-0.001,0.005-0.001
		c0.009-0.009,0.006-0.02,0.013-0.027c0.292-0.305,0.422-0.696,0.459-1.106c0.009-0.099,0.02-0.174,0.012-0.271
		c-0.005-0.082,0.029-0.161,0.011-0.242c-0.021-0.104-2.032-10.406,3.504-17.505c3.327-4.268,8.769-6.597,16.174-6.933
		c0.116-0.005,0.214-0.072,0.325-0.099c0.16-0.037,0.32-0.061,0.465-0.141c0.132-0.074,0.225-0.189,0.335-0.292
		c0.091-0.086,0.206-0.139,0.28-0.246c0.016-0.023,0.018-0.05,0.033-0.074c0.013-0.02,0.036-0.029,0.049-0.05
		c0.033-0.056,0.025-0.122,0.051-0.181c0.081-0.181,0.139-0.364,0.157-0.555c0.009-0.092,0.009-0.176,0.004-0.269
		c-0.01-0.205-0.057-0.397-0.135-0.587c-0.02-0.047-0.01-0.101-0.034-0.147c-0.146-0.289-14.386-28.762,8.814-47.774
		c0.754-0.619,0.883-1.725,0.295-2.499c-0.591-0.771-1.685-0.95-2.488-0.387c-22.906,16.082-54.565,17.816-67.112,17.816
		c-22.379,0-36.519,8.426-43.229,25.755c-0.697,1.801-1.19,3.936-1.605,6.223c0.224-3.205-0.364-6.018-1.81-8.369
		c-2.066-3.352-5.224-4.755-6.644-5.242c0.001-0.822-0.005-1.637-0.03-2.436c2.451-0.377,5.361,1.526,6.32,2.333
		c0.335,0.284,0.754,0.435,1.177,0.435c0.279,0,0.56-0.066,0.817-0.199c0.652-0.331,1.045-1.016,0.992-1.743
		c-0.594-8.439-6.318-12.54-10.246-13.927c3.463-2.752,7.154-7.254,9.414-14.597c0.217-0.709-0.016-1.48-0.594-1.942
		c-0.576-0.467-1.38-0.539-2.022-0.18c-0.061,0.034-3.756,2.034-9.309,3.684l0.507-6.594c0.05-0.666-0.27-1.31-0.836-1.668
		c-0.565-0.364-1.288-0.379-1.867-0.047c-0.094,0.051-9.385,5.267-18.861,8.02c-7.152-1.798-16.462-3.198-19.991,0.477
		c-0.851,0.883-1.642,2.321-1.446,4.546c-6.09-1.271-20.068-3.35-28.553,2.136c-0.669,0.43-0.976,1.247-0.761,2.013
		c0.217,0.766,0.907,1.305,1.703,1.323c2.694,0.066,6.857,0.685,8.594,1.833c-0.766,2.066-2.032,6.441-0.926,10.662
		c-3.683,1.067-7.547,1.232-12.247-1.311l4.096-1.006c0.735-0.18,1.281-0.799,1.371-1.55c0.087-0.751-0.3-1.48-0.971-1.825
		c-0.104-0.056-10.435-5.43-19.026-14.461c-0.486-0.506-1.226-0.69-1.904-0.464c-0.671,0.231-1.146,0.832-1.215,1.536
		c-0.074,0.727-1.615,17.898,11.424,28.076c0.326,0.25,0.721,0.382,1.117,0.382c0.249,0,0.496-0.052,0.732-0.156
		c0.61-0.269,1.026-0.851,1.077-1.517l0.505-6.484c6.504,3.895,11.891,3.522,16.51,2.118c0.579,0.883,1.316,1.725,2.244,2.496
		c0.149,0.124,0.354,0.259,0.561,0.394c-2.969,6.952-8.865,8.743-9.117,8.811c-0.735,0.212-1.262,0.86-1.313,1.621
		c-0.054,0.761,0.371,1.475,1.068,1.787c0.44,0.194,9.936,4.3,20.581,0.51l-0.167,1.215c-0.071,0.51,0.08,1.03,0.419,1.422
		c0.336,0.397,0.825,0.629,1.342,0.637c0.045,0,0.165,0.005,0.355,0.005c1.222,0,5.277-0.092,9.872-1.148
		c-0.695,6.493-4.65,14.232-8.859,22.396c-5.697,11.061-12.047,23.534-11.945,36.13c-2.173-2.814-4.88-7.201-6.22-13.025
		c-0.464-2.023-0.77-3.838-1.05-5.496c-0.679-4.013-1.265-7.48-3.637-10.742c-2.682-3.686-6.474-11.914-6.31-16.408
		c0.156-4.154-2.566-6.597-5.331-7.179c-0.199-0.041-0.387,0.01-0.586-0.012c-0.655-1.32-2.428-3.845-6.503-4.136
		c-0.981-0.132-1.869,0.681-1.939,1.682c-0.071,0.997,0.681,1.867,1.68,1.938c1.421,0.1,2.303,0.642,2.844,1.185
		c-1.331,0.684-2.409,1.827-3.16,3.288c-2.429-1.4-4.884-1.751-6.762-1.321c-0.486,0.11-0.855,0.374-1.273,0.572
		c-1.228-0.641-4.503-1.862-8.448,0.647c-0.846,0.534-1.096,1.658-0.557,2.504c0.345,0.544,0.933,0.841,1.533,0.841
		c0.331,0,0.669-0.09,0.971-0.284c1.408-0.895,2.612-1.011,3.494-0.898c-0.647,1.198-1.013,2.519-0.951,3.749
		c0.125,2.443,1.538,4.339,3.721,5.142c-2.604,0.496-4.811,1.706-5.99,3.342c-0.19,0.265-0.23,0.567-0.366,0.847
		c-1.658,0.171-4.209,1.288-5.822,4.696c-0.43,0.902-0.042,1.984,0.862,2.414c0.252,0.119,0.515,0.175,0.775,0.175
		c0.681,0,1.332-0.382,1.642-1.04c0.72-1.517,1.565-2.119,2.196-2.393c1.723,5.685,7.328,4.39,10.708,3.599l1.353-0.307
		c1.894-0.379,5.236,5.156,6.135,8.748c0.624,2.496-0.445,5.548-3.809,10.888c-2.044,3.252-1.456,5.605-0.6,7.008
		c0.017,0.029,0.045,0.044,0.062,0.071c-0.542,0.162-1.212,0.281-2.116,0.161c-0.976-0.199-1.909,0.557-2.044,1.55
		c-0.135,0.992,0.56,1.909,1.552,2.042c0.464,0.066,0.9,0.095,1.313,0.095c2.111,0,3.517-0.721,4.361-1.31
		c1.18,0.505,2.396,0.695,3.293,0.625c2.502-0.207,4.196-2.401,5.342-5.122c3.339,18.407,11.011,35.5,12.344,38.383
		c-0.27,6.522-7.308,8.053-7.613,8.119c-0.782,0.161-1.368,0.812-1.441,1.612c-0.074,0.794,0.377,1.541,1.116,1.843
		c3.063,1.252,5.742,1.753,8.069,1.753c7.179,0,10.973-4.735,12.169-6.559c5.301-1.847,11.517-6.17,13.942-7.938
		c4.045,3.03,7.408,4.711,8.533,5.237c-1.954,19.242-13.236,32.24-16.537,35.649c-2.236-1.281-7.172-4.443-8.803-8.209
		c-1.542-3.56-4.401-4.563-6.734-4.354c-0.784-1.012-2.541-2.899-5.007-3.17c-1.212-0.127-3.05,0.095-4.92,1.966
		c-0.709,0.709-0.709,1.857,0,2.566c0.706,0.709,1.854,0.714,2.566,0.005c1.026-1.026,1.723-0.965,1.949-0.931
		c0.699,0.074,1.375,0.58,1.908,1.101c-1.322,1.127-2.142,2.706-2.009,4.429c0.094,1.21,0.547,2.348,1.187,3.407
		c-1.322,0.689-2.914,1.817-3.964,3.602c-0.037,0.064-0.08,0.166-0.12,0.236c-2.167,0.137-6.066,1.668-6.674,6.716
		c-0.119,0.997,0.591,1.899,1.586,2.018c0.076,0.01,0.146,0.014,0.22,0.014c0.905,0,1.69-0.676,1.801-1.597
		c0.217-1.808,1.092-2.678,1.913-3.113c-0.021,0.745,0.041,1.52,0.307,2.328c0.626,1.904,2.107,3.449,4.316,4.65
		c-0.234,0.745-0.385,1.537-0.406,2.394c-1.167,0.589-2.887,1.687-3.769,3.555c-0.66,1.395-0.7,2.954-0.12,4.514
		c0.271,0.732,0.963,1.181,1.701,1.181c0.21,0,0.425-0.037,0.634-0.114c0.941-0.35,1.418-1.395,1.068-2.334
		c-0.316-0.846-0.154-1.371-0.003-1.692c0.267-0.572,0.801-1.051,1.346-1.425c0.672,1.207,1.69,2.129,3.049,2.578
		c0.621,0.204,1.267,0.302,1.914,0.302c2.159,0,4.348-1.092,5.751-2.992c1.68-2.278,4.967-0.973,5.18-0.884
		c6.872,2.496,16.156,0.615,21.774-2.543c3.117-1.753,14.097-0.809,20.291,0.207c0.485,0.066,1-0.052,1.398-0.35
		c0.397-0.307,0.65-0.761,0.7-1.262c0.626-6.267-7.48-7.93-13.996-9.267c-1.775-0.364-3.464-0.709-5.056-1.39
		c-0.636-3.676,8.918-17.06,18.02-23.752c2.231-1.64,4.026-2.297,4.927-1.815c1.286,0.704,1.695,3.984,1.565,5.978
		c-0.004,0.052,0.027,0.097,0.027,0.15c0.002,0.199,0.039,0.389,0.109,0.58c0.03,0.081,0.051,0.157,0.092,0.232
		c0.025,0.049,0.027,0.101,0.057,0.147c0.104,0.16,0.245,0.276,0.385,0.391c0.027,0.022,0.037,0.06,0.066,0.081
		c0.006,0.005,0.015,0.004,0.015,0.004c0.235,0.167,0.494,0.266,0.767,0.311c0.07,0.011,0.135,0,0.206,0.004
		c0.202,0.01,0.399-0.011,0.599-0.071c0.047-0.013,0.096,0.001,0.142-0.016c0.147-0.057,0.307-0.139,0.457-0.2
		c0.967-0.496,2.608,0.057,3.755,0.645c-0.214,0.661-0.342,1.353-0.281,2.102c0.076,0.936,0.366,1.867,0.82,2.759
		c-1.798-0.204-3.48,0-4.697,0.936c-0.435,0.334-0.777,0.754-1.123,1.167c-2.554,0.252-5.75,1.862-6.508,5.666
		c-0.196,0.983,0.44,1.938,1.422,2.136c0.12,0.024,0.241,0.033,0.359,0.033c0.846,0,1.605-0.596,1.777-1.461
		c0.182-0.909,0.647-1.458,1.16-1.872c-0.015,0.662,0.055,1.318,0.251,1.938c0.355,1.122,1.313,2.797,3.753,3.733
		c-0.22,0.374-0.409,0.771-0.576,1.177c-1.816,0.584-4.553,2.467-4.553,6.466c0,1.002,0.814,1.815,1.814,1.815
		c1.001,0,1.814-0.814,1.814-1.815c0-0.706,0.175-1.218,0.406-1.642c0.059,0.262,0.1,0.532,0.194,0.777
		c0.44,1.148,1.761,3.304,5.461,3.304c1.22,0,2.694-0.231,4.48-0.814c4.331-1.403,7.4-1.55,10.368-1.697
		c3.549-0.17,6.902-0.335,11.612-2.519c6.786-3.152,15.191-2.084,19.596-1.162c2.387,0.491,4.721-0.681,5.683-2.869
		c0.33-0.746,0.546-1.398,0.775-2.062c2.053,0.246,2.478,2.242,2.533,2.682c0.101,0.926,0.886,1.616,1.801,1.616
		c0.061,0,0.125-0.005,0.189-0.01c0.997-0.104,1.722-0.997,1.618-1.994c-0.196-1.896-1.601-5.297-5.362-5.89
		c0.047-1.287-0.202-2.347-0.834-3.128c-0.69-0.851-2.063-1.745-4.752-1.191c-2.783,0.576-4.064,0.69-4.641,0.637
		c0.087-0.355,0.292-0.983,0.772-2.056c1.621-3.649,12.384-13.27,19.432-19.031c1.7-0.382,3.854-0.406,4.353,0.161
		c0.175,0.194,0.175,0.86-0.222,1.914c-0.284,0.747-0.045,1.588,0.584,2.074c0.626,0.487,1.501,0.51,2.153,0.056
		c0.281-0.199,6.864-4.872,6.732-10.567c-0.069-2.878-1.746-5.379-4.989-7.429c-2.748-1.735-4.326-3.743-4.695-5.963
		c-0.385-2.323,0.606-4.384,1.267-5.482c2.599,1.246,5.209,2.857,7.807,5.005c15.326,12.672,28.366,14.69,35.41,14.656
		c1.477,3.264,5.816,14.404,2.113,25.844c-1.971-0.35-5.841-1.607-8.498-6.035c-2.583-4.3-5.681-5.379-7.828-5.52
		c-3.339-0.26-6.881,1.64-9.665,5.119c-0.596,0.747-0.512,1.824,0.186,2.467c0.702,0.647,1.786,0.642,2.474-0.01
		c0.464-0.44,1.326-0.973,1.697-0.685l0.376,1.048c0.201,0.581,0.406,1.167,0.652,1.735c-1.443,0.212-2.833,0.804-3.918,2.032
		c-0.715,0.81-1.165,1.745-1.49,2.708c-3.324,0.595-5.135,3.115-5.211,3.233c-0.554,0.827-0.329,1.938,0.494,2.496
		c0.31,0.212,0.664,0.316,1.013,0.316c0.579,0,1.148-0.274,1.503-0.785c0.035-0.047,0.705-0.956,1.904-1.465
		c0.15,0.684,0.395,1.345,0.769,1.947c0.626,1.01,1.516,1.686,2.524,2.046c-0.136,0.525-0.252,1.096-0.327,1.713
		c-0.039,0.013-0.079,0.008-0.117,0.023c-4.345,1.829-3.459,7.231-2.384,9.83c0.291,0.7,0.965,1.12,1.676,1.12
		c0.231,0,0.465-0.047,0.69-0.137c0.926-0.382,1.368-1.441,0.99-2.368c-0.014-0.034-1.033-2.702-0.377-4.221
		c0.018,0.041,0.021,0.084,0.04,0.124c0.751,1.697,2.199,2.907,4.188,3.502c0.978,0.292,1.914,0.416,2.809,0.416
		c2.97,0,5.491-1.375,7.613-2.538c1.652-0.902,3.214-1.73,4.445-1.645c0.896,0.085,1.921,0.246,3.045,0.421
		c4.244,0.661,10.061,1.56,15.834-0.297c1.075-0.345,2.048-0.68,2.939-0.987c4.69-1.607,6.443-2.207,9.31-0.576
		c3.472,1.984,7.947,0.652,10.252-1.782c0.722-0.764,1.138-1.613,1.362-2.474c1.183,0.471,2.143,0.981,2.297,1.265
		c-0.337,0.945,0.154,1.981,1.098,2.321c0.201,0.071,0.406,0.104,0.61,0.104c0.745,0,1.443-0.464,1.708-1.205
		c0.34-0.95,0.257-1.928-0.234-2.827c-1.2-2.184-4.711-3.357-6.469-3.823c-2.904-3.946-7.332-5.175-14.646-4.018
		c-0.291,0.042-0.517-0.01-0.769-0.217c-2.671-2.159-3.259-13.379-3.608-20.076c-0.281-5.359-0.472-8.469-1.295-9.962
		c0.421-0.345,2.717-0.387,4.149,0.657c0.69,0.51,0.759,0.968,0.594,1.488c-0.029,0.076-0.054,0.146-0.08,0.217
		c-0.355,0.926,0.104,1.971,1.028,2.334c0.924,0.355,1.971-0.08,2.347-1.002c0.055-0.127,0.101-0.26,0.144-0.387
		c0.647-1.838,3.299-10.165,0.175-15.44c-1.403-2.368-3.689-3.78-6.796-4.201c-7.915-1.067-13.949-6.125-18.005-14.938
		c6.146-2.159,24.238-10.36,27.621-32.996c2.247-15.047-3.145-23.474-8.067-27.892c-0.235-0.211-0.49-0.372-0.73-0.572
		c0.142-0.185,0.324-0.336,0.387-0.576C367.365,209.662,368.608,205.086,370.785,199.807z M357.972,196.573
		c10.342-13.459,23.026-19.452,29.887-21.872c-4.499,8.105-8.785,23.265-11.021,31.924l-3.776-11.531
		c-0.015-0.045-0.061-0.064-0.079-0.107c1.106-2.184,2.352-4.299,3.724-6.083c0.61-0.794,0.461-1.933-0.334-2.543
		c-0.796-0.615-1.933-0.464-2.544,0.331c-1.713,2.227-3.223,4.869-4.525,7.537L357.972,196.573z M143.125,185.78
		c-5.591-5.922-7.047-13.606-7.379-18.275c4.782,4.433,9.607,7.75,12.861,9.774l-2.89,0.71c-0.552-0.442-1.095-0.854-1.672-1.372
		c-0.74-0.666-1.886-0.6-2.562,0.137c-0.671,0.747-0.61,1.896,0.137,2.567c0.647,0.582,1.263,1.03,1.891,1.528L143.125,185.78z
		 M280.011,245.642c-3.392-9.051-13.628-30.718-38.704-48.847c0.02-0.053,0.033-0.122,0.052-0.174
		c0.321-0.831,0.742-1.547,1.102-2.332c37.967,9.702,61.077,25.487,70.308,32.835C293.909,225.734,283.931,238.725,280.011,245.642z
		 M321.112,209.758c-4.009,5.151-4.707,11.428-4.63,15.666c-8.325-6.971-31.728-23.933-72.426-34.459
		c0.526-0.913,1.157-1.707,1.746-2.549c0.131,0.031,0.257,0.077,0.396,0.086c50.075-2.152,78.012,8.601,88.245,13.669
		C328.703,203.333,324.179,205.816,321.112,209.758z M281.206,173.181c11.068,0,36.621-1.328,58.66-12.249
		c-9.46,14.249-6.06,30.243-3.387,38.145c-10.148-5.199-37.635-15.996-87.768-14.267
		C255.943,177.063,266.636,173.181,281.206,173.181z M238.641,211.848c0.452-4.103,0.902-8.003,1.615-11.291
		c24.1,17.865,33.806,39.459,36.677,47.29c-5.918-1.327-11.281-0.897-15.902,1.486c-3.781,1.953-6.419,4.821-8.229,7.449
		c-0.806-9.131-3.821-25.427-14.833-38.257c-0.035-0.041-0.085-0.059-0.122-0.096C238.143,216.221,238.404,214.01,238.641,211.848z
		 M236.349,267.249c-8.434-1.966-11.975-10.463-12.138-10.865c-0.222-0.549-0.697-0.96-1.273-1.092
		c-0.137-0.029-0.274-0.047-0.411-0.047c-0.442,0-0.875,0.165-1.212,0.467c-6.058,5.449-13.471,6.886-17.172,7.264
		c2.925-9.187,11.151-13.96,22.216-20.383l0.51-0.297c2.758-1.601,4.749-4.031,6.305-6.891c-0.001,4.566,0.244,9.655,1.082,13.936
		c0.17,0.865,0.928,1.465,1.78,1.465c0.116,0,0.234-0.01,0.352-0.034c0.983-0.194,1.623-1.148,1.432-2.132
		c-1.816-9.261-0.666-23.191-0.499-25.068c10.555,14.247,11.952,32.227,12.109,38.09c-6.191-1.071-9.641-5.882-9.677-5.932
		c-0.337-0.491-0.893-0.785-1.486-0.785h-0.008c-0.591,0-1.143,0.284-1.485,0.766C234.091,259.512,235.137,264.196,236.349,267.249z
		 M229.922,217.599c-1.406-1.73-3.298-3.633-5.17-4.469c0.424-1.691,0.82-3.49,1.181-5.38
		C227.876,209.345,230.815,212.63,229.922,217.599z M221.747,224.086c0.544,0.079,3.851,0.719,5.224,4.965
		c-1.54-0.265-3.35-0.125-5.177,0.859C221.503,228.207,221.445,226.266,221.747,224.086z M228.228,233.393
		c0.525,0.404,1.222,0.454,1.819,0.195c-1.053,1.954-2.376,3.57-4.004,4.785c-0.89-0.898-2.198-2.503-3.184-4.83
		C225.547,231.582,227.959,233.198,228.228,233.393z M234.484,206.639c0.634-0.164,1.123-0.665,1.288-1.3
		c-0.265,1.974-0.506,4.005-0.739,6.111c-0.76,6.901-1.588,14.374-3.94,20.045c-0.666-7.627-5.643-10.432-8.559-10.941
		c0.155-0.526,0.296-1.046,0.494-1.595c0.257-0.717,0.512-1.487,0.761-2.301c1.658,1.046,3.95,3.878,5.234,5.85
		c0.337,0.52,0.91,0.827,1.522,0.827c0.042,0,0.085,0,0.127-0.005c0.66-0.047,1.241-0.449,1.517-1.045
		c4.344-9.342-1.503-16.003-5.573-18.517c0.102-0.665,0.205-1.33,0.297-2.004c2.359,1.108,4.876,3.39,5.783,4.36
		c0.347,0.374,0.83,0.576,1.326,0.576C234.176,206.702,234.33,206.682,234.484,206.639z M231.471,195.066
		c1.035,1.682,1.47,3.753,1.305,6.182c-1.473-1.223-3.419-2.546-5.412-3.249c0.215-2.063,0.375-4.133,0.467-6.177
		C228.933,192.371,230.417,193.358,231.471,195.066z M232.782,182.736c-1.49-0.651-3.283-1.092-5.121-0.891
		c-0.185-2.019-0.48-3.898-0.891-5.597C228.677,177.145,231.417,179.019,232.782,182.736z M221.071,155.761l-0.35,4.544
		c-2.815,0.627-5.912,1.097-9.195,1.175c-0.491-0.17-1.177-0.4-1.974-0.657C214.225,159.095,218.421,157.109,221.071,155.761z
		 M168.039,185.095c-0.374-0.312-0.702-0.642-0.987-0.987c0.357-0.141,0.711-0.284,1.058-0.421c2.519-1.011,4.896-1.966,7.183-2.093
		c5.14-0.316,6.639,1.716,6.976,2.339c0.342,0.637,0.289,1.201,0.085,1.48c-0.856,1.162-2.226,1.862-4.076,2.088
		C174.051,187.982,169.02,185.912,168.039,185.095z M180.79,196.607c-0.549-0.397-1.271-0.459-1.869-0.146
		c-6.226,3.109-12.422,2.717-16.357,1.933c2.363-1.611,5.132-4.31,6.984-8.573c2.122,0.769,4.759,1.39,7.365,1.39
		c0.605,0,1.207-0.037,1.801-0.109c2.84-0.345,5.109-1.57,6.562-3.535c1.095-1.488,1.165-3.544,0.185-5.359
		c-0.761-1.408-3.292-4.655-10.366-4.235c-2.885,0.156-5.655,1.267-8.334,2.344c-0.43,0.17-0.86,0.345-1.287,0.51
		c-0.973-4.296,1.2-9.031,1.231-9.093c0.27-0.576,0.22-1.252-0.132-1.782c-1.008-1.517-3.018-2.462-5.13-3.053
		c9.782-2.046,22.341,1.332,22.495,1.375c0.671,0.175,1.376-0.019,1.833-0.539c0.459-0.51,0.589-1.238,0.336-1.881
		c-0.73-1.838-0.764-3.119-0.099-3.809c2.822-2.939,16.103-0.034,24.627,2.963c0.204,0.071,0.43,0.052,0.631,0.104
		c8.398-0.132,15.737-2.533,20.082-4.329c-4.905,10.652-13.249,12.15-13.641,12.217c-0.985,0.156-1.658,1.077-1.507,2.066
		c0.151,0.992,1.08,1.687,2.069,1.522c0.191-0.031,1.966-0.339,4.38-1.501c3.594,9.941,0.78,32.044-3.038,42.643
		c-4.27,11.867,0.466,19.402,3.368,22.638c-11.462,6.668-20.422,12.334-22.931,23.975c-0.004,0.01-0.012,0.018-0.015,0.027
		c-0.06,0.19-0.674,2.229-1.382,5.867c-4.443-2.952-12.72-15.068-8.264-29.269c1.215-3.875,2.642-7.665,4.021-11.333
		c4.101-10.888,7.964-21.18,5.089-30.82c1.122-0.805,2.174-1.707,3.083-2.767c3.164-3.686,4.27-8.398,3.287-14.007
		c-0.17-0.992-1.108-1.663-2.101-1.475c-0.985,0.17-1.647,1.111-1.472,2.098c0.796,4.551-0.01,8.152-2.464,11.016
		c-4.745,5.538-14.392,6.682-18.61,6.914l0.312-2.268C181.622,197.66,181.336,196.999,180.79,196.607z M197.08,279.352
		c-3.125,3.82-9.469,8.903-11.932,10.822c-2.274-2.168-4.551-4.742-6.559-7.759c9.285-1.575,14.858-7.338,16.948-10.01
		c0.696,0.591,1.358,1.067,1.943,1.38c0.17,0.091,0.351,0.1,0.53,0.132c-0.245,1.555-0.475,3.317-0.695,5.242
		C197.238,279.227,197.148,279.271,197.08,279.352z M174.995,246.277c1.461,0.411,5.251,1.378,8.749,1.378
		c0.64,0,1.213-0.117,1.814-0.192c-0.129,2.234-0.02,4.385,0.294,6.431c-2.894,1.883-9.636,2.042-13.279,1.886
		C173.062,252.604,173.898,249.427,174.995,246.277z M179.537,235.446c1.337,0.32,3.959,0.854,6.608,0.854
		c0.687,0,1.371-0.041,2.036-0.127c-0.426,1.231-0.864,2.451-1.258,3.709c-0.416,1.328-0.705,2.632-0.936,3.921
		c-0.014,0.002-0.026-0.001-0.04,0.001c-2.693,0.665-7.316-0.296-9.676-0.94C177.273,240.361,178.365,237.881,179.537,235.446z
		 M183.685,227.197c0.47-0.911,0.931-1.812,1.392-2.713c1.58,0.38,4.694,1.095,6.874,1.365c-0.311,0.834-0.617,1.66-0.939,2.511
		c-0.482,1.28-0.967,2.597-1.451,3.908c-0.225-0.019-0.457-0.001-0.686,0.072c-2.151,0.664-5.511,0.21-7.687-0.242
		C182.023,230.439,182.859,228.799,183.685,227.197z M189.442,215.355c1.307,0.495,3.398,1.152,5.51,1.152
		c0.066,0,0.126-0.029,0.192-0.03c-0.547,1.898-1.203,3.854-1.913,5.85c-1.011-0.012-3.974-0.6-6.477-1.181
		C187.725,219.183,188.625,217.252,189.442,215.355z M191.949,208.42c1.026,0.072,1.976,0.12,2.779,0.12
		c0.791,0,1.422-0.052,1.996-0.122c-0.126,1.41-0.327,2.839-0.639,4.301c-1.377,0.407-3.628-0.121-5.296-0.737
		C191.234,210.775,191.622,209.588,191.949,208.42z M174.904,259.461c3.475,0,8.338-0.396,11.696-1.957
		c0.471,1.717,1.065,3.335,1.742,4.842c-6.235,4.333-13.2,5.329-15.664,5.533c-0.271-1.501-0.467-3.053-0.56-4.671
		c-0.072-1.267-0.024-2.539,0.05-3.813C172.872,259.428,173.8,259.461,174.904,259.461z M190.028,265.583
		c0.936,1.592,1.934,3.015,2.937,4.209c-1.543,2.046-6.984,8.299-16.357,9.314c-1.25-2.329-2.304-4.881-3.089-7.65
		C176.682,271.145,183.584,269.922,190.028,265.583z M196.218,200.759c0.325,1.313,0.511,2.649,0.579,4.005l0,0
		c-0.461,0.147-2.182,0.162-4.041,0.064c0.149-0.931,0.235-1.846,0.272-2.749C194.105,201.708,195.174,201.266,196.218,200.759z
		 M171.781,301.701c-0.47,0.151-0.862,0.482-1.082,0.921c-0.149,0.297-3.223,6.271-11.333,5.104
		c2.869-1.891,5.496-5.071,5.496-9.934c0-0.269-0.059-0.534-0.175-0.775c-0.119-0.25-11.923-25.431-13.543-47.953
		c-0.069-0.945-0.854-1.677-1.801-1.682h-0.009c-0.943,0-1.73,0.724-1.808,1.663c-0.47,5.666-2.347,12.093-4.291,12.254
		c-0.716,0.076-2.391-0.464-3.019-1.498c-0.467-0.77-0.274-1.843,0.572-3.185c3.302-5.246,5.289-9.58,4.258-13.705
		c-0.862-3.454-4.896-12.538-10.405-11.422l-1.437,0.326c-4.681,1.111-5.886,0.875-6.467-1.243c-0.144-0.53-0.066-0.96,0.251-1.398
		c0.794-1.106,2.825-1.933,5.059-2.061c4.19-0.227,5.86,1.56,5.905,1.612c0.552,0.671,1.496,0.851,2.257,0.449
		c0.761-0.406,1.132-1.295,0.884-2.122c-0.071-0.231-1.787-5.685-9.081-6.573c-1.637-0.199-2.032-1.252-2.077-2.093
		c-0.071-1.395,0.81-3.048,2.411-3.412c2.868-0.637,8.22,1.796,10.541,11.073c0.244,0.979,1.25,1.541,2.199,1.323
		c0.973-0.246,1.565-1.228,1.321-2.202c-1.187-4.749-3.112-8.003-5.262-10.197c0.037-0.067,0.094-0.117,0.124-0.19
		c0.87-2.212,2.661-2.671,3.955-2.411c1.236,0.26,2.531,1.313,2.451,3.493c-0.225,6.011,4.528,15.278,6.999,18.676
		c1.872,2.571,2.342,5.355,2.992,9.211c0.29,1.72,0.61,3.602,1.092,5.703c2.407,10.472,8.73,16.817,10.218,18.196
		c1.964,12.597,9.06,21.392,15.564,26.989C181.736,296.625,176.166,300.333,171.781,301.701z M187.905,292.629
		c2.096-1.648,5.787-4.665,8.88-7.68c-0.26,3.535-0.451,7.418-0.467,11.828c-0.002,0.515-0.045,1.006-0.06,1.515
		C194.462,297.327,191.354,295.479,187.905,292.629z M300,280.534l3.16-9.36c3.09,1.097,6.003,2.353,8.741,3.727l-6.037,8.426
		C303.946,282.203,301.989,281.274,300,280.534z M296.528,279.46c-1.696-0.435-3.41-0.756-5.147-0.923l1.175-10.24
		c0.422,0.079,0.855,0.124,1.273,0.214c2.028,0.437,3.974,0.967,5.877,1.542L296.528,279.46z M287.744,278.383
		c-1.791,0.016-3.6,0.179-5.427,0.469l-0.997-11.467c2.566-0.035,5.124,0.074,7.644,0.357L287.744,278.383z M277.692,267.535
		l1.047,12.047c-1.873,0.476-3.764,1.116-5.666,1.873l-3.203-13.066C272.438,267.994,275.051,267.7,277.692,267.535z
		 M272.107,302.398c-1.456-0.512-2.82-1.207-4.11-1.979l6.488-12.313c0.152,0.174,0.317,0.321,0.444,0.532
		c0.645,1.087,0.742,2.519,0.289,4.258C274.611,295.209,273.531,298.614,272.107,302.398z M264.064,290.33
		c2.246-1.497,4.715-2.934,7.35-4.183l-6.442,12.227c-2.478-1.918-4.4-3.921-5.487-5.171
		C260.999,292.302,262.527,291.355,264.064,290.33z M266.284,268.998l3.417,13.94c-1.751,0.844-3.512,1.806-5.281,2.884
		l-5.256-15.246C261.434,269.996,263.827,269.467,266.284,268.998z M255.653,271.526l5.538,16.067
		c0.025,0.072,0.096,0.104,0.129,0.171c-2.213,1.448-4.401,2.743-6.552,3.935l-5.366-18.215
		C251.313,272.837,253.397,272.172,255.653,271.526z M245.971,274.689l5.516,18.726c0.004,0.013,0.019,0.019,0.022,0.033
		c-2.409,1.233-4.72,2.324-6.844,3.244l-6.001-18.73c0.076-0.13,0.161-0.299,0.235-0.421
		C239.893,277.094,242.407,276.001,245.971,274.689z M236.353,282.637l4.949,15.447c-3.778,1.5-6.728,2.454-8.197,2.892
		C232.162,294.974,234.135,287.866,236.353,282.637z M235.285,315.836c1.228-2.954,0.865-6.592-1.111-11.111
		c-0.035-0.08-0.071-0.16-0.104-0.246c3.045-0.89,11.953-3.798,22.201-9.455c1.831,2.217,7.248,8.14,14.51,10.741
		c-4.123,10.086-10.28,21.39-16.482,22.395c-5.199,0.822-8.013-2.278-10.73-5.297c-2.371-2.628-5.061-5.605-8.88-3.592
		c-0.297,0.157-0.521,0.359-0.781,0.537c-0.296-0.172-0.704-0.385-1.186-0.606C233.765,318.292,234.704,317.235,235.285,315.836z
		 M296.728,291.242c0.531,3.303,2.666,6.158,6.345,8.488c2.148,1.356,3.257,2.849,3.297,4.438c0.042,1.697-1.066,3.464-2.321,4.896
		c-0.172-0.355-0.382-0.647-0.597-0.884c-2.316-2.571-7.35-1.413-8.339-1.153c-0.25,0.061-0.485,0.185-0.685,0.345
		c-1.859,1.512-18.254,14.957-20.777,20.633c-0.945,2.127-1.761,4.334-0.485,5.917c1.33,1.655,3.875,1.47,8.411,0.529
		c0.39-0.08,0.671-0.104,0.86-0.104c0.217,0,0.324,0,0.324,0.024c0.154,0.26,0.255,1.721-1.215,5.037
		c-0.267,0.6-0.942,0.917-1.621,0.78c-4.841-1.002-14.127-2.154-21.864,1.427c-4.066,1.886-6.938,2.023-10.26,2.183
		c-3.058,0.146-6.522,0.316-11.313,1.871c-1.103,0.355-4.764,1.398-5.432-0.34c-0.56-1.461,0.53-4.019,1.686-4.77
		c7.142,0.277,10.053,0.28,10.053,0.28c1.002,0,1.814-0.812,1.814-1.815s-0.812-1.814-1.814-1.814c-0.031,0-3.042,0-10.513-0.302
		c-1.29-0.052-3.528-0.364-4.01-1.886c-0.359-1.13,0.274-2.759,1.413-3.629c0.987-0.766,4.318,0.076,7.57,1.48
		c1.032,0.652,2.108,1.177,3.15,1.522c0.884,0.316,1.86-0.132,2.236-0.992c0.377-0.86,0.037-1.862-0.785-2.316
		c-0.645-0.359-1.698-0.912-2.97-1.48c-2.112-1.432-3.785-3.483-3.915-5.085c-0.047-0.576,0.069-1.332,1.411-2.037
		c1.165-0.61,1.999,0.052,4.493,2.812c2.894,3.209,6.848,7.567,14.007,6.446c13.941-2.259,23.755-37.576,23.847-37.93
		c0.706-2.708,0.48-5.071-0.679-7.023c-0.669-1.128-1.53-1.862-2.351-2.422c6.846-2.463,14.562-3.305,22.486-0.561
		C297.278,285.471,296.232,288.171,296.728,291.242z M308.922,285.29l6.205-8.66c2.261,1.268,4.383,2.602,6.377,3.979l-7.96,8.225
		c-0.619-0.481-1.218-0.896-1.846-1.415C310.784,286.662,309.858,285.952,308.922,285.29z M324.478,295.908l7.97-6.351
		c1.536,1.483,2.935,2.933,4.173,4.3l-6.446,4.58C328.366,297.762,326.465,296.923,324.478,295.908z M321.014,294.029
		c-1.486-0.884-3.01-1.871-4.569-2.973l8.035-8.304c1.889,1.43,3.659,2.874,5.276,4.31L321.014,294.029z M334.494,299.821
		l4.508-3.204c1.477,1.782,2.673,3.363,3.535,4.579C340.295,301.063,337.562,300.643,334.494,299.821z M372.162,238.242
		c-3.207,21.469-20.411,28.586-25.533,30.247c-4.306-9.687-11.446-17.836-16.197-20.298c-0.884-0.454-1.983-0.109-2.446,0.775
		c-0.461,0.894-0.114,1.984,0.777,2.448c3.62,1.876,10.949,9.509,15.182,19.938c4.568,11.252,11.872,17.633,21.704,18.965
		c1.978,0.265,3.337,1.068,4.159,2.448c1.205,2.032,1.143,5.085,0.701,7.769c-2.316-1.47-6.085-1.942-8.138-0.369
		c-1.281,0.978-1.647,2.533-0.983,4.159c0.449,1.101,0.657,5.052,0.857,8.875c0.579,11.063,1.313,19.763,4.949,22.708
		c1.05,0.851,2.313,1.201,3.62,0.978c7.174-1.135,9.792,0.387,11.501,3.029c0.104,0.161,0.421,0.647-0.43,1.55
		c-1.29,1.361-3.995,2.159-5.817,1.13c-4.294-2.457-7.307-1.422-12.289,0.292c-0.872,0.297-1.827,0.624-2.878,0.968
		c-4.949,1.597-10.052,0.804-14.159,0.161c-1.205-0.184-2.302-0.355-3.259-0.444c-2.339-0.222-4.47,0.941-6.533,2.069
		c-2.498,1.366-4.856,2.674-7.634,1.829c-1.29-0.387-1.708-1.035-1.914-1.493c-0.61-1.365-0.159-3.344,0.275-4.601
		c1.556-0.274,2.955-0.222,4.495-0.062c2.221,0.222,4.75,0.486,7.934-0.685c0.941-0.345,1.42-1.39,1.075-2.329
		c-0.347-0.941-1.385-1.408-2.332-1.072c-2.393,0.875-4.213,0.7-6.305,0.477c-1.907-0.194-4.058-0.411-6.642,0.274
		c-0.395,0.104-0.99,0.165-1.446-0.572c-0.6-0.964-0.575-2.745,0.655-4.135c0.945-1.072,2.777-1.04,4.469-0.681
		c0.947,0.53,2.153,0.963,3.71,1.262c0.889,0.189,1.77-0.345,2.061-1.2c0.291-0.86-0.097-1.801-0.907-2.207
		c-0.137-0.066-1.565-0.766-3.467-1.247c-1.002-0.727-1.358-1.753-1.894-3.289l-0.404-1.13c-0.241-0.642-0.551-1.13-0.889-1.498
		c0.872-0.377,1.725-0.549,2.554-0.496c1.867,0.127,3.535,1.395,4.957,3.771c4.709,7.845,12.519,7.935,12.85,7.935
		c0.754,0,1.43-0.467,1.697-1.172c5.87-15.511-1.978-30.505-2.316-31.139c-0.005-0.01-0.015-0.015-0.021-0.025
		c-0.005-0.009-0.003-0.019-0.008-0.026c-0.697-1.205-17.445-29.518-52.908-37.16c-25.546-5.525-56.415,8.889-57.717,9.509
		c-0.307,0.141-0.565,0.369-0.749,0.652c-3.671,5.676-9.795,20.737-5.281,31.054c1.538,3.517,1.904,6.295,1.087,8.265
		c-0.549,1.318-1.616,2.377-3.433,3.355c-0.244-2.268-1.026-5.222-3.36-6.508c-2.283-1.247-5.251-0.552-8.828,2.074
		c-8.466,6.225-20.546,20.926-19.445,27.293c0.27,1.565,1.25,2.676,2.758,3.128c1.458,0.435,3.254,0.809,5.144,1.196
		c3.738,0.77,8.148,1.673,10.104,3.294c-5.279-0.676-15.506-1.612-19.548,0.657c-4.769,2.684-12.965,4.395-18.672,2.329
		c-2.074-0.865-6.721-1.55-9.421,2.108c-1.007,1.366-2.588,1.74-3.608,1.395c-1.186-0.387-1.435-1.621-1.435-2.586
		c0-4.211,4.053-4.536,5.294-4.536c1.002,0,1.814-0.814,1.814-1.814c0-1.001-0.812-1.815-1.814-1.815
		c-2.779,0-5.066,0.905-6.636,2.447c-1.451-0.759-2.388-1.653-2.728-2.688c-0.465-1.413,0.204-2.878,0.645-3.625
		c0.841-1.428,2.328-2.186,3.239-2.553c2.061,1.936,4.458,3.32,5.66,3.848c0.907,0.392,1.982-0.019,2.392-0.936
		c0.401-0.917-0.019-1.989-0.936-2.392c-2.429-1.063-6.874-4.343-7.084-7.093c-0.077-1.007,0.851-1.772,1.81-2.013
		c0.692-0.175,2.436-0.312,3.485,2.113c2.653,6.138,11.283,10.458,11.649,10.638c0.255,0.127,0.53,0.189,0.804,0.189
		c0.442,0,0.877-0.161,1.22-0.467c0.769-0.7,18.842-17.391,18.946-44.698c0.062-16.507,2.358-26.803,3.209-30.078
		c3.208-0.154,11.407-1.142,18.77-6.788c2.132,3.776,7.54,11.106,17.495,11.357c0.014,0,0.031,0,0.045,0
		c0.652,0,1.255-0.355,1.578-0.921c0.331-0.586,0.312-1.305-0.047-1.867c-0.035-0.056-2.824-4.518-2.188-8.365
		c2.287,2.207,6.453,5.194,12.389,5.406h0.001h0.001c0.021,0,0.042,0,0.064,0c0.314,0,0.596-0.102,0.855-0.246
		c0.117-0.065,0.222-0.116,0.321-0.209c0.232-0.201,0.402-0.459,0.509-0.756c0.01-0.027,0.039-0.041,0.047-0.07
		c0.024-0.08,2.536-7.987,9.702-11.687c4.577-2.368,10.097-2.514,16.427-0.43c0.156,0.051,0.312,0.049,0.469,0.056
		c0.036,0.003,0.062,0.033,0.097,0.033c0.029,0,0.056-0.01,0.084-0.011c0.047-0.001,0.091-0.012,0.137-0.019
		c0.08-0.01,0.161-0.01,0.241-0.032c0.056-0.015,0.096-0.054,0.149-0.074c0.12-0.044,0.227-0.097,0.336-0.165
		c0.095-0.059,0.182-0.12,0.262-0.195c0.086-0.077,0.157-0.164,0.227-0.259c0.07-0.095,0.131-0.189,0.182-0.296
		c0.024-0.049,0.064-0.085,0.084-0.136c0.241-0.661,3.995-10.461,13.355-16.244c0.034,0.005,0.06,0.026,0.095,0.03
		c0.225,0.024,22.588,2.501,34.964,8.544c3.774,1.843,8.379,2.755,12.938,2.755c5.146,0,10.228-1.162,13.97-3.454
		c4.083-2.501,6.278-6.092,6.352-10.373c0.149-8.78-5.255-15.538-10.416-17.434c-3.237-1.186-6.355-0.472-8.324,1.933
		c-2.453,2.987-2.308,6.857,0.345,9.206c2.753,2.438,7.838,2.827,12.925-1.673c0.596,1.156,1.071,2.432,1.392,3.794
		c-5.74,3.966-11.092,5.289-15.463,3.815c-4.151-1.398-6.628-4.995-7.564-7.892c-0.735-2.273-0.321-5.099,1.13-7.745
		c2.042-3.724,5.761-6.527,10.203-7.684c4.631-1.215,12.228-0.17,17.965,4.981C369.52,217.415,374.173,224.792,372.162,238.242z
		 M355.546,221.285c-3.565,3.355-6.848,3.432-8.466,1.994c-1.191-1.053-1.17-2.698,0.055-4.183c0.726-0.884,1.623-1.182,2.496-1.182
		c0.629,0,1.245,0.156,1.775,0.35C352.84,218.795,354.283,219.844,355.546,221.285z"/>
</g>
<g>
</g>
<g>
</g>
<g>
</g>
<g>
</g>
<g>
</g>
<g>
</g>
<g>
</g>
<g>
</g>
<g>
</g>
<g>
</g>
<g>
</g>
<g>
</g>
<g>
</g>
<g>
</g>
<g>
</g>
</svg>
