<?xml version="1.0" encoding="iso-8859-1"?>
<!-- Generator: Adobe Illustrator 19.0.0, SVG Export Plug-In . SVG Version: 6.00 Build 0)  -->
<svg version="1.1" id="Layer_1" xmlns="http://www.w3.org/2000/svg" xmlns:xlink="http://www.w3.org/1999/xlink" x="0px" y="0px"
	 viewBox="0 0 511.997 511.997" style="enable-background:new 0 0 511.997 511.997;" xml:space="preserve">
<path style="fill:#F5F5F5;" d="M137.28,263.497l-33.457-181.09L90.92,89.859l-9.846,5.686l-7.159,4.135l-0.061,0.035l-3.193,1.844
	l-10.168,5.873l-1.61,0.93l-1.74,1.005l-9.957,5.751c-0.234,0.135-0.449,0.292-0.676,0.434c-0.017,0.011-0.034,0.021-0.051,0.032
	c-0.577,0.357-1.157,0.712-1.712,1.096c-0.375,0.26-0.722,0.551-1.085,0.825c-1.722,1.296-3.304,2.737-4.742,4.299
	c-0.054,0.059-0.109,0.116-0.162,0.175c-0.466,0.512-0.918,1.037-1.352,1.576c-0.441,0.547-0.887,1.091-1.295,1.663
	c-1.572,2.206-2.883,4.585-3.911,7.092c-1.715,4.179-2.652,8.706-2.651,13.371l0.007,42.41l0.005,27.164l0.014,81.478v0.014v0.005
	l0.005,27.159l0.007,42.478v0.006c0,0.916,0.049,1.824,0.119,2.729c0.019,0.241,0.042,0.482,0.066,0.724
	c0.075,0.757,0.171,1.508,0.295,2.254c0.025,0.151,0.044,0.305,0.07,0.456c0.161,0.904,0.357,1.797,0.587,2.679
	c0.035,0.132,0.075,0.262,0.111,0.395c0.215,0.787,0.456,1.567,0.725,2.334c0.046,0.132,0.09,0.265,0.137,0.397
	c0.645,1.777,1.428,3.497,2.344,5.144c0.039,0.069,0.077,0.137,0.116,0.206c0.953,1.685,2.041,3.294,3.259,4.805
	c0,0,0,0.001,0.001,0.001c0.451,0.559,0.918,1.103,1.405,1.635c0.006,0.006,0.012,0.013,0.017,0.019
	c0.482,0.527,0.982,1.042,1.498,1.541c0.002,0.003,0.005,0.005,0.007,0.008c1.041,1.006,2.148,1.953,3.317,2.833
	c0.352,0.265,0.7,0.536,1.063,0.789c0.542,0.377,1.111,0.724,1.676,1.075c0.206,0.129,0.401,0.269,0.611,0.392
	c0.076,0.045,0.146,0.099,0.222,0.142l9.911,5.72l3.349,1.932l10.118,5.84l0.05,0.029l3.26,1.881l0.122,0.07l3.517,2.029
	l15.25,8.801l11.014,6.356L137.28,263.497z"/>
<path style="fill:#73AF00;" d="M482.442,342.077l-227.694-32.342l-150.925,32.341v87.532l7.189,4.149l94.999,54.826l19.995,11.539
	l12.39,7.151c10.918,6.301,24.37,6.298,35.287-0.006l12.307-7.108l19.995-11.548l26.659-15.397l57.587-33.261l3.873-2.237
	l6.869-3.968l27.325-15.782l22.191-12.818l14.319-8.27c0.841-0.486,1.648-1.013,2.439-1.562c9.465-6.556,15.201-17.365,15.2-29.001
	L482.442,342.077z"/>
<g>
	<path style="fill:#FF4B55;" d="M103.823,342.077h378.619l0.004,24.242l-0.008-42.41l-0.005-27.164l-0.014-81.491l-0.005-27.164
		l-0.008-42.486c-0.001-3.105-0.422-6.148-1.202-9.07c-0.42-1.572-0.948-3.107-1.577-4.597c-2.568-6.092-6.814-11.419-12.362-15.28
		c-0.812-0.565-1.642-1.11-2.509-1.611l-23.71-13.684l-22.198-12.81l-17.87-10.313L332.644,38.8l-26.659-15.386L285.99,11.875
		L273.6,4.724c-10.918-6.301-24.37-6.298-35.287,0.006l-12.307,7.108l-19.995,11.548l-26.659,15.398l0,0l-68.331,39.464
		L90.92,89.858l12.903-7.452V342.077z"/>
	<path style="fill:#FF4B55;" d="M84.108,342.488v4.809h-1.701v6.321h1.701v4.74h1.666v4.74h5.085v-4.74h1.683v-4.74h1.666v-6.321
		h-1.666v-4.809h-1.683v-0.412h-5.085v0.412H84.108z M87.456,345.717h1.701v3.16h1.701v3.158h-1.701v3.229h-1.701v-3.229h-1.682
		v-3.158h1.683L87.456,345.717L87.456,345.717z"/>
	<rect x="36.88" y="366.32" style="fill:#FF4B55;" width="3.382" height="9.481"/>
	<path style="fill:#FF4B55;" d="M87.526,412.351v-7.968h3.383v-7.968h3.35v-7.9h-3.368v-7.97h-3.365v-7.9h-3.382v-7.968h-3.366v-7.9
		H77.41v7.9h-3.399v7.968h-3.349v7.9H67.26v7.97h-3.384v-7.97h-3.383v-7.9h-3.349v-7.968h-3.402v-7.9h-3.348v7.9H47.01v7.968h-3.349
		v7.9h-3.402v7.97h-2.845c1.811,2.244,3.904,4.273,6.246,6.037v-6.037h3.349v-7.97h3.384v-7.9h3.348v7.9h3.402v7.97h3.349v7.9
		h-3.349v6.255l3.349,1.932v-0.219h3.384v-7.968h3.384v7.968h3.402v6.087l3.26,1.881h0.122v0.07l10.1,5.83v-5.9L87.526,412.351
		L87.526,412.351z M80.778,412.351H77.41v-7.968h-3.367v-7.968h-3.382v-7.9h3.382v-7.97h3.367v-7.9h3.368v7.9h3.367v7.97h3.382v7.9
		h-3.382v7.968h-3.367V412.351z"/>
	<rect x="50.398" y="342.08" style="fill:#FF4B55;" width="3.348" height="1.992"/>
	<rect x="77.408" y="342.08" style="fill:#FF4B55;" width="3.368" height="1.992"/>
	<path style="fill:#FF4B55;" d="M67.26,342.488h-3.384v-0.412h-5.048v0.412h-1.683v4.74h-1.7v6.39h1.701v4.74h1.683v4.74h5.049
		v-4.74h3.384v4.74h5.066v-4.74h1.716v-4.74h1.65v-6.39h-1.65v-4.74h-1.716v-0.412h-5.066v0.412H67.26z M63.878,352.036h-1.666v3.16
		h-1.718v-3.16h-1.666v-3.229h1.666v-3.158h1.718v3.158h1.666V352.036z M70.662,345.649v3.158h1.666v3.229h-1.666v3.16h-1.701v-3.16
		H67.26v-3.229h1.701v-3.158H70.662z"/>
	<rect x="90.888" y="366.32" style="fill:#FF4B55;" width="3.368" height="9.481"/>
	<rect x="90.888" y="412.35" style="fill:#FF4B55;" width="3.368" height="9.481"/>
	<rect x="63.88" y="366.32" style="fill:#FF4B55;" width="3.384" height="9.481"/>
	<path style="fill:#FF4B55;" d="M46.401,396.415c0.206,0.129,0.401,0.269,0.611,0.392v-0.392H46.401z"/>
	<rect x="50.398" y="388.52" style="fill:#FF4B55;" width="3.348" height="7.899"/>
	<rect x="77.408" y="388.52" style="fill:#FF4B55;" width="3.368" height="7.899"/>
	<path style="fill:#FF4B55;" d="M38.579,342.488v4.74h-1.698v6.39h1.698v4.74h1.683v4.74h5.049v-4.74h1.701v-4.74h1.65v-6.39h-1.65
		v-4.74h-1.701v-0.412h-5.049v0.412H38.579z M41.962,345.649h1.701v3.158h1.648v3.229h-1.648v3.16h-1.701v-3.16h-1.701v-3.229h1.701
		V345.649z"/>
	<rect x="85.778" y="337.82" style="fill:#FF4B55;" width="5.085" height="4.26"/>
	<rect x="40.258" y="337.74" style="fill:#FF4B55;" width="5.05" height="4.329"/>
	<path style="fill:#FF4B55;" d="M40.263,131.453h3.402v7.968h3.349v7.968h3.384v7.9h3.348v-7.9h3.402v-7.968h3.349v-7.968h3.384
		v-7.9h3.384v7.9h3.402v7.968h3.349v7.968h3.399v7.9h3.368v-7.9h3.367v-7.968h3.382v-7.968h3.365v-7.9h3.368v-7.97h-3.35v-7.9
		h-3.383v-7.968h-3.384v-5.941l-3.068,1.772l-7.032,4.061v0.109h-0.189l-3.193,1.844v6.123h-3.402v7.9H63.88v-7.9h-3.388v-0.251
		l-1.61,0.93l-1.74,1.005v6.217h3.349v7.97h-3.349v7.9H53.74v7.968h-3.348v-7.968h-3.384v-7.9h-3.349v-6.05
		c-2.348,1.767-4.444,3.799-6.257,6.05h2.855v7.899L40.263,131.453L40.263,131.453z M70.662,115.584h3.382v-7.9h3.367v-7.968h3.368
		v7.968h3.367v7.9h3.382v7.97h-3.382v7.9h-3.368v7.968H77.41v-7.968h-3.367v-7.9h-3.382
		C70.662,123.554,70.662,115.584,70.662,115.584z"/>
	<rect x="50.398" y="115.58" style="fill:#FF4B55;" width="3.348" height="7.97"/>
	<path style="fill:#FF4B55;" d="M47.012,115.23c-0.189,0.111-0.365,0.237-0.551,0.354h0.551V115.23z"/>
	<rect x="77.408" y="115.58" style="fill:#FF4B55;" width="3.368" height="7.97"/>
	<rect x="58.831" y="337.74" style="fill:#FF4B55;" width="5.05" height="4.329"/>
	<rect x="90.888" y="325.04" style="fill:#FF4B55;" width="3.368" height="9.479"/>
	<path style="fill:#FF4B55;" d="M74.044,153.642h-1.716v-4.671h-5.066v4.671h-3.384v-4.671h-5.049v4.671h-1.685v4.807h-1.7v6.321
		h1.701v4.809h1.683v4.741h5.049v-4.741h3.384v4.741h5.066v-4.741h1.716v-4.809h1.65v-6.321h-1.65
		C74.044,158.449,74.044,153.642,74.044,153.642z M63.878,163.192h-1.666v3.229h-1.718v-3.229h-1.666v-3.16h1.666v-3.16h1.718v3.16
		h1.666V163.192z M72.328,163.192h-1.666v3.229h-1.701v-3.229H67.26v-3.16h1.701v-3.16h1.701v3.16h1.666V163.192z"/>
	<rect x="63.88" y="177.47" style="fill:#FF4B55;" width="3.384" height="9.547"/>
	<rect x="90.888" y="288.56" style="fill:#FF4B55;" width="3.368" height="6.318"/>
	<rect x="67.258" y="337.74" style="fill:#FF4B55;" width="5.066" height="4.329"/>
	<rect x="36.88" y="177.47" style="fill:#FF4B55;" width="3.382" height="9.547"/>
	<rect x="63.88" y="136.26" style="fill:#FF4B55;" width="3.384" height="9.481"/>
	<polygon style="fill:#FF4B55;" points="90.891,255.999 90.891,256.068 90.891,260.808 94.259,260.808 94.259,256.068
		94.259,255.999 94.259,251.26 90.891,251.26 	"/>
	<rect x="90.888" y="217.19" style="fill:#FF4B55;" width="3.368" height="6.318"/>
	<rect x="90.888" y="136.26" style="fill:#FF4B55;" width="3.368" height="9.481"/>
	<rect x="90.888" y="90.24" style="fill:#FF4B55;" width="3.368" height="9.481"/>
	<path style="fill:#FF4B55;" d="M92.541,164.77h1.666v-6.321h-1.666v-4.807h-1.683v-4.74h-5.084v4.74h-1.666v4.807h-1.701v6.321
		h1.701v4.74h1.666v4.741h5.085v-4.741h1.683L92.541,164.77L92.541,164.77z M90.858,163.192h-1.701v3.158h-1.701v-3.158h-1.682
		v-3.229h1.683v-3.092h1.701v3.092h1.701L90.858,163.192L90.858,163.192z"/>
	<rect x="90.888" y="177.47" style="fill:#FF4B55;" width="3.368" height="9.547"/>
	<path style="fill:#FF4B55;" d="M47.012,153.642h-1.701v-4.671h-5.049v4.671h-1.683v4.807h-1.698v6.321h1.698v4.809h1.683v4.741
		h5.049v-4.741h1.701v-4.809h1.65v-6.321h-1.65V153.642z M45.311,163.192h-1.648v3.229h-1.735v-3.229h-1.667v-3.16h1.667v-3.16
		h1.735v3.16h1.648V163.192z"/>
	<rect x="63.88" y="239.37" style="fill:#FF4B55;" width="3.384" height="7.9"/>
	<polygon style="fill:#FF4B55;" points="72.328,255.999 72.328,256.068 72.328,260.808 75.693,260.808 75.693,256.068
		75.693,255.999 75.693,251.26 72.328,251.26 	"/>
	<polygon style="fill:#FF4B55;" points="58.828,256.068 58.828,255.999 58.828,251.26 55.445,251.26 55.445,255.999 55.445,256.068
		55.445,260.808 58.828,260.808 	"/>
	<rect x="63.88" y="325.04" style="fill:#FF4B55;" width="3.384" height="9.479"/>
	<rect x="63.88" y="264.79" style="fill:#FF4B55;" width="3.384" height="7.9"/>
	<polygon style="fill:#FF4B55;" points="62.212,263.144 63.878,263.144 63.878,260.808 67.26,260.808 67.26,263.144 68.961,263.144
		68.961,266.304 72.328,266.304 72.328,261.564 70.662,261.564 70.662,259.159 68.961,259.159 68.961,256.068 68.961,255.999
		68.961,252.839 70.662,252.839 70.662,250.435 72.328,250.435 72.328,245.695 68.961,245.695 68.961,248.856 67.26,248.856
		67.26,251.26 63.878,251.26 63.878,248.856 62.212,248.856 62.212,245.695 58.828,245.695 58.828,250.435 60.493,250.435
		60.493,252.839 62.212,252.839 62.212,255.999 62.212,256.068 62.212,259.159 60.493,259.159 60.493,261.564 58.828,261.564
		58.828,266.304 62.212,266.304 	"/>
	<polygon style="fill:#FF4B55;" points="36.88,255.999 36.88,256.068 36.88,260.808 40.263,260.808 40.263,256.068 40.263,255.999
		40.263,251.26 36.88,251.26 	"/>
	<rect x="36.88" y="217.19" style="fill:#FF4B55;" width="3.382" height="6.318"/>
	<rect x="36.88" y="136.26" style="fill:#FF4B55;" width="3.382" height="9.481"/>
	<rect x="36.88" y="288.56" style="fill:#FF4B55;" width="3.382" height="6.318"/>
	<path style="fill:#FF4B55;" d="M53.744,336.168h3.402V328.2h3.349v-7.97h3.384v-7.9h3.384v1.65v6.25h3.402v7.97h3.382v7.968h3.367
		v5.908h3.368v-5.908h3.367V328.2h3.382v-7.97h3.365v-7.9h3.368v-7.968h-3.368v-7.9h-3.365v-7.899h-3.382v-7.97h-3.367v7.97h-3.368
		v7.899h-3.399v7.9h3.399v7.968v1.65h-3.399v-1.65v-4.74h-3.349v-12.708h-0.482h-1.218v-7.9h1.218h0.911h1.236h1.716v-6.389h3.367
		v-4.74h3.368v-7.9h3.367v7.9h3.382v4.74h3.383v4.81h3.35v-14.289h-3.35v-6.321h-3.383v-5.633h-3.382v-3.092v-0.069v-3.16h3.382
		v-5.496h3.383v-6.39h3.35v-14.289h-3.35v4.741h-3.383v4.74h-3.382v7.968h-3.367v-7.968h-3.368v-4.74h-3.367v-6.321h-1.719h-1.237
		H70.18h-1.218v-7.9h1.218h0.482v-12.709h3.349v-4.809v-1.581h3.399v1.581v7.968h-3.399v7.968h3.399v7.9h3.368v7.902h3.367v-7.902
		h3.382v-7.9h3.365v-7.968h3.368v-7.968h-3.368v-7.9h-3.365v-7.97h-3.382v-7.9h-3.367v-7.968H77.41v7.968h-3.399v7.9h-3.349v7.97
		H67.26v6.318v1.581h-3.384v-7.9h-3.383v-7.97h-3.349v-7.9h-3.402v-7.968h-3.348v7.968H47.01v7.9h-3.384v7.97h-3.367v6.318v1.581
		h-3.382v7.968h3.382v7.968h3.367v7.9h3.384v7.902h3.384V223.5h3.348v-7.9h3.402v-7.968h-3.402v-9.55h3.402v1.581v4.809h3.349
		v12.709h1.718v7.832l-5.066,0.069v6.321h-3.402v4.74h-3.348v7.968h-3.384v-7.968h-3.383v-4.74h-3.367v-4.741h-3.382v14.289h3.382
		v6.39h3.367v5.496h3.384v3.16v0.069v3.092h-3.384v5.633h-3.367v6.321h-3.382v14.289h3.382v-4.81h3.367v-4.74h3.384v-7.9h3.384v7.9
		h3.348v4.74h3.402v6.389l5.066,0.069v7.832h-1.718v12.71h-3.349v4.74v1.65h-3.402v-9.619h3.402v-7.9h-3.402v-7.899h-3.348v-7.97
		h-3.384v7.97h-3.384v7.899H40.26v7.9h-3.382v7.968h3.382v1.65v6.25h3.402v7.97h3.349v7.968h3.384v5.908h3.348v-5.903h0.001V336.168
		z M57.144,271.112v-6.321h-3.402v-5.633h-3.348v-3.023v-0.206v-3.092h3.348v-5.496h3.402v-6.39h5.066v-7.487h1.666v-3.643h1.701
		h1.683v3.572h1.701v7.557h5.082v3.16v3.229h3.367v5.496h3.368v3.16v3.16H77.41v5.633h-3.367v3.16v3.16h-5.082v7.488H67.26v3.572
		h-1.683h-1.701v-3.572H62.21v-7.488h-5.066C57.144,271.108,57.144,271.112,57.144,271.112z"/>
	<rect x="36.88" y="325.04" style="fill:#FF4B55;" width="3.382" height="9.479"/>
</g>
<g>
</g>
<g>
</g>
<g>
</g>
<g>
</g>
<g>
</g>
<g>
</g>
<g>
</g>
<g>
</g>
<g>
</g>
<g>
</g>
<g>
</g>
<g>
</g>
<g>
</g>
<g>
</g>
<g>
</g>
</svg>
