<?xml version="1.0" encoding="iso-8859-1"?>
<!-- Generator: Adobe Illustrator 19.0.0, SVG Export Plug-In . SVG Version: 6.00 Build 0)  -->
<svg version="1.1" id="Layer_1" xmlns="http://www.w3.org/2000/svg" xmlns:xlink="http://www.w3.org/1999/xlink" x="0px" y="0px"
	 viewBox="0 0 512 512" style="enable-background:new 0 0 512 512;" xml:space="preserve">
<path style="fill:#FF4B55;" d="M332.646,38.801l-26.659-15.386l-19.995-11.539l-12.39-7.151c-10.92-6.301-24.371-6.3-35.287,0.006
	l-12.307,7.108l-19.995,11.548l-26.659,15.398l0,0l-19.995,11.548l-34.576,199.412l34.574,211.916l46.654,26.925l19.995,11.539
	l12.39,7.151c10.92,6.302,24.371,6.299,35.287-0.006l12.307-7.108l19.995-11.548l26.659-15.397l19.995-11.549l33.323-206.923
	L352.641,50.34L332.646,38.801z"/>
<path style="fill:#464655;" d="M111.024,78.25L81.078,95.547l-22.191,12.818l-11.697,6.756c-0.841,0.486-1.648,1.015-2.439,1.561
	c-1.696,1.175-3.27,2.488-4.712,3.919c-1.442,1.43-2.754,2.977-3.925,4.619c-0.982,1.378-1.849,2.832-2.623,4.335
	c-0.464,0.902-0.902,1.817-1.288,2.758c-0.429,1.045-0.809,2.111-1.138,3.197c-0.987,3.255-1.513,6.676-1.513,10.175l0.007,42.41
	l0.005,27.164l0.014,81.478v0.014v0.005l0.005,27.159l0.007,42.478v0.006c0,2.902,0.357,5.752,1.041,8.496
	c0.512,2.059,1.208,4.059,2.073,5.978c0.289,0.64,0.596,1.27,0.922,1.891c0.651,1.241,1.377,2.443,2.172,3.599
	c2.384,3.468,5.397,6.521,8.931,8.98c0.812,0.565,1.642,1.11,2.509,1.611l23.377,13.491l22.198,12.811l18.204,10.506l19.928,11.501
	l28.417,16.401V50.333L111.024,78.25z"/>
<path style="fill:#73AF00;" d="M482.442,323.909l-0.005-27.164l-0.014-81.491l-0.005-27.164l-0.008-42.486
	c0-0.776-0.026-1.548-0.079-2.317c-0.155-2.303-0.539-4.561-1.123-6.753c-0.42-1.572-0.949-3.107-1.577-4.598
	c-1.926-4.569-4.796-8.708-8.451-12.12c-1.218-1.137-2.524-2.194-3.91-3.159c-0.812-0.565-1.642-1.11-2.509-1.611l-23.71-13.684
	l-22.198-12.81l-17.87-10.313L352.641,50.34v411.328l37.592-21.713l10.742-6.205l27.325-15.782l22.191-12.818l14.319-8.27
	c0.841-0.486,1.648-1.013,2.439-1.561c1.775-1.23,3.418-2.608,4.917-4.114c1-1.003,1.934-2.064,2.802-3.174
	c1.301-1.665,2.448-3.442,3.43-5.307c1.308-2.488,2.321-5.135,3.007-7.887c0.685-2.752,1.043-5.61,1.043-8.519L482.442,323.909z"/>
<g>
	<polygon style="fill:#F5F5F5;" points="282.09,275.601 229.911,275.601 232.809,269.803 279.192,269.803 	"/>
	<polygon style="fill:#F5F5F5;" points="282.09,229.218 229.911,229.218 232.809,235.016 279.192,235.016 	"/>
	<polygon style="fill:#F5F5F5;" points="270.495,232.117 241.506,232.117 247.303,226.32 264.697,226.32 	"/>
	<rect x="232.809" y="261.101" style="fill:#F5F5F5;" width="8.696" height="5.798"/>
	<rect x="232.809" y="252.411" style="fill:#F5F5F5;" width="8.696" height="5.798"/>
	<rect x="232.809" y="237.911" style="fill:#F5F5F5;" width="8.696" height="5.798"/>
	<rect x="232.809" y="246.611" style="fill:#F5F5F5;" width="8.696" height="2.899"/>
	<rect x="270.499" y="261.101" style="fill:#F5F5F5;" width="8.696" height="5.798"/>
	<rect x="270.499" y="252.411" style="fill:#F5F5F5;" width="8.696" height="5.798"/>
	<rect x="270.499" y="237.911" style="fill:#F5F5F5;" width="8.696" height="5.798"/>
	<rect x="270.499" y="246.611" style="fill:#F5F5F5;" width="8.696" height="2.899"/>
	<rect x="235.709" y="214.721" style="fill:#F5F5F5;" width="5.798" height="11.596"/>
	<path style="fill:#F5F5F5;" d="M241.506,211.825h-5.797v-2.899c0-1.601,1.298-2.899,2.899-2.899l0,0
		c1.601,0,2.899,1.298,2.899,2.899v2.899H241.506z"/>
	<rect x="270.499" y="214.721" style="fill:#F5F5F5;" width="5.798" height="11.596"/>
	<path style="fill:#F5F5F5;" d="M276.293,211.825h-5.797v-2.899c0-1.601,1.298-2.899,2.899-2.899l0,0
		c1.601,0,2.899,1.298,2.899,2.899L276.293,211.825L276.293,211.825z"/>
	<path style="fill:#F5F5F5;" d="M256.001,237.915L256.001,237.915c-6.404,0-11.596,5.191-11.596,11.596v17.394h23.191v-17.394
		C267.595,243.106,262.404,237.915,256.001,237.915z"/>
	<path style="fill:#F5F5F5;" d="M236.808,256.178l-15.783-18.414c0.102-0.297,0.189-0.604,0.189-0.936
		c0-1.601-1.298-2.899-2.899-2.899s-2.899,1.298-2.899,2.899s1.298,2.899,2.899,2.899c0.175,0,0.326-0.07,0.491-0.099l1.633,1.906
		l-7.923,18.486l8.696,8.696l7.508-17.52l5.886,6.867L236.808,256.178z M222.706,262.234l-6.939-6.939l3.13-7.305l6.939,6.939
		L222.706,262.234z"/>
	<path style="fill:#F5F5F5;" d="M277.466,258.062l5.886-6.867l7.509,17.52l8.696-8.696l-7.923-18.486l1.633-1.906
		c0.166,0.029,0.317,0.099,0.492,0.099c1.601,0,2.899-1.298,2.899-2.899s-1.298-2.899-2.899-2.899s-2.899,1.298-2.899,2.899
		c0,0.332,0.086,0.639,0.189,0.936l-15.783,18.414L277.466,258.062z M286.238,254.928l6.939-6.939l3.13,7.305l-6.939,6.939
		L286.238,254.928z"/>
	<path style="fill:#F5F5F5;" d="M259.283,209.431c-0.911-0.269-1.723-0.766-2.238-1.563c-0.344-0.532-0.694-1.14-1.043-1.841
		c-0.35,0.701-0.7,1.307-1.043,1.841c-0.515,0.799-1.327,1.296-2.238,1.563c-4.802,1.415-8.315,5.83-8.315,11.091
		c0,1.007,0.169,1.967,0.41,2.899h22.371c0.241-0.932,0.41-1.892,0.41-2.899C267.595,215.26,264.085,210.845,259.283,209.431z"/>
	<path style="fill:#F5F5F5;" d="M189.567,252.069c-0.147-1.802-0.242-3.618-0.242-5.457c0-3.723,0.337-7.387,0.936-10.979
		c0.836,0.579,1.711,1.215,2.621,1.929c-0.424,2.973-0.659,5.992-0.659,9.05c0,2.143,0.11,4.261,0.317,6.351l6.128,1.841
		c-0.382-2.684-0.647-5.405-0.647-8.191c0-1.386,0.082-2.755,0.192-4.12c3.2,3.549,5.726,7.837,5.726,12.575
		c0,0.121,9.301-13.77-7.609-29.11l-0.121,6.522l-9.74-0.102c-0.877-0.009-1.65,0.614-1.803,1.478
		c-0.741,4.166-1.14,8.426-1.14,12.757c0,1.231,0.032,2.454,0.092,3.67L189.567,252.069z"/>
	<path style="fill:#F5F5F5;" d="M215.29,193.825c1.267-0.976,1.501-2.797,0.522-4.065c-0.981-1.268-2.799-1.497-4.066-0.521
		c-13.12,10.132-22.123,24.053-26.023,39.647l5.975,0.077C195.458,215.162,203.595,202.859,215.29,193.825z"/>
	<path style="fill:#F5F5F5;" d="M211.406,201.055c-6.305,6.175-11.077,13.441-14.324,21.335c1.793,1.473,3.263,2.962,4.481,4.441
		c2.922-8.049,7.575-15.438,13.9-21.633c1.143-1.121,1.163-2.955,0.042-4.099C214.382,199.954,212.549,199.934,211.406,201.055z"/>
	<path style="fill:#F5F5F5;" d="M201.331,284.619c-4.299-6.168-7.584-13.086-9.624-20.517l3.37,1.238
		c2.106,6.781,5.299,13.085,9.391,18.705l6.398-1.171c-3.613-4.49-6.582-9.517-8.751-14.947l3.783,1.39
		c2.158,4.74,4.922,9.098,8.216,12.964l6.659-1.22c-2.618-2.673-4.909-5.682-6.881-8.928l-3.858-7.714
		c-1.191-2.383-3.313-4.168-5.865-4.934l-9.126-2.743l-2.109-0.634l-3.038-0.912l-6.042-1.816l-3.225-0.97l1.996,5.988
		c0.439,1.315,1.325,2.412,2.478,3.133c1.844,8.76,5.266,16.944,9.966,24.235L201.331,284.619z"/>
	<path style="fill:#F5F5F5;" d="M315.791,232.479l-0.121-6.522c-16.91,15.34-7.609,29.231-7.609,29.11
		c0-4.739,2.526-9.026,5.726-12.575c0.11,1.365,0.192,2.735,0.192,4.12c0,2.788-0.265,5.508-0.647,8.191l6.128-1.841
		c0.207-2.089,0.317-4.208,0.317-6.351c0-3.059-0.234-6.078-0.659-9.05c0.91-0.715,1.786-1.351,2.621-1.929
		c0.599,3.593,0.936,7.257,0.936,10.979c0,1.839-0.095,3.655-0.241,5.457l5.947-1.787c0.061-1.216,0.092-2.439,0.092-3.67
		c0-4.33-0.4-8.59-1.14-12.757c-0.154-0.864-0.926-1.487-1.803-1.478L315.791,232.479z"/>
	<path style="fill:#F5F5F5;" d="M320.304,228.963l5.975-0.077c-3.9-15.593-12.903-29.514-26.023-39.647
		c-1.267-0.977-3.085-0.747-4.066,0.521c-0.978,1.268-0.745,3.089,0.522,4.065C308.406,202.859,316.542,215.162,320.304,228.963z"/>
	<path style="fill:#F5F5F5;" d="M314.92,222.391c-3.248-7.894-8.019-15.161-14.324-21.335c-1.143-1.121-2.977-1.101-4.099,0.045
		c-1.121,1.143-1.101,2.978,0.043,4.099c6.325,6.193,10.978,13.583,13.9,21.633C311.657,225.352,313.127,223.864,314.92,222.391z"/>
	<path style="fill:#F5F5F5;" d="M328.146,253.379l-6.042,1.816l-3.038,0.912l-2.109,0.634l-9.126,2.743
		c-2.552,0.766-4.674,2.551-5.865,4.934l-3.858,7.714c-1.972,3.245-4.263,6.255-6.881,8.928l6.659,1.22
		c3.294-3.866,6.058-8.223,8.216-12.964l3.783-1.39c-2.169,5.43-5.14,10.457-8.751,14.947l6.398,1.171
		c4.093-5.62,7.286-11.924,9.391-18.705l3.37-1.238c-2.039,7.43-5.325,14.349-9.624,20.517l6.262,1.146
		c4.7-7.292,8.12-15.476,9.966-24.235c1.153-0.721,2.039-1.818,2.478-3.133l1.996-5.988L328.146,253.379z"/>
	<path style="fill:#F5F5F5;" d="M286.213,285.43l-0.15,0.132c-8.434,6.509-18.909,10.331-30.062,10.331
		c-11.154,0-21.628-3.821-30.062-10.331l-0.15-0.132c-1.095-1.203-2.74-1.743-4.335-1.421l-29.23,6.087l6.486,5.685
		c1.735,1.52,3.964,2.229,6.18,2.099c5.22,5.199,11.214,9.616,17.806,13.049l-1.899,3.505c10.472,5.695,22.466,8.933,35.203,8.933
		c12.737,0,24.729-3.238,35.203-8.933l-1.899-3.505c6.592-3.433,12.587-7.852,17.806-13.049c2.217,0.13,4.445-0.58,6.18-2.099
		l6.486-5.685l-29.229-6.087C288.953,283.687,287.306,284.226,286.213,285.43z M225.468,305.812
		c-5.255-2.734-10.066-6.187-14.395-10.157l2.814-1.342c3.933,3.479,8.255,6.526,12.954,8.964L225.468,305.812z M300.926,295.655
		c-4.329,3.971-9.14,7.423-14.395,10.157l-1.373-2.536c4.699-2.438,9.021-5.485,12.954-8.964L300.926,295.655z M256.001,304.59
		c-13.807,0-26.459-4.899-36.42-12.993l2.893-1.38c9.405,7.244,21.093,11.473,33.526,11.473s24.121-4.229,33.526-11.473l2.893,1.38
		C282.46,299.692,269.809,304.59,256.001,304.59z"/>
	<path style="fill:#F5F5F5;" d="M224.191,281.321c1.245,1.053,2.536,2.049,3.881,2.977h55.857c1.346-0.927,2.637-1.923,3.881-2.977
		l-2.82-2.82h-57.978L224.191,281.321z"/>
</g>
<g>
</g>
<g>
</g>
<g>
</g>
<g>
</g>
<g>
</g>
<g>
</g>
<g>
</g>
<g>
</g>
<g>
</g>
<g>
</g>
<g>
</g>
<g>
</g>
<g>
</g>
<g>
</g>
<g>
</g>
</svg>
