<?xml version="1.0" encoding="iso-8859-1"?>
<!-- Generator: Adobe Illustrator 19.0.0, SVG Export Plug-In . SVG Version: 6.00 Build 0)  -->
<svg version="1.1" id="Layer_1" xmlns="http://www.w3.org/2000/svg" xmlns:xlink="http://www.w3.org/1999/xlink" x="0px" y="0px"
	 viewBox="0 0 512 512" style="enable-background:new 0 0 512 512;" xml:space="preserve">
<path style="fill:#F5F5F5;" d="M29.589,366.394l-0.036-220.713c-0.003-12.607,6.722-24.257,17.639-30.562L238.315,4.73
	c10.917-6.305,24.368-6.307,35.287-0.006l191.161,110.325c10.918,6.302,17.646,17.95,17.649,30.557l0.036,220.713
	c0.003,12.607-6.722,24.257-17.639,30.563L273.684,507.269c-10.917,6.306-24.368,6.307-35.286,0.006L47.238,396.951
	C36.318,390.649,29.591,379.001,29.589,366.394z"/>
<g>
	<path style="fill:#FF4B55;" d="M285.992,226.008V11.876l-12.39-7.151c-10.918-6.302-24.37-6.3-35.287,0.006l-12.307,7.108v214.17
		H29.565l0.01,59.983h196.433v214.132l12.39,7.151c10.919,6.302,24.37,6.299,35.287-0.005l12.307-7.108V285.991h196.443
		l-0.01-59.983H285.992z"/>
	<path style="fill:#FF4B55;" d="M152.03,148.853c-8.581,0.864-16.989,1.728-25.409,2.593c0.865-8.42,1.73-16.828,2.593-25.409
		c-7.87,1.018-15.812,1.018-23.682,0c0.864,8.581,1.728,16.989,2.593,25.409c-8.42-0.865-16.829-1.73-25.409-2.593
		c1.018,7.869,1.018,15.812,0,23.681c8.581-0.864,16.989-1.728,25.409-2.593c-0.866,8.42-1.731,16.829-2.593,25.409
		c7.87-1.017,15.812-1.017,23.682,0c-0.864-8.581-1.728-16.989-2.593-25.409c8.42,0.865,16.828,1.73,25.409,2.593
		C151.012,164.665,151.012,156.721,152.03,148.853z"/>
	<path style="fill:#FF4B55;" d="M429.286,148.853c-8.581,0.864-16.989,1.728-25.409,2.593c0.865-8.42,1.73-16.828,2.593-25.409
		c-7.87,1.018-15.812,1.018-23.682,0c0.864,8.581,1.728,16.989,2.593,25.409c-8.42-0.865-16.829-1.73-25.409-2.593
		c1.017,7.869,1.017,15.812,0,23.681c8.581-0.864,16.989-1.728,25.409-2.593c-0.866,8.42-1.731,16.829-2.593,25.409
		c7.87-1.017,15.812-1.017,23.682,0c-0.864-8.581-1.728-16.989-2.593-25.409c8.42,0.865,16.829,1.73,25.409,2.593
		C428.269,164.665,428.269,156.721,429.286,148.853z"/>
	<path style="fill:#FF4B55;" d="M152.03,339.467c-8.581,0.864-16.989,1.728-25.409,2.593c0.865-8.42,1.73-16.829,2.593-25.409
		c-7.87,1.017-15.812,1.017-23.682,0c0.864,8.581,1.728,16.989,2.593,25.409c-8.42-0.865-16.829-1.73-25.409-2.593
		c1.018,7.869,1.018,15.812,0,23.681c8.581-0.864,16.989-1.728,25.409-2.593c-0.866,8.42-1.731,16.828-2.593,25.409
		c7.87-1.018,15.812-1.018,23.682,0c-0.864-8.581-1.728-16.989-2.593-25.409c8.42,0.865,16.828,1.73,25.409,2.593
		C151.012,355.278,151.012,347.336,152.03,339.467z"/>
	<path style="fill:#FF4B55;" d="M429.286,339.467c-8.581,0.864-16.989,1.728-25.409,2.593c0.865-8.42,1.73-16.829,2.593-25.409
		c-7.87,1.017-15.812,1.017-23.682,0c0.864,8.581,1.728,16.989,2.593,25.409c-8.42-0.865-16.829-1.73-25.409-2.593
		c1.017,7.869,1.017,15.812,0,23.681c8.581-0.864,16.989-1.728,25.409-2.593c-0.866,8.42-1.731,16.828-2.593,25.409
		c7.87-1.018,15.812-1.018,23.682,0c-0.864-8.581-1.728-16.989-2.593-25.409c8.42,0.865,16.829,1.73,25.409,2.593
		C428.269,355.278,428.269,347.336,429.286,339.467z"/>
</g>
<g>
</g>
<g>
</g>
<g>
</g>
<g>
</g>
<g>
</g>
<g>
</g>
<g>
</g>
<g>
</g>
<g>
</g>
<g>
</g>
<g>
</g>
<g>
</g>
<g>
</g>
<g>
</g>
<g>
</g>
</svg>
