<?xml version="1.0" encoding="iso-8859-1"?>
<!-- Generator: Adobe Illustrator 19.0.0, SVG Export Plug-In . SVG Version: 6.00 Build 0)  -->
<svg xmlns="http://www.w3.org/2000/svg" xmlns:xlink="http://www.w3.org/1999/xlink" version="1.1" id="Layer_1" x="0px" y="0px" viewBox="0 0 511.999 511.999" style="enable-background:new 0 0 511.999 511.999;" xml:space="preserve">
<path style="fill:#F5F5F5;" d="M464.894,115.05l-134.2-77.452L273.733,4.725c-10.92-6.302-24.371-6.3-35.287,0.006l-59.378,34.294  L47.32,115.118c-10.917,6.305-17.64,17.955-17.639,30.562l0.036,220.713c0.003,12.607,6.73,24.255,17.649,30.557l131.701,76.008  l59.46,34.317c10.92,6.302,24.371,6.298,35.287-0.006l56.878-32.851l134.247-77.538c9.696-5.6,16.072-15.421,17.378-26.379V141.804  C481.114,130.693,474.704,120.712,464.894,115.05z"/>
<path style="fill:#73AF00;" d="M47.32,115.118c-10.917,6.305-17.64,17.955-17.639,30.562l0.036,220.713  c0.003,12.607,6.73,24.255,17.649,30.557l131.701,76.008V39.024L47.32,115.118z"/>
<path style="fill:#FF4B55;" d="M464.894,115.05l-134.2-77.452v436.821l134.247-77.538c9.696-5.6,16.072-15.421,17.378-26.379  V141.804C481.114,130.693,474.704,120.712,464.894,115.05z"/>
<g>
</g>
<g>
</g>
<g>
</g>
<g>
</g>
<g>
</g>
<g>
</g>
<g>
</g>
<g>
</g>
<g>
</g>
<g>
</g>
<g>
</g>
<g>
</g>
<g>
</g>
<g>
</g>
<g>
</g>
</svg>
