<?xml version="1.0" encoding="iso-8859-1"?>
<!-- Generator: Adobe Illustrator 19.0.0, SVG Export Plug-In . SVG Version: 6.00 Build 0)  -->
<svg version="1.1" id="Layer_1" xmlns="http://www.w3.org/2000/svg" xmlns:xlink="http://www.w3.org/1999/xlink" x="0px" y="0px"
	 viewBox="0 0 512.001 512.001" style="enable-background:new 0 0 512.001 512.001;" xml:space="preserve">
<path style="fill:#FFE15A;" d="M29.589,366.395l-0.036-220.713c-0.003-12.607,6.722-24.257,17.639-30.562L238.316,4.731
	c10.917-6.306,24.368-6.307,35.287-0.006L464.764,115.05c10.918,6.302,17.646,17.95,17.649,30.557l0.036,220.713
	c0.003,12.607-6.722,24.257-17.639,30.563L273.685,507.271c-10.917,6.306-24.368,6.307-35.287,0.006L47.238,396.952
	C36.318,390.65,29.592,379.002,29.589,366.395z"/>
<g>
	<path style="fill:#4173CD;" d="M482.426,226.009l-0.014-80.403c-0.003-12.607-6.729-24.255-17.649-30.557L273.602,4.726
		c-10.918-6.302-24.37-6.3-35.287,0.006l-21.227,12.26V226.01h265.337v-0.001H482.426z"/>
	<path style="fill:#4173CD;" d="M169.646,44.393L47.19,115.119c-10.917,6.305-17.64,17.955-17.639,30.563l0.014,80.327h140.079
		V44.393H169.646z"/>
	<path style="fill:#4173CD;" d="M29.575,285.992l0.014,80.403c0.003,12.607,6.729,24.255,17.649,30.557l122.408,70.646V285.992
		H29.575z"/>
	<path style="fill:#4173CD;" d="M482.436,285.992H217.089v208.985l21.31,12.299c10.918,6.302,24.37,6.3,35.287-0.006
		l191.125-110.389c10.917-6.305,17.64-17.955,17.639-30.562L482.436,285.992z"/>
</g>
<g>
</g>
<g>
</g>
<g>
</g>
<g>
</g>
<g>
</g>
<g>
</g>
<g>
</g>
<g>
</g>
<g>
</g>
<g>
</g>
<g>
</g>
<g>
</g>
<g>
</g>
<g>
</g>
<g>
</g>
</svg>
