<?xml version="1.0" encoding="iso-8859-1"?>
<!-- Generator: Adobe Illustrator 19.0.0, SVG Export Plug-In . SVG Version: 6.00 Build 0)  -->
<svg version="1.1" id="Layer_1" xmlns="http://www.w3.org/2000/svg" xmlns:xlink="http://www.w3.org/1999/xlink" x="0px" y="0px"
	 viewBox="0 0 512 512" style="enable-background:new 0 0 512 512;" xml:space="preserve">
<path style="fill:#FFE15A;" d="M482.429,255.999l-0.019-110.395c-0.003-12.607-6.729-24.255-17.649-30.557L273.601,4.725
	c-10.919-6.302-24.371-6.3-35.286,0.006L47.189,115.118c-10.917,6.306-17.64,17.955-17.639,30.562l0.019,110.318l0.019,110.395
	c0.003,12.607,6.729,24.255,17.649,30.557l191.161,110.325c10.919,6.302,24.37,6.299,35.287-0.006L464.81,396.881
	c10.917-6.306,17.64-17.955,17.639-30.563L482.429,255.999z"/>
<path style="fill:#4173CD;" d="M482.41,145.606c-0.003-12.607-6.729-24.255-17.649-30.557L273.601,4.725
	c-10.919-6.302-24.371-6.3-35.286,0.006L47.189,115.118c-10.917,6.306-17.64,17.955-17.639,30.562l0.019,110.318h452.86
	L482.41,145.606z"/>
<g>
</g>
<g>
</g>
<g>
</g>
<g>
</g>
<g>
</g>
<g>
</g>
<g>
</g>
<g>
</g>
<g>
</g>
<g>
</g>
<g>
</g>
<g>
</g>
<g>
</g>
<g>
</g>
<g>
</g>
</svg>
