<?xml version="1.0" encoding="iso-8859-1"?>
<!-- Generator: Adobe Illustrator 19.0.0, SVG Export Plug-In . SVG Version: 6.00 Build 0)  -->
<svg xmlns="http://www.w3.org/2000/svg" xmlns:xlink="http://www.w3.org/1999/xlink" version="1.1" id="Layer_1" x="0px" y="0px" viewBox="0 0 512 512" style="enable-background:new 0 0 512 512;" xml:space="preserve">
<path style="fill:#FFD250;" d="M482.413,145.605c-0.001-6.832-1.992-13.374-5.54-18.945c-2.999-4.709-7.107-8.724-12.108-11.612  L273.603,4.725c-10.918-6.302-24.37-6.3-35.287,0.006L47.191,115.118c-4.975,2.873-9.065,6.864-12.059,11.542  c-3.575,5.587-5.581,12.158-5.58,19.021l0.036,220.713c0.001,6.832,1.992,13.374,5.54,18.945c2.999,4.709,7.107,8.725,12.108,11.612  l191.161,110.325c10.92,6.302,24.37,6.298,35.287-0.006l191.125-110.389c4.975-2.873,9.065-6.864,12.059-11.542  c3.577-5.587,5.581-12.158,5.58-19.021L482.413,145.605z"/>
<g>
	<path style="fill:#C8414B;" d="M47.239,396.951L238.4,507.276c10.92,6.302,24.37,6.298,35.287-0.006l191.125-110.389   c4.975-2.873,9.065-6.864,12.059-11.542H35.129C38.129,390.048,42.237,394.065,47.239,396.951z"/>
	<path style="fill:#C8414B;" d="M464.766,115.05L273.603,4.725c-10.918-6.302-24.37-6.3-35.287,0.006L47.191,115.118   c-4.975,2.873-9.065,6.864-12.059,11.542h441.742C473.874,121.953,469.767,117.936,464.766,115.05z"/>
	<path style="fill:#C8414B;" d="M234.955,256.264l8.923-40.15c0.822-3.698-1.992-7.206-5.78-7.206h-6.286   c-3.788,0-6.602,3.508-5.78,7.206L234.955,256.264z"/>
</g>
<rect x="224.43" y="235.21" style="fill:#F5F5F5;" width="21.05" height="89.45"/>
<rect x="219.17" y="224.69" style="fill:#FAB446;" width="31.566" height="10.523"/>
<g>
	<rect x="198.12" y="256.27" style="fill:#C8414B;" width="52.611" height="10.523"/>
	<polygon style="fill:#C8414B;" points="250.74,298.357 219.17,287.834 219.17,277.31 250.74,287.834  "/>
	<path style="fill:#C8414B;" d="M77.103,256.264l8.923-40.15c0.822-3.698-1.992-7.206-5.78-7.206H73.96   c-3.788,0-6.602,3.508-5.78,7.206L77.103,256.264z"/>
</g>
<path style="fill:#F5F5F5;" d="M113.935,224.693c-5.812,0-10.523,4.711-10.523,10.523v68.403c0,12.786,11.933,36.832,52.617,36.832  s52.617-24.046,52.617-36.832v-68.403c0-5.812-4.711-10.523-10.523-10.523H113.935z"/>
<g>
	<path style="fill:#C8414B;" d="M156.029,277.31h-52.617v-42.62c0-5.521,4.476-9.997,9.997-9.997h42.62V277.31z"/>
	<path style="fill:#C8414B;" d="M156.029,277.31h52.617v27.624c0,13.804-11.189,24.993-24.993,24.993h-2.631   c-13.804,0-24.993-11.189-24.993-24.993L156.029,277.31L156.029,277.31z"/>
</g>
<path style="fill:#FAB446;" d="M103.412,277.31h52.617v27.624c0,13.804-11.189,24.993-24.993,24.993h-2.631  c-13.804,0-24.993-11.189-24.993-24.993L103.412,277.31L103.412,277.31z"/>
<g>
	<path style="fill:#C8414B;" d="M145.505,324.547V277.31h-10.523v52.087C138.896,328.602,142.433,326.869,145.505,324.547z"/>
	<path style="fill:#C8414B;" d="M124.459,329.397V277.31h-10.523v47.237C117.008,326.869,120.545,328.602,124.459,329.397z"/>
</g>
<rect x="113.93" y="256.27" style="fill:#FFB441;" width="31.566" height="10.523"/>
<g>
	<rect x="113.93" y="235.21" style="fill:#FAB446;" width="31.566" height="10.523"/>
	<rect x="119.19" y="241.47" style="fill:#FAB446;" width="21.05" height="19.07"/>
</g>
<rect x="66.58" y="235.21" style="fill:#F5F5F5;" width="21.05" height="89.45"/>
<g>
	<rect x="61.32" y="319.4" style="fill:#FAB446;" width="31.566" height="10.523"/>
	<rect x="61.32" y="224.69" style="fill:#FAB446;" width="31.566" height="10.523"/>
</g>
<rect x="56.06" y="329.92" style="fill:#5064AA;" width="42.09" height="10.523"/>
<rect x="224.43" y="319.4" style="fill:#FAB446;" width="31.566" height="10.523"/>
<rect x="213.91" y="329.92" style="fill:#5064AA;" width="42.09" height="10.523"/>
<rect x="124.45" y="214.17" style="fill:#FAB446;" width="63.15" height="10.523"/>
<rect x="150.77" y="182.6" style="fill:#FFB441;" width="10.523" height="31.566"/>
<g>
	<path style="fill:#F5F5F5;" d="M145.505,198.384c-8.704,0-15.786-7.081-15.786-15.786c0-8.704,7.081-15.786,15.786-15.786   c8.704,0,15.786,7.081,15.786,15.786S154.211,198.384,145.505,198.384z M145.505,177.338c-2.903,0-5.262,2.358-5.262,5.261   s2.358,5.261,5.262,5.261c2.903,0,5.262-2.358,5.262-5.261S148.408,177.338,145.505,177.338z"/>
	<path style="fill:#F5F5F5;" d="M166.552,198.384c-8.704,0-15.786-7.081-15.786-15.786c0-8.704,7.081-15.786,15.786-15.786   c8.704,0,15.786,7.081,15.786,15.786S175.257,198.384,166.552,198.384z M166.552,177.338c-2.903,0-5.262,2.358-5.262,5.261   s2.358,5.261,5.262,5.261c2.903,0,5.261-2.358,5.261-5.261S169.455,177.338,166.552,177.338z"/>
	<path style="fill:#F5F5F5;" d="M187.599,208.908c-8.704,0-15.786-7.081-15.786-15.786c0-8.704,7.081-15.786,15.786-15.786   c8.704,0,15.786,7.081,15.786,15.786S196.304,208.908,187.599,208.908z M187.599,187.861c-2.903,0-5.262,2.358-5.262,5.262   c0,2.903,2.358,5.262,5.262,5.262c2.903,0,5.261-2.358,5.261-5.262C192.861,190.219,190.503,187.861,187.599,187.861z"/>
	<path style="fill:#F5F5F5;" d="M124.459,208.908c-8.704,0-15.786-7.081-15.786-15.786c0-8.704,7.081-15.786,15.786-15.786   c8.704,0,15.786,7.081,15.786,15.786C140.244,201.827,133.164,208.908,124.459,208.908z M124.459,187.861   c-2.903,0-5.261,2.358-5.261,5.262c0,2.903,2.358,5.262,5.261,5.262s5.262-2.358,5.262-5.262S127.362,187.861,124.459,187.861z"/>
</g>
<path style="fill:#FAB446;" d="M187.599,298.357v5.262c0,2.902-2.361,5.261-5.262,5.261c-2.902,0-5.261-2.361-5.261-5.261v-5.262  H187.599 M198.122,287.834h-31.57v15.786c0,8.704,7.082,15.786,15.786,15.786s15.786-7.082,15.786-15.786v-15.786H198.122z"/>
<path style="fill:#FFA0D2;" d="M182.864,266.787h-1.052c-5.521,0-9.997-4.476-9.997-9.997v-11.576c0-5.521,4.476-9.997,9.997-9.997  h1.052c5.521,0,9.997,4.476,9.997,9.997v11.576C192.861,262.311,188.385,266.787,182.864,266.787z"/>
<circle style="fill:#5064AA;" cx="156.03" cy="277.31" r="15.786"/>
<rect x="150.77" y="161.56" style="fill:#FAB446;" width="10.523" height="31.566"/>
<path style="fill:#C8414B;" d="M124.459,214.17l-10.523-10.523l6.165-6.165c9.529-9.529,22.453-14.882,35.929-14.882l0,0  c13.476,0,26.4,5.354,35.929,14.882l6.165,6.165l-10.523,10.523H124.459z"/>
<g>
	<circle style="fill:#FFD250;" cx="156.03" cy="203.64" r="5.261"/>
	<circle style="fill:#FFD250;" cx="134.98" cy="203.64" r="5.261"/>
	<circle style="fill:#FFD250;" cx="177.08" cy="203.64" r="5.261"/>
</g>
<g>
	<rect x="61.32" y="256.27" style="fill:#C8414B;" width="52.611" height="10.523"/>
	<polygon style="fill:#C8414B;" points="61.318,298.357 92.889,287.834 92.889,277.31 61.318,287.834  "/>
</g>
<g>
</g>
<g>
</g>
<g>
</g>
<g>
</g>
<g>
</g>
<g>
</g>
<g>
</g>
<g>
</g>
<g>
</g>
<g>
</g>
<g>
</g>
<g>
</g>
<g>
</g>
<g>
</g>
<g>
</g>
</svg>
